<?xml version="1.0" encoding="UTF-8" standalone="no"?>
<!-- Created with Inkscape (http://www.inkscape.org/) -->

<svg
   viewBox="0 0 125 125"
   version="1.1"
   id="svg15862"
   xmlns="http://www.w3.org/2000/svg"
   xmlns:svg="http://www.w3.org/2000/svg">
  <defs id="defs15832">
  </defs>
  <g
     id="layer12"
     transform="translate(384.91458,244.7005)">
    <g
       id="g1422"
       transform="matrix(0.14687403,0,0,-0.14687404,-454.60106,-56.913365)">
      <rect
          class="fill"
         style="fill-opacity:0.5;stroke:none;stroke-width:8.20235;stroke-miterlimit:10;paint-order:markers fill stroke"
         id="rect49552"
         width="138.53278"
         height="112.42081"
         x="830.8808"
         y="-1105.8652"
         transform="scale(1,-1)" />
      <g
         id="g1442"
         transform="translate(-6.2041418e-5,-23.82358)">
        <g
           id="g2022"
           transform="translate(941.1938,643.9735)">
          <path
             d="m 0,0 c 0.25,4.747 -0.957,8.006 -4.716,10.999 -3.315,2.64 -6.027,6.101 -8.754,9.406 C -25.92,35.497 -34.785,52.533 -41.194,71.892 -47.603,52.533 -56.467,35.497 -68.918,20.405 -71.645,17.1 -74.357,13.639 -77.672,10.999 -81.431,8.006 -82.638,4.747 -82.388,0 c 1.696,-32.238 2.96,-64.533 10.37,-96.117 2.256,-9.613 5.932,-18.892 8.992,-28.431 7.382,2.346 14.573,3.581 21.832,3.662 7.259,-0.081 14.451,-1.316 21.832,-3.662 3.06,9.539 6.736,18.818 8.992,28.431 C -2.96,-64.533 -1.696,-32.238 0,0"
             style="fill:#1c253c;fill-opacity:1;fill-rule:nonzero;stroke:none"
             id="path2042" />
        </g>
        <g
           id="g2102"
           transform="translate(912.8077,1040.3585)">
          <path
             style="fill:#1c253c;fill-opacity:1;fill-rule:nonzero;stroke:none"
             id="path2122"
             d="m 0,0 c -1.36,-1.811 -2.732,-3.637 -4.118,-5.483 -0.809,-1.078 -1.629,-2.169 -2.458,-3.273 -1.653,-2.202 -3.342,-4.451 -5.119,-6.817 -0.555,-0.738 -1.671,-0.738 -2.225,0 0,0 0,0 0,0 -0.734,0.977 -1.439,1.916 -2.148,2.86 -0.347,0.462 -0.704,0.937 -1.045,1.392 -1.502,2 -2.953,3.931 -4.385,5.838 -1.386,1.846 -2.758,3.672 -4.118,5.483 -0.686,0.914 -0.034,2.218 1.109,2.218 h 11.699 11.699 C 0.034,2.218 0.686,0.914 0,0 m -36.788,43.406 c -0.254,-4.131 -2.092,-7.046 -5.994,-8.816 -8.634,-3.915 -19.891,-1.203 -26.142,6.439 -4.814,5.884 -6.323,12.826 -6.693,21.612 0.44,2.504 0.864,6.452 1.855,10.252 2.369,9.077 6.09,10.751 14.735,6.98 14.183,-6.186 23.192,-20.965 22.239,-36.467 m 70.2,36.467 c 8.644,3.771 12.365,2.097 14.734,-6.98 0.992,-3.8 1.415,-7.748 1.855,-10.252 C 49.631,53.855 48.122,46.913 43.309,41.029 37.057,33.387 25.8,30.675 17.166,34.59 c -3.902,1.77 -5.74,4.685 -5.994,8.816 -0.953,15.502 8.057,30.281 22.24,36.467 m 54.112,-600.987 c -17.851,11.947 -24.907,28.724 -24.134,49.829 0.713,19.46 5.463,38.052 11.027,56.433 13.299,43.937 20.833,88.594 18.061,134.618 -1.912,31.732 -3.678,63.491 -6.623,95.135 -1.857,19.967 -5.666,39.759 -8.854,59.589 -0.533,3.31 -2.367,6.41 -3.6,9.607 -0.691,-0.023 -1.382,-0.046 -2.074,-0.069 -12.892,-49.196 -36.791,-93.468 -60.934,-137.718 1.736,8.31 4.092,16.414 7.248,24.195 12.958,31.952 26.954,63.508 39.025,95.787 10.014,26.779 19.569,53.927 20.54,83.105 0.305,9.182 -1.772,14.789 -8.279,18.027 -12.23,-10.082 -24.569,-20.254 -37.001,-30.502 0.245,5.739 2.608,10.561 6.733,14.417 4.014,3.754 8.066,7.553 12.539,10.714 19.338,13.669 28.943,32.769 30.829,55.834 1.555,19.007 2.536,38.08 3.121,57.144 0.738,24.084 4.079,47.448 14.126,69.681 8.014,17.732 14.051,36.151 15.401,55.811 1.08,15.736 -0.698,31.24 -2.872,47.767 -1.014,-1.552 -1.386,-2.101 -1.738,-2.662 C 102.052,232.847 95.5,218.794 85.709,207.563 68.461,187.776 49.276,169.671 30.741,151.022 c -1.117,-1.123 -3.806,-1.503 -5.504,-1.109 -12.69,2.947 -25.366,4.43 -38.045,4.494 -12.679,-0.064 -25.355,-1.547 -38.044,-4.494 -1.698,-0.394 -4.388,-0.014 -5.505,1.109 -18.535,18.649 -37.72,36.754 -54.968,56.541 -9.79,11.231 -16.343,25.284 -24.356,38.065 -0.352,0.561 -0.723,1.11 -1.738,2.662 -2.174,-16.527 -3.952,-32.031 -2.871,-47.767 1.35,-19.66 7.387,-38.079 15.4,-55.811 10.047,-22.233 13.389,-45.597 14.127,-69.681 0.584,-19.064 1.566,-38.137 3.12,-57.144 1.887,-23.065 11.491,-42.165 30.83,-55.834 4.472,-3.161 8.525,-6.96 12.539,-10.714 4.124,-3.856 6.488,-8.678 6.732,-14.417 -12.432,10.248 -24.771,20.42 -37.001,30.502 -6.506,-3.238 -8.584,-8.845 -8.278,-18.027 0.97,-29.178 10.525,-56.326 20.54,-83.105 12.071,-32.279 26.067,-63.835 39.025,-95.787 3.155,-7.781 5.511,-15.885 7.247,-24.195 -24.142,44.25 -48.042,88.522 -60.934,137.718 -0.691,0.023 -1.383,0.046 -2.074,0.069 -1.233,-3.197 -3.067,-6.297 -3.599,-9.607 -3.189,-19.83 -6.997,-39.622 -8.855,-59.589 -2.944,-31.644 -4.711,-63.403 -6.623,-95.135 -2.772,-46.024 4.762,-90.681 18.062,-134.618 5.563,-18.381 10.313,-36.973 11.026,-56.433 0.773,-21.105 -6.283,-37.882 -24.134,-49.829 -3.669,-2.455 -6.738,-5.851 -9.924,-8.976 -6.084,-5.968 -6.38,-13.367 -4.828,-21.106 0.843,-4.203 3.882,-7.041 7.718,-7.294 4.085,-0.269 8.351,0.925 12.417,1.958 4.934,1.254 5.103,5.285 5.557,9.638 1.035,9.923 4.403,19.147 11.409,26.525 2.816,2.965 6.39,5.21 9.62,7.782 0.3,-0.363 0.601,-0.726 0.902,-1.089 -2.934,-5.173 -5.824,-10.371 -8.812,-15.512 -4.525,-7.785 -6.58,-16.172 -6.311,-25.146 0.279,-9.264 6.856,-14.93 16.007,-13.763 2.184,0.279 4.348,0.713 6.753,1.114 -4.115,17.793 -2.478,34.182 11.314,47.62 -1.884,-7.786 -4.395,-15.489 -5.451,-23.387 -0.824,-6.168 -0.785,-12.787 0.555,-18.832 2.125,-9.586 10.935,-14.651 20.361,-13.28 5.046,0.735 8.442,3.415 9.233,8.334 1.975,12.28 3.629,24.931 -1.859,36.529 -14.337,30.297 -18.616,62.655 -20.676,95.487 -1.28,20.418 -2.809,40.909 -2.351,61.325 0.623,27.745 -4.668,54.223 -13.343,80.237 -2.105,6.314 -5.337,12.249 -8.001,18.38 -0.449,1.034 -0.643,2.18 -0.539,3.453 9.345,-12.163 17.741,-24.721 21.065,-40.099 4.212,-19.486 8.172,-38.969 8.309,-59.033 0.014,-2.001 1.63,-3.991 2.832,-6.738 18.32,19.963 26.966,43.989 38.375,68.333 11.41,-24.344 20.055,-48.37 38.376,-68.333 1.201,2.747 2.817,4.737 2.831,6.738 0.137,20.064 4.098,39.547 8.31,59.033 3.324,15.378 11.72,27.936 21.065,40.099 0.103,-1.273 -0.09,-2.419 -0.54,-3.453 -2.664,-6.131 -5.895,-12.066 -8.001,-18.38 -8.675,-26.014 -13.966,-52.492 -13.343,-80.237 0.459,-20.416 -1.07,-40.907 -2.351,-61.325 -2.06,-32.832 -6.338,-65.19 -20.676,-95.487 -5.488,-11.598 -3.833,-24.249 -1.859,-36.529 0.791,-4.919 4.187,-7.599 9.233,-8.334 9.427,-1.371 18.236,3.694 20.361,13.28 1.34,6.045 1.38,12.664 0.555,18.832 -1.056,7.898 -3.567,15.601 -5.451,23.387 13.793,-13.438 15.429,-29.827 11.315,-47.62 2.404,-0.401 4.568,-0.835 6.752,-1.114 9.151,-1.167 15.729,4.499 16.007,13.763 0.27,8.974 -1.786,17.361 -6.311,25.146 -2.988,5.141 -5.877,10.339 -8.811,15.512 0.3,0.363 0.601,0.726 0.902,1.089 3.229,-2.572 6.804,-4.817 9.619,-7.782 7.007,-7.378 10.375,-16.602 11.41,-26.525 0.454,-4.353 0.622,-8.384 5.557,-9.638 4.065,-1.033 8.331,-2.227 12.417,-1.958 3.836,0.253 6.874,3.091 7.717,7.294 1.552,7.739 1.256,15.138 -4.828,21.106 -3.185,3.125 -6.255,6.521 -9.924,8.976">
            <animate
               id="anim2"
               attributeName="d"
               dur="1s"
               begin="20s; anim2.end+20s"
               values="m 0,0 c -1.36,-1.811 -2.732,-3.637 -4.118,-5.483 -0.809,-1.078 -1.629,-2.169 -2.458,-3.273 -1.653,-2.202 -3.342,-4.451 -5.119,-6.817 -0.555,-0.738 -1.671,-0.738 -2.225,0 0,0 0,0 0,0 -0.734,0.977 -1.439,1.916 -2.148,2.86 -0.347,0.462 -0.704,0.937 -1.045,1.392 -1.502,2 -2.953,3.931 -4.385,5.838 -1.386,1.846 -2.758,3.672 -4.118,5.483 -0.686,0.914 -0.034,2.218 1.109,2.218 h 11.699 11.699 C 0.034,2.218 0.686,0.914 0,0 m -36.788,43.406 c -0.254,-4.131 -2.092,-7.046 -5.994,-8.816 -8.634,-3.915 -19.891,-1.203 -26.142,6.439 -4.814,5.884 -6.323,12.826 -6.693,21.612 0.44,2.504 0.864,6.452 1.855,10.252 2.369,9.077 6.09,10.751 14.735,6.98 14.183,-6.186 23.192,-20.965 22.239,-36.467 m 70.2,36.467 c 8.644,3.771 12.365,2.097 14.734,-6.98 0.992,-3.8 1.415,-7.748 1.855,-10.252 C 49.631,53.855 48.122,46.913 43.309,41.029 37.057,33.387 25.8,30.675 17.166,34.59 c -3.902,1.77 -5.74,4.685 -5.994,8.816 -0.953,15.502 8.057,30.281 22.24,36.467 m 54.112,-600.987 c -17.851,11.947 -24.907,28.724 -24.134,49.829 0.713,19.46 5.463,38.052 11.027,56.433 13.299,43.937 20.833,88.594 18.061,134.618 -1.912,31.732 -3.678,63.491 -6.623,95.135 -1.857,19.967 -5.666,39.759 -8.854,59.589 -0.533,3.31 -2.367,6.41 -3.6,9.607 -0.691,-0.023 -1.382,-0.046 -2.074,-0.069 -12.892,-49.196 -36.791,-93.468 -60.934,-137.718 1.736,8.31 4.092,16.414 7.248,24.195 12.958,31.952 26.954,63.508 39.025,95.787 10.014,26.779 19.569,53.927 20.54,83.105 0.305,9.182 -1.772,14.789 -8.279,18.027 -12.23,-10.082 -24.569,-20.254 -37.001,-30.502 0.245,5.739 2.608,10.561 6.733,14.417 4.014,3.754 8.066,7.553 12.539,10.714 19.338,13.669 28.943,32.769 30.829,55.834 1.555,19.007 2.536,38.08 3.121,57.144 0.738,24.084 4.079,47.448 14.126,69.681 8.014,17.732 14.051,36.151 15.401,55.811 1.08,15.736 -0.698,31.24 -2.872,47.767 -1.014,-1.552 -1.386,-2.101 -1.738,-2.662 C 102.052,232.847 95.5,218.794 85.709,207.563 68.461,187.776 49.276,169.671 30.741,151.022 c -1.117,-1.123 -3.806,-1.503 -5.504,-1.109 -12.69,2.947 -25.366,4.43 -38.045,4.494 -12.679,-0.064 -25.355,-1.547 -38.044,-4.494 -1.698,-0.394 -4.388,-0.014 -5.505,1.109 -18.535,18.649 -37.72,36.754 -54.968,56.541 -9.79,11.231 -16.343,25.284 -24.356,38.065 -0.352,0.561 -0.723,1.11 -1.738,2.662 -2.174,-16.527 -3.952,-32.031 -2.871,-47.767 1.35,-19.66 7.387,-38.079 15.4,-55.811 10.047,-22.233 13.389,-45.597 14.127,-69.681 0.584,-19.064 1.566,-38.137 3.12,-57.144 1.887,-23.065 11.491,-42.165 30.83,-55.834 4.472,-3.161 8.525,-6.96 12.539,-10.714 4.124,-3.856 6.488,-8.678 6.732,-14.417 -12.432,10.248 -24.771,20.42 -37.001,30.502 -6.506,-3.238 -8.584,-8.845 -8.278,-18.027 0.97,-29.178 10.525,-56.326 20.54,-83.105 12.071,-32.279 26.067,-63.835 39.025,-95.787 3.155,-7.781 5.511,-15.885 7.247,-24.195 -24.142,44.25 -48.042,88.522 -60.934,137.718 -0.691,0.023 -1.383,0.046 -2.074,0.069 -1.233,-3.197 -3.067,-6.297 -3.599,-9.607 -3.189,-19.83 -6.997,-39.622 -8.855,-59.589 -2.944,-31.644 -4.711,-63.403 -6.623,-95.135 -2.772,-46.024 4.762,-90.681 18.062,-134.618 5.563,-18.381 10.313,-36.973 11.026,-56.433 0.773,-21.105 -6.283,-37.882 -24.134,-49.829 -3.669,-2.455 -6.738,-5.851 -9.924,-8.976 -6.084,-5.968 -6.38,-13.367 -4.828,-21.106 0.843,-4.203 3.882,-7.041 7.718,-7.294 4.085,-0.269 8.351,0.925 12.417,1.958 4.934,1.254 5.103,5.285 5.557,9.638 1.035,9.923 4.403,19.147 11.409,26.525 2.816,2.965 6.39,5.21 9.62,7.782 0.3,-0.363 0.601,-0.726 0.902,-1.089 -2.934,-5.173 -5.824,-10.371 -8.812,-15.512 -4.525,-7.785 -6.58,-16.172 -6.311,-25.146 0.279,-9.264 6.856,-14.93 16.007,-13.763 2.184,0.279 4.348,0.713 6.753,1.114 -4.115,17.793 -2.478,34.182 11.314,47.62 -1.884,-7.786 -4.395,-15.489 -5.451,-23.387 -0.824,-6.168 -0.785,-12.787 0.555,-18.832 2.125,-9.586 10.935,-14.651 20.361,-13.28 5.046,0.735 8.442,3.415 9.233,8.334 1.975,12.28 3.629,24.931 -1.859,36.529 -14.337,30.297 -18.616,62.655 -20.676,95.487 -1.28,20.418 -2.809,40.909 -2.351,61.325 0.623,27.745 -4.668,54.223 -13.343,80.237 -2.105,6.314 -5.337,12.249 -8.001,18.38 -0.449,1.034 -0.643,2.18 -0.539,3.453 9.345,-12.163 17.741,-24.721 21.065,-40.099 4.212,-19.486 8.172,-38.969 8.309,-59.033 0.014,-2.001 1.63,-3.991 2.832,-6.738 18.32,19.963 26.966,43.989 38.375,68.333 11.41,-24.344 20.055,-48.37 38.376,-68.333 1.201,2.747 2.817,4.737 2.831,6.738 0.137,20.064 4.098,39.547 8.31,59.033 3.324,15.378 11.72,27.936 21.065,40.099 0.103,-1.273 -0.09,-2.419 -0.54,-3.453 -2.664,-6.131 -5.895,-12.066 -8.001,-18.38 -8.675,-26.014 -13.966,-52.492 -13.343,-80.237 0.459,-20.416 -1.07,-40.907 -2.351,-61.325 -2.06,-32.832 -6.338,-65.19 -20.676,-95.487 -5.488,-11.598 -3.833,-24.249 -1.859,-36.529 0.791,-4.919 4.187,-7.599 9.233,-8.334 9.427,-1.371 18.236,3.694 20.361,13.28 1.34,6.045 1.38,12.664 0.555,18.832 -1.056,7.898 -3.567,15.601 -5.451,23.387 13.793,-13.438 15.429,-29.827 11.315,-47.62 2.404,-0.401 4.568,-0.835 6.752,-1.114 9.151,-1.167 15.729,4.499 16.007,13.763 0.27,8.974 -1.786,17.361 -6.311,25.146 -2.988,5.141 -5.877,10.339 -8.811,15.512 0.3,0.363 0.601,0.726 0.902,1.089 3.229,-2.572 6.804,-4.817 9.619,-7.782 7.007,-7.378 10.375,-16.602 11.41,-26.525 0.454,-4.353 0.622,-8.384 5.557,-9.638 4.065,-1.033 8.331,-2.227 12.417,-1.958 3.836,0.253 6.874,3.091 7.717,7.294 1.552,7.739 1.256,15.138 -4.828,21.106 -3.185,3.125 -6.255,6.521 -9.924,8.976;                m 0,0 c -1.36,-1.811 -2.732,-3.637 -4.118,-5.483 -0.809,-1.078 -1.629,-2.169 -2.458,-3.273 -1.653,-2.202 -3.342,-4.451 -5.119,-6.817 -0.555,-0.738 -1.671,-0.738 -2.225,0 v 0 c -0.734,0.977 -1.439,1.916 -2.148,2.86 -0.347,0.462 -0.704,0.937 -1.045,1.392 -1.502,2 -2.953,3.931 -4.385,5.838 -1.386,1.846 -2.758,3.672 -4.118,5.483 -0.686,0.914 -0.034,2.218 1.109,2.218 h 11.699 11.699 C 0.034,2.218 0.686,0.914 0,0 m -36.788,43.406 c -0.254,-4.131 -2.092,-7.046 -5.994,-8.816 -8.634,-3.915 -19.891,-1.203 -26.142,6.439 -4.814,5.884 -4.940371,9.891292 -4.940371,9.891292 l 0.102371,0.174382 c 1.273607,3.709573 1.051191,-9.623315 15.611315,-15.366023 19.221809,-6.186 21.110752,9.81555 21.362685,7.677349 m 70.2,36.467 c 8.644,3.771 12.365,2.097 14.734,-6.98 0.992,-3.8 1.415,-7.748 1.855,-10.252 C 49.631,53.855 48.122,46.913 43.309,41.029 37.057,33.387 25.8,30.675 17.166,34.59 c -3.902,1.77 -5.74,4.685 -5.994,8.816 -0.953,15.502 8.057,30.281 22.24,36.467 m 54.112,-600.987 c -17.851,11.947 -24.907,28.724 -24.134,49.829 0.713,19.46 5.463,38.052 11.027,56.433 13.299,43.937 20.833,88.594 18.061,134.618 -1.912,31.732 -3.678,63.491 -6.623,95.135 -1.857,19.967 -5.666,39.759 -8.854,59.589 -0.533,3.31 -2.367,6.41 -3.6,9.607 -0.691,-0.023 -1.382,-0.046 -2.074,-0.069 -12.892,-49.196 -36.791,-93.468 -60.934,-137.718 1.736,8.31 4.092,16.414 7.248,24.195 12.958,31.952 26.954,63.508 39.025,95.787 10.014,26.779 19.569,53.927 20.54,83.105 0.305,9.182 -1.772,14.789 -8.279,18.027 -12.23,-10.082 -24.569,-20.254 -37.001,-30.502 0.245,5.739 2.608,10.561 6.733,14.417 4.014,3.754 8.066,7.553 12.539,10.714 19.338,13.669 28.943,32.769 30.829,55.834 1.555,19.007 2.536,38.08 3.121,57.144 0.738,24.084 4.079,47.448 14.126,69.681 8.014,17.732 14.051,36.151 15.401,55.811 1.08,15.736 -0.698,31.24 -2.872,47.767 -1.014,-1.552 -1.386,-2.101 -1.738,-2.662 C 102.052,232.847 95.5,218.794 85.709,207.563 68.461,187.776 49.276,169.671 30.741,151.022 c -1.117,-1.123 -3.806,-1.503 -5.504,-1.109 -12.69,2.947 -25.366,4.43 -38.045,4.494 -12.679,-0.064 -25.355,-1.547 -38.044,-4.494 -1.698,-0.394 -4.388,-0.014 -5.505,1.109 -18.535,18.649 -37.72,36.754 -54.968,56.541 -9.79,11.231 -16.343,25.284 -24.356,38.065 -0.352,0.561 -0.723,1.11 -1.738,2.662 -2.174,-16.527 -3.952,-32.031 -2.871,-47.767 1.35,-19.66 7.387,-38.079 15.4,-55.811 10.047,-22.233 13.389,-45.597 14.127,-69.681 0.584,-19.064 1.566,-38.137 3.12,-57.144 1.887,-23.065 11.491,-42.165 30.83,-55.834 4.472,-3.161 8.525,-6.96 12.539,-10.714 4.124,-3.856 6.488,-8.678 6.732,-14.417 -12.432,10.248 -24.771,20.42 -37.001,30.502 -6.506,-3.238 -8.584,-8.845 -8.278,-18.027 0.97,-29.178 10.525,-56.326 20.54,-83.105 12.071,-32.279 26.067,-63.835 39.025,-95.787 3.155,-7.781 5.511,-15.885 7.247,-24.195 -24.142,44.25 -48.042,88.522 -60.934,137.718 -0.691,0.023 -1.383,0.046 -2.074,0.069 -1.233,-3.197 -3.067,-6.297 -3.599,-9.607 -3.189,-19.83 -6.997,-39.622 -8.855,-59.589 -2.944,-31.644 -4.711,-63.403 -6.623,-95.135 -2.772,-46.024 4.762,-90.681 18.062,-134.618 5.563,-18.381 10.313,-36.973 11.026,-56.433 0.773,-21.105 -6.283,-37.882 -24.134,-49.829 -3.669,-2.455 -6.738,-5.851 -9.924,-8.976 -6.084,-5.968 -6.38,-13.367 -4.828,-21.106 0.843,-4.203 3.882,-7.041 7.718,-7.294 4.085,-0.269 8.351,0.925 12.417,1.958 4.934,1.254 5.103,5.285 5.557,9.638 1.035,9.923 4.403,19.147 11.409,26.525 2.816,2.965 6.39,5.21 9.62,7.782 0.3,-0.363 0.601,-0.726 0.902,-1.089 -2.934,-5.173 -5.824,-10.371 -8.812,-15.512 -4.525,-7.785 -6.58,-16.172 -6.311,-25.146 0.279,-9.264 6.856,-14.93 16.007,-13.763 2.184,0.279 4.348,0.713 6.753,1.114 -4.115,17.793 -2.478,34.182 11.314,47.62 -1.884,-7.786 -4.395,-15.489 -5.451,-23.387 -0.824,-6.168 -0.785,-12.787 0.555,-18.832 2.125,-9.586 10.935,-14.651 20.361,-13.28 5.046,0.735 8.442,3.415 9.233,8.334 1.975,12.28 3.629,24.931 -1.859,36.529 -14.337,30.297 -18.616,62.655 -20.676,95.487 -1.28,20.418 -2.809,40.909 -2.351,61.325 0.623,27.745 -4.668,54.223 -13.343,80.237 -2.105,6.314 -5.337,12.249 -8.001,18.38 -0.449,1.034 -0.643,2.18 -0.539,3.453 9.345,-12.163 17.741,-24.721 21.065,-40.099 4.212,-19.486 8.172,-38.969 8.309,-59.033 0.014,-2.001 1.63,-3.991 2.832,-6.738 18.32,19.963 26.966,43.989 38.375,68.333 11.41,-24.344 20.055,-48.37 38.376,-68.333 1.201,2.747 2.817,4.737 2.831,6.738 0.137,20.064 4.098,39.547 8.31,59.033 3.324,15.378 11.72,27.936 21.065,40.099 0.103,-1.273 -0.09,-2.419 -0.54,-3.453 -2.664,-6.131 -5.895,-12.066 -8.001,-18.38 -8.675,-26.014 -13.966,-52.492 -13.343,-80.237 0.459,-20.416 -1.07,-40.907 -2.351,-61.325 -2.06,-32.832 -6.338,-65.19 -20.676,-95.487 -5.488,-11.598 -3.833,-24.249 -1.859,-36.529 0.791,-4.919 4.187,-7.599 9.233,-8.334 9.427,-1.371 18.236,3.694 20.361,13.28 1.34,6.045 1.38,12.664 0.555,18.832 -1.056,7.898 -3.567,15.601 -5.451,23.387 13.793,-13.438 15.429,-29.827 11.315,-47.62 2.404,-0.401 4.568,-0.835 6.752,-1.114 9.151,-1.167 15.729,4.499 16.007,13.763 0.27,8.974 -1.786,17.361 -6.311,25.146 -2.988,5.141 -5.877,10.339 -8.811,15.512 0.3,0.363 0.601,0.726 0.902,1.089 3.229,-2.572 6.804,-4.817 9.619,-7.782 7.007,-7.378 10.375,-16.602 11.41,-26.525 0.454,-4.353 0.622,-8.384 5.557,-9.638 4.065,-1.033 8.331,-2.227 12.417,-1.958 3.836,0.253 6.874,3.091 7.717,7.294 1.552,7.739 1.256,15.138 -4.828,21.106 -3.185,3.125 -6.255,6.521 -9.924,8.976;                m 0,0 c -1.36,-1.811 -2.732,-3.637 -4.118,-5.483 -0.809,-1.078 -1.629,-2.169 -2.458,-3.273 -1.653,-2.202 -3.342,-4.451 -5.119,-6.817 -0.555,-0.738 -1.671,-0.738 -2.225,0 0,0 0,0 0,0 -0.734,0.977 -1.439,1.916 -2.148,2.86 -0.347,0.462 -0.704,0.937 -1.045,1.392 -1.502,2 -2.953,3.931 -4.385,5.838 -1.386,1.846 -2.758,3.672 -4.118,5.483 -0.686,0.914 -0.034,2.218 1.109,2.218 h 11.699 11.699 C 0.034,2.218 0.686,0.914 0,0 m -36.788,43.406 c -0.254,-4.131 -2.092,-7.046 -5.994,-8.816 -8.634,-3.915 -19.891,-1.203 -26.142,6.439 -4.814,5.884 -6.323,12.826 -6.693,21.612 0.44,2.504 0.864,6.452 1.855,10.252 2.369,9.077 6.09,10.751 14.735,6.98 14.183,-6.186 23.192,-20.965 22.239,-36.467 m 70.2,36.467 c 8.644,3.771 12.365,2.097 14.734,-6.98 0.992,-3.8 1.415,-7.748 1.855,-10.252 C 49.631,53.855 48.122,46.913 43.309,41.029 37.057,33.387 25.8,30.675 17.166,34.59 c -3.902,1.77 -5.74,4.685 -5.994,8.816 -0.953,15.502 8.057,30.281 22.24,36.467 m 54.112,-600.987 c -17.851,11.947 -24.907,28.724 -24.134,49.829 0.713,19.46 5.463,38.052 11.027,56.433 13.299,43.937 20.833,88.594 18.061,134.618 -1.912,31.732 -3.678,63.491 -6.623,95.135 -1.857,19.967 -5.666,39.759 -8.854,59.589 -0.533,3.31 -2.367,6.41 -3.6,9.607 -0.691,-0.023 -1.382,-0.046 -2.074,-0.069 -12.892,-49.196 -36.791,-93.468 -60.934,-137.718 1.736,8.31 4.092,16.414 7.248,24.195 12.958,31.952 26.954,63.508 39.025,95.787 10.014,26.779 19.569,53.927 20.54,83.105 0.305,9.182 -1.772,14.789 -8.279,18.027 -12.23,-10.082 -24.569,-20.254 -37.001,-30.502 0.245,5.739 2.608,10.561 6.733,14.417 4.014,3.754 8.066,7.553 12.539,10.714 19.338,13.669 28.943,32.769 30.829,55.834 1.555,19.007 2.536,38.08 3.121,57.144 0.738,24.084 4.079,47.448 14.126,69.681 8.014,17.732 14.051,36.151 15.401,55.811 1.08,15.736 -0.698,31.24 -2.872,47.767 -1.014,-1.552 -1.386,-2.101 -1.738,-2.662 C 102.052,232.847 95.5,218.794 85.709,207.563 68.461,187.776 49.276,169.671 30.741,151.022 c -1.117,-1.123 -3.806,-1.503 -5.504,-1.109 -12.69,2.947 -25.366,4.43 -38.045,4.494 -12.679,-0.064 -25.355,-1.547 -38.044,-4.494 -1.698,-0.394 -4.388,-0.014 -5.505,1.109 -18.535,18.649 -37.72,36.754 -54.968,56.541 -9.79,11.231 -16.343,25.284 -24.356,38.065 -0.352,0.561 -0.723,1.11 -1.738,2.662 -2.174,-16.527 -3.952,-32.031 -2.871,-47.767 1.35,-19.66 7.387,-38.079 15.4,-55.811 10.047,-22.233 13.389,-45.597 14.127,-69.681 0.584,-19.064 1.566,-38.137 3.12,-57.144 1.887,-23.065 11.491,-42.165 30.83,-55.834 4.472,-3.161 8.525,-6.96 12.539,-10.714 4.124,-3.856 6.488,-8.678 6.732,-14.417 -12.432,10.248 -24.771,20.42 -37.001,30.502 -6.506,-3.238 -8.584,-8.845 -8.278,-18.027 0.97,-29.178 10.525,-56.326 20.54,-83.105 12.071,-32.279 26.067,-63.835 39.025,-95.787 3.155,-7.781 5.511,-15.885 7.247,-24.195 -24.142,44.25 -48.042,88.522 -60.934,137.718 -0.691,0.023 -1.383,0.046 -2.074,0.069 -1.233,-3.197 -3.067,-6.297 -3.599,-9.607 -3.189,-19.83 -6.997,-39.622 -8.855,-59.589 -2.944,-31.644 -4.711,-63.403 -6.623,-95.135 -2.772,-46.024 4.762,-90.681 18.062,-134.618 5.563,-18.381 10.313,-36.973 11.026,-56.433 0.773,-21.105 -6.283,-37.882 -24.134,-49.829 -3.669,-2.455 -6.738,-5.851 -9.924,-8.976 -6.084,-5.968 -6.38,-13.367 -4.828,-21.106 0.843,-4.203 3.882,-7.041 7.718,-7.294 4.085,-0.269 8.351,0.925 12.417,1.958 4.934,1.254 5.103,5.285 5.557,9.638 1.035,9.923 4.403,19.147 11.409,26.525 2.816,2.965 6.39,5.21 9.62,7.782 0.3,-0.363 0.601,-0.726 0.902,-1.089 -2.934,-5.173 -5.824,-10.371 -8.812,-15.512 -4.525,-7.785 -6.58,-16.172 -6.311,-25.146 0.279,-9.264 6.856,-14.93 16.007,-13.763 2.184,0.279 4.348,0.713 6.753,1.114 -4.115,17.793 -2.478,34.182 11.314,47.62 -1.884,-7.786 -4.395,-15.489 -5.451,-23.387 -0.824,-6.168 -0.785,-12.787 0.555,-18.832 2.125,-9.586 10.935,-14.651 20.361,-13.28 5.046,0.735 8.442,3.415 9.233,8.334 1.975,12.28 3.629,24.931 -1.859,36.529 -14.337,30.297 -18.616,62.655 -20.676,95.487 -1.28,20.418 -2.809,40.909 -2.351,61.325 0.623,27.745 -4.668,54.223 -13.343,80.237 -2.105,6.314 -5.337,12.249 -8.001,18.38 -0.449,1.034 -0.643,2.18 -0.539,3.453 9.345,-12.163 17.741,-24.721 21.065,-40.099 4.212,-19.486 8.172,-38.969 8.309,-59.033 0.014,-2.001 1.63,-3.991 2.832,-6.738 18.32,19.963 26.966,43.989 38.375,68.333 11.41,-24.344 20.055,-48.37 38.376,-68.333 1.201,2.747 2.817,4.737 2.831,6.738 0.137,20.064 4.098,39.547 8.31,59.033 3.324,15.378 11.72,27.936 21.065,40.099 0.103,-1.273 -0.09,-2.419 -0.54,-3.453 -2.664,-6.131 -5.895,-12.066 -8.001,-18.38 -8.675,-26.014 -13.966,-52.492 -13.343,-80.237 0.459,-20.416 -1.07,-40.907 -2.351,-61.325 -2.06,-32.832 -6.338,-65.19 -20.676,-95.487 -5.488,-11.598 -3.833,-24.249 -1.859,-36.529 0.791,-4.919 4.187,-7.599 9.233,-8.334 9.427,-1.371 18.236,3.694 20.361,13.28 1.34,6.045 1.38,12.664 0.555,18.832 -1.056,7.898 -3.567,15.601 -5.451,23.387 13.793,-13.438 15.429,-29.827 11.315,-47.62 2.404,-0.401 4.568,-0.835 6.752,-1.114 9.151,-1.167 15.729,4.499 16.007,13.763 0.27,8.974 -1.786,17.361 -6.311,25.146 -2.988,5.141 -5.877,10.339 -8.811,15.512 0.3,0.363 0.601,0.726 0.902,1.089 3.229,-2.572 6.804,-4.817 9.619,-7.782 7.007,-7.378 10.375,-16.602 11.41,-26.525 0.454,-4.353 0.622,-8.384 5.557,-9.638 4.065,-1.033 8.331,-2.227 12.417,-1.958 3.836,0.253 6.874,3.091 7.717,7.294 1.552,7.739 1.256,15.138 -4.828,21.106 -3.185,3.125 -6.255,6.521 -9.924,8.976" />
          </path>
        </g>
        <g
           id="g2422"
           transform="translate(1031.1523,557.1969)">
          <path
             d="m 0,0 c -2.639,1.67 -4.976,3.818 -6.996,5.388 1.797,1.553 3.772,2.403 4.124,3.695 3.835,14.046 8.013,28.039 10.917,42.287 3.783,18.564 1.493,37.31 0.005,56.003 -1.646,20.698 -8.108,39.584 -19.927,56.639 -0.999,1.442 -2.185,2.755 -3.284,4.128 -0.456,-0.128 -0.912,-0.256 -1.368,-0.384 -0.393,-3.835 -0.743,-7.676 -1.187,-11.505 -1.204,-10.401 -1.602,-20.984 -3.851,-31.156 -4.957,-22.421 -10.763,-44.657 -16.4,-66.924 -4.171,-16.48 -8.872,-32.864 -8.561,-50.079 0.271,-15.033 3.428,-28.772 18.361,-36.761 -2.102,7.089 -4.203,14.172 -6.303,21.255 0.655,0.309 1.311,0.617 1.967,0.925 3.011,-5.423 6.581,-10.62 8.899,-16.325 3.31,-8.143 5.214,-16.899 12.25,-23.054 0.851,-0.745 1.462,-1.987 1.751,-3.11 1.1,-4.283 4.667,-4.927 7.609,-3.783 2.124,0.824 4.491,3.879 4.741,6.16 0.919,8.384 -2.146,15.779 -7.231,22.443 -4.865,6.377 -9.541,12.898 -14.3,19.356 19.802,-9.922 30.817,-25.161 28.936,-47.71 5.521,-0.367 9.789,4.091 10.408,10.607 C 22.286,-23.758 15.458,-9.781 0,0"
             style="fill:#1c253c;fill-opacity:1;fill-rule:nonzero;stroke:none"
             id="path2442" />
        </g>
        <g
           id="g2502"
           transform="translate(801.3502,550.7084)">
          <path
             d="m 0,0 c 0.656,-0.308 1.312,-0.617 1.968,-0.925 -2.101,-7.083 -4.202,-14.166 -6.304,-21.255 14.933,7.988 18.09,21.727 18.361,36.761 0.311,17.214 -4.39,33.599 -8.561,50.078 -5.636,22.267 -11.443,44.503 -16.4,66.924 -2.249,10.173 -2.646,20.756 -3.851,31.156 -0.444,3.83 -0.794,7.67 -1.187,11.505 -0.456,0.128 -0.912,0.256 -1.368,0.384 -1.099,-1.373 -2.284,-2.686 -3.284,-4.128 -11.819,-17.054 -18.28,-35.941 -19.927,-56.639 -1.487,-18.692 -3.778,-37.438 0.006,-56.002 2.903,-14.248 7.081,-28.241 10.916,-42.287 0.353,-1.293 2.327,-2.143 4.124,-3.695 -2.019,-1.571 -4.356,-3.719 -6.996,-5.388 -15.458,-9.781 -22.285,-23.759 -20.56,-41.906 0.62,-6.515 4.887,-10.974 10.409,-10.606 -1.882,22.549 9.133,37.788 28.935,47.71 -4.759,-6.458 -9.435,-12.98 -14.3,-19.357 -5.084,-6.663 -8.15,-14.059 -7.23,-22.442 0.25,-2.281 2.616,-5.336 4.74,-6.161 2.943,-1.143 6.509,-0.5 7.609,3.783 0.289,1.123 0.9,2.366 1.751,3.11 7.036,6.156 8.94,14.912 12.25,23.055 C -6.58,-10.62 -3.011,-5.424 0,0"
             style="fill:#1c253c;fill-opacity:1;fill-rule:nonzero;stroke:none"
             id="path2522" />
        </g>
      </g>
    </g>
  </g>
</svg>
