<?xml version="1.0" encoding="UTF-8" standalone="no"?>
<!-- Created with Inkscape (http://www.inkscape.org/) -->

<svg
   viewBox="0 0 512 512"
   version="1.1"
   id="svg136"
   xml:space="preserve"
   xmlns="http://www.w3.org/2000/svg"
   xmlns:svg="http://www.w3.org/2000/svg"><defs
     id="defs133" /><g
     id="layer1"><path
       id="path489"
       style="fill:#9b9bff;fill-opacity:1;stroke:none;stroke-width:64;stroke-miterlimit:10;paint-order:markers fill stroke"
       d="M 512,256 A 256,256 0 0 0 256,0 256,256 0 0 0 0,256 256,256 0 0 0 256,512 256,256 0 0 0 512,256 Z m -51.92383,0.0449 c 0,7.47104 -2.84858,14.94234 -8.54297,20.63672 L 305.75781,422.45898 c -11.38877,11.38877 -29.88467,11.38877 -41.27343,0 -11.38877,-11.38876 -11.38877,-29.88466 0,-41.27343 l 96.12109,-96.0293 H 81.08008 c -16.1265,0 -29.15625,-13.02976 -29.15625,-29.15625 0,-16.12649 13.02975,-29.15625 29.15625,-29.15625 h 279.52539 l -96.0293,-96.0293 c -11.38877,-11.38876 -11.38877,-29.88467 0,-41.273434 11.38877,-11.388769 29.88467,-11.388769 41.27344,0 L 451.625,235.31836 l -0.0918,0.0898 c 5.69439,5.69439 8.54297,13.16569 8.54297,20.63672 z" /></g></svg>
