<?xml version="1.0" encoding="UTF-8" standalone="no"?>
<svg
   version="1.1"
   x="0px"
   y="0px"
   viewBox="0 0 512 512"
   xml:space="preserve"
   id="svg249"
   sodipodi:docname="transmutation.svg"
   xmlns:inkscape="http://www.inkscape.org/namespaces/inkscape"
   xmlns:sodipodi="http://sodipodi.sourceforge.net/DTD/sodipodi-0.dtd"
   xmlns="http://www.w3.org/2000/svg"
   xmlns:svg="http://www.w3.org/2000/svg"><sodipodi:namedview
   id="namedview86"
   pagecolor="#ffffff"
   bordercolor="#666666"
   borderopacity="1.0"
   inkscape:showpageshadow="2"
   inkscape:pageopacity="0.0"
   inkscape:pagecheckerboard="0"
   inkscape:deskcolor="#d1d1d1"
   showgrid="false" /><defs
   id="defs134">


















































































































			</defs>
    <style
   type="text/css"
   id="style2">
	.st0{fill:none;stroke:#9614C8;stroke-width:16;stroke-miterlimit:10;}
    .st1{fill:none;stroke:#9614C8;stroke-width:8;stroke-miterlimit:10;}
    .st2{fill:none;stroke:#9614C8;stroke-width:5;stroke-miterlimit:10;}
    .st3{fill:none;stroke:#9614C8;stroke-width:3;stroke-miterlimit:10;}
    .st4{fill:#9614C8;}
    .st5{fill:none;stroke:#9614C8;stroke-width:7;stroke-miterlimit:10;}
    .st6{fill:none;stroke:#9614C8;stroke-width:6;stroke-miterlimit:10;}
    .st7{fill:none;stroke:#9614C8;stroke-width:4;stroke-miterlimit:10;}
    .st8{fill:#9614C8;stroke:#9614C8;stroke-miterlimit:10;}
    .st9{fill:#00AEEF;stroke:#9614C8;stroke-width:4;stroke-miterlimit:10;}
    .st10{fill:#9614C8;stroke:#9614C8;stroke-width:4;stroke-miterlimit:10;}
</style>


    <g
   id="sulphur"
   transform="translate(-447.1632,-26.770209)">
</g>


    <g
   id="Overlay"
   transform="matrix(0.49622012,0,0,0.49420864,-221.31419,-12.355216)">
	<ellipse
   class="st0"
   cx="961.90002"
   cy="543"
   rx="507.89999"
   ry="510"
   id="ellipse4"
   style="stroke-width:15.9672;stroke-dasharray:none" />
        <circle
   class="st0"
   cx="961.90002"
   cy="543"
   r="480"
   id="circle6"
   style="stroke-width:15.9672;stroke-dasharray:none" />
        <circle
   class="st1"
   cx="961.90002"
   cy="543"
   r="407.89999"
   id="circle8"
   style="stroke-width:7.984;stroke-dasharray:none" />
        <circle
   class="st2"
   cx="961.90002"
   cy="547.59998"
   r="123"
   id="circle10"
   style="stroke-width:4.99;stroke-dasharray:none" />
        <circle
   class="st2"
   cx="961.90002"
   cy="547.59998"
   r="89.599998"
   id="circle12"
   style="stroke-width:4.99;stroke-dasharray:none" />
        <circle
   class="st2"
   cx="963.64038"
   cy="335.38953"
   r="66.5"
   id="circle14"
   style="stroke-width:4.99;stroke-dasharray:none" />
        <path
   class="st2"
   d="m 1170.1241,587.93141 c -8.8,-4.3 -18.6,-6.7 -29.1,-6.7 -36.7,0 -66.5,29.8 -66.5,66.5 0,36.7 29.8,66.5 66.5,66.5 36.7,0 66.5,-29.8 66.5,-66.5 0,-26.3 -15.3,-49 -37.4,-59.8"
   id="path16"
   style="stroke-width:4.99;stroke-dasharray:none" />
        <circle
   class="st2"
   cx="783.13611"
   cy="646.75763"
   r="66.5"
   id="circle18"
   style="stroke-width:4.99;stroke-dasharray:none" />
        <ellipse
   class="st3"
   cx="961.90002"
   cy="544.38055"
   rx="355.3403"
   ry="351.57483"
   id="ellipse20"
   style="stroke-width:2.994;stroke-dasharray:none" />
</g>
    <polyline
   class="st2"
   points="901.1,339.4 611.4,339.4 755.3,589.1  "
   id="polyline23"
   transform="matrix(0.49197829,0,0,0.49073856,-220.29629,-11.354306)"
   style="stroke-width:4.99000012;stroke-dasharray:none" /><path
   class="st2"
   d="M 224.46812,149.71709"
   id="path25"
   style="stroke-width:4.99000012;stroke-dasharray:none" /><polyline
   class="st2"
   points="1172.3,588.9 1316,339.4 1033.9,339.4  "
   id="polyline27"
   transform="matrix(0.49724344,0,0,0.49069654,-224.56819,-10.797531)"
   style="stroke-width:4.99000013;stroke-dasharray:none" /><polyline
   class="st2"
   points="821.5,704.1 963.7,950.9 1105.6,704.7  "
   id="polyline29"
   transform="matrix(0.49197829,0,0,0.49073856,-218.84018,-11.998256)"
   style="stroke-width:4.99000012;stroke-dasharray:none" /><polygon
   class="st2"
   points="964.4,136.4 607.5,342.5 606.7,753.3 962.9,958.1 1319.9,752 1320.6,341.1 "
   id="polygon31"
   transform="matrix(0.49197829,0,0,0.49073856,-217.85753,-12.504471)"
   style="stroke-width:4.99000012;stroke-dasharray:none" /><path
   class="st3"
   d="M 257.72309,56.866973"
   id="path33"
   style="stroke-width:2.99400012;stroke-dasharray:none" /><line
   class="st3"
   x1="256.28745"
   y1="120.27235"
   x2="256.28745"
   y2="55.594707"
   id="line35"
   style="stroke-width:2.99400012;stroke-dasharray:none" /><line
   class="st3"
   x1="81.840843"
   y1="356.68732"
   x2="139.05792"
   y2="323.36609"
   id="line37"
   style="stroke-width:2.99400012;stroke-dasharray:none" /><line
   class="st3"
   x1="430.06308"
   y1="356.02124"
   x2="372.9444"
   y2="323.92691"
   id="line39"
   style="stroke-width:2.99400012;stroke-dasharray:none" /><path
   class="st3"
   d="M 181.22045,413.87928"
   id="path41"
   style="stroke-width:2.99400012;stroke-dasharray:none" /><path
   class="st3"
   d="m 348.46741,403.21512 c -18.59678,-32.58504 -53.77322,-54.57013 -94.06625,-54.57013 -39.80105,0 -74.5347,21.39621 -93.32828,53.34327"
   id="path43"
   style="stroke-width:2.99400012;stroke-dasharray:none" /><path
   class="st3"
   d="m 329.28027,414.25674 c -14.66098,-25.27303 -42.06415,-42.30167 -73.45237,-42.30167 -31.48662,0 -58.98821,17.12677 -73.64915,42.59613"
   id="path45"
   style="stroke-width:2.99400012;stroke-dasharray:none" /><path
   class="st3"
   d="m 337.02265,103.33629 c -9.24918,15.89993 -14.56255,34.40077 -14.56255,54.12846 0,59.28123 47.91868,107.3736 107.20206,107.91342"
   id="path47"
   style="stroke-width:2.99400012;stroke-dasharray:none" /><path
   class="st3"
   d="m 356.11142,115.06495 c -6.54331,12.0231 -10.28235,25.76376 -10.28235,40.38777 0,46.3748 37.43955,84.06353 83.83309,84.60333"
   id="path49"
   style="stroke-width:2.99400012;stroke-dasharray:none" /><path
   class="st3"
   d="m 81.102886,259.73828 c 0.491978,0 0.983956,0 1.426733,0 59.775381,0 108.186031,-48.33774 108.186031,-107.9134 0,-18.99158 -4.91978,-36.85445 -13.5786,-52.361802"
   id="path51"
   style="stroke-width:2.99400012;stroke-dasharray:none" /><path
   class="st3"
   d="m 79.872941,234.41618 c 0.885555,0.0491 1.771123,0.0491 2.705879,0.0491 46.83633,0 84.81706,-37.88502 84.81706,-84.60332 0,-14.18235 -3.49304,-27.57951 -9.69198,-39.35724"
   id="path53"
   style="stroke-width:2.99400012;stroke-dasharray:none" /><path
   class="st4"
   d="m 430.60426,374.2276 c 0.83636,-1.42314 1.67272,-2.89536 2.50909,-4.3185 0.78716,-1.37407 -1.32835,-2.60091 -2.11551,-1.22685 -0.83636,1.42315 -1.67273,2.89536 -2.50909,4.3185 -0.78717,1.325 1.32834,2.60092 2.11551,1.22685 z"
   id="path55"
   style="stroke-width:0.49037529;stroke-dasharray:none" /><path
   class="st4"
   d="m 73.113392,156.57434 c 1.744893,-3.07875 3.44059,-6.15787 5.185117,-9.18754 0.797373,-1.36817 -1.358138,-2.6111 -2.106314,-1.24256 -1.744893,3.07875 -3.44059,6.15786 -5.185117,9.18753 -0.797373,1.36817 1.308941,2.61074 2.106314,1.24257 z"
   id="path61"
   style="stroke-width:0.49037529;stroke-dasharray:none" /><polyline
   class="st2"
   points="920.5,321.8 928.8,327.8 937.5,309 947.5,301.3 956.3,296 963.7,293.5 974.5,293.5 986.3,295   994,299.8 1000.3,306 1004,312.5 1006.5,318 1008.8,325.3 1017.3,323.5  "
   id="polyline67"
   transform="matrix(0.4895623,0.04869687,-0.04857417,0.48832867,-200.19038,-59.90241)"
   style="stroke-width:4.99000013;stroke-dasharray:none" /><line
   class="st2"
   x1="249.6515"
   y1="158.97839"
   x2="240.0421"
   y2="171.58446"
   id="line69"
   style="stroke-width:4.99000012;stroke-dasharray:none" /><line
   class="st2"
   x1="266.03198"
   y1="160.31187"
   x2="271.85056"
   y2="170.40865"
   id="line71"
   style="stroke-width:4.99000012;stroke-dasharray:none" /><ellipse
   class="st1"
   cx="271.54117"
   cy="123.27939"
   id="circle73"
   rx="12.299459"
   ry="12.268462"
   transform="rotate(5.6805367)"
   style="stroke-width:7.98400048;stroke-dasharray:none" /><path
   class="st4"
   d="m 235.28741,169.68133 c 2.52744,1.92815 5.00592,3.85143 7.52851,5.82841 1.23924,0.96164 2.67201,-1.01643 1.43277,-1.97807 -2.52744,-1.92815 -5.00592,-3.85143 -7.52851,-5.82841 -1.23438,-1.01048 -2.67201,1.01643 -1.43277,1.97807 z"
   id="path75"
   style="stroke-width:0.49037529;stroke-dasharray:none" /><path
   class="st4"
   d="m 267.62024,175.65918 c 2.91604,-1.97848 5.78797,-4.01066 8.704,-5.98914 1.32592,-0.90375 -0.2665,-2.78821 -1.54345,-1.87959 -2.91604,1.97848 -5.78797,4.01066 -8.70401,5.98914 -1.32105,0.85492 0.27136,2.73937 1.54346,1.87959 z"
   id="path81"
   style="stroke-width:0.49037529;stroke-dasharray:none" /><path
   class="st4"
   d="m 339.77038,330.55187 c 2.80428,0 5.55936,0 8.36364,0 1.57433,0 1.57433,-2.45369 0,-2.45369 -2.80428,0 -5.55936,0 -8.36364,0 -1.57433,0 -1.57433,2.45369 0,2.45369 z"
   id="path87"
   style="stroke-width:0.49037529;stroke-dasharray:none" /><path
   class="st4"
   d="m 368.50192,303.95384 c -0.68877,-3.23888 -1.42674,-6.42868 -2.11551,-9.66755 -0.34438,-1.52129 -2.70588,-0.88333 -2.3615,0.63796 0.68877,3.23887 1.42674,6.42867 2.11551,9.66755 0.34439,1.57036 2.70588,0.88333 2.3615,-0.63796 z"
   id="path93"
   style="stroke-width:0.49037529;stroke-dasharray:none" /><polygon
   class="st4"
   points="1088.1,618.7 1094.1,618 1096.1,661 "
   id="polygon99"
   transform="matrix(0.49197829,0,0,0.49073856,-214.79931,-11.513728)"
   style="stroke-width:0.99800007;stroke-dasharray:none" /><polygon
   class="st4"
   points="1130.1,602 1092.4,622.7 1089.9,617.3 "
   id="polygon103"
   transform="matrix(0.49197829,0,0,0.49073856,-215.6656,-10.9362)"
   style="stroke-width:0.99800007;stroke-dasharray:none" /><line
   class="st2"
   x1="82.386078"
   y1="155.60844"
   x2="153.67371"
   y2="197.37029"
   id="line107"
   style="stroke-width:4.99000012;stroke-dasharray:none" /><line
   class="st2"
   x1="175.17314"
   y1="208.04529"
   x2="203.31432"
   y2="225.17204"
   id="line109"
   style="stroke-width:4.99000012;stroke-dasharray:none" /><line
   class="st2"
   x1="218.2057"
   y1="233.38919"
   x2="294.48975"
   y2="278.75464"
   id="line111"
   style="stroke-width:4.99000012;stroke-dasharray:none" /><line
   class="st2"
   x1="217.32246"
   y1="277.66266"
   x2="292.7814"
   y2="235.05676"
   id="line113"
   style="stroke-width:4.99000012;stroke-dasharray:none" /><path
   class="st2"
   d="M 255.85358,295.02241"
   id="path115"
   style="stroke-width:4.99000012;stroke-dasharray:none" /><line
   class="st2"
   x1="254.96861"
   y1="301.76321"
   x2="257.72256"
   y2="213.05325"
   id="line117"
   style="stroke-width:4.99000012;stroke-dasharray:none" /><line
   class="st2"
   x1="256.98517"
   y1="197.31274"
   x2="256.98517"
   y2="186.74434"
   id="line119"
   style="stroke-width:4.99000012;stroke-dasharray:none" /><line
   class="st2"
   x1="196.22583"
   y1="290.01685"
   x2="202.37552"
   y2="285.99283"
   id="line121"
   style="stroke-width:2.45203617;stroke-dasharray:none" /><line
   class="st2"
   x1="255.21645"
   y1="348.45035"
   x2="254.87141"
   y2="318.34775"
   id="line123"
   style="stroke-width:4.99000012;stroke-dasharray:none" /><line
   class="st2"
   x1="255.39873"
   y1="454.07074"
   x2="255.10353"
   y2="371.18506"
   id="line125"
   style="stroke-width:4.99000012;stroke-dasharray:none" /><line
   class="st2"
   x1="429.15012"
   y1="155.61897"
   x2="357.56729"
   y2="199.49098"
   id="line127"
   style="stroke-width:4.99000012;stroke-dasharray:none" /><line
   class="st2"
   x1="307.36374"
   y1="225.97551"
   x2="335.35736"
   y2="209.78114"
   id="line129"
   style="stroke-width:4.99000012;stroke-dasharray:none" />
    <path
   class="st4"
   id="salt"
   d="m 163.50189,285.41417 c 1.38942,0 2.77884,0 4.11863,0 -0.84357,-0.84015 -1.63753,-1.63089 -2.4811,-2.47104 0,3.3112 0,6.57297 0,9.88417 0.84357,-0.84015 1.63753,-1.63089 2.4811,-2.47104 -3.27505,0 -6.00426,0.0988 -9.18007,0.84015 -3.17581,0.79074 -5.50805,2.56989 -8.08839,4.59614 -2.18337,1.72973 -3.17581,5.04093 -3.96976,7.61082 -0.4466,1.53204 -1.14131,3.11351 -1.38942,4.69498 -0.24811,1.58147 -0.0496,3.3112 -0.0496,4.94208 0,3.11352 1.04206,5.73282 2.38186,8.54981 1.38941,2.91583 4.41636,5.13977 7.29443,6.37529 2.53072,1.08726 5.60729,2.32279 8.38612,2.1251 3.12619,-0.2471 6.69897,-0.64247 9.72592,-1.63089 3.32467,-1.08726 6.05388,-3.95367 7.98914,-6.72123 1.93526,-2.76757 2.53072,-5.93051 3.8209,-9.04402 -1.04207,0.59305 -2.03451,1.13668 -3.07657,1.72973 2.77883,0.49421 5.50804,0.98842 8.28688,1.48262 -0.59547,-0.79073 -1.19093,-1.58146 -1.83602,-2.3722 0,1.63089 0,3.26178 0,4.89267 0,3.16293 4.9622,3.16293 4.9622,0 0,-1.63089 0,-3.26178 0,-4.89267 0,-0.98841 -0.74433,-2.17452 -1.83601,-2.3722 -2.77883,-0.49421 -5.50804,-0.98842 -8.28688,-1.48262 -1.43904,-0.24711 -2.4811,0.39536 -3.07656,1.72973 -0.4466,1.08725 -0.99244,2.17451 -1.3398,3.26177 -0.24811,0.69189 -0.39697,1.43321 -0.54584,2.17452 -0.0496,0.29653 -0.0992,0.64247 -0.24811,0.88958 0.39698,-1.03784 0,-0.0988 -0.19849,0.0988 -0.49622,0.59305 -2.58034,2.91583 -2.58034,3.70656 0,0.49421 1.09168,-0.54363 0.59546,-0.59305 -0.14886,0 -0.6947,0.44479 -0.79395,0.54363 -0.8932,0.59305 -1.78639,1.23552 -2.67959,1.82857 -0.24811,0.19769 -0.49622,0.39537 -0.79395,0.54363 -0.54584,0.29653 0.79395,-0.2471 0.19849,-0.0988 -0.74433,0.19768 -1.53828,0.34595 -2.33224,0.49421 -0.59546,0.14826 -1.24055,0.2471 -1.83601,0.39537 -0.64509,0.14826 0.84357,-0.0988 0.24811,0 -0.4466,0.0494 -0.8932,0.0988 -1.29017,0.14826 -0.8932,0.0988 -1.7864,0.19768 -2.67959,0.34595 -0.29773,0.0494 -0.59547,0.0988 -0.8932,0.0988 -0.59546,0.0494 0.8932,0.14826 0.24811,0.0494 -1.48866,-0.24711 -3.02694,-0.69189 -4.46598,-1.08726 1.19093,0.29652 -0.74433,-0.34595 -1.09168,-0.49421 -0.74433,-0.34595 -1.53829,-0.64247 -2.28262,-0.98842 -0.59546,-0.29652 0.59547,0.54363 0.0992,0.0988 -0.24811,-0.19769 -0.4466,-0.49421 -0.69471,-0.6919 -0.74433,-0.74131 -1.43904,-1.63089 -2.23299,-2.32278 -1.09168,-0.93899 0.0496,-0.0988 0,0.34595 0.0496,-0.49421 -0.64509,-1.53205 -0.79395,-2.02626 -0.34736,-0.84015 -0.69471,-1.68031 -1.04206,-2.52046 -0.0993,-0.24711 -0.19849,-0.54363 -0.34736,-0.79073 -0.19849,-0.44479 0,0.93899 0,0.0988 0.0496,-1.53205 0,-3.11352 0,-4.69499 0,-0.54362 -0.0496,-1.13668 0,-1.72973 -0.14886,1.38379 0.29773,-0.69189 0.4466,-1.08725 0.49622,-1.53205 0.8932,-3.11352 1.43904,-4.64557 0.14886,-0.54363 -0.39698,0.79074 -0.0993,0.19769 0.0993,-0.19769 0.19849,-0.39537 0.29774,-0.54363 0.44659,-0.79074 1.1413,-1.77915 1.33979,-2.66873 0.39698,-1.48262 -0.29773,1.87799 -0.59546,0.39537 0,-0.0494 0.6947,-0.49421 0.74433,-0.54363 0.84357,-0.59305 1.68714,-1.23552 2.53072,-1.82857 0.64508,-0.49421 1.33979,-0.98842 1.98488,-1.43321 0.4466,-0.29652 -0.69471,0.24711 -0.29773,0.0988 0.29773,-0.0988 0.69471,-0.14826 0.99244,-0.2471 1.04206,-0.24711 2.13374,-0.49421 3.17581,-0.79073 0.29773,-0.0989 0.59546,-0.14827 0.94281,-0.24711 0.49622,-0.0988 -0.99244,0 0,0.0494 1.63753,0.0494 3.27506,0 4.86296,0 1.3398,0 2.4811,-1.13668 2.4811,-2.47104 0,-3.3112 0,-6.57298 0,-9.88417 0,-1.33437 -1.1413,-2.47105 -2.4811,-2.47105 -1.38941,0 -2.77883,0 -4.11863,0 -3.22543,0.0988 -3.22543,5.04093 -0.0496,5.04093 z"
   style="stroke-width:0.49422255;stroke-dasharray:none" /><line
   class="st5"
   x1="170.10161"
   y1="305.33078"
   x2="151.09639"
   y2="317.04352"
   id="line137"
   style="stroke-width:3.45956064;stroke-dasharray:none" /><path
   class="st3"
   d="M 158.98629,305.33078"
   id="path139"
   style="stroke-width:1.48266876;stroke-dasharray:none" /><polyline
   class="st2"
   points="777.1,665.5 782.8,646.4 780.9,644 761.9,644  "
   id="polyline141"
   transform="matrix(0.49622012,0,0,0.49420864,-219.08382,-12.939585)"
   style="stroke-width:4.99000012;stroke-dasharray:none" />
    <ellipse
   class="st1"
   cx="342.92303"
   cy="305.23453"
   id="circle145"
   rx="9.5770483"
   ry="9.5382261"
   style="stroke-width:3.95378352;stroke-dasharray:none" /><polyline
   class="st6"
   points="1136.8,695.3 1136.8,683.3 1141.8,668.3 1147.2,655.5 1160.3,644 1171,638.7 1182.2,635.8  "
   id="polyline147"
   transform="matrix(0.49622012,0,0,0.49420864,-218.64926,-13.03584)"
   style="stroke-width:5.98800024;stroke-dasharray:none" /><line
   class="st5"
   x1="334.83469"
   y1="300.09476"
   x2="322.77649"
   y2="293.3735"
   id="line149"
   style="stroke-width:3.45956064;stroke-dasharray:none" />
    <path
   class="st4"
   d="m 256.96823,484.06728 c 0,-6.72124 0,-13.44248 0,-20.16372 0,-1.58146 -2.4811,-1.58146 -2.4811,0 0,6.72124 0,13.44248 0,20.16372 0,1.58146 2.4811,1.58146 2.4811,0 z"
   id="path153"
   style="stroke-width:0.49422255;stroke-dasharray:none" /><path
   class="st4"
   d="m 246.00177,474.43021 c 6.64935,0 13.2987,0 19.99767,0 1.5879,0 1.5879,-2.47105 0,-2.47105 -6.64935,0 -13.2987,0 -19.99767,0 -1.63753,0 -1.63753,2.47105 0,2.47105 z"
   id="path159"
   style="stroke-width:0.49422255;stroke-dasharray:none" /><path
   class="st4"
   d="m 263.36947,478.72982 c -4.5156,-4.05251 -9.0312,-8.0556 -13.54681,-12.10811 -1.19092,-1.03784 -2.92769,0.69189 -1.73677,1.72973 4.51561,4.05251 9.03121,8.0556 13.54681,12.10811 1.14131,1.08726 2.9277,-0.69189 1.73677,-1.72973 z"
   id="path165"
   style="stroke-width:0.49422255;stroke-dasharray:none" /><path
   class="st4"
   d="m 250.56699,481.44797 c 4.2675,-4.59614 8.53499,-9.2417 12.80248,-13.83784 1.09169,-1.1861 -0.6947,-2.91583 -1.73677,-1.72973 -4.26749,4.59614 -8.53498,9.2417 -12.80248,13.83784 -1.09168,1.13668 0.64509,2.91583 1.73677,1.72973 z"
   id="path171"
   style="stroke-width:0.49422255;stroke-dasharray:none" />
    <ellipse
   class="st7"
   cx="64.365128"
   cy="363.30405"
   id="circle178"
   rx="8.931962"
   ry="8.8957558"
   style="stroke-width:1.97689176;stroke-dasharray:none" /><ellipse
   class="st8"
   cx="63.968159"
   cy="363.2052"
   rx="2.2329905"
   ry="2.4216223"
   id="ellipse180"
   style="stroke-width:0.49422255;stroke-dasharray:none" /><polyline
   class="st9"
   points="610,791.3 606.7,788.9 586.4,773.8  "
   id="polyline182"
   transform="matrix(0.49622012,0,0,0.49420864,-220.11786,-13.03584)"
   style="stroke-width:3.99200025;stroke-dasharray:none" /><polyline
   class="st10"
   points="594.4,791.3 611.2,791.3 604.8,776.2  "
   id="polyline184"
   transform="matrix(0.49622012,0,0,0.49420864,-220.11786,-13.03584)"
   style="stroke-width:3.99200025;stroke-dasharray:none" />
    <ellipse
   class="st7"
   cx="68.960831"
   cy="146.6093"
   rx="7.2116385"
   ry="7.2162166"
   id="ellipse187"
   transform="matrix(0.99901522,-0.04436877,-0.04635492,0.99892503,0,0)"
   style="stroke-width:1.92681342;stroke-dasharray:none" /><path
   class="st4"
   d="m 64.224637,157.64548 c 3.914442,-6.54931 7.827053,-13.05051 11.741494,-19.59982 0.824479,-1.38893 -1.207712,-2.47917 -2.032191,-1.09024 -3.914442,6.54931 -7.827052,13.05051 -11.741494,19.59982 -0.872803,1.39155 1.159388,2.48179 2.032191,1.09024 z"
   id="path189"
   style="stroke-width:0.48071166;stroke-dasharray:none" /><line
   class="st7"
   x1="74.135048"
   y1="150.67552"
   x2="69.040489"
   y2="147.68665"
   id="line195"
   style="stroke-width:1.9228457;stroke-dasharray:none" />
    <path
   class="st4"
   d="m 427.9322,382.08111 c 2.38186,1.4332 4.76371,2.86641 7.14557,4.34904 1.38942,0.84015 2.62997,-1.28495 1.24055,-2.1251 -2.38185,-1.43321 -4.76371,-2.86641 -7.14557,-4.34904 -1.38941,-0.84015 -2.62996,1.28495 -1.24055,2.1251 z"
   id="path198"
   style="stroke-width:0.49422255;stroke-dasharray:none" /><line
   class="st7"
   x1="431.5546"
   y1="371.94983"
   x2="442.37222"
   y2="377.88034"
   id="line204"
   style="stroke-width:1.97689176;stroke-dasharray:none" /><line
   class="st7"
   x1="432.24933"
   y1="383.26721"
   x2="440.38736"
   y2="370.61548"
   id="line206"
   style="stroke-width:1.97689176;stroke-dasharray:none" /><path
   class="st4"
   d="m 442.5707,381.04327 c 0.84357,-1.4332 1.68714,-2.91583 2.53072,-4.34903 0.79395,-1.38379 -1.3398,-2.61931 -2.13375,-1.23553 -0.84357,1.43321 -1.68715,2.91584 -2.53072,4.34904 -0.84358,1.38378 1.29017,2.61931 2.13375,1.23552 z"
   id="path208"
   style="stroke-width:0.49422255;stroke-dasharray:none" /><path
   class="st2"
   d="m 447.92987,370.2201 -3.37429,0.39537 -1.83602,0.39537 -1.29017,-0.39537 -1.58791,-0.98842 -1.53828,-1.97683 -0.79395,-1.38379 c 0,0 -0.19849,-2.17451 0,-2.32278 0.19849,-0.14826 0.99244,-2.6193 0.99244,-2.6193 l 2.28261,-3.60773 1.83602,-0.69189 2.67959,-0.98842 h 1.63752 l 2.58035,0.44479 1.88563,1.03784 1.29018,1.43321 1.43903,0.88957 0.74433,0.74131"
   id="path214"
   style="stroke-width:2.47111464;stroke-dasharray:none" /><path
   class="st4"
   d="m 453.93414,366.4147 c 1.43903,-2.17452 2.82845,-4.39846 4.26749,-6.57298 0.84357,-1.33436 -1.29017,-2.56988 -2.13375,-1.23552 -1.43904,2.17452 -2.82845,4.39846 -4.26749,6.57297 -0.8932,1.33437 1.24055,2.56989 2.13375,1.23553 z"
   id="path216"
   style="stroke-width:0.49422255;stroke-dasharray:none" />
    <ellipse
   class="st8"
   cx="447.61179"
   cy="145.73366"
   id="circle225"
   transform="rotate(0.20392219)"
   rx="2.8284545"
   ry="2.8169892"
   style="stroke-width:0.49422255;stroke-dasharray:none" /><polyline
   class="st7"
   points="1367.8,326 1367.8,335.8 1365.9,343.8 1361.1,349.1 1356.6,350.4 1349.5,349.6 1343,348.4    1330,332.4 1329.1,327 1328.1,318.9 1328.1,311.3 1331,305.6 1335,301.6 1339.1,300.4 1351,299.5 1354.3,301.1 1355.8,302.5   "
   id="polyline227"
   transform="matrix(0.49621697,0.0017661,-0.00175896,0.49420551,-221.58816,-15.03043)"
   style="stroke-width:3.99200023;stroke-dasharray:none" />
    <polygon
   id="tin"
   class="st4"
   points="921.9,105.2 921.6,100.3 1008.8,98.8 "
   transform="matrix(0.49622012,0,0,0.49420864,-221.58645,-13.03584)"
   style="stroke-width:0.99800006;stroke-dasharray:none" /><polygon
   class="st4"
   points="965,75 970,75 967.5,123.3 "
   id="polygon235"
   transform="matrix(0.49622012,0,0,0.49420864,-221.58645,-13.03584)"
   style="stroke-width:0.99800006;stroke-dasharray:none" /><path
   class="st4"
   d="m 266.5949,29.120157 c -3.47354,0 -6.94708,0 -10.42062,0 -2.9277,0 -5.55766,0.04942 -8.3365,1.13668 -2.58034,0.988417 -5.25993,3.261777 -6.25237,5.881083 -0.49622,1.235521 -0.14887,2.965252 -0.14887,4.299615 0,1.877993 -0.24811,2.915831 1.14131,4.250194 0.59546,0.54363 1.33979,1.581468 2.08412,1.927414 0.79396,0.395367 1.93526,0.148262 2.82846,0.148262 1.68715,0 3.42392,0 5.11107,0 1.5879,0 1.5879,-2.471043 0,-2.471043 -1.48866,0 -2.97732,0 -4.46598,0 -0.49622,0 -1.04207,0 -1.53829,0 -0.34735,0 -0.89319,-0.09884 -1.19093,0 0.54585,-0.197683 0.8932,0.642471 0.14887,-0.247104 -0.34735,-0.395367 -1.33979,-1.630889 -1.83601,-1.72973 0.14886,0.04942 0,0.988417 0.19848,0.296525 0.0992,-0.395367 0,-1.037838 0,-1.482626 0,-1.334363 -0.24811,-2.965252 0,-4.299615 -0.19848,0.988417 0.64509,-0.741313 0.8932,-1.186101 0.19849,-0.345946 0.39698,-0.691892 0.64509,-1.037838 0.29773,-0.494209 -0.59547,0.395367 0.0496,0 0.74433,-0.494209 1.48866,-0.988417 2.23299,-1.482626 0.64509,-0.395367 0.8932,-0.54363 1.14131,-0.642471 2.92769,-1.087259 4.26749,-0.988418 7.34405,-0.988418 3.47354,0 6.94709,0 10.42063,0 1.53828,0.09884 1.53828,-2.372201 -0.0496,-2.372201 z"
   id="path239"
   style="stroke-width:0.49422255;stroke-dasharray:none" />
<line
   class="st2"
   x1="309.99829"
   y1="286.30325"
   x2="316.55807"
   y2="289.61703"
   id="line1027"
   style="stroke-width:2.45203617;stroke-dasharray:none" /></svg>
