<?xml version="1.0" encoding="UTF-8" standalone="no"?>
<svg
   version="1.1"
   x="0px"
   y="0px"
   viewBox="0 0 512 512"
   xml:space="preserve"
   id="svg249"
   xmlns="http://www.w3.org/2000/svg"
   xmlns:svg="http://www.w3.org/2000/svg"><defs
   id="defs134" />
    <svg:style
   type="text/css"
   id="style2">
	.st0{fill:none;stroke:#9614C8;stroke-width:16;stroke-miterlimit:10;}
    .st1{fill:none;stroke:#9614C8;stroke-width:8;stroke-miterlimit:10;}
    .st2{fill:none;stroke:#9614C8;stroke-width:5;stroke-miterlimit:10;}
    .st3{fill:none;stroke:#9614C8;stroke-width:3;stroke-miterlimit:10;}
    .st4{fill:#9614C8;}
    .st5{fill:none;stroke:#9614C8;stroke-width:7;stroke-miterlimit:10;}
    .st6{fill:none;stroke:#9614C8;stroke-width:6;stroke-miterlimit:10;}
    .st7{fill:none;stroke:#9614C8;stroke-width:4;stroke-miterlimit:10;}
    .st8{fill:#9614C8;stroke:#9614C8;stroke-miterlimit:10;}
    .st9{fill:#00AEEF;stroke:#9614C8;stroke-width:4;stroke-miterlimit:10;}
    .st10{fill:#9614C8;stroke:#9614C8;stroke-width:4;stroke-miterlimit:10;}
</svg:style>





    <g
   id="Overlay"
   transform="matrix(0.49622012,0,0,0.49420864,-221.31419,-12.355216)"
   style="display:inline">
	<ellipse
   class="st0"
   cx="961.90002"
   cy="542.99982"
   rx="507.89999"
   ry="510"
   id="ellipse4" />



        <circle
   class="st2"
   cx="961.90002"
   cy="547.59998"
   r="89.599998"
   id="circle12"
   style="display:none" />
        <circle
   class="st2"
   cx="963.64038"
   cy="335.38953"
   r="66.5"
   id="circle14"
   style="display:none" />
        <path
   class="st2"
   d="m 1170.1241,587.93141 c -8.8,-4.3 -18.6,-6.7 -29.1,-6.7 -36.7,0 -66.5,29.8 -66.5,66.5 0,36.7 29.8,66.5 66.5,66.5 36.7,0 66.5,-29.8 66.5,-66.5 0,-26.3 -15.3,-49 -37.4,-59.8"
   id="path16"
   style="display:none" />
        <circle
   class="st2"
   cx="783.13611"
   cy="646.75763"
   r="66.5"
   id="circle18"
   style="display:none" />
        <ellipse
   class="st3"
   cx="961.90002"
   cy="542.99982"
   rx="407.36032"
   ry="409.02539"
   id="ellipse20" />
</g>
    <polygon
   class="st2"
   points="962.9,958.1 1319.9,752 1320.6,341.1 964.4,136.4 607.5,342.5 606.7,753.3 "
   id="polygon31"
   transform="matrix(0.48823028,0,0,0.49066392,-214.48307,-12.515849)"
   style="display:inline" /><path
   class="st3"
   d="M 257.72309,56.866973"
   id="path33"
   style="display:none" /><line
   class="st3"
   x1="256.28745"
   y1="120.27235"
   x2="256.28745"
   y2="55.594707"
   id="line35"
   style="display:none" /><line
   class="st3"
   x1="81.840843"
   y1="356.68732"
   x2="139.05792"
   y2="323.36609"
   id="line37"
   style="display:none" /><line
   class="st3"
   x1="430.06308"
   y1="356.02124"
   x2="372.9444"
   y2="323.92691"
   id="line39"
   style="display:none" /><path
   class="st3"
   d="M 181.22045,413.87928"
   id="path41"
   style="display:none" /><line
   class="st2"
   x1="309.99829"
   y1="286.30325"
   x2="316.55807"
   y2="289.61703"
   id="line1027"
   style="display:none;stroke-dasharray:none" /><line
   class="st2"
   x1="82.386078"
   y1="155.60844"
   x2="153.67371"
   y2="197.37029"
   id="line107"
   style="display:none" /><line
   class="st2"
   x1="175.17314"
   y1="208.04529"
   x2="203.31432"
   y2="225.17204"
   id="line109"
   style="display:none" /><line
   class="st2"
   x1="218.2057"
   y1="233.38919"
   x2="294.48975"
   y2="278.75464"
   id="line111"
   style="display:none" /><line
   class="st2"
   x1="217.32246"
   y1="277.66266"
   x2="292.7814"
   y2="235.05676"
   id="line113"
   style="display:none" /><path
   class="st2"
   d="M 255.85358,295.02241"
   id="path115"
   style="display:none" /><line
   class="st2"
   x1="254.96861"
   y1="301.76321"
   x2="257.72256"
   y2="213.05325"
   id="line117"
   style="display:none" /><line
   class="st2"
   x1="256.98517"
   y1="197.31274"
   x2="256.98517"
   y2="186.74434"
   id="line119"
   style="display:none" /><line
   class="st2"
   x1="196.22583"
   y1="290.01685"
   x2="202.37552"
   y2="285.99283"
   id="line121"
   style="display:none" /><line
   class="st2"
   x1="255.21645"
   y1="348.45035"
   x2="254.87141"
   y2="318.34775"
   id="line123"
   style="display:none" /><line
   class="st2"
   x1="255.39873"
   y1="454.07074"
   x2="255.10353"
   y2="371.18506"
   id="line125"
   style="display:none" /><line
   class="st2"
   x1="429.15012"
   y1="155.61897"
   x2="357.56729"
   y2="199.49098"
   id="line127"
   style="display:none" /><line
   class="st2"
   x1="307.36374"
   y1="225.97551"
   x2="335.35736"
   y2="209.78114"
   id="line129"
   style="display:none" /><g
   id="sulphur"
   transform="translate(-447.1632,-26.770209)"
   style="display:none">
<path
   class="st2"
   d="M 224.46812,149.71709"
   id="path25"
   style="display:inline"
   transform="translate(447.1632,26.770209)" /><polyline
   class="st2"
   points="920.5,321.8 928.8,327.8 937.5,309 947.5,301.3 956.3,296 963.7,293.5 974.5,293.5 986.3,295   994,299.8 1000.3,306 1004,312.5 1006.5,318 1008.8,325.3 1017.3,323.5  "
   id="polyline67"
   transform="matrix(0.4895623,0.04869687,-0.04857417,0.48832867,246.97282,-33.132201)"
   style="display:inline" /><line
   class="st2"
   x1="249.6515"
   y1="158.97839"
   x2="240.0421"
   y2="171.58446"
   id="line69"
   style="display:inline"
   transform="translate(447.1632,26.770209)" /><path
   class="st4"
   d="m 993.6,383.3 c 5.5,-4.6 10.9,-9.3 16.4,-13.9 2.5,-2.1 -1.1,-5.6 -3.5,-3.5 -5.5,4.6 -10.9,9.3 -16.4,13.9 -2.5,2 1.1,5.5 3.5,3.5 z"
   id="path81"
   transform="matrix(0.4895623,0.04869687,-0.04857417,0.48832867,246.97282,-33.132201)"
   style="display:inline" /><path
   class="st4"
   d="m 927,377.7 c 5.5,3.4 10.9,6.8 16.4,10.3 2.7,1.7 5.2,-2.6 2.5,-4.3 -5.5,-3.4 -10.9,-6.8 -16.4,-10.3 -2.7,-1.8 -5.2,2.6 -2.5,4.3 z"
   id="path75"
   transform="matrix(0.4895623,0.04869687,-0.04857417,0.48832867,246.97282,-33.132201)"
   style="display:inline" /><line
   class="st2"
   x1="266.03198"
   y1="160.31187"
   x2="271.85056"
   y2="170.40865"
   id="line71"
   style="display:inline"
   transform="translate(447.1632,26.770209)" /><ellipse
   class="st1"
   cx="271.54117"
   cy="123.27939"
   id="circle73"
   rx="12.299459"
   ry="12.268462"
   transform="rotate(5.6805367,-46.210406,4519.9266)"
   style="display:inline" /></g>
    <g
   id="g143"
   transform="matrix(0.49622012,0,0,0.49420864,-219.08382,-12.939585)"
   style="display:none">

        <line
   class="st5"
   x1="784.29999"
   y1="644"
   x2="746"
   y2="667.70001"
   id="line137" />
        <path
   class="st4"
   id="salt"
   d="m 771,603.7 c 2.8,0 5.6,0 8.3,0 -1.7,-1.7 -3.3,-3.3 -5,-5 0,6.7 0,13.3 0,20 1.7,-1.7 3.3,-3.3 5,-5 -6.6,0 -12.1,0.2 -18.5,1.7 -6.4,1.6 -11.1,5.2 -16.3,9.3 -4.4,3.5 -6.4,10.2 -8,15.4 -0.9,3.1 -2.3,6.3 -2.8,9.5 -0.5,3.2 -0.1,6.7 -0.1,10 0,6.3 2.1,11.6 4.8,17.3 2.8,5.9 8.9,10.4 14.7,12.9 5.1,2.2 11.3,4.7 16.9,4.3 6.3,-0.5 13.5,-1.3 19.6,-3.3 6.7,-2.2 12.2,-8 16.1,-13.6 3.9,-5.6 5.1,-12 7.7,-18.3 -2.1,1.2 -4.1,2.3 -6.2,3.5 5.6,1 11.1,2 16.7,3 -1.2,-1.6 -2.4,-3.2 -3.7,-4.8 0,3.3 0,6.6 0,9.9 0,6.4 10,6.4 10,0 0,-3.3 0,-6.6 0,-9.9 0,-2 -1.5,-4.4 -3.7,-4.8 -5.6,-1 -11.1,-2 -16.7,-3 -2.9,-0.5 -5,0.8 -6.2,3.5 -0.9,2.2 -2,4.4 -2.7,6.6 -0.5,1.4 -0.8,2.9 -1.1,4.4 -0.1,0.6 -0.2,1.3 -0.5,1.8 0.8,-2.1 0,-0.2 -0.4,0.2 -1,1.2 -5.2,5.9 -5.2,7.5 0,1 2.2,-1.1 1.2,-1.2 -0.3,0 -1.4,0.9 -1.6,1.1 -1.8,1.2 -3.6,2.5 -5.4,3.7 -0.5,0.4 -1,0.8 -1.6,1.1 -1.1,0.6 1.6,-0.5 0.4,-0.2 -1.5,0.4 -3.1,0.7 -4.7,1 -1.2,0.3 -2.5,0.5 -3.7,0.8 -1.3,0.3 1.7,-0.2 0.5,0 -0.9,0.1 -1.8,0.2 -2.6,0.3 -1.8,0.2 -3.6,0.4 -5.4,0.7 -0.6,0.1 -1.2,0.2 -1.8,0.2 -1.2,0.1 1.8,0.3 0.5,0.1 -3,-0.5 -6.1,-1.4 -9,-2.2 2.4,0.6 -1.5,-0.7 -2.2,-1 -1.5,-0.7 -3.1,-1.3 -4.6,-2 -1.2,-0.6 1.2,1.1 0.2,0.2 -0.5,-0.4 -0.9,-1 -1.4,-1.4 -1.5,-1.5 -2.9,-3.3 -4.5,-4.7 -2.2,-1.9 0.1,-0.2 0,0.7 0.1,-1 -1.3,-3.1 -1.6,-4.1 -0.7,-1.7 -1.4,-3.4 -2.1,-5.1 -0.2,-0.5 -0.4,-1.1 -0.7,-1.6 -0.4,-0.9 0,1.9 0,0.2 0.1,-3.1 0,-6.3 0,-9.5 0,-1.1 -0.1,-2.3 0,-3.5 -0.3,2.8 0.6,-1.4 0.9,-2.2 1,-3.1 1.8,-6.3 2.9,-9.4 0.3,-1.1 -0.8,1.6 -0.2,0.4 0.2,-0.4 0.4,-0.8 0.6,-1.1 0.9,-1.6 2.3,-3.6 2.7,-5.4 0.8,-3 -0.6,3.8 -1.2,0.8 0,-0.1 1.4,-1 1.5,-1.1 1.7,-1.2 3.4,-2.5 5.1,-3.7 1.3,-1 2.7,-2 4,-2.9 0.9,-0.6 -1.4,0.5 -0.6,0.2 0.6,-0.2 1.4,-0.3 2,-0.5 2.1,-0.5 4.3,-1 6.4,-1.6 0.6,-0.2 1.2,-0.3 1.9,-0.5 1,-0.2 -2,0 0,0.1 3.3,0.1 6.6,0 9.8,0 2.7,0 5,-2.3 5,-5 0,-6.7 0,-13.3 0,-20 0,-2.7 -2.3,-5 -5,-5 -2.8,0 -5.6,0 -8.3,0 -6.5,0.2 -6.5,10.2 -0.1,10.2 z" /><path
   class="st3"
   d="M 761.9,644"
   id="path139" />
        <polyline
   class="st2"
   points="777.1,665.5 782.8,646.4 780.9,644 761.9,644  "
   id="polyline141" />
</g>
    <g
   id="mecury"
   transform="matrix(0.49622012,0,0,0.49420864,-218.64926,-13.03584)"
   style="display:none">
	<circle
   class="st1"
   cx="1131.7"
   cy="644"
   r="19.299999"
   id="circle145" />
        <polygon
   class="st4"
   points="1096.1,661 1088.1,618.7 1094.1,618 "
   id="polygon99"
   transform="matrix(0.99145172,0,0,0.99297851,7.7585528,3.0798976)" /><polygon
   class="st4"
   points="1089.9,617.3 1130.1,602 1092.4,622.7 "
   id="polygon103"
   transform="matrix(0.99145172,0,0,0.99297851,6.0127751,4.2484891)" /><polyline
   class="st6"
   points="1136.8,695.3 1136.8,683.3 1141.8,668.3 1147.2,655.5 1160.3,644 1171,638.7 1182.2,635.8  "
   id="polyline147" /><path
   class="st4"
   d="m 1128.3,699.2 c 5.7,0 11.3,0 17,0 3.2,0 3.2,-5 0,-5 -5.7,0 -11.3,0 -17,0 -3.2,0 -3.2,5 0,5 z"
   id="path87"
   transform="matrix(0.99145172,0,0,0.99297851,6.6916674,0.93747248)" /><path
   class="st4"
   d="m 1186.7,645 c -1.4,-6.6 -2.9,-13.1 -4.3,-19.7 -0.7,-3.1 -5.5,-1.8 -4.8,1.3 1.4,6.6 2.9,13.1 4.3,19.7 0.7,3.2 5.5,1.8 4.8,-1.3 z"
   id="path93"
   transform="matrix(0.99145172,0,0,0.99297851,6.6916674,0.93747248)" />
        <line
   class="st5"
   x1="1115.4"
   y1="633.59998"
   x2="1091.1"
   y2="620"
   id="line149" />
</g>
    <g
   id="copper"
   transform="matrix(0.49622012,0,0,0.49420864,-221.58645,-15.973026)"
   style="display:none">
	<g
   id="g157">
		<g
   id="g155">
			<path
   class="st4"
   d="m 964.4,1011.8 c 0,-13.6 0,-27.2 0,-40.8 0,-3.2 -5,-3.2 -5,0 0,13.6 0,27.2 0,40.8 0,3.2 5,3.2 5,0 z"
   id="path153" />
		</g>
	</g>
        <g
   id="g163">
		<g
   id="g161">
			<path
   class="st4"
   d="m 942.3,992.3 c 13.4,0 26.8,0 40.3,0 3.2,0 3.2,-5 0,-5 -13.4,0 -26.8,0 -40.3,0 -3.3,0 -3.3,5 0,5 z"
   id="path159" />
		</g>
	</g>
        <g
   id="g169">
		<g
   id="g167">
			<path
   class="st4"
   d="m 977.3,1001 c -9.1,-8.2 -18.2,-16.3 -27.3,-24.5 -2.4,-2.1 -5.9,1.4 -3.5,3.5 9.1,8.2 18.2,16.3 27.3,24.5 2.3,2.2 5.9,-1.4 3.5,-3.5 z"
   id="path165" />
		</g>
	</g>
        <g
   id="g175">
		<g
   id="g173">
			<path
   class="st4"
   d="m 951.5,1006.5 c 8.6,-9.3 17.2,-18.7 25.8,-28 2.2,-2.4 -1.4,-5.9 -3.5,-3.5 -8.6,9.3 -17.2,18.7 -25.8,28 -2.2,2.3 1.3,5.9 3.5,3.5 z"
   id="path171" />
		</g>
	</g>
</g>
    <g
   id="iron"
   transform="matrix(0.49622012,0,0,0.49420864,-220.11786,-13.03584)"
   style="display:none">
	<circle
   class="st7"
   cx="573.29999"
   cy="761.5"
   r="18"
   id="circle178" />
        <ellipse
   class="st8"
   cx="572.5"
   cy="761.29999"
   rx="4.5"
   ry="4.9000001"
   id="ellipse180" />
        <polyline
   class="st9"
   points="610,791.3 606.7,788.9 586.4,773.8  "
   id="polyline182" />
        <polyline
   class="st10"
   points="594.4,791.3 611.2,791.3 604.8,776.2  "
   id="polyline184" />
</g>
    <g
   id="silver"
   transform="matrix(0.48325008,-0.02616348,-0.01831372,0.48109608,-209.34825,6.6287838)"
   style="display:none">
	<ellipse
   class="st7"
   cx="576.26874"
   cy="309.84207"
   rx="14.914752"
   ry="14.97715"
   id="ellipse187"
   transform="matrix(0.9999521,0.00978779,-0.00832161,0.99996537,0,0)" />
        <path
   class="st4"
   d="m 596,342.8 c 3.5,-6.3 6.9,-12.6 10.4,-18.8 1.6,-2.8 -2.8,-5.3 -4.3,-2.5 -3.5,6.3 -6.9,12.6 -10.4,18.8 -1.6,2.8 2.7,5.3 4.3,2.5 z"
   id="path61"
   transform="matrix(1.0204248,0.06310701,0.03115955,1.021709,-21.307551,-43.682323)" /><path
   class="st4"
   d="m 579.2,345.4 c 7.6,-13.2 15.2,-26.3 22.8,-39.5 1.6,-2.8 -2.7,-5.3 -4.3,-2.5 -7.6,13.2 -15.2,26.3 -22.8,39.5 -1.7,2.8 2.6,5.3 4.3,2.5 z"
   id="path189"
   style="display:inline" />
        <line
   class="st7"
   x1="599.20001"
   y1="332"
   x2="588.40002"
   y2="325.20001"
   id="line195" />
</g>
    <g
   id="lead"
   transform="matrix(0.49622012,0,0,0.49420864,-223.70406,-14.768428)"
   style="display:none">
	<path
   class="st2"
   d="m 1353.5,779 -6.8,0.8 -3.7,0.8 -2.6,-0.8 -3.2,-2 -3.1,-4 -1.6,-2.8 c 0,0 -0.4,-4.4 0,-4.7 0.4,-0.3 2,-5.3 2,-5.3 l 4.6,-7.3 3.7,-1.4 5.4,-2 h 3.3 l 5.2,0.9 3.8,2.1 2.6,2.9 2.9,1.8 1.5,1.5"
   id="path214" /><line
   class="st7"
   x1="1320.5"
   y1="782.5"
   x2="1342.3"
   y2="794.5"
   id="line204" /><line
   class="st7"
   x1="1321.9"
   y1="805.40002"
   x2="1338.3"
   y2="779.79999"
   id="line206" /><path
   class="st4"
   d="m 1313.2,803 c 4.8,2.9 9.6,5.8 14.4,8.8 2.8,1.7 5.3,-2.6 2.5,-4.3 -4.8,-2.9 -9.6,-5.8 -14.4,-8.8 -2.8,-1.7 -5.3,2.6 -2.5,4.3 z"
   id="path198" /><path
   class="st4"
   d="m 1365.6,771.3 c 2.9,-4.4 5.7,-8.9 8.6,-13.3 1.7,-2.7 -2.6,-5.2 -4.3,-2.5 -2.9,4.4 -5.7,8.9 -8.6,13.3 -1.8,2.7 2.5,5.2 4.3,2.5 z"
   id="path216" /><path
   class="st4"
   d="m 1342.7,800.9 c 1.7,-2.9 3.4,-5.9 5.1,-8.8 1.6,-2.8 -2.7,-5.3 -4.3,-2.5 -1.7,2.9 -3.4,5.9 -5.1,8.8 -1.7,2.8 2.6,5.3 4.3,2.5 z"
   id="path208" /><path
   class="st4"
   d="m 1318.9,788.2 c 1.7,-2.9 3.4,-5.9 5.1,-8.8 1.6,-2.8 -2.7,-5.3 -4.3,-2.5 -1.7,2.9 -3.4,5.9 -5.1,8.8 -1.6,2.7 2.7,5.3 4.3,2.5 z"
   id="path55"
   transform="matrix(0.99145172,0,0,0.99297851,10.959149,4.443255)" />
</g>
    <g
   id="gold"
   transform="matrix(0.49621697,0.0017661,-0.00175896,0.49420551,-221.58816,-15.03043)"
   style="display:none">
	<circle
   class="st8"
   cx="1348.7"
   cy="323.70001"
   r="5.6999998"
   id="circle225"
   style="display:none" /><polyline
   class="st7"
   points="1367.8,326 1367.8,335.8 1365.9,343.8 1361.1,349.1 1356.6,350.4 1349.5,349.6 1343,348.4    1330,332.4 1329.1,327 1328.1,318.9 1328.1,311.3 1331,305.6 1335,301.6 1339.1,300.4 1351,299.5 1354.3,301.1 1355.8,302.5   "
   id="polyline227"
   style="display:none" />
</g>

<g
   transform="matrix(0.04376422,0,0,-0.04376422,46.630891,484.40682)"
   fill="#000000"
   stroke="none"
   id="g432"
   style="display:inline"><path
     d="m 4549.7206,10757.203 c 1.6264,-14.639 4.8794,-37.953 7.0481,-52.59 l 3.7952,-26.566 -82.4093,2.71 -81.8673,3.253 3.253,-20.061 c 2.1687,-10.844 4.8795,-21.143 5.9639,-23.311 1.0842,-2.711 36.325,-4.337 78.0719,-4.337 74.2768,0 75.3614,0 75.9036,-11.929 0,-7.048 2.1685,-62.349 4.3373,-123.613 2.1686,-61.266 2.1686,-140.423 0,-176.205 -3.7951,-58.554 -1.0844,-81.868 8.6747,-72.109 1.6264,1.627 12.4696,27.107 23.313,56.928 44.9998,118.194 131.2046,207.65 200.602,207.65 46.6262,0 91.6261,-34.157 104.0959,-79.157 10.3012,-35.239 8.6747,-108.433 -2.7108,-144.216 -18.9759,-58.012 -46.0843,-92.71 -121.9876,-156.144 -99.2166,-82.41 -124.6984,-117.651 -124.6984,-169.1561 0,-35.7829 9.2169,-49.3371 40.6625,-61.2648 29.8192,-11.9277 54.7588,-7.5905 93.795,14.6386 71.0238,40.1202 88.3731,73.7346 48.2528,94.3373 -15.1808,8.133 -17.3493,8.133 -30.3613,-1.627 -7.5903,-5.964 -19.5181,-21.6866 -26.0241,-35.2408 -14.6385,-30.3613 -35.7829,-47.7106 -58.554,-47.7106 -25.4818,0 -37.4096,15.7229 -34.1566,44.9999 4.8797,44.4575 38.4939,74.8185 152.3489,139.3365 87.8312,49.338 117.1082,75.904 143.1323,129.036 18.9757,37.953 20.6023,45.001 22.2288,97.049 2.1686,52.59 1.0842,58.012 -14.0965,90.54 -21.6865,46.086 -49.337,75.362 -90.5418,95.965 -32.5301,15.723 -37.4095,16.806 -85.1201,14.637 -62.3495,-2.168 -99.7588,-18.434 -146.3853,-63.434 l -30.9035,-30.359 -2.7108,15.722 c -1.6264,8.674 -3.2529,50.423 -3.2529,93.253 v 78.073 h 97.5901 c 79.1564,0 97.59,1.626 97.59,7.589 0,3.795 1.6265,14.096 3.2529,22.77 l 3.2531,15.724 -99.7588,-1.627 -99.7587,-2.169 3.7951,37.411 c 2.7109,20.06 4.3373,43.372 4.3373,52.048 l 0.5422,14.639 h -46.6263 -47.1684 z"
     id="path414"
     style="fill:#9614c8;fill-opacity:1;stroke-width:0.542167" /><path
     d="m 4770.7321,9807.1198 c -7.5952,-13.9245 -308.87,-534.1932 -668.3744,-1156.9966 L 3447.9078,7517.1779 2109.893,7510.8486 771.87837,7504.5194 1436.4552,6352.5861 c 365.8337,-632.9303 662.0451,-1159.5283 659.5134,-1170.921 -3.7976,-10.1269 -302.5408,-531.6615 -664.5768,-1158.2626 L 773.14419,2884.128 l 1336.74881,-6.3293 1336.7488,-6.3293 664.5769,-1154.4649 c 367.0996,-635.462 669.6403,-1154.46492 673.4379,-1155.73074 5.0634,0 308.8699,521.53454 677.2354,1158.26244 l 668.3743,1158.2625 h 1332.9513 c 732.9333,0 1332.9512,2.5317 1332.9512,6.3293 0,2.5318 -298.743,524.0663 -664.5768,1156.9967 l -664.5767,1151.9331 659.5132,1143.0721 c 363.3021,629.1327 663.311,1150.6673 665.8428,1159.5284 5.0635,11.3927 -265.8308,15.1903 -1329.1537,15.1903 H 6129.0005 l -655.7158,1136.7428 c -360.7703,624.0694 -663.311,1145.6039 -672.1719,1159.5284 -15.1904,22.7855 -16.4562,22.7855 -30.3807,0 z M 5388.472,8513.4102 c 315.1994,-544.32 572.1691,-993.7006 572.1691,-996.2323 0,-3.7976 -167.0937,-6.3293 -372.1631,-6.3293 h -370.8972 l -212.6645,367.0995 c -116.4591,202.5378 -215.1963,367.0997 -218.9939,367.0997 -5.0634,-1.2659 -72.154,-110.1299 -148.1057,-244.3111 C 3877.0345,6675.3806 3103.5936,5347.4928 3095.9984,5350.0246 c -6.3293,1.2658 -92.4077,144.308 -192.4108,317.7309 l -181.018,315.1994 41.7734,70.8882 c 22.7854,39.2416 478.4953,829.1387 1012.6884,1754.4828 534.1932,926.6099 979.7761,1697.5191 989.903,1712.7094 17.7222,29.1148 18.988,29.1148 34.1784,6.3292 8.8609,-12.6585 273.4258,-468.3684 587.3592,-1013.9543 z M 4922.6354,7743.767 c 70.8882,-122.7885 126.586,-225.3232 122.7884,-227.8549 -2.5317,-2.5318 -121.5226,-3.7976 -264.5648,-2.5318 l -260.7674,3.7976 129.1178,224.0574 c 69.6224,124.0543 131.6496,225.3232 135.4472,225.3232 5.0634,0 67.0906,-100.0031 137.9788,-222.7915 z M 3230.1797,7141.2174 c -73.42,-127.852 -156.9668,-273.426 -186.0815,-322.7945 l -51.9003,-92.4079 h -426.5951 c -235.45,0 -427.8609,-2.5316 -427.8609,-5.0634 0,-3.7976 1615.2382,-2805.1472 1660.8092,-2877.3012 l 25.3172,-41.7734 H 3445.376 l -377.2265,1.2658 -991.1689,1717.7729 C 1531.3947,6465.2478 1068.0898,7269.0693 1047.836,7305.7792 l -39.2417,65.8247 h 1178.5162 1177.2504 z m 5325.4757,224.0572 c 0,-10.1269 -1168.3894,-2032.9722 -1170.9211,-2027.9087 -1.2659,1.2659 -86.0786,146.8398 -188.6133,324.0603 l -184.8156,320.2628 212.6645,369.6313 212.6646,368.3654 -1684.8604,6.3293 -1684.8606,6.3293 183.5498,318.9969 184.8157,320.2627 h 2060.8211 c 1132.9453,0 2059.5553,-2.5317 2059.5553,-6.3293 z M 2875.7387,6526.0091 c -20.2537,-34.1783 -78.4834,-135.4471 -130.3836,-227.855 -51.9004,-91.1419 -97.4713,-167.0935 -101.2689,-167.0935 -5.0635,0 -221.5256,368.3654 -262.0331,446.8487 -2.5318,5.0635 115.1933,8.8611 262.0331,8.8611 h 265.8308 z m 3116.5488,-635.4621 401.2779,-696.2234 -69.6223,-122.7884 c -39.2418,-68.3564 -218.9939,-379.7582 -400.012,-693.6916 l -329.1238,-569.6373 -807.6191,-2.5317 -807.619,-3.7976 -398.7461,692.4257 c -218.9939,381.0241 -397.4803,698.7551 -394.9485,706.3502 2.5317,6.3294 182.2839,321.5287 398.746,698.7552 l 394.9486,686.0964 805.0874,1.2659 h 806.3531 z M 7529.0424,4806.9703 c 565.8397,-979.7761 1025.3471,-1782.3317 1022.8154,-1784.8635 -2.5318,-2.5317 -529.1297,-3.7975 -1170.9211,-2.5317 l -1165.8576,3.7975 183.5497,320.2629 184.8157,318.9968 h 427.8609 427.8608 l -227.8548,396.2144 c -1074.7158,1859.5492 -1453.208,2516.531 -1453.208,2521.5943 0,3.7976 167.0935,6.3294 372.1629,6.3294 h 370.8973 z m -340.5165,1770.939 c 0,-12.6585 -243.0452,-434.1902 -254.438,-440.5195 -7.5952,-5.0634 -264.5648,424.0633 -264.5648,443.0512 0,3.7976 116.4591,6.3294 259.5014,6.3294 143.0422,0 259.5014,-3.7976 259.5014,-8.8611 z M 2376.9896,4724.6894 c 155.7009,-272.1601 179.7522,-320.2627 168.3594,-344.3141 -6.3292,-15.1903 -101.2688,-181.0181 -210.1328,-369.6313 l -197.4743,-341.7824 1683.5947,-3.7976 c 925.3441,-1.2658 1683.5947,-5.0634 1683.5947,-7.5951 0,-2.5318 -81.0151,-146.8399 -181.0181,-318.9969 l -181.0181,-315.1994 -2067.1504,-3.7975 -2067.1504,-2.5317 17.722,27.8489 c 10.1269,16.4562 273.4259,472.166 586.0935,1013.9544 312.6675,540.5225 570.9031,983.5737 574.7007,983.5737 3.7976,0 89.8761,-143.0422 189.8791,-317.731 z m 4298.8627,-16.4562 c 130.3836,-227.855 170.8912,-307.6041 162.0302,-322.7945 C 6831.5532,4374.046 6368.2482,3571.4903 5810.0036,2603.107 5250.4932,1633.4578 4789.72,839.76313 4784.6566,839.76313 c -8.8611,1.26581 -1158.2625,1993.73047 -1163.326,2020.31357 -3.7976,15.1902 44.3051,17.722 365.8338,15.1902 l 370.8971,-3.7975 213.9305,-370.8972 c 117.7249,-203.8035 215.1962,-369.6313 217.728,-367.0995 1.2659,2.5317 345.5799,598.752 765.8457,1326.6219 418.9998,727.8698 797.4922,1381.0539 839.2656,1453.208 60.7613,106.3323 78.4833,127.8519 91.1419,113.9275 8.8611,-8.8611 93.6737,-153.1692 189.8791,-318.9969 z m -3892.5214,-687.3623 122.7885,-212.6646 -131.6495,-3.7977 c -70.8883,-1.2658 -189.8792,-1.2658 -262.0332,0 l -132.9154,3.7977 129.1179,224.0573 c 81.015,143.0423 132.9153,220.2598 140.5104,212.6646 6.3293,-6.3294 67.0906,-107.5982 134.1813,-224.0573 z m 4277.3431,17.722 c 64.5588,-108.864 118.9908,-207.6012 122.7884,-217.7281 6.3293,-16.4562 -26.5831,-18.9878 -254.4379,-18.9878 -144.3082,0 -259.5014,5.0634 -256.9698,10.1269 21.5197,56.9637 256.9698,444.3171 264.5649,436.7218 5.0634,-5.0634 60.7613,-100.0029 124.0544,-210.1328 z M 5049.2214,2870.2036 c 0,-6.3294 -248.1086,-444.3171 -259.5014,-458.2416 -5.0634,-6.3293 -259.5015,437.9878 -259.5015,451.9122 0,10.1269 84.8127,13.9245 259.5015,13.9245 143.0423,0 259.5014,-3.7976 259.5014,-7.5951 z"
     id="path416"
     style="display:inline;fill:#9614c8;fill-opacity:1;stroke:#9614c8;stroke-width:1.25673438;stroke-opacity:1;stroke-dasharray:none" /><path
     d="m 8940.9851,8360.0984 c -101.3058,-12.6634 -113.9692,-29.9919 -25.3264,-33.9908 49.9864,-1.9994 68.6481,-5.9985 95.3076,-19.9947 154.6249,-80.6448 173.9529,-303.2514 38.6563,-446.546 -48.6537,-50.653 -122.6337,-106.6378 -203.2785,-152.6254 -71.9806,-40.6557 -68.6481,-37.9898 -63.3163,-43.3217 1.9996,-1.9995 29.9919,7.9977 62.6497,22.6605 117.9681,53.319 131.9645,55.985 323.9126,59.3174 102.639,2.6659 174.6195,1.3329 178.6185,-2.666 5.3317,-5.3317 0,-88.6428 -11.3303,-176.6188 l -4.6654,-31.9914 h 65.3157 65.3156 l -4.6654,41.9886 c -1.9995,22.6605 -5.9984,68.6481 -8.6644,102.6388 l -3.9989,61.3169 107.3044,-3.999 c 127.9655,-4.6653 127.9655,-4.6653 127.9655,51.9859 0,21.9942 -1.9995,39.3228 -4.6655,39.3228 -3.3324,0 -25.993,-3.3324 -51.9859,-7.3314 -26.6594,-3.9988 -75.3131,-4.6654 -112.6364,-1.9995 l -65.9821,3.999 3.9989,54.6521 c 2.666,29.3253 5.9984,71.3139 8.6644,92.6415 l 4.6654,37.9897 h -64.6492 c -72.6469,0 -68.6481,3.999 -57.9844,-60.6502 3.3325,-19.9946 7.998,-55.985 9.9973,-79.9784 l 3.999,-44.6547 -77.979,-4.6653 c -71.9805,-3.999 -127.299,-9.9973 -188.6157,-19.9947 l -23.3271,-3.9988 16.6623,11.9967 c 34.6574,24.66 100.6395,91.975 120.6341,123.3001 32.6578,50.6529 45.9876,103.3053 45.321,177.2853 0,71.3142 -8.6643,99.9731 -43.9881,150.626 -55.3184,78.6455 -153.2918,117.3017 -261.9293,103.3055 z"
     id="path422"
     style="fill:#9614c8;fill-opacity:1;stroke-width:0.666487" /><path
     d="m 858.1529,8375.6551 c -77.43284,-48.0084 -269.46651,-108.4062 -402.65113,-126.9899 -82.85321,-11.6151 -96.79115,-15.4866 -96.79115,-24.0044 0,-3.8715 64.26933,-7.7432 146.34822,-9.2919 80.53024,-1.5486 149.44553,-4.6459 152.54286,-8.5176 6.96896,-6.9689 -24.00421,-39.4908 -146.34823,-154.0914 l -90.5965,-85.1762 -56.52603,29.4244 -55.75171,30.1989 h -96.79116 c -90.59651,0 -99.88846,-1.5486 -140.927897,-21.6811 -68.1409813,-33.2963 -117.69805,-82.8534 -150.994207,-150.2199 -24.778526,-50.3316 -28.650186,-66.5924 -31.747486,-125.4414 -3.87166,-75.8843 9.29194,-136.282 41.813766,-191.2593 27.101532,-46.4598 96.791144,-109.1804 147.896887,-133.1846 40.265117,-18.5839 53.428707,-20.907 130.087297,-20.907 80.53024,0 88.27353,1.5487 136.28194,24.7785 61.94634,30.9732 131.63595,100.663 158.73748,160.2862 44.13676,96.7912 38.71646,214.4893 -15.48658,312.0547 -20.13257,34.8448 -20.13257,34.8448 -5.42031,55.7518 8.51762,10.8405 61.94634,66.5922 120.02103,123.8924 90.59653,90.5966 105.30872,102.2117 110.72906,89.048 3.09734,-7.7433 6.19465,-78.2072 6.19465,-155.6401 0,-90.5965 3.09734,-141.7023 7.74326,-141.7023 4.64605,0 16.26092,37.1678 26.32718,83.6276 24.77859,113.8263 78.20727,274.1125 123.8927,370.1292 45.68544,96.017 43.36242,106.8576 -18.58394,68.9154 z M 307.60489,7950.5484 c 35.61915,-14.7123 78.98159,-54.9774 102.21146,-94.4682 37.94212,-64.2693 30.97316,-167.2551 -17.03524,-264.0462 -50.33139,-99.1142 -169.5781,-160.2862 -263.27193,-134.7334 -70.463959,18.5839 -136.2819303,92.1453 -147.122545,162.6092 -11.614937,77.4329 27.1015167,204.4229 81.304564,266.3692 38.716451,44.1369 109.180421,75.11 168.803771,75.11 27.10151,0 60.39768,-4.646 75.10992,-10.8406 z"
     id="path424"
     style="fill:#9614c8;fill-opacity:1;stroke-width:0.77433" /><path
     d="m -54.509028,3391.9276 c -10.218402,-9.4324 -5.502221,-40.8736 13.36254,-93.5377 20.436787,-55.8082 50.3059514,-91.9655 106.900188,-131.2672 19.650787,-12.5764 36.15743,-24.3669 37.72947,-25.153 1.57208,-1.5721 -18.864723,-23.5807 -45.589778,-49.5198 -31.441244,-31.4414 -55.8081857,-66.0266 -72.314831,-101.3979 -22.794906,-47.9481 -25.153005,-59.7383 -25.153005,-132.0532 0,-104.5421 17.292686,-150.918 85.677374,-223.2328 55.02216,-57.3803 108.47225,-91.9657 158.77823,-99.826 35.37138,-5.5023 41.65962,-18.0786 41.65962,-82.5331 0,-29.0833 -0.78602,-30.6552 -25.15297,-30.6552 -36.15743,0 -124.192884,22.0089 -145.415711,35.3714 -9.432381,6.288 -24.366969,11.7905 -33.799346,11.7905 -14.934565,0 -15.720605,-4.7162 -15.720605,-90.3937 0,-100.6119 2.358097,-104.5421 50.305979,-74.6728 40.087583,24.3669 169.782653,51.8779 169.782653,36.1573 0,-29.0831 -20.43679,-135.1973 -32.22725,-165.8524 -25.93902,-68.3848 -28.29712,-66.8127 79.38912,-66.8127 59.73833,0 94.3237,3.1442 94.3237,7.8604 0,4.7161 -7.07428,22.0086 -15.72063,39.3014 -18.86474,36.9433 -39.30153,118.6906 -39.30153,159.5642 0,25.1531 2.35809,29.0832 18.0787,29.0832 33.79933,-0.7861 121.83478,-22.7947 154.06204,-38.5155 55.02216,-28.2972 55.8082,-28.2972 55.8082,74.6729 v 91.1795 l -21.22283,-3.9301 c -12.5765,-2.3579 -41.65962,-11.0044 -65.24057,-19.6508 -23.58092,-8.6463 -65.24055,-18.8647 -92.75162,-22.0088 l -49.51996,-5.5022 2.35809,53.4501 2.3581,53.4502 36.15741,8.6462 c 80.17515,20.4368 168.99665,94.3238 207.51216,172.9268 41.65963,85.6774 43.23169,205.9402 3.14412,292.4034 -10.2184,21.2228 -40.87362,61.3104 -67.59867,88.8216 -27.51107,27.5111 -48.73391,50.3058 -47.94787,51.8779 1.57206,0.7861 16.50665,9.4325 33.79933,20.4369 73.10087,44.0178 106.90018,87.2494 138.34136,179.215 18.07881,51.0922 17.2928,45.5898 3.93016,50.306 -7.86018,3.1442 -18.8647,-7.8603 -32.2272,-31.4413 -73.88692,-124.9788 -217.73055,-187.0753 -389.08526,-165.8523 -104.5421,12.5763 -169.782682,54.2361 -231.8791187,147.7737 -39.3015293,58.9524 -37.7294693,57.3803 -45.5897893,49.5199 z M 381.73811,3078.3013 c 45.58977,-14.9345 94.3237,-57.3802 122.62079,-103.756 18.86474,-33.0133 21.22285,-44.0179 21.22285,-107.6864 -0.78603,-77.8169 -12.5765,-110.8303 -59.73836,-164.2802 -54.23614,-62.0965 -168.99662,-91.1798 -259.39016,-65.2407 -209.8702462,61.3104 -205.94009211,366.2903 6.28822,442.5354 40.87361,14.1485 124.97893,13.3624 168.99666,-1.5721 z"
     id="path426"
     style="fill:#9614c8;fill-opacity:1;stroke-width:0.786032" /><path
     d="m 9105.911,3219.0716 c -104.7375,-24.9026 -184.5727,-98.1456 -219.7291,-202.8831 -13.1837,-38.8188 -15.3812,-60.0593 -13.1837,-114.2591 2.1973,-59.327 5.8593,-73.2432 30.0296,-122.3159 19.0432,-38.8188 39.5512,-66.6513 69.5809,-93.7512 45.4105,-41.0162 117.1887,-79.8349 150.1481,-79.8349 19.7755,0 19.7755,0 19.7755,-51.2701 v -51.27 h -30.7619 c -36.6215,0 -95.2159,14.6486 -128.1753,31.4945 -45.4107,23.4375 -46.1431,21.9727 -46.1431,-75.4405 0,-98.1455 2.1973,-101.0754 46.8757,-73.9755 30.7618,19.0433 95.9481,37.3539 132.5696,37.3539 h 30.0297 l -5.8594,-59.3266 c -3.6622,-32.9593 -13.1837,-76.9053 -21.2406,-97.4132 -26.3675,-71.046 -27.0999,-70.3134 73.9756,-70.3134 h 87.8916 v 17.5783 c 0,10.2541 -2.9297,19.7756 -6.5918,22.7054 -11.7189,6.5917 -37.3539,93.0183 -42.481,142.0914 l -4.3947,46.8755 50.5378,-5.1271 c 27.8325,-2.9296 70.3133,-13.1837 94.4835,-23.4376 82.7647,-35.1566 76.9051,-40.2838 76.9051,62.9889 0,102.5404 7.3243,95.9485 -76.1727,65.9187 -24.1702,-8.789 -65.9188,-17.5783 -93.7512,-19.7754 l -49.805,-4.3946 v 40.2836 c 0,47.608 8.0567,59.3269 51.27,71.0458 75.4403,21.2404 169.9239,107.6671 198.4886,183.1074 24.1703,62.2565 27.0998,154.543 7.3244,218.9968 -26.3675,86.4267 -94.4835,161.1347 -176.5158,192.6293 -49.8054,19.0431 -148.6834,24.9026 -205.0804,11.7187 z m 205.8129,-101.8077 c 71.0457,-41.7487 108.3996,-104.7376 109.132,-183.1078 0,-137.6969 -95.9485,-235.11 -234.3777,-235.8425 -127.4429,-1.4649 -213.8695,71.0458 -224.8561,188.2347 -7.3244,82.0322 25.6351,156.74 93.7511,211.6723 42.481,34.4243 74.7081,43.2134 153.0779,40.2838 60.7917,-1.4649 74.7079,-4.3947 103.2728,-21.2405 z"
     id="path428"
     style="fill:#9614c8;fill-opacity:1;stroke-width:0.73243" /><path
     d="m 4565.4212,505.88677 c -60.5238,-19.19049 -87.0953,-35.42859 -134.3335,-80.45244 -39.1191,-36.90476 -54.619,-67.9048 -34.6905,-67.9048 4.4287,0 22.8811,13.28574 41.3334,29.52383 43.5476,38.38097 103.3335,60.52386 165.3334,61.26194 40.5954,0.73809 56.8335,-2.95238 97.4286,-22.88097 80.4526,-39.85716 143.1907,-123.26198 160.1668,-214.78584 18.4525,-100.38102 2.9524,-245.785853 -33.2143,-307.047798 -39.8572,-68.642902 -130.6429,-128.428642 -219.9525,-144.666752 -62,-11.80952 -132.1191,3.69049 -173.4523,37.64288 -47.2383,39.11907 -62.7382,23.61906 -23.6192,-23.61906 31.7382,-38.38097 104.0715,-84.14291 160.1668,-101.85721 72.3333,-22.14286 196.3335,-20.66668 271.6191,2.95239 170.5002,53.88098 288.5955,204.45249 303.3575,386.762129 15.4999,199.285831 -125.4764,397.833571 -318.8575,447.285981 -64.2143,16.23812 -207.405,15.50001 -261.2858,-2.21428 z m 241.3574,-61.26194 c 78.2379,-28.78574 163.119,-107.76197 205.1906,-191.16679 23.6189,-45.76193 35.4285,-123.26199 28.7856,-187.476313 -17.7143,-183.047707 -132.8572,-313.690637 -298.9288,-338.047807 -45.0238,-5.90476 -60.5239,-5.90476 -67.1666,0.7381 -6.6429,6.64286 -5.9048,8.85715 3.6905,8.85715 26.5714,0 105.5477,47.23812 142.4523,85.61909 78.9764,80.452432 117.3573,211.095375 101.1192,340.26212 -16.2382,128.42863 -67.9049,212.57156 -180.0954,291.54779 l -17.7142,13.28572 22.1429,-4.42858 c 12.5476,-2.95238 39.857,-11.07142 60.5239,-19.19048 z"
     id="path430"
     style="fill:#9614c8;fill-opacity:1;stroke-width:0.738095" /></g></svg>
