<?xml version="1.0" encoding="UTF-8" standalone="no"?>
<!-- Created with Inkscape (http://www.inkscape.org/) -->

<svg
   viewBox="0 0 512 512"
   version="1.1"
   id="svg136"
   xml:space="preserve"
   xmlns="http://www.w3.org/2000/svg"
   xmlns:svg="http://www.w3.org/2000/svg"><defs
     id="defs133" /><g
     id="layer1" class="svgIconFill"><path
       id="path489"
       style="fill-opacity:1;stroke:none;stroke-width:64;stroke-miterlimit:10;paint-order:markers fill stroke"
       d="M -256 0 C -114.61566 0 0 -114.61566 0 -256 C 0 -397.38434 -114.61566 -512 -256 -512 C -397.38434 -512 -512 -397.38434 -512 -256 C -512 -114.61566 -397.38434 0 -256 0 z M -215.07031 -63.621094 C -222.11311 -63.621094 -229.15545 -66.305838 -234.52344 -71.673828 L -344.45898 -181.60938 C -355.19496 -192.34535 -355.19496 -209.7816 -344.45898 -220.51758 C -333.723 -231.25356 -316.28871 -231.25356 -305.55273 -220.51758 L -242.59766 -157.47656 L -242.59766 -365.92578 C -242.59766 -381.12793 -254.87792 -393.41016 -270.08008 -393.41016 L -386.88867 -393.41016 C -402.09081 -393.41016 -414.37305 -405.69238 -414.37305 -420.89453 C -414.37305 -436.09667 -402.09081 -448.37891 -386.88867 -448.37891 L -270.08008 -448.37891 C -224.55951 -448.37891 -187.62891 -411.44634 -187.62891 -365.92578 L -187.62891 -157.47656 L -124.58594 -220.51758 C -113.84996 -231.25356 -96.415667 -231.25356 -85.679688 -220.51758 C -74.943708 -209.7816 -74.943708 -192.34535 -85.679688 -181.60938 L -195.61523 -71.673828 C -200.98322 -66.305838 -208.02751 -63.621094 -215.07031 -63.621094 z "
       transform="scale(-1)" /><path
        d="m 323.01334,501.89241 c 0,10.08393 8.18815,18.27208 18.27207,18.27208 l 129.07424,-10e-6 c 10.08398,0 18.27213,-8.18817 18.27206,-18.27207 7e-5,-10.08394 -8.18808,-18.27208 -18.27206,-18.27207 l -85.06798,0.0403 123.74994,-123.74997 c 7.13942,-7.13939 7.13942,-18.67541 0,-25.81483 -7.13942,-7.13942 -18.67545,-7.13941 -25.81481,-1e-5 l -123.70964,123.70965 -0.0403,-84.98735 c -3e-5,-10.0839 -8.18818,-18.27204 -18.27207,-18.27208 -10.08394,2e-5 -18.27209,8.18816 -18.27209,18.27209 l -1e-5,129.07426 z"
        id="path5705"
       style="display:none;stroke-width:0.570433" /></g></svg>
