<svg xmlns="http://www.w3.org/2000/svg" xml:space="preserve" viewBox="0 0 512 512"><path d="M-256 0C-114.616 0 0-114.616 0-256s-114.616-256-256-256-256 114.616-256 256S-397.384 0-256 0m40.93-63.621c-7.043 0-14.085-2.685-19.453-8.053L-344.46-181.609c-10.736-10.736-10.736-28.173 0-38.909s28.17-10.736 38.906 0l62.955 63.041v-208.449c0-15.202-12.28-27.484-27.482-27.484H-386.89c-15.202 0-27.484-12.282-27.484-27.485s12.282-27.484 27.484-27.484h116.809c45.52 0 82.451 36.933 82.451 82.453v208.45l63.043-63.042c10.736-10.736 28.17-10.736 38.906 0s10.736 28.173 0 38.909L-195.615-71.674c-5.368 5.368-12.413 8.053-19.455 8.053" class="svgIconFill" style="fill-opacity:1;stroke:none;stroke-width:64;stroke-miterlimit:10;paint-order:markers fill stroke" transform="scale(-1)"/></svg>
