<svg xmlns="http://www.w3.org/2000/svg" xml:space="preserve" viewBox="0 0 512 512"><path d="M-256 0C-114.616 0 0-114.616 0-256s-114.616-256-256-256-256 114.616-256 256S-397.384 0-256 0m-7.285-34.178v-88.646l-30.516 30.455c-3.619 3.612-9.496 3.612-13.115 0a9.246 9.246 0 0 1 0-13.09l46.324-46.23.03.029c3.619-3.612 9.496-3.612 13.115 0l46.324 46.23c3.619 3.612 3.619 9.478 0 13.09s-9.496 3.612-13.115 0l-30.518-30.484v88.646c0 5.114-4.901 9.246-9.264 9.246-3.93 0-9.265-4.132-9.265-9.246m117.81-142.529h-221.05c-26.21 0-47.721-21.259-47.721-47.38v-177.505c0-26.122 21.511-47.383 47.72-47.383h221.051c26.21 0 47.721 21.261 47.721 47.383v177.504c0 26.122-21.511 47.381-47.72 47.381m0-20.553c15.278 0 27.168-11.837 27.168-26.828v-177.504c0-14.991-11.89-26.83-27.168-26.83h-221.05c-15.278 0-27.168 11.839-27.168 26.83v177.504c0 14.991 11.89 26.828 27.168 26.828zm-2.08-34.924a4.03 4.03 0 0 1-2.925-1.273l-.516-.543c-5.11-5.314-6.756-10.922-6.525-19.998-.94-.234-.456.977-.456.977l-1.925-1.754c-.266.136-.714.46-1.284.402-.494.724-2.019 1.431-3.119.752.73 3.403 2.264 13.857-3.13 19.603l-.764.805a3.23 3.23 0 0 1-2.328 1.012c-1.53 0-2.86-1.118-3.21-2.69l-.167-.767c-1.132-5.142.77-14.903 2.045-20.447-2.275-1.009-4.8-3.233-6.067-8.096.053.004.583.45.643.465-.835-1.998-1.202-6.822-1.676-9.332l.787 1.164c0-2.119 1.382-8.085 2.016-9.407 0 0 .358 1.731.433 1.254.167-1.055.82-3.733 2.006-4.394l1.676-.988c4.552-4.013 6.722-3.813 10.535-3.85 4.098-.04 4.172-.733 10.692 4.887l1.834.652 1.21 2.654c.112.255.39-1.275.39-1.275 1.727 1.603 3.642 6.242 3.484 9.182l-.149 1.906s.545-1.145.545-1.123l-.64 4.06c.277 1.999-.05 3.792-.46 5.274-1.161 3.538-3.29 4.89-5.113 5.896 2.335 4.856 6.033 13.726 5.213 19.791l-.117.856c-.3 2.147-.859 4.345-2.938 4.345m-.992-2.697c4.823-.961-1.415-17.07-4.433-20.797-5.658 1.833-.006 17.003 4.433 20.797m-22.115-.617c2.813.282 6.578-14.507 2.9-19.807q-.075-.001-.176.008c-2.466.035-5.974 14.659-2.724 19.8zm-150.164-6.234a1 1 0 0 1-.633-.205c-.53-.39-.777-1.23-.582-2.008l.871-3.51a7.7 7.7 0 0 0 .201-2.438c-.225-3.005-2.092-5.287-4.326-5.287h-.842c-1.193 2.482-3.625 4.159-6.63 4.159h-14.81c-3.083 0-5.569-1.762-6.726-4.352h-.93c-2.233 0-4.69 2.28-4.915 5.285-.063.82.007 1.651.2 2.44l.866 3.52c.195.766-.055 1.618-.584 2.007-.53.389-1.19.21-1.564-.432l-.584-.986c-1.41-2.386-2.18-5.37-2.18-8.418 0-6.927 4.395-12.692 9.463-13.426l.437-5.773c.278-3.666 4.198-6.026 6.817-6.93l1.715-7.87c.448-2.126 2.04-3.616 3.867-3.616h3.047c1.834 0 3.427 1.49 3.867 3.617l1.715 7.87c2.618.903 6.538 3.263 6.816 6.929l.455 6.006c4.898.862 8.672 6.556 8.672 13.386 0 3.059-.771 6.042-2.18 8.428l-.584.979c-.233.394-.581.612-.94.625m87.754-5.309c-.628 0-3.579-3.94-4.817-6.42-.486.167-.619.241-1.172.272-2.963.162-2.214 1.209.227 2.335 0 0-3.662-.092-5.387-.894-1.201-.558-.875.605-.875.605l-1.181-.804c-.491.345-.684.448-.973.582.077-.253.076-.507-.066-.76-4.407 1.619.21-.607-.409-.371-2.96 1.136-5.076 1.804-6.699.738 1.068-.064 2.758-1.16 1.445-1.033-.817.056-1.485-.147-2.431-.66-.674.979-1.876 2.074-2.516 3.014-.804 1.181-2.04 3.402-3.006 3.25-1.314-.207-2.294-4.192-2.357-6.338 0 0-.387-4.123-.096-6.145 0 0 .037-1.101.717-2.111-2.075-4.349-2.47-7.17-2.27-8.223l1.165 1.22c-.515-3.034 2.795-9.946 3.472-11.273 0 0 1.358 1.633 1.434 1.133.169-1.106.587-3.73 1.785-4.424.171-.099.668 1.034.668 1.034s.107-1.141.91-2.069c3.193-3.689 6.75-4.66 9.744-4.66 2.971 0 5.715 1.244 8.383 5.428 0 .94 1.262 2.77 1.428 3.914.026.18.48-1.587.396-3.13 0 0 1.294 2.255 1.588 3.45.144.585-.2.68.752 2.936 0 0 .157-1.925.277-1.664 1.251 2.71 2.623 5.208 2.643 7.95l.625-.683.023 1.106s.22-.144.22-.121l-.593 4.205c.508 3.082.247 4.322.247 4.322.166.764-.662 1.9-.838 2.549l.603-.487c.292 2.023-.328 5.87-.328 5.87-.063 2.146-1.045 6.129-2.36 6.336a2 2 0 0 1-.378.021m-.26-3.461q.023.001.045-.002c.372-.071.736-.835.683-2.215l.022-.447c-.09.182-.172.234-.172.234.371-2.124.04-3.655.012-4.986-.58.782-1.276 1.958-2.092 2.533-.635.585-1.003.856-1.385 1.096l2.04 3.238c.137.18.605.54.847.549m-26.803-.293c.225-.009.66-.342.787-.508l1.897-2.992c-1.162-.765-3.485-2.853-3.48-3.6.07 1.5-.375 2.422.015 4.641 0 0-.077-.048-.16-.217l.021.412c-.049 1.276.533 2.196.88 2.262zm96.387-3.064c1.026.024 1.461-1.055 1.396-1.4-.868.565-1.135.614-2.084 1.019.014.056.035.17.05.234q.35.14.638.147m-183.027-8.364c1.932 0 3.498-1.61 3.498-3.595s-1.566-3.598-3.498-3.598-3.498 1.612-3.498 3.598 1.566 3.595 3.498 3.595m12.586-.185c1.935 0 3.503-1.616 3.498-3.606.005-1.99-1.563-3.605-3.498-3.605s-3.504 1.615-3.499 3.605c-.005 1.99 1.563 3.606 3.499 3.606m78.712-1.182c2.073.044 4.226-2.21 5.373-4.619.848-1.778-5.894-1.616-6.828.047-.691 1.458 1.455 4.572 1.455 4.572m18.122-.021s2.08-3.104 1.41-4.559c-.906-1.658-7.445-1.821-6.623-.049 1.113 2.403 3.202 4.651 5.213 4.608m85.084-2.52c1.995.02 2.128-2.835 1.482-4.615-1.068-1.902-7.778-1.85-6.92-.049 1.163 2.442 3.78 2.032 5.014 4.62q.224.042.424.044m-17.788-.088c1.53.11 4.047-2.912 5.065-5.049.858-1.801-5.972-1.636-6.918.05-.492 1.157.226 3.707 1.266 4.747a.95.95 0 0 0 .587.252m-76.296-10.076c1.16.007 3.416-.448 3.224-1.184-.481-1.846-1.831-4.181-2.578-4.644-.48-.297-.736-.296-1.293 0-.69.427-2.113 2.868-2.576 4.644-.197.757 2.1 1.177 3.223 1.184m85.125-.838c.946.006 2.785-.365 2.628-.965-.392-1.507-1.494-3.41-2.103-3.787-.391-.242-.598-.242-1.053 0-.562.349-1.725 2.338-2.103 3.787-.161.618 1.715.96 2.63.965m-174.368-13.98h-9.148c-10.38 0-19.989-5.605-25.348-14.756l-17.957-30.715c-2.803-4.781-1.293-11.019 3.358-13.9s10.718-1.33 13.521 3.45l8.84 15.073v-51.574a37 37 0 0 0-7.887-1.758c-5.258 2.387-6.072 3.678-8.744 6.664-.221-.643-.481-.856-.642-.648-1.919 1.169-3.453 2.775-7.157 3.777.944-1.218 2.077-1.938 2.79-3.768l-1.292.418c-.27-.348.23-.84.485-1.289-.729.189-1.379.316-2.715.975.747-.79 1.533-1.551 2.137-2.447-1.453-.577-2.954-.006-4.44.209 1.378-1.096 2.664-2.061 5.031-3.31.594-.252-.595-.813-.595-.813 3.685-2.094 9.766-2.507 14.207-1.996 1.45-.06 2.977-.002 4.629.242 1.443.335 2.837.75 4.193 1.224v-16.549c0-5.604 4.404-10.132 9.855-10.132s9.856 4.528 9.856 10.132v31.596a44.8 44.8 0 0 1 4.863 8.934h.067v-40.53c0-5.604 4.403-10.132 9.855-10.132s9.856 4.528 9.856 10.132v70.643l8.808-15.072c2.803-4.782 8.87-6.333 13.522-3.451 4.65 2.881 6.16 9.119 3.357 13.9l-17.957 30.715c-5.36 9.15-14.968 14.756-25.348 14.756m174.37-.031c-13.676 0-25.751-9.151-29.817-22.545l-9.146-30.145c-1.633-5.351 1.263-11.019 6.468-12.697a9.6 9.6 0 0 1 2.926-.477l-2.773-8.517c-1.078-3.293 1.324-6.68 4.681-6.68h5.483v-30.398c0-5.605 4.406-10.133 9.857-10.133 5.452 0 9.856 4.528 9.856 10.133v30.398h4.927v-30.398c0-5.605 4.404-10.133 9.856-10.133 5.451 0 9.857 4.528 9.857 10.133v30.398h5.483c3.357 0 5.729 3.387 4.681 6.68l-2.773 8.517c.985 0 1.973.16 2.928.477 5.205 1.678 8.099 7.346 6.466 12.697l-9.146 30.145c-4.066 13.394-16.14 22.545-29.815 22.545m-84.745 0h-2.465c-12.936 0-24.362-8.645-28.212-21.342l-9.518-31.38c-1.632-5.35 1.264-11.02 6.469-12.698 3.819-1.235 7.823.063 10.318 2.976v-17.424c-1-1.222-1.969-2.482-2.644-3.58-.308-.5 2.021.71 2.021.71-7.774-9.712-10.782-15.04-18.744-18.413 2.035-.91 3.992-1.961 6.031-2.766 3.4-1.34 8.545-1.915 13.153-.072.062.03.121.065.183.096v-7.567c0-5.604 4.404-10.132 9.856-10.132 5.451 0 9.855 4.528 9.855 10.132v29.54c1.61 2.008 3.235 3.947 4.928 5.75v-35.29c0-5.604 4.406-10.132 9.857-10.132 5.452 0 9.856 4.528 9.856 10.132v49.016c2.495-2.913 6.499-4.18 10.318-2.976 5.205 1.678 8.101 7.347 6.469 12.699l-9.518 31.379c-3.85 12.697-15.277 21.341-28.213 21.341m-94.488-70.93a49 49 0 0 0-2.16-4.37v4.37zm71.08-18.074v-.834c-.69-.963-1.388-1.883-1.947-3.563l1.14.484c.202-.455-.269-1.068-.525-1.63.407.135.802.259 1.332.521v-.867a15 15 0 0 1-.965-1.559c.313-.208.636-.31.965-.351v-2.787c-.347-.318-.734-.64-1.203-.971-.53-.298.44-1.063.44-1.063-4.4-.771-10.559-1.212-13.542.907 6.263 2.983 6.33 4.096 8.663 8.152.133-.834.34-1.11.496-.852 1.596 1.302 2.502 3.224 5.146 4.413" class="svgIconFill" style="fill-opacity:1;stroke:none;stroke-width:64;stroke-miterlimit:10;paint-order:markers fill stroke" transform="scale(-1)"/></svg>
