<svg xmlns="http://www.w3.org/2000/svg" xml:space="preserve" viewBox="0 0 512 512"><path d="M-256 0C-114.616 0 0-114.616 0-256s-114.616-256-256-256-256 114.616-256 256S-397.384 0-256 0m73.086-53.562a9.75 9.75 0 0 1-7.19-2.782l-8.298-8.095-14.315 2.326c-5.165.84-9.069-.61-13.3-3.707l-7.801-13.184-12.3-2.719c-12.16-1.644-14.384-1.032-15.241-6.574l-1.3-8.394c-2.121-13.714 16.14-9.65 28.706-18.196 5.353-3.641 10.285-14.697 8.623-22.24 24.388 9.36 46.987-3.603 55.768-15.352l-2.5 19.153c-.685 5.351-1.086 9.46-2.88 14.894 2.574-2.582 3.293-4.32 4.335-6.488-.592 12.95-1.695 5.76-2.965 18.838 2.086-3.95 3.184-5.17 3.818-8.879-.077 9.8-1.613 37.764-5.195 45.488l1.308-.892c.87 4.466.15 7.156.15 7.156a9.777 9.777 0 0 1-9.423 9.647m-1.887-4.25q.293.029.588-.022c1.306-.232 2.536-1.742 2.26-5.674l.498-12.742c-.877 2.932-8.799 8.6-12.137 10.389l7.256 7.31c.397.4.952.682 1.535.739m-151.396-76.743h-68.217c-31.878 0-57.723-25.842-57.723-57.72 0-31.879 25.845-57.723 57.723-57.723h46.504l151.652-132.629c10.495-9.183 24.007-14.3 37.979-14.3h68.217c31.878 0 57.722 25.844 57.722 57.722s-25.844 57.723-57.722 57.723h-46.506l-151.65 132.628c-10.496 9.184-24.008 14.3-37.98 14.3m125.937-10.494c-15.545 0-29.123-8.462-36.404-20.99l78.385-68.545v47.555c0 23.154-18.826 41.98-41.98 41.98m-125.937-20.99a26.1 26.1 0 0 0 17.25-6.494L-162.9-309.098a15.85 15.85 0 0 1 10.363-3.869h52.474c14.497 0 26.239-11.742 26.239-26.238s-11.742-26.236-26.239-26.236h-68.216a26.1 26.1 0 0 0-17.25 6.492l-156.047 136.566a15.85 15.85 0 0 1-10.363 3.87h-52.475c-14.496 0-26.238 11.742-26.238 26.238s11.742 26.236 26.238 26.236zm2.668-144.43h-73.83c-5.768 0-10.452-4.683-10.452-10.45h-.046v-73.83c0-5.767 4.685-10.45 10.453-10.45s10.45 4.683 10.45 10.451l.022 48.611 70.762-70.761a10.43 10.43 0 0 1 14.766 0 10.43 10.43 0 0 1 0 14.767l-70.784 70.783 48.659-.023c5.768 0 10.45 4.683 10.45 10.451s-3.578 10.451-10.45 10.451" class="svgIconFill" style="fill-opacity:1;stroke:none;stroke-width:64;stroke-miterlimit:10;paint-order:markers fill stroke" transform="scale(-1)"/></svg>
