<svg xmlns="http://www.w3.org/2000/svg" xml:space="preserve" viewBox="0 0 512 512"><path d="M-256 0C-114.616 0 0-114.616 0-256s-114.616-256-256-256-256 114.616-256 256S-397.384 0-256 0m-57.654-50.71a10 10 0 0 1-1.772-.212 9.89 9.89 0 0 1-6.941-5.517l-4.961-10.645-14.395-2.924c-5.194-1.055-8.372-3.83-11.271-8.281l-2.666-15.285-10.68-6.983c-10.932-5.916-13.31-6.145-12.084-11.691l1.65-7.463c1.15-5.194 7.693-8.75 16.165-8.088 0 0-1.493 2.65-1.141 2.29 1.134-1.16 4.503-2.457 4.762-2.387 1.269.34 5.062.646 7.47-.512-.922 1.346-1.844 2.038-2.033 3.05.453-.716 7.02-2.189 7.766-1.593 3.424 1.255 6.765-6.545 10.207-7.72-.484 1.346-1.078 2.787-.807 4.939 1.463-3.488 4.247-5.858 4.852-8.965 1.526-2.364 2.389-4.48 2.742-6.905 19.752 17.61 43.773 14.1 56.303 6.116l-9.574 20.06c-2.566 4.825-4.073 4.907-7.72 9.412 2.417-2.075 4.652-.845 6.415-2.525-3.846 5.313-6.32 10.733-10.287 16.418 3.392-2.995 5.89-1.988 7.82-5.275-3.585 9.256-10.83 24.18-17.26 33.62-1.222 1.935 1.494-1.285 1.494-1.285-.776 4.544-4.564 12.07-4.564 12.07a9.91 9.91 0 0 1-9.49 6.28m-2.084-4.999c1.226-.075 2.658-1.251 3.662-4.598l5.039-11.892c-1.881 2.463-11.417 4.993-15.22 5.492l4.253 9.527c.31.695.962 1.29 1.754 1.44q.249.046.512.031m219.804-77.023h-69.101c-14.152 0-27.838-5.183-38.469-14.485l-153.615-134.347h-47.108c-32.29 0-58.47-26.178-58.47-58.47 0-32.29 26.18-58.468 58.47-58.468h69.1c14.152 0 27.84 5.183 38.47 14.484l153.614 134.346h47.11c32.29 0 58.468 26.178 58.468 58.469s-26.178 58.47-58.469 58.47m-196.67-10.631c-23.454 0-42.523-19.07-42.523-42.524v-48.172l79.398 69.434c-7.375 12.69-21.128 21.262-36.875 21.262m196.67-21.262c14.684 0 26.577-11.894 26.577-26.578S-81.25-217.78-95.934-217.78h-53.154a16.06 16.06 0 0 1-10.498-3.92l-158.066-138.334a26.44 26.44 0 0 0-17.475-6.576h-69.1c-14.683 0-26.578 11.892-26.578 26.576s11.895 26.576 26.578 26.576h53.155c3.853 0 7.572 1.395 10.496 3.92l158.066 138.334a26.44 26.44 0 0 0 17.475 6.578zm-8.943-147.736a10.4 10.4 0 0 1-7.383-3.063l-70.76-70.76-.023 48.612c0 5.768-4.683 10.45-10.451 10.45s-10.453-4.682-10.453-10.45v-73.83h.047c0-5.768 4.683-10.452 10.45-10.452h73.83c5.753 0 10.452 4.684 10.452 10.452s-4.683 10.45-10.451 10.45l-48.658-.023 70.783 70.786a10.43 10.43 0 0 1 0 14.765 10.4 10.4 0 0 1-7.383 3.063" class="svgIconFill" style="fill-opacity:1;stroke:none;stroke-width:64;stroke-miterlimit:10;paint-order:markers fill stroke" transform="scale(-1)"/></svg>
