<svg xmlns="http://www.w3.org/2000/svg" xml:space="preserve" viewBox="0 0 512 512"><path d="M-256 0C-114.615 0 0-114.615 0-256s-114.615-256-256-256-256 114.615-256 256S-397.385 0-256 0m-8.574-100.469a14.86 14.86 0 0 1-10.541-4.373L-376.16-205.887l-.033 69.418c0 8.237-6.688 14.924-14.924 14.924s-14.924-6.687-14.924-14.924v-105.426h.064c0-8.236 6.69-14.925 14.926-14.925h105.426c8.236 0 14.924 6.69 14.924 14.925 0 8.237-6.688 14.924-14.924 14.924l-69.482-.033 101.076 101.078c5.831 5.832 5.831 15.253 0 21.084a14.86 14.86 0 0 1-10.543 4.373m205.152-52.547h-82.168c-11.362 0-20.54-9.18-20.54-20.543v-61.625h-61.628c-11.362 0-20.54-9.18-20.54-20.543v-61.625h-61.626c-11.362 0-20.543-9.18-20.543-20.543v-61.625h-61.625c-11.362 0-20.543-9.178-20.543-20.54 0-11.363 9.18-20.544 20.543-20.544h82.168c11.362 0 20.541 9.181 20.541 20.543v61.625h61.625c11.362 0 20.543 9.18 20.543 20.541v61.627h61.625c11.362 0 20.543 9.18 20.543 20.541v61.627h61.625c11.362 0 20.543 9.18 20.543 20.541 0 11.363-9.18 20.543-20.543 20.543" class="svgIconFill" style="fill-opacity:1;stroke:none;stroke-width:64;stroke-miterlimit:10;paint-order:markers fill stroke" transform="scale(-1)"/></svg>
