<svg xmlns="http://www.w3.org/2000/svg" xml:space="preserve" viewBox="0 0 512 512"><path d="M-256 0A256 256 0 0 0 0-256a256 256 0 0 0-256-256 256 256 0 0 0-256 256A256 256 0 0 0-256 0m-.045-51.924c-7.471 0-14.942-2.848-20.637-8.543l-145.777-145.775c-11.389-11.389-11.389-29.885 0-41.274s29.885-11.388 41.273 0l96.03 96.121V-430.92c0-16.126 13.03-29.156 29.156-29.156s29.156 13.03 29.156 29.156v279.525l96.03-96.029c11.388-11.389 29.884-11.389 41.273 0s11.389 29.885 0 41.274L-235.318-60.375l-.09-.092c-5.695 5.695-13.166 8.543-20.637 8.543" class="svgIconFill" style="fill-opacity:1;stroke:none;stroke-width:64;stroke-miterlimit:10;paint-order:markers fill stroke" transform="scale(-1)"/></svg>
