<svg xmlns="http://www.w3.org/2000/svg" xml:space="preserve" viewBox="0 0 512 512"><path d="M-256 0C-114.616 0 0-114.616 0-256s-114.616-256-256-256-256 114.616-256 256S-397.384 0-256 0m6.76-70.252-104.676-.002c-49.31 0-89.316-40.007-89.316-89.316v-160.961c0-16.468 13.305-29.772 29.773-29.772s29.772 13.304 29.772 29.772v160.96c0 16.468 13.303 29.772 29.771 29.772l104.676.002c16.467 0 29.771-13.304 29.771-29.771V-345.37l-68.197 68.29c-11.63 11.63-30.517 11.63-42.146 0-11.63-11.629-11.63-30.518 0-42.148l119.087-119.087c5.815-5.815 13.444-8.721 21.073-8.721s15.26 2.906 21.074 8.72l119.088 119.09c11.63 11.63 11.63 30.517 0 42.147s-30.517 11.63-42.147 0l-68.289-68.29v185.802c0 49.31-40.005 89.316-89.314 89.316" class="svgIconFill" style="fill-opacity:1;stroke:none;stroke-width:64;stroke-miterlimit:10;paint-order:markers fill stroke" transform="scale(-1)"/></svg>
