<svg xmlns="http://www.w3.org/2000/svg" xml:space="preserve" viewBox="0 0 512 512"><path d="M-256 0C-114.615 0 0-114.615 0-256s-114.615-256-256-256-256 114.615-256 256S-397.385 0-256 0m118.56-100.469h-105.427c-8.237 0-14.924-6.687-14.924-14.924h-.066v-105.425c0-8.237 6.689-14.924 14.925-14.924s14.924 6.687 14.924 14.924l.033 69.416 101.045-101.045c5.832-5.832 15.253-5.832 21.084 0 5.832 5.831 5.832 15.254 0 21.086l-101.076 101.078 69.483-.033c8.236 0 14.923 6.687 14.923 14.923s-6.687 14.924-14.923 14.924m-228.484-52.547h-82.168c-11.362 0-20.543-9.18-20.543-20.543s9.18-20.54 20.543-20.54h61.625v-61.628c0-11.362 9.18-20.54 20.543-20.54h61.625v-61.628c0-11.362 9.179-20.54 20.541-20.54h61.627v-61.626c0-11.362 9.179-20.543 20.541-20.543h82.168c11.362 0 20.543 9.181 20.543 20.543s-9.18 20.541-20.543 20.541h-61.625v61.625c0 11.363-9.18 20.543-20.543 20.543h-61.625v61.625c0 11.363-9.18 20.543-20.543 20.543h-61.625v61.625c0 11.363-9.179 20.543-20.54 20.543" class="svgIconFill" style="fill-opacity:1;stroke:none;stroke-width:64;stroke-miterlimit:10;paint-order:markers fill stroke" transform="scale(-1)"/></svg>
