<svg xmlns="http://www.w3.org/2000/svg" xml:space="preserve" viewBox="0 0 576 512"><g class="svgIconFill"><path d="M157.362 270.72c11.032-5.282 15.752-18.453 10.47-29.485-5.28-11.031-18.452-15.751-29.483-10.47-53.834 25.646-88.916 82.66-83.604 145.614 6.856 81.244 78.212 141.494 159.455 134.639 56.245-4.746 102.386-40.387 123.2-88.793 4.79-11.233-.378-24.218-11.62-29.1-11.24-4.883-24.218.377-29.1 11.618-14.54 33.9-46.868 58.842-86.203 62.161-56.888 4.8-106.817-37.358-111.618-94.247-3.714-44.022 20.777-83.945 58.503-101.938m153.711-82.364-1.83-9.343a45.914 45.914 0 0 0-45.079-36.891c-28.993 0-50.762 26.488-45.079 54.903l22.25 111.253c5.78 28.8 31.017 49.51 60.491 49.51h72.805c6.453 0 12.136 3.949 14.448 10.017l34.965 93.337c5.78 15.508 22.925 23.695 38.625 18.397l46.235-15.411c16.182-5.394 24.851-22.829 19.457-39.01-5.394-16.183-22.828-24.852-39.01-19.458l-18.013 5.972-24.562-65.5c-11.27-30.052-40.07-49.99-72.146-49.99h-41.98l-9.247-46.236h61.068c17.05 0 30.823-13.774 30.823-30.823s-13.774-30.823-30.823-30.823h-73.398z" style="stroke-width:.963225;fill-opacity:1"/><path d="M162.778 198.037c11.813.54 23.783 3.065 36.768 12.95 18.262 15.66 30.196 38.507 40.372 61.832 15.504 32.841 29.264 62.103 62.224 85.042-4.036.25-23.927-2.521-34.034-4.379-37.127-6.823-67.425-37.581-84.243-71.548-.68-2.265 8.858 8 8.858 8 6.1 7.286-8.766-15.606-13.212-28.448-.555-1.602 5.783 4.087 5.783 4.087-11.693-33.772-17.922-50.404-43.795-67.522 7.16.054 14.191-.337 21.28-.014m-1.367 4.407c-1.805-.062-3.384-.004-4.668.176 19.66 18.211 20.268 22.55 26.056 36.848 1.11-1.933 1.986-2.393 2.262-1.566 4.312 5.549 7.232 12.197 16.544 18.772-1.618-4.849-4.142-8.219-4.65-14.878l3.195 2.52c1.01-.909.032-2.982-.31-4.683 1.838 1.264 3.511 2.26 6.638 5.613-1.418-3.263-2.963-6.465-3.904-9.953 4.41-.616 8.054 2.588 11.935 4.61-2.898-4.828-5.646-9.146-11.12-15.357-1.424-1.352 2.262-2.154 2.262-2.154-10.113-12.223-31.608-19.513-44.24-19.948" style="fill-opacity:1;fill-rule:evenodd;stroke:none;stroke-width:.369091px;stroke-linecap:butt;stroke-linejoin:miter;stroke-opacity:1"/><path d="M243.934 3.064c-7.263.58-13.04 6.336-13.659 13.57 0 0-2.25 12.483-1.429 19.371 0 0 2.545-5.809 1.608-2.495-5.242 16.372-7.947 43.04-9.164 57.93 4.013-6.931 5.04-5.437 8.508-8.473-6.139 13.108-8.365 16.905-9.569 26.395 1.826-3.178 6.059-3.736 8.658-7.763-4.113 13.24-5.864 9.884-7.049 18.013l-.913 30.759c14.67-16.877 39.899-31.836 75.928-14.866-1.68-11.655 7.059-27.912 15.607-32.847 20.063-11.584 51.317-4.02 49.63-25.108l-1.033-12.91c-.681-8.521-4.13-7.84-22.435-11.706l-18.396-5.513-10.38-20.92c-6.087-5.184-11.86-7.828-19.807-7.131l-22.023 1.931L256.307 8.06a14.88 14.88 0 0 0-12.373-4.996m3.248 6.602c1.206-.123 2.403.456 3.147 1.326l10.211 11.932c-5.276 2.345-17.955 10.072-19.617 14.431l2.188-19.316c.021-6.01 2.06-8.167 4.07-8.373" style="stroke-width:.628139;fill-opacity:1"/></g></svg>
