<?xml version="1.0" encoding="UTF-8" standalone="no"?>
<!-- Created with Inkscape (http://www.inkscape.org/) -->

<svg
   viewBox="0 0 512 512"
   version="1.1"
   id="svg136"
   xml:space="preserve"
   xmlns="http://www.w3.org/2000/svg"
   xmlns:svg="http://www.w3.org/2000/svg"><defs
     id="defs133" /><g
     id="layer1"><path
       id="path489"
       style="fill:#9b9bff;fill-opacity:1;stroke:none;stroke-width:64;stroke-miterlimit:10;paint-order:markers fill stroke"
       d="M -256 0 A 256 256 0 0 0 0 -256 A 256 256 0 0 0 -256 -512 A 256 256 0 0 0 -512 -256 A 256 256 0 0 0 -256 0 z M -256.04492 -51.923828 C -263.51596 -51.923828 -270.98726 -54.772413 -276.68164 -60.466797 L -422.45898 -206.24219 C -433.84775 -217.63096 -433.84775 -236.12686 -422.45898 -247.51562 C -411.07022 -258.90439 -392.57432 -258.90439 -381.18555 -247.51562 L -285.15625 -151.39453 L -285.15625 -430.91992 C -285.15625 -447.04642 -272.12649 -460.07617 -256 -460.07617 C -239.87351 -460.07617 -226.84375 -447.04642 -226.84375 -430.91992 L -226.84375 -151.39453 L -130.81445 -247.42383 C -119.42569 -258.8126 -100.92978 -258.8126 -89.541016 -247.42383 C -78.152247 -236.03506 -78.152247 -217.53916 -89.541016 -206.15039 L -235.31836 -60.375 L -235.4082 -60.466797 C -241.10259 -54.772413 -248.57389 -51.923828 -256.04492 -51.923828 z "
       transform="scale(-1)" /></g></svg>
