<?xml version="1.0" encoding="UTF-8" standalone="no"?>
<!-- Created with Inkscape (http://www.inkscape.org/) -->

<svg
   viewBox="0 0 512 512"
   version="1.1"
   id="svg136"
   xml:space="preserve"
   xmlns="http://www.w3.org/2000/svg"
   xmlns:svg="http://www.w3.org/2000/svg"><defs
     id="defs133" /><g
     id="layer1" class="svgIconFill"><path
       id="path489"
       style="fill-opacity:1;stroke:none;stroke-width:64;stroke-miterlimit:10;paint-order:markers fill stroke"
       d="M -256 0 C -114.61552 0 0 -114.61552 0 -256 C 0 -397.38448 -114.61552 -512 -256 -512 C -397.38448 -512 -512 -397.38448 -512 -256 C -512 -114.61552 -397.38448 0 -256 0 z M -256.33203 -37.927734 C -264.35517 -37.927733 -272.37894 -40.986358 -278.49414 -47.101562 L -403.73438 -172.33984 C -415.96477 -184.57024 -415.96477 -204.43367 -403.73438 -216.66406 C -391.50398 -228.89446 -371.64056 -228.89446 -359.41016 -216.66406 L -287.69141 -144.8457 L -287.69141 -352.3125 C -287.69141 -369.63075 -301.6837 -383.62109 -319.00195 -383.62109 L -386.93164 -383.62109 C -404.24989 -383.62109 -418.24023 -397.61339 -418.24023 -414.93164 C -418.24023 -432.24988 -404.24989 -446.24219 -386.93164 -446.24219 L -319.00195 -446.24219 C -267.14505 -446.24219 -225.07227 -404.1694 -225.07227 -352.3125 L -225.07227 -144.8457 L -153.25586 -216.66406 C -141.02546 -228.89446 -121.16205 -228.89446 -108.93164 -216.66406 C -96.701233 -204.43367 -96.70124 -184.57025 -108.93164 -172.33984 L -234.17188 -47.101562 C -240.28707 -40.986363 -248.30889 -37.927736 -256.33203 -37.927734 z "
       transform="scale(-1)" /><path
       d="m 323.01334,501.89241 c 0,10.08393 8.18815,18.27208 18.27207,18.27208 l 129.07424,-10e-6 c 10.08398,0 18.27213,-8.18817 18.27206,-18.27207 7e-5,-10.08394 -8.18808,-18.27208 -18.27206,-18.27207 l -85.06798,0.0403 123.74994,-123.74997 c 7.13942,-7.13939 7.13942,-18.67541 0,-25.81483 -7.13942,-7.13942 -18.67545,-7.13941 -25.81481,-1e-5 l -123.70964,123.70965 -0.0403,-84.98735 c -3e-5,-10.0839 -8.18818,-18.27204 -18.27207,-18.27208 -10.08394,2e-5 -18.27209,8.18816 -18.27209,18.27209 l -1e-5,129.07426 z"
       id="path5705"
       style="display:none;stroke-width:0.570433" /></g></svg>
