<?xml version="1.0" encoding="UTF-8" standalone="no"?>
<!-- Created with Inkscape (http://www.inkscape.org/) -->

<svg
   viewBox="0 0 512 512"
   version="1.1"
   id="svg136"
   xml:space="preserve"
   xmlns="http://www.w3.org/2000/svg"
   xmlns:svg="http://www.w3.org/2000/svg"><defs
     id="defs133" /><g
     id="layer1" class="svgIconFill"><path
       id="path489"
       style="fill-opacity:1;stroke:none;stroke-width:64;stroke-miterlimit:10;paint-order:markers fill stroke"
       d="M -256,0 C -114.61552,0 0,-114.61552 0,-256 c 0,-141.38448 -114.61552,-256 -256,-256 -141.38448,0 -256,114.61552 -256,256 0,141.38448 114.61552,256 256,256 z m -7.28516,-34.177734 v -88.646486 l -30.51562,30.45508 c -3.61908,3.61174 -9.49616,3.61174 -13.11524,0 -3.61906,-3.61174 -3.61906,-9.47812 0,-13.08984 l 46.32422,-46.23047 0.0293,0.0293 c 3.61908,-3.61172 9.49617,-3.61172 13.11523,0 l 46.32422,46.23047 c 3.61908,3.61174 3.61908,9.47811 0,13.08985 -3.61906,3.61172 -9.49615,3.61172 -13.11523,0 l -30.51758,-30.48438 v 88.646486 c 0,5.11422 -4.90118,9.246083 -9.26367,9.246083 -3.93103,0 -9.26563,-4.131873 -9.26563,-9.246093 z m 117.81055,-142.529296 h -221.05078 c -26.20926,0 -47.7207,-21.25862 -47.7207,-47.38086 V -401.5918 c 0,-26.12224 21.51144,-47.38281 47.7207,-47.38281 h 221.05078 c 26.20926,0 47.720704,21.26057 47.720704,47.38281 v 177.50391 c 0,26.12224 -21.511444,47.38086 -47.720704,47.38086 z m 0,-20.55274 c 15.27785,0 27.16797,-11.83689 27.16797,-26.82812 V -401.5918 c 0,-14.99123 -11.89012,-26.83007 -27.16797,-26.83008 h -221.05078 c -15.27785,0 -27.16797,11.83885 -27.16797,26.83008 v 177.50391 c 0,14.99123 11.89012,26.82812 27.16797,26.82812 z m -2.08008,-34.92382 c -1.09752,-1e-5 -2.1442,-0.45288 -2.92578,-1.27344 L -150.99609,-234 c -5.10951,-5.31368 -6.75594,-10.92234 -6.52539,-19.99805 -0.93926,-0.234 -0.45508,0.97657 -0.45508,0.97657 l -1.92578,-1.75391 c -0.2655,0.13657 -0.71361,0.46114 -1.28321,0.40234 -0.49416,0.7236 -2.01903,1.43103 -3.11914,0.75196 0.72888,3.40262 2.26356,13.85693 -3.13086,19.60351 l -0.76367,0.80469 c -0.61527,0.64597 -1.46339,1.01172 -2.32812,1.01172 -1.52989,0 -2.85978,-1.11821 -3.20899,-2.68945 l -0.16797,-0.76758 c -1.13196,-5.14171 0.76955,-14.90275 2.04492,-20.44727 -2.27488,-1.00813 -4.79881,-3.23228 -6.0664,-8.0957 0.0524,0.004 0.58238,0.45014 0.64258,0.46484 -0.83506,-1.99722 -1.20153,-6.82148 -1.67578,-9.33203 l 0.7871,1.16406 c 0,-2.11824 1.38138,-8.08503 2.01563,-9.40625 0,0 0.35809,1.73092 0.43359,1.25391 0.1669,-1.05497 0.82035,-3.73343 2.00586,-4.39453 l 1.67578,-0.98828 c 4.55207,-4.01294 6.72222,-3.81271 10.53516,-3.84961 4.09795,-0.0396 4.17136,-0.73322 10.69141,4.88672 l 1.83398,0.65234 1.21094,2.6543 c 0.11146,0.25473 0.38867,-1.27539 0.38867,-1.27539 1.72825,1.6026 3.64256,6.24187 3.48438,9.18164 l -0.14844,1.90625 c 0,0 0.54492,-1.14455 0.54492,-1.12305 l -0.64062,4.06055 c 0.27804,1.99861 -0.0501,3.79191 -0.45899,5.27343 -1.16146,3.53805 -3.28973,4.89085 -5.11328,5.89649 2.33527,4.85572 6.03324,13.72584 5.21289,19.79101 l -0.11719,0.85547 c -0.29931,2.14743 -0.85882,4.3457 -2.9375,4.34571 z m -0.99219,-2.69727 c 4.82325,-0.96118 -1.41546,-17.07084 -4.43359,-20.79687 -5.65704,1.83244 -0.006,17.00315 4.43359,20.79687 z m -22.11523,-0.61719 c 2.81265,0.28205 6.57826,-14.5074 2.90039,-19.80664 -0.0515,0 -0.10798,8.5e-4 -0.17578,0.008 -2.46609,0.0343 -5.97448,14.65846 -2.72461,19.79883 z m -150.16406,-6.23437 c -0.2149,0.008 -0.43433,-0.0593 -0.63281,-0.20508 -0.52926,-0.38884 -0.77661,-1.23012 -0.58204,-2.00781 l 0.8711,-3.50977 c 0.19437,-0.77769 0.26347,-1.61777 0.20117,-2.4375 -0.22573,-3.00567 -2.09229,-5.28711 -4.32617,-5.28711 h -0.8418 c -1.19293,2.48183 -3.62546,4.15821 -6.63086,4.15821 h -14.80859 c -3.08404,0 -5.56982,-1.76186 -6.72656,-4.35157 h -0.92969 c -2.23388,0 -4.69029,2.27948 -4.91602,5.28516 -0.0623,0.81973 0.007,1.65125 0.20117,2.43945 l 0.86524,3.51953 c 0.19457,0.76718 -0.0547,1.61898 -0.58399,2.00782 -0.52929,0.38885 -1.19082,0.2094 -1.56445,-0.43164 l -0.58398,-0.98633 c -1.40879,-2.38563 -2.17969,-5.37027 -2.17969,-8.41797 0,-6.92736 4.39481,-12.69154 9.46289,-13.42578 l 0.4375,-5.77344 c 0.27764,-3.66561 4.19799,-6.02537 6.81641,-6.92969 l 1.71484,-7.86914 c 0.44826,-2.12665 2.04089,-3.61719 3.86719,-3.61719 h 3.04687 c 1.83462,0 3.42724,1.49054 3.86719,3.61719 l 1.71484,7.86914 c 2.61836,0.90432 6.53877,3.26408 6.81641,6.92969 l 0.45508,6.00586 c 4.8981,0.86266 8.67187,6.55676 8.67187,13.38672 0,3.05821 -0.77093,6.04211 -2.17968,8.42773 l -0.58399,0.97852 c -0.23349,0.3941 -0.58129,0.61217 -0.93945,0.625 z m 87.7539,-5.3086 c -0.62775,0 -3.57863,-3.93915 -4.8164,-6.41992 -0.48587,0.16655 -0.61917,0.24129 -1.17188,0.27149 -2.96314,0.16213 -2.21456,1.20915 0.22657,2.33593 0,0 -3.66156,-0.0929 -5.38672,-0.89453 -1.20171,-0.5584 -0.875,0.60547 -0.875,0.60547 l -1.18164,-0.80469 c -0.49093,0.34486 -0.68384,0.44858 -0.97266,0.58204 0.0768,-0.25308 0.0762,-0.50669 -0.0664,-0.75977 -4.40653,1.61898 0.21094,-0.60679 -0.4082,-0.37109 -2.96104,1.13643 -5.07617,1.80439 -6.69922,0.73828 1.0681,-0.0643 2.75733,-1.15928 1.44531,-1.03321 -0.81744,0.0561 -1.48599,-0.14649 -2.43164,-0.66015 -0.67399,0.97867 -1.8763,2.07458 -2.51562,3.01367 -0.80458,1.18179 -2.03991,3.40204 -3.00586,3.25 -1.31388,-0.2068 -2.29462,-4.19169 -2.35742,-6.33789 0,0 -0.38738,-4.12225 -0.0957,-6.14453 0,0 0.0363,-1.10135 0.7168,-2.11133 -2.07463,-4.3484 -2.46912,-7.16908 -2.26953,-8.22266 l 1.16406,1.22071 c -0.51477,-3.03523 2.79514,-9.94635 3.47266,-11.27344 0,0 1.35729,1.63276 1.43359,1.13281 0.1687,-1.10572 0.58686,-3.73092 1.78516,-4.42383 0.17104,-0.0989 0.66797,1.03321 0.66797,1.03321 0,0 0.10719,-1.1407 0.91015,-2.06836 3.1931,-3.689 6.75039,-4.66016 9.74414,-4.66016 2.9711,0 5.71494,1.24355 8.38282,5.42774 0,0.94012 1.26219,2.76934 1.42773,3.91406 0.0261,0.18023 0.47969,-1.58634 0.39649,-3.12891 0,0 1.29386,2.25373 1.58789,3.44922 0.14386,0.58493 -0.19995,0.67959 0.75195,2.93555 0,0 0.15722,-1.9244 0.27734,-1.66407 1.25051,2.71069 2.62208,5.2087 2.64258,7.95118 l 0.625,-0.6836 0.0234,1.10547 c 0,0 0.21875,-0.14359 0.21875,-0.12109 l -0.5918,4.20508 c 0.50756,3.08272 0.2461,4.32226 0.2461,4.32226 0.16621,0.76424 -0.66104,1.90098 -0.8379,2.54883 l 0.60352,-0.48633 c 0.29169,2.02228 -0.32812,5.86914 -0.32812,5.86914 -0.0628,2.14619 -1.04549,6.12915 -2.35938,6.33594 -0.12074,0.0186 -0.24686,0.0275 -0.37891,0.0215 z m -0.25976,-3.46093 c 0.0161,0 0.0309,0.001 0.0449,-0.002 0.37241,-0.0714 0.73629,-0.83497 0.68359,-2.21484 l 0.0215,-0.44727 c -0.0896,0.18227 -0.17188,0.23438 -0.17188,0.23438 0.37125,-2.12389 0.0407,-3.65492 0.0117,-4.98633 -0.57935,0.78161 -1.27575,1.95779 -2.09179,2.5332 -0.63491,0.58472 -1.00272,0.85621 -1.38477,1.09571 l 2.03906,3.23828 c 0.13766,0.17894 0.60566,0.53983 0.84766,0.54883 z m -26.80274,-0.29297 c 0.22505,-0.009 0.65909,-0.34245 0.78711,-0.50781 l 1.89649,-2.99219 c -1.16199,-0.76475 -3.48447,-2.85293 -3.48047,-3.59961 0.0711,1.5001 -0.37475,2.42147 0.0156,4.64062 0,0 -0.0768,-0.0483 -0.16015,-0.21679 l 0.0215,0.41211 c -0.049,1.2751 0.53256,2.19585 0.87891,2.26171 0.013,0.002 0.0259,0.002 0.041,0.002 z m 96.38672,-3.06446 c 1.02597,0.0246 1.46144,-1.05494 1.39649,-1.40039 -0.86821,0.56614 -1.13497,0.61503 -2.08399,1.01954 0.0136,0.0564 0.0341,0.17022 0.0488,0.23437 0.23288,0.0932 0.44737,0.14193 0.63867,0.14648 z m -183.02734,-8.36328 c 1.93191,0 3.49805,-1.60959 3.49805,-3.5957 0,-1.98613 -1.56614,-3.59766 -3.49805,-3.59766 -1.93191,0 -3.49805,1.61153 -3.49805,3.59766 0,1.98611 1.56614,3.5957 3.49805,3.5957 z m 12.58594,-0.18554 c 1.93553,0 3.50304,-1.6156 3.49804,-3.60547 0.005,-1.98988 -1.56251,-3.60547 -3.49804,-3.60547 -1.93557,0 -3.50305,1.61559 -3.49805,3.60547 -0.005,1.98987 1.56248,3.60547 3.49805,3.60547 z m 78.71289,-1.18164 c 2.07264,0.0439 4.2251,-2.20967 5.37304,-4.61914 0.84704,-1.7777 -5.89401,-1.61636 -6.82812,0.0469 -0.69148,1.45855 1.45508,4.57227 1.45508,4.57227 z m 18.12109,-0.0215 c 0,0 2.08087,-3.10413 1.41016,-4.55859 -0.90606,-1.65857 -7.44465,-1.82156 -6.62305,-0.0488 1.11351,2.40274 3.20248,4.65122 5.21289,4.60742 z m 85.08399,-2.51953 c 1.99592,0.0192 2.12891,-2.8352 1.48242,-4.61523 -1.06794,-1.90152 -7.77821,-1.8502 -6.91992,-0.0488 1.16334,2.44169 3.77984,2.03239 5.01367,4.61914 0.14994,0.028 0.29076,0.0436 0.42383,0.0449 z m -17.78711,-0.0879 c 1.52892,0.11019 4.04654,-2.91236 5.06445,-5.04883 0.85835,-1.80141 -5.97139,-1.63661 -6.91797,0.0488 -0.49213,1.15783 0.22564,3.70805 1.26563,4.74805 0.17082,0.15525 0.36946,0.23621 0.58789,0.25195 z m -76.29688,-10.07617 c 1.15953,0.007 3.41629,-0.44809 3.22461,-1.1836 -0.48139,-1.84689 -1.83127,-4.18193 -2.57812,-4.64453 -0.47971,-0.29714 -0.73558,-0.29636 -1.29297,0 -0.6895,0.42706 -2.1131,2.86766 -2.57617,4.64453 -0.19727,0.75683 2.1001,1.1766 3.22265,1.1836 z m 85.125,-0.83789 c 0.94609,0.006 2.78531,-0.36474 2.62891,-0.96485 -0.39277,-1.50691 -1.49412,-3.40966 -2.10352,-3.78711 -0.39139,-0.24245 -0.59795,-0.24179 -1.05273,0 -0.56257,0.34845 -1.72566,2.33732 -2.10352,3.78711 -0.16096,0.61751 1.71496,0.95985 2.63086,0.96485 z m -174.36719,-13.98047 h -9.14843 c -10.37962,0 -19.98848,-5.60488 -25.34766,-14.75586 l -17.95703,-30.71484 c -2.80282,-4.78134 -1.29336,-11.01893 3.35742,-13.9004 4.65082,-2.8814 10.7187,-1.33016 13.52148,3.45118 l 8.83985,15.07226 v -51.57422 c -2.42684,-0.83143 -5.04714,-1.43775 -7.88672,-1.75781 -5.25852,2.38679 -6.07262,3.67772 -8.74414,6.66406 -0.22114,-0.64354 -0.4816,-0.85609 -0.64258,-0.64843 -1.91804,1.16908 -3.45224,2.77567 -7.15625,3.77734 0.94362,-1.21811 2.07643,-1.9382 2.78906,-3.76758 l -1.29101,0.41797 c -0.27057,-0.34841 0.23037,-0.84131 0.48437,-1.28906 -0.72831,0.18823 -1.37844,0.31586 -2.71484,0.97461 0.74728,-0.7894 1.5336,-1.5509 2.13672,-2.44727 -1.45209,-0.57625 -2.9539,-0.006 -4.43946,0.20899 1.37815,-1.09533 2.66349,-2.06109 5.03126,-3.31055 0.59397,-0.25098 -0.59571,-0.8125 -0.59571,-0.8125 3.68516,-2.09379 9.76617,-2.50682 14.20703,-1.99609 1.45078,-0.0592 2.97716,-0.002 4.62891,0.24218 1.44324,0.33515 2.83735,0.75016 4.19336,1.22461 v -16.54883 c 0,-5.60455 4.40384,-10.13281 9.85547,-10.13281 5.45159,0 9.85547,4.52826 9.85547,10.13281 v 31.59571 c 1.96388,2.78833 3.5893,5.79718 4.86328,8.93359 h 0.0664 v -40.5293 c 0,-5.60455 4.40388,-10.13281 9.85547,-10.13281 5.45163,0 9.85547,4.52826 9.85547,10.13281 v 70.64258 l 8.80859,-15.07226 c 2.80281,-4.78134 8.87067,-6.33258 13.52149,-3.45118 4.65078,2.88147 6.16023,9.11906 3.35742,13.9004 l -17.95703,30.71484 c -5.35918,9.15098 -14.96805,14.75586 -25.34766,14.75586 z m 174.36914,-0.0312 c -13.67519,0 -25.75082,-9.15094 -29.8164,-22.54492 l -9.14649,-30.14453 c -1.63237,-5.35132 1.26357,-11.01905 6.46875,-12.69727 0.98561,-0.31662 1.97102,-0.47656 2.92578,-0.47656 l -2.77343,-8.51758 c -1.078,-3.2931 1.32443,-6.67969 4.68164,-6.67969 h 5.48242 v -30.39844 c 0,-5.60455 4.40583,-10.13281 9.85742,-10.13281 5.45162,0 9.85547,4.52826 9.85547,10.13281 v 30.39844 h 4.92774 v -30.39844 c 0,-5.60455 4.40388,-10.13281 9.85546,-10.13281 5.45163,0 9.85743,4.52826 9.85743,10.13281 v 30.39844 h 5.48242 c 3.35718,0 5.72885,3.38659 4.68164,6.67969 l -2.77344,8.51758 c 0.9856,0 1.97297,0.15994 2.92773,0.47656 5.20523,1.67822 8.09921,7.34595 6.4668,12.69727 l -9.14648,30.14453 c -4.06562,13.39398 -16.13924,22.54492 -29.81446,22.54492 z m -84.74414,0 h -2.46484 c -12.93604,0 -24.36288,-8.64439 -28.21289,-21.3418 l -9.51758,-31.3789 c -1.63245,-5.35132 1.26357,-11.021 6.46875,-12.69922 3.81924,-1.23488 7.82352,0.0634 10.31836,2.97656 v -17.42383 c -0.99985,-1.22187 -1.96914,-2.48216 -2.64453,-3.58008 -0.30726,-0.49949 2.02148,0.70899 2.02148,0.70899 -7.77424,-9.71114 -10.78169,-15.03894 -18.74414,-18.41211 2.03484,-0.90968 3.99169,-1.96141 6.03125,-2.76563 3.39932,-1.34043 8.54475,-1.91511 13.15235,-0.0723 0.0625,0.0303 0.12153,0.0648 0.18359,0.0957 v -7.56641 c 0,-5.60455 4.40386,-10.13281 9.85547,-10.13281 5.45158,0 9.85547,4.52826 9.85547,10.13281 v 29.53907 c 1.6108,2.00881 3.23461,3.94703 4.92773,5.75 v -35.28907 c 0,-5.60455 4.40582,-10.13281 9.85742,-10.13281 5.45162,0 9.85547,4.52826 9.85547,10.13281 v 49.01563 c 2.49481,-2.91314 6.49918,-4.17977 10.31836,-2.97656 5.20522,1.67822 8.10116,7.3479 6.46875,12.69922 l -9.51758,31.3789 c -3.84998,12.69741 -15.27687,21.3418 -28.21289,21.3418 z m -94.48828,-70.92969 c -0.64293,-1.47737 -1.3603,-2.94033 -2.16015,-4.36914 v 4.36914 z m 71.08008,-18.07422 v -0.83398 c -0.69028,-0.96225 -1.38852,-1.88223 -1.94726,-3.5625 l 1.14062,0.48437 c 0.2013,-0.45569 -0.26924,-1.06844 -0.52539,-1.63086 0.40702,0.13518 0.8015,0.25897 1.33203,0.52149 v -0.86719 c -0.34293,-0.49307 -0.6714,-1.00391 -0.96484,-1.55859 0.31288,-0.20786 0.63588,-0.31054 0.96484,-0.35157 v -2.78711 c -0.34758,-0.31754 -0.73446,-0.64 -1.20312,-0.9707 -0.53001,-0.29787 0.43945,-1.0625 0.43945,-1.0625 -4.39923,-0.77148 -10.55818,-1.21209 -13.54102,0.90625 6.26277,2.9832 6.33006,4.09655 8.66211,8.15235 0.13324,-0.83363 0.34035,-1.11073 0.4961,-0.85157 1.59641,1.30149 2.50256,3.22344 5.14648,4.41211 z"
       transform="scale(-1)" /><path
       d="m 323.01334,501.89241 c 0,10.08393 8.18815,18.27208 18.27207,18.27208 l 129.07424,-10e-6 c 10.08398,0 18.27213,-8.18817 18.27206,-18.27207 7e-5,-10.08394 -8.18808,-18.27208 -18.27206,-18.27207 l -85.06798,0.0403 123.74994,-123.74997 c 7.13942,-7.13939 7.13942,-18.67541 0,-25.81483 -7.13942,-7.13942 -18.67545,-7.13941 -25.81481,-1e-5 l -123.70964,123.70965 -0.0403,-84.98735 c -3e-5,-10.0839 -8.18818,-18.27204 -18.27207,-18.27208 -10.08394,2e-5 -18.27209,8.18816 -18.27209,18.27209 l -1e-5,129.07426 z"
       id="path5705"
       style="display:none;stroke-width:0.570433" /></g></svg>
