<?xml version="1.0" encoding="UTF-8" standalone="no"?>
<!-- Created with Inkscape (http://www.inkscape.org/) -->

<svg
    viewBox="0 0 512 512"
    version="1.1"
    id="svg136"
    xml:space="preserve"
    xmlns="http://www.w3.org/2000/svg"
    xmlns:svg="http://www.w3.org/2000/svg"><defs
     id="defs133" /><g
    id="layer1" class="svgIconFill"><path
       id="path489"
       style="fill-opacity:1;stroke:none;stroke-width:64;stroke-miterlimit:10;paint-order:markers fill stroke"
       d="M -256 0 C -114.61552 0 0 -114.61552 0 -256 C 0 -397.38448 -114.61552 -512 -256 -512 C -397.38448 -512 -512 -397.38448 -512 -256 C -512 -114.61552 -397.38448 0 -256 0 z M -205.96484 -27.037109 C -208.33896 -27.037109 -210.7139 -27.938273 -212.52344 -29.744141 L -212.55273 -29.716797 L -258.87695 -75.947266 C -262.49603 -79.559002 -262.49603 -85.423423 -258.87695 -89.035156 C -255.25789 -92.646894 -249.3808 -92.646894 -245.76172 -89.035156 L -215.24414 -58.582031 L -215.24414 -147.22852 C -215.24414 -152.34273 -211.10506 -156.47461 -205.98047 -156.47461 C -200.85585 -156.47461 -196.71484 -152.34273 -196.71484 -147.22852 L -196.71484 -58.582031 L -166.19922 -89.064453 C -162.58014 -92.676187 -156.70306 -92.676187 -153.08398 -89.064453 C -149.46492 -85.452716 -149.46492 -79.586343 -153.08398 -75.974609 L -199.4082 -29.744141 C -201.21774 -27.938273 -203.59074 -27.037109 -205.96484 -27.037109 z M -306.01953 -42.931641 C -311.14414 -42.931641 -315.28516 -47.063514 -315.28516 -52.177734 L -315.28516 -140.82422 L -345.80078 -110.36914 C -349.41986 -106.7574 -355.29694 -106.7574 -358.91602 -110.36914 C -362.53508 -113.98088 -362.53508 -119.84726 -358.91602 -123.45898 L -312.5918 -169.68945 L -312.5625 -169.66016 C -308.94342 -173.27188 -303.06633 -173.27188 -299.44727 -169.66016 L -253.12305 -123.42969 C -249.50397 -119.81795 -249.50397 -113.95158 -253.12305 -110.33984 C -256.74211 -106.72812 -262.6192 -106.72812 -266.23828 -110.33984 L -296.75586 -140.82422 L -296.75586 -52.177734 C -296.75586 -47.063514 -300.89493 -42.931641 -306.01953 -42.931641 z M -145.47461 -176.70703 L -366.52539 -176.70703 C -392.73465 -176.70703 -414.24609 -197.96565 -414.24609 -224.08789 L -414.24609 -401.5918 C -414.24609 -427.71404 -392.73465 -448.97461 -366.52539 -448.97461 L -145.47461 -448.97461 C -119.26535 -448.97461 -97.753906 -427.71404 -97.753906 -401.5918 L -97.753906 -224.08789 C -97.753906 -197.96565 -119.26535 -176.70703 -145.47461 -176.70703 z M -145.47461 -197.25977 C -130.19676 -197.25977 -118.30664 -209.09666 -118.30664 -224.08789 L -118.30664 -401.5918 C -118.30664 -416.58303 -130.19676 -428.42187 -145.47461 -428.42188 L -366.52539 -428.42188 C -381.80324 -428.42188 -393.69336 -416.58303 -393.69336 -401.5918 L -393.69336 -224.08789 C -393.69336 -209.09666 -381.80324 -197.25977 -366.52539 -197.25977 L -145.47461 -197.25977 z M -147.55469 -232.18359 C -148.65221 -232.1836 -149.69889 -232.63647 -150.48047 -233.45703 L -150.99609 -234 C -156.1056 -239.31368 -157.75203 -244.92234 -157.52148 -253.99805 C -158.46074 -254.23205 -157.97656 -253.02148 -157.97656 -253.02148 L -159.90234 -254.77539 C -160.16784 -254.63882 -160.61595 -254.31425 -161.18555 -254.37305 C -161.67971 -253.64945 -163.20458 -252.94202 -164.30469 -253.62109 C -163.57581 -250.21847 -162.04113 -239.76416 -167.43555 -234.01758 L -168.19922 -233.21289 C -168.81449 -232.56692 -169.66261 -232.20117 -170.52734 -232.20117 C -172.05723 -232.20117 -173.38712 -233.31938 -173.73633 -234.89062 L -173.9043 -235.6582 C -175.03626 -240.79991 -173.13475 -250.56095 -171.85938 -256.10547 C -174.13426 -257.1136 -176.65819 -259.33775 -177.92578 -264.20117 C -177.87339 -264.1975 -177.3434 -263.75103 -177.2832 -263.73633 C -178.11826 -265.73355 -178.48473 -270.55781 -178.95898 -273.06836 L -178.17188 -271.9043 C -178.17188 -274.02254 -176.7905 -279.98933 -176.15625 -281.31055 C -176.15625 -281.31055 -175.79816 -279.57963 -175.72266 -280.05664 C -175.55576 -281.11161 -174.90231 -283.79007 -173.7168 -284.45117 L -172.04102 -285.43945 C -167.48895 -289.45239 -165.3188 -289.25216 -161.50586 -289.28906 C -157.40791 -289.32863 -157.3345 -290.02228 -150.81445 -284.40234 L -148.98047 -283.75 L -147.76953 -281.0957 C -147.65807 -280.84097 -147.38086 -282.37109 -147.38086 -282.37109 C -145.65261 -280.76849 -143.7383 -276.12922 -143.89648 -273.18945 L -144.04492 -271.2832 C -144.04492 -271.2832 -143.5 -272.42775 -143.5 -272.40625 L -144.14062 -268.3457 C -143.86258 -266.34709 -144.19077 -264.55379 -144.59961 -263.07227 C -145.76107 -259.53422 -147.88934 -258.18142 -149.71289 -257.17578 C -147.37762 -252.32006 -143.67965 -243.44994 -144.5 -237.38477 L -144.61719 -236.5293 C -144.9165 -234.38187 -145.47601 -232.1836 -147.55469 -232.18359 z M -148.54688 -234.88086 C -143.72363 -235.84204 -149.96234 -251.9517 -152.98047 -255.67773 C -158.63751 -253.84529 -152.98628 -238.67458 -148.54688 -234.88086 z M -170.66211 -235.49805 C -167.84946 -235.216 -164.08385 -250.00545 -167.76172 -255.30469 C -167.81326 -255.30469 -167.8697 -255.30384 -167.9375 -255.29688 C -170.40359 -255.26259 -173.91198 -240.63842 -170.66211 -235.49805 z M -320.82617 -241.73242 C -321.04107 -241.72472 -321.2605 -241.79168 -321.45898 -241.9375 C -321.98824 -242.32634 -322.23559 -243.16762 -322.04102 -243.94531 L -321.16992 -247.45508 C -320.97555 -248.23277 -320.90645 -249.07285 -320.96875 -249.89258 C -321.19448 -252.89825 -323.06104 -255.17969 -325.29492 -255.17969 L -326.13672 -255.17969 C -327.32965 -252.69786 -329.76218 -251.02148 -332.76758 -251.02148 L -347.57617 -251.02148 C -350.66021 -251.02148 -353.14599 -252.78334 -354.30273 -255.37305 L -355.23242 -255.37305 C -357.4663 -255.37305 -359.92271 -253.09357 -360.14844 -250.08789 C -360.2107 -249.26816 -360.14188 -248.43664 -359.94727 -247.64844 L -359.08203 -244.12891 C -358.88746 -243.36173 -359.13674 -242.50993 -359.66602 -242.12109 C -360.19531 -241.73224 -360.85684 -241.91169 -361.23047 -242.55273 L -361.81445 -243.53906 C -363.22324 -245.92469 -363.99414 -248.90933 -363.99414 -251.95703 C -363.99414 -258.88439 -359.59933 -264.64857 -354.53125 -265.38281 L -354.09375 -271.15625 C -353.81611 -274.82186 -349.89576 -277.18162 -347.27734 -278.08594 L -345.5625 -285.95508 C -345.11424 -288.08173 -343.52161 -289.57227 -341.69531 -289.57227 L -338.64844 -289.57227 C -336.81382 -289.57227 -335.2212 -288.08173 -334.78125 -285.95508 L -333.06641 -278.08594 C -330.44805 -277.18162 -326.52764 -274.82186 -326.25 -271.15625 L -325.79492 -265.15039 C -320.89682 -264.28773 -317.12305 -258.59363 -317.12305 -251.76367 C -317.12305 -248.70546 -317.89398 -245.72156 -319.30273 -243.33594 L -319.88672 -242.35742 C -320.12021 -241.96332 -320.46801 -241.74525 -320.82617 -241.73242 z M -233.07227 -247.04102 C -233.70002 -247.04102 -236.6509 -250.98017 -237.88867 -253.46094 C -238.37454 -253.29439 -238.50784 -253.21965 -239.06055 -253.18945 C -242.02369 -253.02732 -241.27511 -251.9803 -238.83398 -250.85352 C -238.83398 -250.85352 -242.49554 -250.94643 -244.2207 -251.74805 C -245.42241 -252.30645 -245.0957 -251.14258 -245.0957 -251.14258 L -246.27734 -251.94727 C -246.76827 -251.60241 -246.96118 -251.49869 -247.25 -251.36523 C -247.17318 -251.61831 -247.17381 -251.87192 -247.31641 -252.125 C -251.72294 -250.50602 -247.10547 -252.73179 -247.72461 -252.49609 C -250.68565 -251.35966 -252.80078 -250.6917 -254.42383 -251.75781 C -253.35573 -251.82213 -251.6665 -252.91709 -252.97852 -252.79102 C -253.79596 -252.73495 -254.46451 -252.93751 -255.41016 -253.45117 C -256.08415 -252.4725 -257.28646 -251.37659 -257.92578 -250.4375 C -258.73036 -249.25571 -259.96569 -247.03546 -260.93164 -247.1875 C -262.24552 -247.3943 -263.22626 -251.37919 -263.28906 -253.52539 C -263.28906 -253.52539 -263.67644 -257.64764 -263.38477 -259.66992 C -263.38477 -259.66992 -263.34847 -260.77127 -262.66797 -261.78125 C -264.7426 -266.12965 -265.13709 -268.95033 -264.9375 -270.00391 L -263.77344 -268.7832 C -264.28821 -271.81843 -260.9783 -278.72955 -260.30078 -280.05664 C -260.30078 -280.05664 -258.94349 -278.42388 -258.86719 -278.92383 C -258.69849 -280.02955 -258.28033 -282.65475 -257.08203 -283.34766 C -256.91099 -283.44655 -256.41406 -282.31445 -256.41406 -282.31445 C -256.41406 -282.31445 -256.30687 -283.45515 -255.50391 -284.38281 C -252.31081 -288.07181 -248.75352 -289.04297 -245.75977 -289.04297 C -242.78867 -289.04297 -240.04483 -287.79942 -237.37695 -283.61523 C -237.37695 -282.67511 -236.11476 -280.84589 -235.94922 -279.70117 C -235.92315 -279.52094 -235.46953 -281.28751 -235.55273 -282.83008 C -235.55273 -282.83008 -234.25887 -280.57635 -233.96484 -279.38086 C -233.82098 -278.79593 -234.16479 -278.70127 -233.21289 -276.44531 C -233.21289 -276.44531 -233.05567 -278.36971 -232.93555 -278.10938 C -231.68504 -275.39869 -230.31347 -272.90068 -230.29297 -270.1582 L -229.66797 -270.8418 L -229.64453 -269.73633 C -229.64453 -269.73633 -229.42578 -269.87992 -229.42578 -269.85742 L -230.01758 -265.65234 C -229.51002 -262.56962 -229.77148 -261.33008 -229.77148 -261.33008 C -229.60527 -260.56584 -230.43252 -259.4291 -230.60938 -258.78125 L -230.00586 -259.26758 C -229.71417 -257.2453 -230.33398 -253.39844 -230.33398 -253.39844 C -230.39675 -251.25225 -231.37947 -247.26929 -232.69336 -247.0625 C -232.8141 -247.0439 -232.94022 -247.03502 -233.07227 -247.04102 z M -233.33203 -250.50195 C -233.31593 -250.50195 -233.30111 -250.50091 -233.28711 -250.50391 C -232.9147 -250.57528 -232.55082 -251.33888 -232.60352 -252.71875 L -232.58203 -253.16602 C -232.67159 -252.98375 -232.75391 -252.93164 -232.75391 -252.93164 C -232.38266 -255.05553 -232.71319 -256.58656 -232.74219 -257.91797 C -233.32154 -257.13636 -234.01794 -255.96018 -234.83398 -255.38477 C -235.46889 -254.80005 -235.8367 -254.52856 -236.21875 -254.28906 L -234.17969 -251.05078 C -234.04203 -250.87184 -233.57403 -250.51095 -233.33203 -250.50195 z M -260.13477 -250.79492 C -259.90972 -250.80354 -259.47568 -251.13737 -259.34766 -251.30273 L -257.45117 -254.29492 C -258.61316 -255.05967 -260.93564 -257.14785 -260.93164 -257.89453 C -260.86054 -256.39443 -261.30639 -255.47306 -260.91602 -253.25391 C -260.91602 -253.25391 -260.99287 -253.30223 -261.07617 -253.4707 L -261.05469 -253.05859 C -261.10367 -251.78349 -260.52213 -250.86274 -260.17578 -250.79688 C -260.16278 -250.79467 -260.14987 -250.79455 -260.13477 -250.79492 z M -163.74805 -253.85938 C -162.72208 -253.83478 -162.28661 -254.91432 -162.35156 -255.25977 C -163.21977 -254.69363 -163.48653 -254.64474 -164.43555 -254.24023 C -164.42198 -254.18385 -164.40148 -254.07001 -164.38672 -254.00586 C -164.15384 -253.91267 -163.93935 -253.86393 -163.74805 -253.85938 z M -346.77539 -262.22266 C -344.84348 -262.22266 -343.27734 -263.83225 -343.27734 -265.81836 C -343.27734 -267.80449 -344.84348 -269.41602 -346.77539 -269.41602 C -348.7073 -269.41602 -350.27344 -267.80449 -350.27344 -265.81836 C -350.27344 -263.83225 -348.7073 -262.22266 -346.77539 -262.22266 z M -334.18945 -262.4082 C -332.25392 -262.4082 -330.68641 -264.0238 -330.69141 -266.01367 C -330.68622 -268.00355 -332.25392 -269.61914 -334.18945 -269.61914 C -336.12502 -269.61914 -337.6925 -268.00355 -337.6875 -266.01367 C -337.69269 -264.0238 -336.12502 -262.4082 -334.18945 -262.4082 z M -255.47656 -263.58984 C -253.40392 -263.54595 -251.25146 -265.79951 -250.10352 -268.20898 C -249.25648 -269.98668 -255.99753 -269.82534 -256.93164 -268.16211 C -257.62312 -266.70356 -255.47656 -263.58984 -255.47656 -263.58984 z M -237.35547 -263.61133 C -237.35547 -263.61133 -235.2746 -266.71546 -235.94531 -268.16992 C -236.85137 -269.82849 -243.38996 -269.99148 -242.56836 -268.21875 C -241.45485 -265.81601 -239.36588 -263.56753 -237.35547 -263.61133 z M -152.27148 -266.13086 C -150.27556 -266.11166 -150.14257 -268.96606 -150.78906 -270.74609 C -151.857 -272.64761 -158.56727 -272.59629 -157.70898 -270.79492 C -156.54564 -268.35323 -153.92914 -268.76253 -152.69531 -266.17578 C -152.54537 -266.14779 -152.40455 -266.13214 -152.27148 -266.13086 z M -170.05859 -266.21875 C -168.52967 -266.10856 -166.01205 -269.13111 -164.99414 -271.26758 C -164.13579 -273.06899 -170.96553 -272.90419 -171.91211 -271.21875 C -172.40424 -270.06092 -171.68647 -267.5107 -170.64648 -266.4707 C -170.47566 -266.31545 -170.27702 -266.23449 -170.05859 -266.21875 z M -246.35547 -276.29492 C -245.19594 -276.28801 -242.93918 -276.74301 -243.13086 -277.47852 C -243.61225 -279.32541 -244.96213 -281.66045 -245.70898 -282.12305 C -246.18869 -282.42019 -246.44456 -282.41941 -247.00195 -282.12305 C -247.69145 -281.69599 -249.11505 -279.25539 -249.57812 -277.47852 C -249.77539 -276.72169 -247.47802 -276.30192 -246.35547 -276.29492 z M -161.23047 -277.13281 C -160.28438 -277.12718 -158.44516 -277.49755 -158.60156 -278.09766 C -158.99433 -279.60457 -160.09568 -281.50732 -160.70508 -281.88477 C -161.09647 -282.12722 -161.30303 -282.12656 -161.75781 -281.88477 C -162.32038 -281.53632 -163.48347 -279.54745 -163.86133 -278.09766 C -164.02229 -277.48015 -162.14637 -277.13781 -161.23047 -277.13281 z M -335.59766 -291.11328 L -344.74609 -291.11328 C -355.12571 -291.11328 -364.73457 -296.71816 -370.09375 -305.86914 L -388.05078 -336.58398 C -390.8536 -341.36532 -389.34414 -347.60291 -384.69336 -350.48438 C -380.04254 -353.36578 -373.97466 -351.81454 -371.17188 -347.0332 L -362.33203 -331.96094 L -362.33203 -383.53516 C -364.75887 -384.36659 -367.37917 -384.97291 -370.21875 -385.29297 C -375.47727 -382.90618 -376.29137 -381.61525 -378.96289 -378.62891 C -379.18403 -379.27245 -379.44449 -379.485 -379.60547 -379.27734 C -381.52351 -378.10826 -383.05771 -376.50167 -386.76172 -375.5 C -385.8181 -376.71811 -384.68529 -377.4382 -383.97266 -379.26758 L -385.26367 -378.84961 C -385.53424 -379.19802 -385.0333 -379.69092 -384.7793 -380.13867 C -385.50761 -379.95044 -386.15774 -379.82281 -387.49414 -379.16406 C -386.74686 -379.95346 -385.96054 -380.71496 -385.35742 -381.61133 C -386.80951 -382.18758 -388.31132 -381.61755 -389.79688 -381.40234 C -388.41873 -382.49767 -387.13339 -383.46343 -384.76562 -384.71289 C -384.17165 -384.96387 -385.36133 -385.52539 -385.36133 -385.52539 C -381.67617 -387.61918 -375.59516 -388.03221 -371.1543 -387.52148 C -369.70352 -387.58065 -368.17714 -387.52332 -366.52539 -387.2793 C -365.08215 -386.94415 -363.68804 -386.52914 -362.33203 -386.05469 L -362.33203 -402.60352 C -362.33203 -408.20807 -357.92819 -412.73633 -352.47656 -412.73633 C -347.02497 -412.73633 -342.62109 -408.20807 -342.62109 -402.60352 L -342.62109 -371.00781 C -340.65721 -368.21948 -339.03179 -365.21063 -337.75781 -362.07422 L -337.69141 -362.07422 L -337.69141 -402.60352 C -337.69141 -408.20807 -333.28753 -412.73633 -327.83594 -412.73633 C -322.38431 -412.73633 -317.98047 -408.20807 -317.98047 -402.60352 L -317.98047 -331.96094 L -309.17188 -347.0332 C -306.36907 -351.81454 -300.30121 -353.36578 -295.65039 -350.48438 C -290.99961 -347.60291 -289.49016 -341.36532 -292.29297 -336.58398 L -310.25 -305.86914 C -315.60918 -296.71816 -325.21805 -291.11328 -335.59766 -291.11328 z M -161.22852 -291.14453 C -174.90371 -291.14453 -186.97934 -300.29547 -191.04492 -313.68945 L -200.19141 -343.83398 C -201.82378 -349.1853 -198.92784 -354.85303 -193.72266 -356.53125 C -192.73705 -356.84787 -191.75164 -357.00781 -190.79688 -357.00781 L -193.57031 -365.52539 C -194.64831 -368.81849 -192.24588 -372.20508 -188.88867 -372.20508 L -183.40625 -372.20508 L -183.40625 -402.60352 C -183.40625 -408.20807 -179.00042 -412.73633 -173.54883 -412.73633 C -168.09721 -412.73633 -163.69336 -408.20807 -163.69336 -402.60352 L -163.69336 -372.20508 L -158.76562 -372.20508 L -158.76562 -402.60352 C -158.76562 -408.20807 -154.36174 -412.73633 -148.91016 -412.73633 C -143.45853 -412.73633 -139.05273 -408.20807 -139.05273 -402.60352 L -139.05273 -372.20508 L -133.57031 -372.20508 C -130.21313 -372.20508 -127.84146 -368.81849 -128.88867 -365.52539 L -131.66211 -357.00781 C -130.67651 -357.00781 -129.68914 -356.84787 -128.73438 -356.53125 C -123.52915 -354.85303 -120.63517 -349.1853 -122.26758 -343.83398 L -131.41406 -313.68945 C -135.47968 -300.29547 -147.5533 -291.14453 -161.22852 -291.14453 z M -245.97266 -291.14453 L -248.4375 -291.14453 C -261.37354 -291.14453 -272.80038 -299.78892 -276.65039 -312.48633 L -286.16797 -343.86523 C -287.80042 -349.21655 -284.9044 -354.88623 -279.69922 -356.56445 C -275.87998 -357.79933 -271.8757 -356.50107 -269.38086 -353.58789 L -269.38086 -371.01172 C -270.38071 -372.23359 -271.35 -373.49388 -272.02539 -374.5918 C -272.33265 -375.09129 -270.00391 -373.88281 -270.00391 -373.88281 C -277.77815 -383.59395 -280.7856 -388.92175 -288.74805 -392.29492 C -286.71321 -393.2046 -284.75636 -394.25633 -282.7168 -395.06055 C -279.31748 -396.40098 -274.17205 -396.97566 -269.56445 -395.13281 C -269.50193 -395.10253 -269.44292 -395.06798 -269.38086 -395.03711 L -269.38086 -402.60352 C -269.38086 -408.20807 -264.977 -412.73633 -259.52539 -412.73633 C -254.07381 -412.73633 -249.66992 -408.20807 -249.66992 -402.60352 L -249.66992 -373.06445 C -248.05912 -371.05564 -246.43531 -369.11742 -244.74219 -367.31445 L -244.74219 -402.60352 C -244.74219 -408.20807 -240.33637 -412.73633 -234.88477 -412.73633 C -229.43315 -412.73633 -225.0293 -408.20807 -225.0293 -402.60352 L -225.0293 -353.58789 C -222.53449 -356.50103 -218.53012 -357.76766 -214.71094 -356.56445 C -209.50572 -354.88623 -206.60978 -349.21655 -208.24219 -343.86523 L -217.75977 -312.48633 C -221.60975 -299.78892 -233.03664 -291.14453 -245.97266 -291.14453 z M -340.46094 -362.07422 C -341.10387 -363.55159 -341.82124 -365.01455 -342.62109 -366.44336 L -342.62109 -362.07422 L -340.46094 -362.07422 z M -269.38086 -380.14844 L -269.38086 -380.98242 C -270.07114 -381.94467 -270.76938 -382.86465 -271.32812 -384.54492 L -270.1875 -384.06055 C -269.9862 -384.51624 -270.45674 -385.12899 -270.71289 -385.69141 C -270.30587 -385.55623 -269.91139 -385.43244 -269.38086 -385.16992 L -269.38086 -386.03711 C -269.72379 -386.53018 -270.05226 -387.04102 -270.3457 -387.5957 C -270.03282 -387.80356 -269.70982 -387.90624 -269.38086 -387.94727 L -269.38086 -390.73438 C -269.72844 -391.05192 -270.11532 -391.37438 -270.58398 -391.70508 C -271.11399 -392.00295 -270.14453 -392.76758 -270.14453 -392.76758 C -274.54376 -393.53906 -280.70271 -393.97967 -283.68555 -391.86133 C -277.42278 -388.87813 -277.35549 -387.76478 -275.02344 -383.70898 C -274.8902 -384.54261 -274.68309 -384.81971 -274.52734 -384.56055 C -272.93093 -383.25906 -272.02478 -381.33711 -269.38086 -380.14844 z "
       transform="scale(-1)" /><path
    d="m 323.01334,501.89241 c 0,10.08393 8.18815,18.27208 18.27207,18.27208 l 129.07424,-10e-6 c 10.08398,0 18.27213,-8.18817 18.27206,-18.27207 7e-5,-10.08394 -8.18808,-18.27208 -18.27206,-18.27207 l -85.06798,0.0403 123.74994,-123.74997 c 7.13942,-7.13939 7.13942,-18.67541 0,-25.81483 -7.13942,-7.13942 -18.67545,-7.13941 -25.81481,-1e-5 l -123.70964,123.70965 -0.0403,-84.98735 c -3e-5,-10.0839 -8.18818,-18.27204 -18.27207,-18.27208 -10.08394,2e-5 -18.27209,8.18816 -18.27209,18.27209 l -1e-5,129.07426 z"
    id="path5705"
    style="display:none;stroke-width:0.570433" /></g></svg>
