<?xml version="1.0" encoding="UTF-8" standalone="no"?>
<!-- Created with Inkscape (http://www.inkscape.org/) -->

<svg
   viewBox="0 0 512 512"
   version="1.1"
   id="svg136"
   xml:space="preserve"
   xmlns="http://www.w3.org/2000/svg"
   xmlns:svg="http://www.w3.org/2000/svg"><defs
     id="defs133" /><g
     id="layer1" class="svgIconFill"><path
       id="path489"
       style="fill-opacity:1;stroke:none;stroke-width:64;stroke-miterlimit:10;paint-order:markers fill stroke"
       d="M -256,0 C -114.61566,0 0,-114.61566 0,-256 c 0,-141.38434 -114.61566,-256 -256,-256 -141.38434,0 -256,114.61566 -256,256 0,141.38434 114.61566,256 256,256 z m 73.08594,-53.5625 c -2.66383,0.09876 -5.25547,-0.891676 -7.18946,-2.78125 l -8.29882,-8.095703 -14.31446,2.326172 c -5.16475,0.839724 -9.06922,-0.609519 -13.30078,-3.707031 l -7.80078,-13.183594 -12.29883,-2.71875 c -12.16074,-1.644839 -14.38471,-1.03252 -15.24219,-6.574219 l -1.29882,-8.394531 c -2.12192,-13.713454 16.14014,-9.648914 28.70508,-18.195314 5.35356,-3.64138 10.28547,-14.69692 8.62304,-22.24023 24.38847,9.36069 46.98659,-3.60298 55.76758,-15.35157 l -2.5,19.15235 c -0.68402,5.35158 -1.08554,9.46103 -2.87891,14.89453 2.57339,-2.5822 3.29282,-4.32114 4.33399,-6.48828 -0.59147,12.95011 -1.69438,5.75908 -2.96485,18.83789 2.08598,-3.95004 3.18474,-5.16971 3.81836,-8.87891 -0.0769,9.79938 -1.61321,37.764201 -5.19531,45.488284 l 1.3086,-0.892578 c 0.87026,4.466604 0.15039,7.15625 0.15039,7.15625 -0.0554,4.761444 -3.55613,8.806288 -8.2793,9.537109 -0.38172,0.05906 -0.76399,0.09527 -1.14453,0.109375 z m -1.88672,-4.25 c 0.19443,0.0189 0.39203,0.01329 0.58789,-0.02148 1.3057,-0.231873 2.53588,-1.741789 2.25977,-5.673828 L -181.45508,-76.25 c -0.87678,2.931607 -8.79857,8.599385 -12.13672,10.388672 l 7.25586,7.310547 c 0.3969,0.400001 0.95187,0.68158 1.53516,0.738281 z m -151.39649,-76.74219 h -68.21679 c -31.87828,0 -57.72266,-25.84243 -57.72266,-57.7207 0,-31.87827 25.84438,-57.72266 57.72266,-57.72266 h 46.5039 l 151.65235,-132.6289 c 10.4949,-9.18304 24.00717,-14.30078 37.97851,-14.30078 h 68.2168 c 31.878273,0 57.722656,25.84438 57.722656,57.72265 0,31.87827 -25.844383,57.72266 -57.722656,57.72266 h -46.50586 l -151.65039,132.6289 c -10.4949,9.18305 -24.00717,14.29883 -37.97852,14.29883 z m 125.9375,-10.49414 c -15.54557,0 -29.12345,-8.46194 -36.40429,-20.99023 l 78.38476,-68.54492 v 47.55468 c 0,23.15439 -18.82608,41.98047 -41.98047,41.98047 z m -125.9375,-20.99023 c 6.36254,0 12.4617,-2.29618 17.25,-6.49414 l 156.04688,-136.56446 c 2.8861,-2.49254 6.55888,-3.86914 10.36328,-3.86914 h 52.47461 c 14.496087,0 26.238281,-11.74219 26.238281,-26.23828 0,-14.49609 -11.742194,-26.23633 -26.238281,-26.23633 h -68.2168 c -6.36253,0 -12.4617,2.29423 -17.25,6.49219 l -156.04687,136.56641 c -2.8861,2.49254 -6.55888,3.86914 -10.36328,3.86914 h -52.47461 c -14.49609,0 -26.23828,11.74219 -26.23828,26.23828 0,14.49609 11.74219,26.23633 26.23828,26.23633 z m 2.66797,-144.42969 h -73.83008 c -5.76786,0 -10.45117,-4.68332 -10.45117,-10.45117 h -0.0469 v -73.82813 c 0,-5.76784 4.68526,-10.45116 10.45312,-10.45117 5.76785,3e-5 10.45115,4.68334 10.45118,10.45117 l 0.0215,48.61133 70.76172,-70.76172 c 4.08359,-4.08361 10.68198,-4.08362 14.76562,0 4.08364,4.08367 4.08364,10.68395 0,14.76758 l -70.7832,70.7832 48.6582,-0.0234 c 5.76789,-1e-5 10.45118,4.68329 10.45118,10.45117 0,5.76783 -3.57888,10.45117 -10.45118,10.45117 z"
       transform="scale(-1)" /><path
       d="m 323.01334,501.89241 c 0,10.08393 8.18815,18.27208 18.27207,18.27208 l 129.07424,-10e-6 c 10.08398,0 18.27213,-8.18817 18.27206,-18.27207 7e-5,-10.08394 -8.18808,-18.27208 -18.27206,-18.27207 l -85.06798,0.0403 123.74994,-123.74997 c 7.13942,-7.13939 7.13942,-18.67541 0,-25.81483 -7.13942,-7.13942 -18.67545,-7.13941 -25.81481,-1e-5 l -123.70964,123.70965 -0.0403,-84.98735 c -3e-5,-10.0839 -8.18818,-18.27204 -18.27207,-18.27208 -10.08394,2e-5 -18.27209,8.18816 -18.27209,18.27209 l -1e-5,129.07426 z"
       id="path5705"
       style="display:none;stroke-width:0.570433" /></g><g
     id="g794"
     transform="matrix(0.6559322,0,0,0.6559322,42.340234,52.890921)" /></svg>
