<?xml version="1.0" encoding="UTF-8" standalone="no"?>
<svg
    viewBox="0 0 576 512"
    version="1.1"
    id="svg135"
    xml:space="preserve"
    xmlns="http://www.w3.org/2000/svg"
    xmlns:svg="http://www.w3.org/2000/svg"><defs
     id="defs139" /><!--! Font Awesome Free 6.2.0 by @fontawesome - https://fontawesome.com License - https://fontawesome.com/license/free (Icons: CC BY 4.0, Fonts: SIL OFL 1.1, Code: MIT License) Copyright 2022 Fonticons, Inc. --><path
    d="m 157.36243,270.71934 c 11.03161,-5.28111 15.75138,-18.45242 10.47026,-29.48403 -5.2811,-11.03161 -18.45241,-15.75139 -29.48403,-10.47027 -53.833784,25.64586 -88.915509,82.6602 -83.603352,145.61444 6.855395,81.24314 78.211222,141.49385 159.454362,134.63845 56.24526,-4.74604 102.38632,-40.387 123.19999,-88.79271 4.79072,-11.23357 -0.37752,-24.21843 -11.61885,-29.10105 -11.24134,-4.88263 -24.21845,0.37752 -29.10106,11.61885 -14.54045,33.90006 -46.86756,58.84186 -86.20247,62.16099 -56.88858,4.80032 -106.81772,-37.35834 -111.61805,-94.24691 -3.714632,-44.02203 20.77669,-83.945 58.5032,-101.93776 z m 153.71086,-82.36292 -1.83013,-9.34328 c -4.33451,-21.47991 -23.11739,-36.89151 -45.07892,-36.89151 -28.99307,0 -50.76196,26.48868 -45.07893,54.90382 l 22.2505,111.25248 c 5.77935,28.80042 31.01584,49.50976 60.49052,49.50976 h 4.91245 1.25219 66.63947 c 6.45361,0 12.13663,3.94922 14.44837,10.01754 l 34.96507,93.33649 c 5.77935,15.50793 22.92475,23.69534 38.62532,18.3976 l 46.23479,-15.4116 c 16.18218,-5.39406 24.85121,-22.82843 19.45715,-39.01061 -5.39406,-16.18218 -22.82843,-24.8512 -39.01061,-19.45714 l -18.01231,5.97199 -24.56223,-65.49929 c -11.26973,-30.05262 -40.07016,-49.99138 -72.14555,-49.99138 h -41.98091 l -9.24696,-46.23479 h 61.06846 c 17.04908,0 30.8232,-13.77412 30.8232,-30.8232 0,-17.04908 -13.77412,-30.8232 -30.8232,-30.8232 h -73.39774 z"
    id="path133"
    style="stroke-width:0.963225;fill:#9b9bff;fill-opacity:1" /><path
    id="path627"
    style="fill:#9b9bff;fill-opacity:1;fill-rule:evenodd;stroke:none;stroke-width:0.369091px;stroke-linecap:butt;stroke-linejoin:miter;stroke-opacity:1"
    d="m 162.77815,198.0371 c 11.81304,0.53912 23.78295,3.06451 36.76758,12.95017 18.26215,15.65887 30.19579,38.50658 40.37214,61.83197 15.50386,32.84093 29.26414,62.10317 62.22397,85.04189 -4.03634,0.25 -23.92638,-2.52139 -34.03401,-4.37901 -37.12654,-6.82328 -67.4252,-37.58133 -84.24253,-71.54793 -0.68042,-2.26514 8.85797,8.00045 8.85797,8.00045 6.09883,7.28501 -8.76617,-15.6065 -13.21246,-28.44888 -0.5544,-1.60128 5.78282,4.08715 5.78282,4.08715 -11.6926,-33.77214 -17.92127,-50.40359 -43.79483,-67.52182 7.16004,0.0542 14.19149,-0.33753 21.27935,-0.014 z m -1.36718,4.40708 c -1.80455,-0.0621 -3.38442,-0.004 -4.66808,0.17559 19.66082,18.21134 20.26792,22.55063 26.05634,36.84828 1.10919,-1.93275 1.98561,-2.3927 2.26183,-1.5656 4.31182,5.54853 7.2318,12.19678 16.54355,18.77149 -1.61729,-4.84893 -4.1412,-8.21853 -4.64965,-14.87774 l 3.19484,2.52062 c 1.01079,-0.90953 0.0319,-2.98294 -0.30946,-4.68335 1.83807,1.26372 3.51101,2.26009 6.63763,5.61248 -1.4183,-3.26254 -2.96343,-6.46498 -3.90432,-9.95273 4.41031,-0.61614 8.05416,2.58815 11.93512,4.61063 -2.8982,-4.82844 -5.64587,-9.1469 -11.12066,-15.35787 -1.42275,-1.35224 2.26286,-2.15364 2.26286,-2.15364 -10.11297,-12.22354 -31.60805,-19.51304 -44.24,-19.94816 z" /><path
    id="path2357"
    style="stroke-width:0.628139;fill:#9b9bff;fill-opacity:1"
    d="m 243.93443,3.063664 c -7.26322,0.5809372 -13.04043,6.3366344 -13.65917,13.569771 0,0 -2.25106,12.483118 -1.42901,19.371909 0,0 2.5446,-5.8092 1.60809,-2.495402 -5.24265,16.37193 -7.94738,43.040119 -9.1643,57.930579 4.01264,-6.931945 5.04033,-5.437171 8.5079,-8.473412 -6.13871,13.107936 -8.36468,16.904779 -9.56887,26.395241 1.82628,-3.17806 6.05866,-3.73633 8.65842,-7.76372 -4.11351,13.23996 -5.86478,9.88404 -7.04951,18.01354 l -0.9134,30.75877 c 14.66958,-16.87698 39.8991,-31.83553 75.92883,-14.86565 -1.68079,-11.65555 7.05817,-27.91218 15.60658,-32.8476 20.06328,-11.58355 51.31661,-4.019584 49.62988,-25.107869 l -1.0325,-12.908926 c -0.68162,-8.521924 -4.13059,-7.841034 -22.43528,-11.70699 L 320.22611,47.42089 309.84541,26.501682 c -6.08598,-5.184518 -11.85947,-7.828653 -19.80631,-7.131703 l -22.02324,1.931474 -11.7084,-13.2417555 c -3.11811,-3.5314681 -7.677,-5.3716394 -12.37303,-4.9960335 z m 3.24715,6.6024646 c 1.20674,-0.1235703 2.40309,0.4560674 3.14784,1.3263594 l 10.21076,11.931226 c -5.27622,2.345728 -17.95541,10.072687 -19.61757,14.43151 l 2.18796,-19.316657 c 0.0216,-6.009324 2.05978,-8.1664728 4.07101,-8.3724384 z" /></svg>
