<?xml version="1.0" encoding="UTF-8" standalone="no"?>
<!-- Created with Inkscape (http://www.inkscape.org/) -->

<svg
   width="131.45236mm"
   height="177.39934mm"
   viewBox="0 0 131.45236 177.39934"
   version="1.1"
   id="svg5"
   xml:space="preserve"
   inkscape:version="1.2.2 (732a01da63, 2022-12-09)"
   sodipodi:docname="Hourglass.svg"
   xmlns:inkscape="http://www.inkscape.org/namespaces/inkscape"
   xmlns:sodipodi="http://sodipodi.sourceforge.net/DTD/sodipodi-0.dtd"
   xmlns="http://www.w3.org/2000/svg"
   xmlns:svg="http://www.w3.org/2000/svg"><sodipodi:namedview
     id="namedview7"
     pagecolor="#ffffff"
     bordercolor="#666666"
     borderopacity="1.0"
     inkscape:showpageshadow="2"
     inkscape:pageopacity="0.0"
     inkscape:pagecheckerboard="0"
     inkscape:deskcolor="#d1d1d1"
     inkscape:document-units="mm"
     showgrid="false"
     showguides="true"
     inkscape:zoom="0.5946522"
     inkscape:cx="322.87781"
     inkscape:cy="580.17106"
     inkscape:current-layer="g2264" /><defs
     id="defs2" /><g
     inkscape:label="Ebene 1"
     inkscape:groupmode="layer"
     id="layer1"
     transform="translate(-39.273819,-61.916986)"><g
       id="g2264"><path
         id="rect354"
         style="fill:#580b74;stroke-width:0.752146;stroke-miterlimit:10;paint-order:markers fill stroke"
         d="m 53.526345,65.921428 c -3.95195,0 -7.133524,3.406953 -7.133524,7.638858 0,4.231905 3.181574,7.638859 7.133524,7.638859 h 3.367931 c 0.281861,12.976643 1.53904,20.564095 5.889845,27.928385 5.09854,8.62993 13.593104,16.35193 28.896741,33.79879 -0.03118,-0.14992 0.115974,0.0911 0.23823,0.26991 -0.08164,-0.0932 -0.156975,-0.17728 -0.23823,-0.26991 0.002,0.01 -0.0021,0.006 0.0013,0.0182 0.0867,0.31862 0.204188,0.93117 0.295829,1.67817 0.183282,1.49399 0.283866,3.54231 0.275553,5.57088 -0.0083,2.02856 -0.123878,4.06655 -0.311955,5.5462 -0.09065,0.71316 -0.203237,1.2784 -0.285692,1.59479 -15.255956,16.04807 -23.863663,23.56505 -28.946506,32.36978 -4.493256,7.78344 -5.631983,16.0404 -5.846071,30.32994 H 53.5263 c -3.951954,0 -7.133524,3.40695 -7.133524,7.63886 0,4.23191 3.18157,7.63886 7.133524,7.63886 h 102.94748 c 3.95195,0 7.13352,-3.40695 7.13352,-7.63886 0,-4.23191 -3.18157,-7.63886 -7.13352,-7.63886 h -3.33706 c -0.21409,-14.28954 -1.35281,-22.5465 -5.84607,-30.32994 -5.08285,-8.80473 -13.69055,-16.32171 -28.9465,-32.36978 -0.0825,-0.31639 -0.19505,-0.88164 -0.2857,-1.59479 -0.18808,-1.47965 -0.30365,-3.51765 -0.31196,-5.5462 -0.008,-2.02857 0.0918,-4.07689 0.2751,-5.57088 0.0916,-0.74699 0.20958,-1.35955 0.29629,-1.67817 0.004,-0.0126 -5.6e-4,-0.009 0.002,-0.0182 -0.0812,0.0926 -0.15659,0.17672 -0.23822,0.26991 0.12225,-0.17878 0.26938,-0.41983 0.23822,-0.26991 15.30366,-17.44686 23.7982,-25.16886 28.89674,-33.79879 4.35081,-7.36429 5.60798,-14.951742 5.88985,-27.928385 h 3.36793 c 3.95196,0 7.13352,-3.406954 7.13352,-7.638859 0,-4.231905 -3.18156,-7.638858 -7.13352,-7.638858 z m 10.4927,15.277717 h 81.961565 c -0.23968,12.150894 -1.27646,17.892834 -4.79223,23.843745 -4.16899,7.05654 -12.68243,15.09122 -28.30924,32.92786 l 0.1129,-0.12336 c -1.11339,1.16089 -1.27763,2.06165 -1.52199,2.95962 -0.24436,0.89799 -0.39793,1.82111 -0.5207,2.82196 -0.24557,2.00168 -0.3458,4.29673 -0.33638,6.5982 0.009,2.30146 0.12821,4.57998 0.37785,6.54393 0.12482,0.98197 0.27663,1.87826 0.5124,2.74892 0.23577,0.87068 0.33109,1.73428 1.53398,2.94481 15.6405,16.4802 24.06706,24.12206 28.18573,31.25661 3.59647,6.22998 4.58666,12.69905 4.78165,26.31289 H 63.995544 c 0.194989,-13.61384 1.185173,-20.08291 4.781641,-26.31289 4.11868,-7.13455 12.544785,-14.77641 28.185278,-31.25661 1.20288,-1.21053 1.29867,-2.07413 1.534438,-2.94481 0.235767,-0.87066 0.387122,-1.76695 0.51194,-2.74892 0.249638,-1.96395 0.368879,-4.24247 0.37831,-6.54393 0.0094,-2.30147 -0.09082,-4.59653 -0.336378,-6.5982 -0.122781,-1.00085 -0.276337,-1.92398 -0.520695,-2.82196 -0.244359,-0.89797 -0.408617,-1.79873 -1.521997,-2.95962 l 0.112895,0.12336 C 81.494184,120.13411 72.980731,112.09943 68.811745,105.04289 65.295968,99.091978 64.258743,93.350042 64.019045,81.199145 Z" /><path
         style="fill:#580b74;fill-opacity:1;fill-rule:evenodd;stroke:none;stroke-width:0.244139px;stroke-linecap:butt;stroke-linejoin:miter;stroke-opacity:1"
         d="m 71.083058,91.982327 c 23.171138,1.922825 45.278192,2.108592 67.049992,0 0,10.973783 -12.3885,24.677163 -24.10229,31.385583 -9.35713,5.35877 -7.20093,25.19109 -9.4227,34.07025 -2.22919,-8.90881 -0.0416,-28.69779 -9.42271,-34.07025 -11.625053,-6.6576 -24.102292,-20.60014 -24.102292,-31.385583 z"
         id="path1500"
         sodipodi:nodetypes="ccscsc" /><path
         style="fill:#580b74;fill-opacity:1;fill-rule:evenodd;stroke:none;stroke-width:0.244139px;stroke-linecap:butt;stroke-linejoin:miter;stroke-opacity:1"
         d="m 70.884685,216.51514 h 66.653245 c 0,-9.80545 -7.19679,-13.65969 -18.59887,-20.70901 -4.16036,-2.57215 -11.90597,-12.35307 -15.55809,-12.35307 -2.9238,0 -2.96293,4.26346 -8.002976,9.35088 -12.101877,12.21564 -24.493309,12.92576 -24.493309,23.7112 z"
         id="path2230"
         sodipodi:nodetypes="ccsssc" /></g></g></svg>
