<?xml version="1.0" encoding="UTF-8" standalone="no"?>
<svg
   version="1.1"
   x="0px"
   y="0px"
   viewBox="0 0 512 512"
   xml:space="preserve"
   id="svg249"
   xmlns="http://www.w3.org/2000/svg"
   xmlns:svg="http://www.w3.org/2000/svg"><defs
   id="defs134" />
    <svg:style
   type="text/css"
   id="style2">
	.st0{fill:none;stroke:#9614C8;stroke-width:16;stroke-miterlimit:10;}
    .st1{fill:none;stroke:#9614C8;stroke-width:8;stroke-miterlimit:10;}
    .st2{fill:none;stroke:#9614C8;stroke-width:5;stroke-miterlimit:10;}
    .st3{fill:none;stroke:#9614C8;stroke-width:3;stroke-miterlimit:10;}
    .st4{fill:#9614C8;}
    .st5{fill:none;stroke:#9614C8;stroke-width:7;stroke-miterlimit:10;}
    .st6{fill:none;stroke:#9614C8;stroke-width:6;stroke-miterlimit:10;}
    .st7{fill:none;stroke:#9614C8;stroke-width:4;stroke-miterlimit:10;}
    .st8{fill:#9614C8;stroke:#9614C8;stroke-miterlimit:10;}
    .st9{fill:#00AEEF;stroke:#9614C8;stroke-width:4;stroke-miterlimit:10;}
    .st10{fill:#9614C8;stroke:#9614C8;stroke-width:4;stroke-miterlimit:10;}
</svg:style>





    <g
   id="Overlay"
   transform="matrix(0.49622012,0,0,0.49420864,-221.31419,-12.355216)">
	<ellipse
   class="st0"
   cx="961.90002"
   cy="543"
   rx="507.89999"
   ry="510"
   id="ellipse4" />
        <circle
   class="st0"
   cx="961.90002"
   cy="543"
   r="480"
   id="circle6" />
        <circle
   class="st1"
   cx="961.90002"
   cy="543"
   r="407.89999"
   id="circle8" />
        <circle
   class="st2"
   cx="961.90002"
   cy="547.59998"
   r="123"
   id="circle10" />
        <circle
   class="st2"
   cx="961.90002"
   cy="547.59998"
   r="89.599998"
   id="circle12" />
        <circle
   class="st2"
   cx="963.64038"
   cy="335.38953"
   r="66.5"
   id="circle14" />
        <path
   class="st2"
   d="m 1170.1241,587.93141 c -8.8,-4.3 -18.6,-6.7 -29.1,-6.7 -36.7,0 -66.5,29.8 -66.5,66.5 0,36.7 29.8,66.5 66.5,66.5 36.7,0 66.5,-29.8 66.5,-66.5 0,-26.3 -15.3,-49 -37.4,-59.8"
   id="path16" />
        <circle
   class="st2"
   cx="783.13611"
   cy="646.75763"
   r="66.5"
   id="circle18" />
        <ellipse
   class="st3"
   cx="961.90002"
   cy="544.38055"
   rx="355.3403"
   ry="351.57483"
   id="ellipse20" />
</g>
    <polyline
   class="st2"
   points="901.1,339.4 611.4,339.4 755.3,589.1  "
   id="polyline23"
   transform="matrix(0.49197829,0,0,0.49073856,-220.29629,-11.354306)" /><polyline
   class="st2"
   points="1172.3,588.9 1316,339.4 1033.9,339.4  "
   id="polyline27"
   transform="matrix(0.49724344,0,0,0.49069654,-224.56819,-10.797531)" /><polyline
   class="st2"
   points="821.5,704.1 963.7,950.9 1105.6,704.7  "
   id="polyline29"
   transform="matrix(0.49197829,0,0,0.49073856,-218.84018,-11.998256)" /><polygon
   class="st2"
   points="964.4,136.4 607.5,342.5 606.7,753.3 962.9,958.1 1319.9,752 1320.6,341.1 "
   id="polygon31"
   transform="matrix(0.49197829,0,0,0.49073856,-217.85753,-12.504471)" /><path
   class="st3"
   d="M 257.72309,56.866973"
   id="path33" /><line
   class="st3"
   x1="256.28745"
   y1="120.27235"
   x2="256.28745"
   y2="55.594707"
   id="line35" /><line
   class="st3"
   x1="81.840843"
   y1="356.68732"
   x2="139.05792"
   y2="323.36609"
   id="line37" /><line
   class="st3"
   x1="430.06308"
   y1="356.02124"
   x2="372.9444"
   y2="323.92691"
   id="line39" /><path
   class="st3"
   d="M 181.22045,413.87928"
   id="path41" /><path
   class="st3"
   d="m 348.46741,403.21512 c -18.59678,-32.58504 -53.77322,-54.57013 -94.06625,-54.57013 -39.80105,0 -74.5347,21.39621 -93.32828,53.34327"
   id="path43" /><path
   class="st3"
   d="m 329.28027,414.25674 c -14.66098,-25.27303 -42.06415,-42.30167 -73.45237,-42.30167 -31.48662,0 -58.98821,17.12677 -73.64915,42.59613"
   id="path45" /><path
   class="st3"
   d="m 337.02265,103.33629 c -9.24918,15.89993 -14.56255,34.40077 -14.56255,54.12846 0,59.28123 47.91868,107.3736 107.20206,107.91342"
   id="path47" /><path
   class="st3"
   d="m 356.11142,115.06495 c -6.54331,12.0231 -10.28235,25.76376 -10.28235,40.38777 0,46.3748 37.43955,84.06353 83.83309,84.60333"
   id="path49" /><path
   class="st3"
   d="m 81.102886,259.73828 c 0.491978,0 0.983956,0 1.426733,0 59.775381,0 108.186031,-48.33774 108.186031,-107.9134 0,-18.99158 -4.91978,-36.85445 -13.5786,-52.361802"
   id="path51" /><path
   class="st3"
   d="m 79.872941,234.41618 c 0.885555,0.0491 1.771123,0.0491 2.705879,0.0491 46.83633,0 84.81706,-37.88502 84.81706,-84.60332 0,-14.18235 -3.49304,-27.57951 -9.69198,-39.35724"
   id="path53" /><line
   class="st2"
   x1="82.386078"
   y1="155.60844"
   x2="153.67371"
   y2="197.37029"
   id="line107" /><line
   class="st2"
   x1="175.17314"
   y1="208.04529"
   x2="203.31432"
   y2="225.17204"
   id="line109" /><line
   class="st2"
   x1="218.2057"
   y1="233.38919"
   x2="294.48975"
   y2="278.75464"
   id="line111" /><line
   class="st2"
   x1="217.32246"
   y1="277.66266"
   x2="292.7814"
   y2="235.05676"
   id="line113" /><path
   class="st2"
   d="M 255.85358,295.02241"
   id="path115" /><line
   class="st2"
   x1="254.96861"
   y1="301.76321"
   x2="257.72256"
   y2="213.05325"
   id="line117" /><line
   class="st2"
   x1="256.98517"
   y1="197.31274"
   x2="256.98517"
   y2="186.74434"
   id="line119" /><line
   class="st2"
   x1="309.99829"
   y1="286.30325"
   x2="316.55807"
   y2="289.61703"
   id="line1027" /><line
   class="st2"
   x1="196.22583"
   y1="290.01685"
   x2="202.37552"
   y2="285.99283"
   id="line121" /><line
   class="st2"
   x1="255.21645"
   y1="348.45035"
   x2="254.87141"
   y2="318.34775"
   id="line123" /><line
   class="st2"
   x1="255.39873"
   y1="454.07074"
   x2="255.10353"
   y2="371.18506"
   id="line125" /><line
   class="st2"
   x1="429.15012"
   y1="155.61897"
   x2="357.56729"
   y2="199.49098"
   id="line127" /><line
   class="st2"
   x1="307.36374"
   y1="225.97551"
   x2="335.35736"
   y2="209.78114"
   id="line129" />
    <g
   id="g143"
   transform="matrix(0.49622012,0,0,0.49420864,-219.08382,-12.939585)">

        <line
   class="st5"
   x1="784.29999"
   y1="644"
   x2="746"
   y2="667.70001"
   id="line137" /><path
   class="st4"
   id="salt"
   d="m 771,603.7 c 2.8,0 5.6,0 8.3,0 -1.7,-1.7 -3.3,-3.3 -5,-5 0,6.7 0,13.3 0,20 1.7,-1.7 3.3,-3.3 5,-5 -6.6,0 -12.1,0.2 -18.5,1.7 -6.4,1.6 -11.1,5.2 -16.3,9.3 -4.4,3.5 -6.4,10.2 -8,15.4 -0.9,3.1 -2.3,6.3 -2.8,9.5 -0.5,3.2 -0.1,6.7 -0.1,10 0,6.3 2.1,11.6 4.8,17.3 2.8,5.9 8.9,10.4 14.7,12.9 5.1,2.2 11.3,4.7 16.9,4.3 6.3,-0.5 13.5,-1.3 19.6,-3.3 6.7,-2.2 12.2,-8 16.1,-13.6 3.9,-5.6 5.1,-12 7.7,-18.3 -2.1,1.2 -4.1,2.3 -6.2,3.5 5.6,1 11.1,2 16.7,3 -1.2,-1.6 -2.4,-3.2 -3.7,-4.8 0,3.3 0,6.6 0,9.9 0,6.4 10,6.4 10,0 0,-3.3 0,-6.6 0,-9.9 0,-2 -1.5,-4.4 -3.7,-4.8 -5.6,-1 -11.1,-2 -16.7,-3 -2.9,-0.5 -5,0.8 -6.2,3.5 -0.9,2.2 -2,4.4 -2.7,6.6 -0.5,1.4 -0.8,2.9 -1.1,4.4 -0.1,0.6 -0.2,1.3 -0.5,1.8 0.8,-2.1 0,-0.2 -0.4,0.2 -1,1.2 -5.2,5.9 -5.2,7.5 0,1 2.2,-1.1 1.2,-1.2 -0.3,0 -1.4,0.9 -1.6,1.1 -1.8,1.2 -3.6,2.5 -5.4,3.7 -0.5,0.4 -1,0.8 -1.6,1.1 -1.1,0.6 1.6,-0.5 0.4,-0.2 -1.5,0.4 -3.1,0.7 -4.7,1 -1.2,0.3 -2.5,0.5 -3.7,0.8 -1.3,0.3 1.7,-0.2 0.5,0 -0.9,0.1 -1.8,0.2 -2.6,0.3 -1.8,0.2 -3.6,0.4 -5.4,0.7 -0.6,0.1 -1.2,0.2 -1.8,0.2 -1.2,0.1 1.8,0.3 0.5,0.1 -3,-0.5 -6.1,-1.4 -9,-2.2 2.4,0.6 -1.5,-0.7 -2.2,-1 -1.5,-0.7 -3.1,-1.3 -4.6,-2 -1.2,-0.6 1.2,1.1 0.2,0.2 -0.5,-0.4 -0.9,-1 -1.4,-1.4 -1.5,-1.5 -2.9,-3.3 -4.5,-4.7 -2.2,-1.9 0.1,-0.2 0,0.7 0.1,-1 -1.3,-3.1 -1.6,-4.1 -0.7,-1.7 -1.4,-3.4 -2.1,-5.1 -0.2,-0.5 -0.4,-1.1 -0.7,-1.6 -0.4,-0.9 0,1.9 0,0.2 0.1,-3.1 0,-6.3 0,-9.5 0,-1.1 -0.1,-2.3 0,-3.5 -0.3,2.8 0.6,-1.4 0.9,-2.2 1,-3.1 1.8,-6.3 2.9,-9.4 0.3,-1.1 -0.8,1.6 -0.2,0.4 0.2,-0.4 0.4,-0.8 0.6,-1.1 0.9,-1.6 2.3,-3.6 2.7,-5.4 0.8,-3 -0.6,3.8 -1.2,0.8 0,-0.1 1.4,-1 1.5,-1.1 1.7,-1.2 3.4,-2.5 5.1,-3.7 1.3,-1 2.7,-2 4,-2.9 0.9,-0.6 -1.4,0.5 -0.6,0.2 0.6,-0.2 1.4,-0.3 2,-0.5 2.1,-0.5 4.3,-1 6.4,-1.6 0.6,-0.2 1.2,-0.3 1.9,-0.5 1,-0.2 -2,0 0,0.1 3.3,0.1 6.6,0 9.8,0 2.7,0 5,-2.3 5,-5 0,-6.7 0,-13.3 0,-20 0,-2.7 -2.3,-5 -5,-5 -2.8,0 -5.6,0 -8.3,0 -6.5,0.2 -6.5,10.2 -0.1,10.2 z" />
        <path
   class="st3"
   d="M 761.9,644"
   id="path139" />
        <polyline
   class="st2"
   points="777.1,665.5 782.8,646.4 780.9,644 761.9,644  "
   id="polyline141" />
</g><g
   id="sulphur"
   transform="translate(-447.1632,-26.770209)">
<path
   class="st2"
   d="M 224.46812,149.71709"
   id="path25"
   transform="translate(447.1632,26.770209)" /><polyline
   class="st2"
   points="920.5,321.8 928.8,327.8 937.5,309 947.5,301.3 956.3,296 963.7,293.5 974.5,293.5 986.3,295   994,299.8 1000.3,306 1004,312.5 1006.5,318 1008.8,325.3 1017.3,323.5  "
   id="polyline67"
   transform="matrix(0.4895623,0.04869687,-0.04857417,0.48832867,246.97282,-33.132201)" /><line
   class="st2"
   x1="249.6515"
   y1="158.97839"
   x2="240.0421"
   y2="171.58446"
   id="line69"
   transform="translate(447.1632,26.770209)" /><path
   class="st4"
   d="m 927,377.7 c 5.5,3.4 10.9,6.8 16.4,10.3 2.7,1.7 5.2,-2.6 2.5,-4.3 -5.5,-3.4 -10.9,-6.8 -16.4,-10.3 -2.7,-1.8 -5.2,2.6 -2.5,4.3 z"
   id="path75"
   transform="matrix(0.4895623,0.04869687,-0.04857417,0.48832867,246.97282,-33.132201)" /><path
   class="st4"
   d="m 993.6,383.3 c 5.5,-4.6 10.9,-9.3 16.4,-13.9 2.5,-2.1 -1.1,-5.6 -3.5,-3.5 -5.5,4.6 -10.9,9.3 -16.4,13.9 -2.5,2 1.1,5.5 3.5,3.5 z"
   id="path81"
   transform="matrix(0.4895623,0.04869687,-0.04857417,0.48832867,246.97282,-33.132201)" /><line
   class="st2"
   x1="266.03198"
   y1="160.31187"
   x2="271.85056"
   y2="170.40865"
   id="line71"
   transform="translate(447.1632,26.770209)" /><ellipse
   class="st1"
   cx="271.54117"
   cy="123.27939"
   id="circle73"
   rx="12.299459"
   ry="12.268462"
   transform="rotate(5.6805367,-46.210406,4519.9266)" /></g>
    <g
   id="mecury"
   transform="matrix(0.49622012,0,0,0.49420864,-218.64926,-13.03584)"
   style="display:inline">
	<circle
   class="st1"
   cx="1131.7"
   cy="644"
   r="19.299999"
   id="circle145" />
        <polygon
   class="st4"
   points="1096.1,661 1088.1,618.7 1094.1,618 "
   id="polygon99"
   transform="matrix(0.99145172,0,0,0.99297851,7.7585528,3.0798976)" /><polygon
   class="st4"
   points="1089.9,617.3 1130.1,602 1092.4,622.7 "
   id="polygon103"
   transform="matrix(0.99145172,0,0,0.99297851,6.0127751,4.2484891)" /><polyline
   class="st6"
   points="1136.8,695.3 1136.8,683.3 1141.8,668.3 1147.2,655.5 1160.3,644 1171,638.7 1182.2,635.8  "
   id="polyline147" /><path
   class="st4"
   d="m 1128.3,699.2 c 5.7,0 11.3,0 17,0 3.2,0 3.2,-5 0,-5 -5.7,0 -11.3,0 -17,0 -3.2,0 -3.2,5 0,5 z"
   id="path87"
   transform="matrix(0.99145172,0,0,0.99297851,6.6916674,0.93747248)" /><path
   class="st4"
   d="m 1186.7,645 c -1.4,-6.6 -2.9,-13.1 -4.3,-19.7 -0.7,-3.1 -5.5,-1.8 -4.8,1.3 1.4,6.6 2.9,13.1 4.3,19.7 0.7,3.2 5.5,1.8 4.8,-1.3 z"
   id="path93"
   transform="matrix(0.99145172,0,0,0.99297851,6.6916674,0.93747248)" />
        <line
   class="st5"
   x1="1115.4"
   y1="633.59998"
   x2="1091.1"
   y2="620"
   id="line149" />
</g>
    <g
   id="copper"
   transform="matrix(0.49622012,0,0,0.49420864,-221.58645,-15.973026)"
   style="display:inline">
	<g
   id="g157">
		<g
   id="g155">
			<path
   class="st4"
   d="m 964.4,1011.8 c 0,-13.6 0,-27.2 0,-40.8 0,-3.2 -5,-3.2 -5,0 0,13.6 0,27.2 0,40.8 0,3.2 5,3.2 5,0 z"
   id="path153" />
		</g>
	</g>
        <g
   id="g163">
		<g
   id="g161">
			<path
   class="st4"
   d="m 942.3,992.3 c 13.4,0 26.8,0 40.3,0 3.2,0 3.2,-5 0,-5 -13.4,0 -26.8,0 -40.3,0 -3.3,0 -3.3,5 0,5 z"
   id="path159" />
		</g>
	</g>
        <g
   id="g169">
		<g
   id="g167">
			<path
   class="st4"
   d="m 977.3,1001 c -9.1,-8.2 -18.2,-16.3 -27.3,-24.5 -2.4,-2.1 -5.9,1.4 -3.5,3.5 9.1,8.2 18.2,16.3 27.3,24.5 2.3,2.2 5.9,-1.4 3.5,-3.5 z"
   id="path165" />
		</g>
	</g>
        <g
   id="g175">
		<g
   id="g173">
			<path
   class="st4"
   d="m 951.5,1006.5 c 8.6,-9.3 17.2,-18.7 25.8,-28 2.2,-2.4 -1.4,-5.9 -3.5,-3.5 -8.6,9.3 -17.2,18.7 -25.8,28 -2.2,2.3 1.3,5.9 3.5,3.5 z"
   id="path171" />
		</g>
	</g>
</g>
    <g
   id="iron"
   transform="matrix(0.49622012,0,0,0.49420864,-220.11786,-13.03584)"
   style="display:inline">
	<circle
   class="st7"
   cx="573.29999"
   cy="761.5"
   r="18"
   id="circle178" />
        <ellipse
   class="st8"
   cx="572.5"
   cy="761.29999"
   rx="4.5"
   ry="4.9000001"
   id="ellipse180" />
        <polyline
   class="st9"
   points="610,791.3 606.7,788.9 586.4,773.8  "
   id="polyline182" />
        <polyline
   class="st10"
   points="594.4,791.3 611.2,791.3 604.8,776.2  "
   id="polyline184" />
</g>
    <g
   id="silver"
   transform="matrix(0.48325008,-0.02616348,-0.01831372,0.48109608,-209.34825,6.6287838)"
   style="display:inline">
	<ellipse
   class="st7"
   cx="576.26874"
   cy="309.84207"
   rx="14.914752"
   ry="14.97715"
   id="ellipse187"
   transform="matrix(0.9999521,0.00978779,-0.00832161,0.99996537,0,0)" />
        <path
   class="st4"
   d="m 596,342.8 c 3.5,-6.3 6.9,-12.6 10.4,-18.8 1.6,-2.8 -2.8,-5.3 -4.3,-2.5 -3.5,6.3 -6.9,12.6 -10.4,18.8 -1.6,2.8 2.7,5.3 4.3,2.5 z"
   id="path61"
   transform="matrix(1.0204248,0.06310701,0.03115955,1.021709,-21.307551,-43.682323)" /><path
   class="st4"
   d="m 579.2,345.4 c 7.6,-13.2 15.2,-26.3 22.8,-39.5 1.6,-2.8 -2.7,-5.3 -4.3,-2.5 -7.6,13.2 -15.2,26.3 -22.8,39.5 -1.7,2.8 2.6,5.3 4.3,2.5 z"
   id="path189"
   style="display:inline" />
        <line
   class="st7"
   x1="599.20001"
   y1="332"
   x2="588.40002"
   y2="325.20001"
   id="line195" />
</g>
    <g
   id="lead"
   transform="matrix(0.49622012,0,0,0.49420864,-223.70406,-14.768428)"
   style="display:inline">
	<path
   class="st2"
   d="m 1353.5,779 -6.8,0.8 -3.7,0.8 -2.6,-0.8 -3.2,-2 -3.1,-4 -1.6,-2.8 c 0,0 -0.4,-4.4 0,-4.7 0.4,-0.3 2,-5.3 2,-5.3 l 4.6,-7.3 3.7,-1.4 5.4,-2 h 3.3 l 5.2,0.9 3.8,2.1 2.6,2.9 2.9,1.8 1.5,1.5"
   id="path214" /><line
   class="st7"
   x1="1320.5"
   y1="782.5"
   x2="1342.3"
   y2="794.5"
   id="line204" /><line
   class="st7"
   x1="1321.9"
   y1="805.40002"
   x2="1338.3"
   y2="779.79999"
   id="line206" /><path
   class="st4"
   d="m 1313.2,803 c 4.8,2.9 9.6,5.8 14.4,8.8 2.8,1.7 5.3,-2.6 2.5,-4.3 -4.8,-2.9 -9.6,-5.8 -14.4,-8.8 -2.8,-1.7 -5.3,2.6 -2.5,4.3 z"
   id="path198" /><path
   class="st4"
   d="m 1365.6,771.3 c 2.9,-4.4 5.7,-8.9 8.6,-13.3 1.7,-2.7 -2.6,-5.2 -4.3,-2.5 -2.9,4.4 -5.7,8.9 -8.6,13.3 -1.8,2.7 2.5,5.2 4.3,2.5 z"
   id="path216" /><path
   class="st4"
   d="m 1342.7,800.9 c 1.7,-2.9 3.4,-5.9 5.1,-8.8 1.6,-2.8 -2.7,-5.3 -4.3,-2.5 -1.7,2.9 -3.4,5.9 -5.1,8.8 -1.7,2.8 2.6,5.3 4.3,2.5 z"
   id="path208" /><path
   class="st4"
   d="m 1318.9,788.2 c 1.7,-2.9 3.4,-5.9 5.1,-8.8 1.6,-2.8 -2.7,-5.3 -4.3,-2.5 -1.7,2.9 -3.4,5.9 -5.1,8.8 -1.6,2.7 2.7,5.3 4.3,2.5 z"
   id="path55"
   transform="matrix(0.99145172,0,0,0.99297851,10.959149,4.443255)" />
</g>
    <g
   id="gold"
   transform="matrix(0.49621697,0.0017661,-0.00175896,0.49420551,-221.58816,-15.03043)"
   style="display:inline">
	<circle
   class="st8"
   cx="1348.7"
   cy="323.70001"
   r="5.6999998"
   id="circle225"
   style="display:inline" /><polyline
   class="st7"
   points="1367.8,326 1367.8,335.8 1365.9,343.8 1361.1,349.1 1356.6,350.4 1349.5,349.6 1343,348.4    1330,332.4 1329.1,327 1328.1,318.9 1328.1,311.3 1331,305.6 1335,301.6 1339.1,300.4 1351,299.5 1354.3,301.1 1355.8,302.5   "
   id="polyline227"
   style="display:inline" />
</g>

<g
   id="g247"
   transform="matrix(0.46155163,0,0,0.45968072,-188.0849,-8.17094)">
	<g
   id="g245">
		<g
   id="g233">
			<polygon
   id="tin"
   class="st4"
   points="1008.8,98.8 921.9,105.2 921.6,100.3 " />
		</g>
        <g
   id="g237">
			<polygon
   class="st4"
   points="967.5,123.3 965,75 970,75 "
   id="polygon235" />
		</g>
        <g
   id="g243">
			<g
   id="g241">
				<path
   class="st4"
   d="m 983.8,85.3 c -7,0 -14,0 -21,0 -5.9,0 -11.2,0.1 -16.8,2.3 -5.2,2 -10.6,6.6 -12.6,11.9 -1,2.5 -0.3,6 -0.3,8.7 0,3.8 -0.5,5.9 2.3,8.6 1.2,1.1 2.7,3.2 4.2,3.9 1.6,0.8 3.9,0.3 5.7,0.3 3.4,0 6.9,0 10.3,0 3.2,0 3.2,-5 0,-5 -3,0 -6,0 -9,0 -1,0 -2.1,0 -3.1,0 -0.7,0 -1.8,-0.2 -2.4,0 1.1,-0.4 1.8,1.3 0.3,-0.5 -0.7,-0.8 -2.7,-3.3 -3.7,-3.5 0.3,0.1 0,2 0.4,0.6 0.2,-0.8 0,-2.1 0,-3 0,-2.7 -0.5,-6 0,-8.7 -0.4,2 1.3,-1.5 1.8,-2.4 0.4,-0.7 0.8,-1.4 1.3,-2.1 0.6,-1 -1.2,0.8 0.1,0 1.5,-1 3,-2 4.5,-3 1.3,-0.8 1.8,-1.1 2.3,-1.3 5.9,-2.2 8.6,-2 14.8,-2 7,0 14,0 21,0 3.1,0.2 3.1,-4.8 -0.1,-4.8 z"
   id="path239" />
			</g>
		</g>
	</g>
</g></svg>
