<?xml version="1.0" encoding="UTF-8"?>
<svg version="1.1" viewBox="0 0 3840 2160" xml:space="preserve" xmlns="http://www.w3.org/2000/svg"><path d="m3268.3 22.199-91.838 111.7h443.21l-137.52 166.86 142.69-1.3809 179.77-219.75v-57.438zm8.209 8.918h518.23l-0.2109 45.611-37.789 46.492h-555.96zm9.2246 11.768-57.775 69.461h521.97l32.062-37.396v-32.064zm-3247.7 3.1152 172 223.04v-223.04zm0 63.387v220l56 70v1380l-56 70v220l172-220v-1520zm3766.6 0-172.75 220v105.71l-56.52 95.506 2.4824 91.391h-166.99l-68.799 75.217v127.4c-9.8571 5.4465-15.989 15.807-16.022 27.068 3e-4 17.136 13.892 31.027 31.027 31.027 17.137 7.9e-4 31.029-13.891 31.029-31.027 0-11.104-5.9418-21.361-15.57-26.893v-109.3l53.566-63.029h179.74v-121.86l26.055-36.043v191.44h-195.83v138.17c-9.5829 5.5262-15.499 15.737-15.527 26.799 3e-4 17.136 13.892 31.027 31.027 31.027 17.136-3.2e-4 31.027-13.892 31.027-31.027 0-11.498-6.3615-22.054-16.527-27.428v-107.54h165l0.8281 120.14h-58.478c-5.3978-10.094-15.915-16.396-27.361-16.396-17.137 2.6e-4 -31.028 13.893-31.027 31.029 3e-4 17.136 13.892 31.027 31.027 31.027 11.116-0.03 21.366-6.0039 26.871-15.66h58.969v265.66l-17.371-0.1992-53.566-63.031v-74.516c9.9154-5.4297 16.093-15.822 16.125-27.127-3e-4 -17.136-13.892-31.027-31.027-31.027-17.136 2.6e-4 -31.027 13.892-31.027 31.027 0.027 11.037 5.9162 21.229 15.465 26.766v93.156l68.799 75.215 32.604 0.4179v161.5l-24.217-33.459v-121.71h-142.91l1.2598-1.3731v-172.96c10.16-5.3529 16.532-15.88 16.564-27.363 8e-4 -17.136-13.891-31.029-31.027-31.029-17.137 3.2e-4 -31.028 13.893-31.027 31.029 0.029 11.047 5.9282 21.246 15.49 26.777v174.92h-8.0859l-53.566-62.955v-112.32c8.5674-5.753 13.714-15.389 13.73-25.709-3e-4 -17.136-13.893-31.028-31.029-31.027-17.136 3.2e-4 -31.027 13.892-31.027 31.027 0.01 12.028 6.9695 22.968 17.861 28.072v128.21l68.799 75.127h23.318v0.8887l0.8164-0.8887h142.85l-2.4825 91.281 54.68 92.287v466.57l172.75 220v-220l-56.244-70v-1380l56.244-70zm-3131.6 135.21-40.953 40.951v46.863h26.543v-35.867l25.404-25.404h35.869v-26.543zm80.039 0v26.543h35.865l25.404 25.404v35.869h26.543v-46.865l-40.951-40.951zm-238.45 0.42773c-18.039 0-32.711 14.676-32.711 32.715 0 2.8267 0.39934 5.5561 1.0762 8.1738l-81.445 81.445v109.94l-44.582 44.578h-38.24v-29.516c9.6348-5.6966 16.125-16.163 16.125-28.146 0-18.035-14.671-32.711-32.713-32.711-18.035 0-32.711 14.676-32.711 32.711 0 11.98 6.4896 22.447 16.121 28.146v71.051l40.775 40.775v42.887l45.947 45.943-56.418 56.42v56.371l8.2949 8.2949v-61.229l59.855-59.857-49.385-49.381v-42.887l-40.775-40.775v-72.822c-9.386-3.4074-16.121-12.387-16.121-22.938 0-13.46 10.952-24.416 24.416-24.416 13.467 0 24.418 10.956 24.418 24.416 0 10.551-6.7357 19.533-16.125 22.938v43.02h49.977l49.436-49.436v-109.94l82.701-82.705c-1.4797-3.1486-2.332-6.6489-2.332-10.352 0-13.464 10.952-24.42 24.416-24.42 13.467 0 24.418 10.956 24.418 24.42 0 13.464-10.951 24.414-24.418 24.414-3.7026 0-7.203-0.85094-10.352-2.334l-14.619 14.617 38.396 38.4h18.998c3.404-9.386 12.385-16.125 22.936-16.125 13.464 0 24.42 10.956 24.42 24.42 0 13.464-10.956 24.414-24.42 24.414-10.547 0-19.532-6.7351-22.936-16.121h-25.865l-43.258-43.256-51.498 51.498v109.93l-59.156 59.156h-56.844v6.3438l40.775 40.775v42.887l44.529 44.523 20.404-20.406v-61.896l66.846-66.844v-11.732l-75.141 75.135v61.9l-12.113 12.113-36.23-36.23v-42.887l-35.387-35.387h46.598l64.014-64.014v-109.93l43.203-43.207 39.818 39.822h24.096c5.6999 9.6315 16.164 16.121 28.145 16.121 18.039 0 32.715-14.67 32.715-32.709 0-18.035-14.676-32.715-32.715-32.715-11.98 0-22.445 6.4935-28.145 16.125h-10.352l-30.105-30.105 5.0664-5.0625c2.6177 0.67683 5.349 1.0742 8.1758 1.0742 18.039 0 32.713-14.674 32.713-32.709 0-18.039-14.674-32.715-32.713-32.715zm0 24.883c-4.3164 0-7.8301 3.5136-7.8301 7.8301 0 4.3164 3.5136 7.8281 7.8301 7.8281 4.3164 0 7.8301-3.5117 7.8301-7.8281 0-4.3164-3.5136-7.8301-7.8301-7.8301zm185.15 23.613-18.766 18.768 36.711 36.711-36.711 36.713 18.766 18.768 36.711-36.711 36.715 36.711 18.766-18.768-36.711-36.713 36.711-36.711-18.766-18.768-36.715 36.711zm2782.4 35.871 129.69 100.54v-100.54zm-2912.2 23.91c-4.3164 0-7.8301 3.5137-7.8301 7.8301 0 4.3164 3.5136 7.8262 7.8301 7.8262 4.3164 0 7.8301-3.5098 7.8301-7.8262 0-4.3164-3.5137-7.8301-7.8301-7.8301zm62.1 12.287v46.863l40.953 40.953h46.863v-26.543h-35.869l-25.404-25.404v-35.869zm182.26 0v35.869l-25.404 25.404h-35.865v26.543h46.861l40.951-40.953v-46.863zm-664.46 37.225a30.338 30.338 0 0 1 30.34 30.338 30.338 30.338 0 0 1-30.34 30.338 30.338 30.338 0 0 1-30.338-30.338 30.338 30.338 0 0 1 30.338-30.338zm346.32 21.162v89.984l57.074 57.072v45.959l16.148 16.146c2.8798-1.4631 6.1251-2.3047 9.5723-2.3047 11.705 0 21.227 9.5208 21.227 21.223 0 11.705-9.5215 21.229-21.227 21.229s-21.229-9.5234-21.229-21.229c0-3.4472 0.8435-6.6905 2.3066-9.5703l-20.023-20.02v-45.959l-43.85-43.852v228.21l-50.09-50.092c-5.4047-5.4146-12.269-5.2919-16.904-3.3809-2.5514 1.055-5.1686 3.0067-7.0332 5.7969l43.658 43.658v25.797l-46.217-46.217v16.256l46.217 46.217v43.449l-46.217-46.213v18.689l46.217 46.217v25.793l-46.217-46.215v108.27l35.846 35.842 36.943-36.973v-123.31l91.412 91.414v94.455l38.264-38.264v-78.865l-53.773-53.77v-104.57l-8.1484-8.1543c-2.8798 1.4631-6.1284 2.3086-9.5723 2.3086-11.705 0-21.229-9.5214-21.229-21.227 0-11.705 9.5234-21.229 21.229-21.229 11.702 0 21.223 9.5234 21.223 21.229 0 3.4438-0.84155 6.6905-2.3047 9.5703l12.027 12.027v104.57l40.549 40.549v-131.05c0-61.83-11.991-122.12-35.637-179.21-21.575-52.089-51.892-99.198-90.242-140.26zm3135.5 23.342v35.463l-32.924 47.586 1.0351 115.44-175.63-1.7852-58.963 69.803v115.79c10.438 3.5166 17.494 11.269 17.568 22.283 6e-4 14.254-11.554 23.81-25.809 23.811-14.254 6.1e-4 -23.811-9.5556-23.81-23.811 0.059-11.202 5.338-19.087 16.018-22.469v-129.38l-0.049-0.043 0.049-0.0547v-0.082l0.043 0.0332 65.168-70.865 169.84-0.18164-2.0371-97.498zm-3329.5 9.0684c-4.3131 0-7.8262 3.5098-7.8262 7.8262 0 4.3198 3.5131 7.8301 7.8262 7.8301 4.3197 0 7.834-3.5103 7.834-7.8301 0-4.3164-3.5142-7.8262-7.834-7.8262zm527.86 26.385v780.37l11.611-11.613v-768.76zm-32.561 2e-3 -22.182 22.184v719.09l-343.5 343.5-1.084 304.19h-136.82v66.355h202.95l1.2207-342.96 159.57-159.57-31.389-31.392 14.072-14.076 31.395 31.393 11.844-11.846-31.393-31.393 14.076-14.074 31.395 31.391 11.844-11.846-31.393-31.389 14.076-14.078 31.391 31.394 11.844-11.846-31.389-31.393 14.074-14.078 31.393 31.394 11.844-11.846-31.393-31.392 14.078-14.074 31.393 31.391 38.064-38.066v-796.96zm-646.45 4.5039a30.338 30.338 0 0 1 30.338 30.34 30.338 30.338 0 0 1-30.338 30.338 30.338 30.338 0 0 1-30.34-30.338 30.338 30.338 0 0 1 30.34-30.34zm571.46 3.6094c-11.98 0-22.449 6.4935-28.148 16.125h-121c1.5461 2.7471 3.0695 5.5127 4.5625 8.293h121.65c3.404-9.3893 12.385-16.123 22.936-16.123 13.464 0 24.418 10.951 24.418 24.418 0 13.464-10.954 24.416-24.418 24.416-10.547 0-19.532-6.7351-22.936-16.121h-45.859v72.006l68.695 68.693v92.832c9.3893 3.4074 16.123 12.389 16.123 22.939 0 13.46-10.951 24.416-24.418 24.416-13.464 0-24.416-10.956-24.416-24.416 0-10.551 6.7351-19.532 16.121-22.939v-85.961l-68.693-68.697v-78.873h-50.73c1.3437 2.7504 2.669 5.5146 3.9629 8.2949h38.473v74.02l68.693 68.693v77.314c-9.6315 5.6999-16.121 16.168-16.121 28.148 0 18.035 14.676 32.711 32.711 32.711 18.042 0 32.713-14.676 32.713-32.711 0-11.984-6.4902-22.448-16.125-28.148v-91.059l-68.693-68.695v-60.273h32.355c5.6999 9.6315 16.164 16.121 28.145 16.121 18.039 0 32.713-14.672 32.713-32.711 0-18.042-14.674-32.713-32.713-32.713zm2e-3 24.883c-4.3197 0-7.834 3.5103-7.834 7.8301 0 4.3164 3.5142 7.8262 7.834 7.8262 4.3131 0 7.8262-3.5098 7.8262-7.8262 0-4.3197-3.5131-7.8301-7.8262-7.8301zm-239.47 39.828-50.254 50.254v61.896l-91.996 91.996v70.947l8.2949 8.293v-75.805l91.996-91.994v-61.896l41.959-41.961zm-331.64 16.293a30.338 30.338 0 0 1 30.338 30.338 30.338 30.338 0 0 1-30.338 30.338 30.338 30.338 0 0 1-30.34-30.338 30.338 30.338 0 0 1 30.34-30.338zm427.65 72.164c-4.4126 0-8.0059 3.5893-8.0059 8.002 0 4.4126 3.5932 8.0059 8.0059 8.0059s8.0059-3.5932 8.0059-8.0059c0-4.4126-3.5932-8.002-8.0059-8.002zm2863.2 48.631h189.83v168.14h-58.969v-0.0332h-3.7891c-4.2497 9.0487-13.343 14.83-23.34 14.838-14.254-4.4e-4 -23.808-11.555-23.809-25.809-6e-4 -14.254 9.5543-23.81 23.809-23.811 10.779 3e-3 20.422 6.7044 24.182 16.807h6.1524v8e-3h55.764l-0.8281-134.14h-171v119.54c0.7507 0.3968 1.3212 0.86224 2.0293 1.2734 3.656 1.7199 6.8571 2.2741 9.3457 5.457 0.3791 0.45621 0.7426 0.93005 1.082 1.4102 0.939 1.4198 1.7352 2.9292 2.377 4.5058 0.192 0.49254 0.4479 0.94642 0.6055 1.4629 0.9891 2.6864 1.5244 5.5188 1.5839 8.3809-4e-4 14.253-11.556 23.808-25.808 23.809-14.254 6.7e-4 -23.81-9.5544-23.811-23.809 0.095-10.615 4.6794-18.09 14.596-21.879zm-2891.6 7.0801c-4.4126 0-8.0059 3.5932-8.0059 8.0059 0 4.4126 3.5932 8.0059 8.0059 8.0059 4.4126 0 8.002-3.5932 8.002-8.0059 0-4.4126-3.5893-8.0059-8.002-8.0059zm-297.83 61.645-1.3984 1.4004v338.33l1.3984 1.4004 19.283-19.287v-65.23h13.223v52.01l13.254-13.254v-65.271h13.221v52.049l13.256-13.254v-65.311h13.221v52.09l13.254-13.256v-65.354h13.223v52.133l13.254-13.254v-65.391h13.221v52.166l15.236-15.232v-85.463l-43.52-43.496v51.602zm461.3 19.125c-4.3164 0-7.8301 3.5103-7.8301 7.8301 0 4.3164 3.5137 7.8262 7.8301 7.8262s7.8301-3.5097 7.8301-7.8262c0-4.3198-3.5137-7.8301-7.8301-7.8301zm2737.4 62.969a7.9246 7.9246 0 0 0-7.9238 7.9238 7.9246 7.9246 0 0 0 7.9238 7.9258 7.9246 7.9246 0 0 0 7.9258-7.9258 7.9246 7.9246 0 0 0-7.9258-7.9238zm95.5 0.5a7.9246 7.9246 0 0 0-7.9238 7.9238 7.9246 7.9246 0 0 0 7.9238 7.9258 7.9246 7.9246 0 0 0 7.9258-7.9258 7.9246 7.9246 0 0 0-7.9258-7.9238zm-189.58 0.58789a7.9246 7.9246 0 0 0-7.9258 7.9258 7.9246 7.9246 0 0 0 7.9258 7.9238 7.9246 7.9246 0 0 0 7.9238-7.9238 7.9246 7.9246 0 0 0-7.9238-7.9258zm-2851.8 11.777v96.869l-40.814 40.85 122 122h32.672l58.787-58.787v-122.74l-107.68 107.67v-120.9zm3040.4 85.727c14.254 0 23.81 9.5544 23.81 23.809-0.028 10.739-4.7039 20.339-14.762 24.104v2.7324h0.041v80.516l55.566 65.031 21.371 0.1992v16.682l-30.604-0.418-64.799-71.215v-91.156h0.039v-2.4805c-9.9069-3.8441-16.445-13.368-16.473-23.994 4e-4 -14.253 11.555-23.809 25.809-23.809zm-94.23 0.74609c14.255-6.7e-4 23.811 9.5555 23.811 23.811-0.026 11.014-5.0375 20.798-15.459 24.361v2.1523l0.041 2e-3 -1.2598 180.34h142.91v119.71l30.217 43.459v34.828l-46.68-82.287 2.4825-97.281h-172.99l-64.799-71.127v-126.21l0.1211-2.4551c-11.336-2.9693-17.249-13.203-17.27-24.922 4e-4 -14.254 9.5562-23.809 23.81-23.809 14.254 4.4e-4 25.808 9.5551 25.809 23.809-0.023 9.7037-5.4869 18.575-14.143 22.961v2.0703l0.1368-0.0176v118.32l55.566 62.955h18.086v-180.92l0.2812 0.01v-1.9434c-9.9109-3.8413-16.454-13.366-16.482-23.996-6e-4 -14.254 11.554-23.81 25.809-23.811zm94.225 15.162a7.9246 7.9246 0 0 0-7.9238 7.9238 7.9246 7.9246 0 0 0 7.9238 7.9258 7.9246 7.9246 0 0 0 7.9258-7.9258 7.9246 7.9246 0 0 0-7.9258-7.9238zm-94.5 0.5a7.9246 7.9246 0 0 0-7.9238 7.9238 7.9246 7.9246 0 0 0 7.9238 7.9258 7.9246 7.9246 0 0 0 7.9258-7.9258 7.9246 7.9246 0 0 0-7.9258-7.9238zm-94 1.5a7.9246 7.9246 0 0 0-7.9238 7.9238 7.9246 7.9246 0 0 0 7.9238 7.9258 7.9246 7.9246 0 0 0 7.9258-7.9258 7.9246 7.9246 0 0 0-7.9258-7.9238zm-2944.5 0.97461-160.25 160.26-1.3984-1.4004v38.6c0.4678 0.013 0.92867 0.068 1.3965 0.068 13.55 0 26.281-5.2776 35.846-14.859l67.818-67.783h100.4l40.225 40.228h71.08zm-51.119 128.11-63.939 63.906c-12.06 12.077-28.111 18.732-45.197 18.732-0.46781 0-0.93063-0.06-1.3984-0.067v115.5c16.26-0.3649 32.641 5.5827 45.02 17.941l28.723 28.723h126.24l9.1504-9.1504-16.93-16.932 9.3496-9.3496 16.93 16.932 3.4316-3.4336-16.928-16.928 9.3496-9.3496 16.928 16.93 3.4336-3.4335-16.932-16.93 9.3477-9.3496 16.93 16.93 3.4375-3.4335-16.932-16.93 9.3476-9.3496 16.93 16.93 3.4336-3.4296-16.93-16.932 9.3496-9.3457 16.928 16.928 7.7988-7.7968v-89.885l-77.424-77.424zm148.38 40.226 31.721 31.721v45.057h30.48l24.562-24.559c-1.4631-2.8798-2.3066-6.1251-2.3066-9.5723 0-11.702 9.5214-21.226 21.227-21.226 11.702 0 21.225 9.5247 21.225 21.226s-9.5228 21.225-21.225 21.225c-3.4472 0-6.6905-0.8435-9.5703-2.3066l-28.434 28.434h-35.959v33.211h68.99l123.21-123.21zm-91.043 34.098 59.953 59.949-50.053 50.096h-94.557v-84.109h13.221v45.496zm196.73 0.5449c-4.4126 0-8.0059 3.5932-8.0059 8.0059 0 4.4126 3.5932 8.0019 8.0059 8.0019s8.002-3.5893 8.002-8.0019c0-4.4127-3.5893-8.0059-8.002-8.0059zm-77.836 101.79-81.297 81.295h-35.34l42.209 42.242v42.816l9.7891 9.7676 176.12-176.12zm-286.76 34.627v308.09l1.3984 1.4004 54.008-54.008v-171.76l37.08-37.055h-24.221l-32.59-32.59c-9.804-9.7841-22.8-14.444-35.676-14.076zm361.88 20.434-21.619 21.619h46.492l21.619-21.619zm-250.69 26.232-42.561 42.535v35.406l21.186 21.188 25.207-25.211c-1.4631-2.8765-2.3047-6.1245-2.3047-9.5683 0-11.702 9.5209-21.225 21.223-21.225 11.705 0 21.229 9.5229 21.229 21.225 0 11.705-9.5234 21.226-21.229 21.226-3.4472 0-6.6905-0.8415-9.5703-2.3047l-25.209 25.205 14.332 14.336v40.258l20.209 20.182 79.066-79.072-13.66-13.633v-42.83l-47.686-47.717zm3220.5 11.715 0.7852 515.06 207.87 262.19 0.3457-33.273-184.77-240.73-2.0703-459.81zm-3012.2 4.3848-17.867 17.867h46.492l17.867-17.867zm-34.982 34.982-23.145 23.144h46.492l23.145-23.144zm-150.62 5.2637c-4.4126 0-8.002 3.5912-8.002 8.0039 0 4.4126 3.5893 8.0058 8.002 8.0058s8.0059-3.5932 8.0059-8.0058c0-4.4127-3.5932-8.0039-8.0059-8.0039zm105.3 40.055-11.773 11.775h46.494l11.771-11.775zm-170.61 0.2383v112.18l57.221 57.225v-71.949l-25.576-25.543v-40.268zm147.56 22.814-15.463 15.465h46.492l15.463-15.465zm-30.279 30.281-22.385 22.385h46.492l22.385-22.385zm-43.834 43.834-3.002 3.002v11.377h35.115l14.379-14.379zm3294.5 10.127c16.755 3e-4 30.338 13.583 30.338 30.338-3e-4 16.754-13.583 30.338-30.338 30.338-16.755-3e-4 -30.338-13.584-30.338-30.338 3e-4 -16.755 13.583-30.338 30.338-30.338zm-3374.6 17.211-60.619 60.617-1.3984-1.4004v189.16l1.3984 1.4004 132.56-132.56v-45.273zm77.055 0.8203v16.938h27.986l0.0586-16.938zm-2e-3 33.166v10.625h27.893l0.0371-10.625zm-51.295 19.109v44.684h-44.688zm51.295 1.6934v3.5703l8.1113 8.1133v29.969h19.596l0.14844-41.652zm3297.5 9.5761c16.755 3e-4 30.338 13.583 30.338 30.338 7e-4 16.756-13.582 30.34-30.338 30.34-16.756-3e-4 -30.339-13.584-30.338-30.34 3e-4 -16.755 13.583-30.338 30.338-30.338zm0 79.801c16.756-8e-4 30.34 13.582 30.34 30.338-3e-4 16.756-13.584 30.339-30.34 30.338-16.755-3e-4 -30.338-13.583-30.338-30.338 3e-4 -16.755 13.583-30.338 30.338-30.338zm-3435.9 167.92v49.768h23.225v-49.768zm3010.8 32.537-28.672 32.049h154.92l0.8067 30.34h-182.87l-28.668 32.045h149.47l0.8066 30.338h-177.42l-32.676 36.523h153.24l0.8086 30.34h-181.2l-28.455 31.807h494.78l0.9746-223.44zm321.06 0v223.44h169.49zm-3378.3 0.2754-167.47 213.17h46.119l119.97-153.87zm545.45 58.734 22.723 30h550.95l-31.719-30zm-502.69 0.5605-118.19 153.87h57.645l68.541-87.566 458.73 1.2168 67.271 86.35h63.525l-118.8-153.87zm548.07 59.617 22.723 30h550.95l-31.717-30zm48.693 64.254 22.723 30h550.95l-31.719-30z" stroke-width="0"/></svg>
