<?xml version="1.0" encoding="UTF-8" standalone="no"?>
<!-- Created with Inkscape (http://www.inkscape.org/) -->

<svg
   viewBox="0 0 200 200.00001"
   version="1.1"
   id="svg53"
   xml:space="preserve"
   xmlns="http://www.w3.org/2000/svg"
   xmlns:svg="http://www.w3.org/2000/svg"><defs
   id="defs23"><filter
     style="color-interpolation-filters:sRGB"
     id="filter42223"
     x="-0.13178573"
     y="-0.087034825"
     width="1.2635715"
     height="1.1740696"><feGaussianBlur
       stdDeviation="6.4363845"
       id="feGaussianBlur42243" /></filter></defs>
    <g
   id="layer13"
   transform="translate(-5.0001945,-50.616717)">
        <g
   id="g22643">

            <path
   id="path42203"
   class="hourGlassGlow"
   style="mix-blend-mode:normal;fill-opacity:1;filter:url(#filter42223)"
   d="m 53.526345,61.874515 c -3.95195,0 -7.133524,5.410602 -7.133524,9.642502 0,4.23191 3.181574,9.682125 7.133524,9.682125 h 3.367931 c 0.281861,12.97665 1.53904,20.564098 5.889845,27.928388 5.098541,8.62993 13.593101,16.35193 28.896741,33.79879 -0.0312,-0.14992 0.11597,0.0911 0.23823,0.26991 -0.0816,-0.0932 -0.15698,-0.17728 -0.23823,-0.26991 0.002,0.01 -0.002,0.006 10e-4,0.0182 0.0867,0.31862 0.20419,0.93117 0.29583,1.67817 0.18328,1.49399 0.28386,3.54231 0.27555,5.57088 -0.008,2.02856 -0.12388,4.06655 -0.31195,5.5462 -0.0906,0.71316 -0.20324,1.2784 -0.2857,1.59479 -15.25595,16.04807 -23.86366,23.56505 -28.946501,32.36978 -4.493256,7.78344 -5.631983,16.0404 -5.846071,30.32994 H 53.526 c -3.951954,0 -7.133524,5.45021 -7.133524,9.68212 0,4.23191 3.18157,9.64251 7.133524,9.64251 h 102.94778 c 3.95195,0 7.13352,-5.4106 7.13352,-9.64251 0,-4.23191 -3.18157,-9.68212 -7.13352,-9.68212 h -3.33706 c -0.21409,-14.28954 -1.35281,-22.5465 -5.84607,-30.32994 -5.08285,-8.80473 -13.69055,-16.32171 -28.9465,-32.36978 -0.0825,-0.31639 -0.19505,-0.88164 -0.2857,-1.59479 -0.18808,-1.47965 -0.30365,-3.51765 -0.31196,-5.5462 -0.008,-2.02857 0.0918,-4.07689 0.2751,-5.57088 0.0916,-0.74699 0.20958,-1.35955 0.29629,-1.67817 0.004,-0.0126 -5.6e-4,-0.009 0.002,-0.0182 -0.0812,0.0926 -0.15659,0.17672 -0.23822,0.26991 0.12225,-0.17878 0.26938,-0.41983 0.23822,-0.26991 15.30366,-17.44686 23.7982,-25.16886 28.89674,-33.79879 4.35081,-7.36429 5.60798,-14.951738 5.88985,-27.928388 h 3.36793 c 3.95196,0 7.13352,-5.450215 7.13352,-9.682125 0,-4.2319 -3.18156,-9.642502 -7.13352,-9.642502 z m 18.385668,24.972612 h 66.175717 c -0.19352,11.162273 -1.03061,16.437033 -3.86924,21.903763 -3.36604,6.4824 -13.95161,13.86336 -24.10108,30.24877 l 0.0734,-0.11332 c -0.72314,1.06643 -0.82982,1.8939 -0.98852,2.71881 -0.15871,0.82493 -0.25845,1.67294 -0.3382,2.59236 -0.15949,1.83882 -0.22459,3.94714 -0.21847,6.06136 0.006,2.1142 0.0833,4.20734 0.24541,6.0115 0.0811,0.90207 0.17967,1.72544 0.3328,2.52526 0.15313,0.79984 0.21504,1.59317 0.9963,2.70521 10.15836,15.13933 20.70091,22.15943 24.02632,28.7135 2.90379,5.72309 3.70327,11.66582 3.86071,24.172 H 71.893038 c 0.157434,-12.50618 0.956904,-18.44891 3.860692,-24.172 3.32542,-6.55407 13.867603,-13.57417 24.025953,-28.7135 0.781257,-1.11204 0.843477,-1.90537 0.996607,-2.70521 0.15313,-0.79982 0.25142,-1.62319 0.33249,-2.52526 0.16214,-1.80416 0.23959,-3.8973 0.24572,-6.0115 0.006,-2.11422 -0.059,-4.22255 -0.21848,-6.06136 -0.0797,-0.91942 -0.17948,-1.76744 -0.33818,-2.59236 -0.15871,-0.82491 -0.2654,-1.65238 -0.988527,-2.71881 l 0.07332,0.11332 C 89.733182,122.61425 79.147674,115.23329 75.781634,108.75089 72.943003,103.28416 72.105545,98.0094 71.912013,86.847127 Z"
   transform="matrix(1.0104641,0,0,0.97882564,-1.0987378,3.1725912)">
            </path>
            <path
   id="rect3543"
   class="hourGlass"
   style="fill-opacity:1;stroke-width:0.752146;stroke-miterlimit:10;paint-order:markers fill stroke"
   d="m 53.526344,65.921432 c -3.95195,0 -7.13352,3.40695 -7.13352,7.63885 0,4.23191 3.18157,7.63886 7.13352,7.63886 h 3.36793 c 0.28186,12.97665 1.53904,20.564098 5.88985,27.928388 5.098538,8.62993 13.593098,16.35193 28.896736,33.79879 -0.0312,-0.14992 0.11597,0.0911 0.23823,0.26991 -0.0816,-0.0932 -0.15698,-0.17728 -0.23823,-0.26991 0.002,0.01 -0.002,0.006 0.001,0.0182 0.0867,0.31862 0.20419,0.93117 0.29583,1.67817 0.18328,1.49399 0.28386,3.54231 0.27555,5.57088 -0.008,2.02856 -0.12388,4.06655 -0.31195,5.5462 -0.0906,0.71316 -0.20324,1.2784 -0.2857,1.59479 -15.255948,16.04807 -23.863658,23.56505 -28.946496,32.36978 -4.49326,7.78344 -5.63199,16.0404 -5.84607,30.32994 h -3.33702 c -3.95196,0 -7.13353,3.40695 -7.13353,7.63886 0,4.23191 3.18157,7.63886 7.13353,7.63886 H 156.47378 c 3.95195,0 7.13352,-3.40695 7.13352,-7.63886 0,-4.23191 -3.18157,-7.63886 -7.13352,-7.63886 h -3.33706 c -0.21409,-14.28954 -1.35281,-22.5465 -5.84607,-30.32994 -5.08285,-8.80473 -13.69055,-16.32171 -28.9465,-32.36978 -0.0825,-0.31639 -0.19505,-0.88164 -0.2857,-1.59479 -0.18808,-1.47965 -0.30365,-3.51765 -0.31196,-5.5462 -0.008,-2.02857 0.0918,-4.07689 0.2751,-5.57088 0.0916,-0.74699 0.20958,-1.35955 0.29629,-1.67817 0.004,-0.0126 -5.6e-4,-0.009 0.002,-0.0182 -0.0812,0.0926 -0.15659,0.17672 -0.23822,0.26991 0.12225,-0.17878 0.26938,-0.41983 0.23822,-0.26991 15.30366,-17.44686 23.7982,-25.16886 28.89674,-33.79879 4.35081,-7.36429 5.60798,-14.951738 5.88985,-27.928388 h 3.36793 c 3.95196,0 7.13352,-3.40695 7.13352,-7.63886 0,-4.2319 -3.18156,-7.63885 -7.13352,-7.63885 z m 10.4927,15.27771 h 81.961566 c -0.23968,12.1509 -1.27646,17.89284 -4.79223,23.843748 -4.16899,7.05654 -12.68243,15.09122 -28.30924,32.92786 l 0.1129,-0.12336 c -1.11339,1.16089 -1.27763,2.06165 -1.52199,2.95962 -0.24436,0.89799 -0.39793,1.82111 -0.5207,2.82196 -0.24557,2.00168 -0.3458,4.29673 -0.33638,6.5982 0.009,2.30146 0.12821,4.57998 0.37785,6.54393 0.12482,0.98197 0.27663,1.87826 0.5124,2.74892 0.23577,0.87068 0.33109,1.73428 1.53398,2.94481 15.6405,16.4802 24.06706,24.12206 28.18573,31.25661 3.59647,6.22998 4.58666,12.69905 4.78165,26.31289 H 63.995544 c 0.19499,-13.61384 1.185168,-20.08291 4.781638,-26.31289 4.11868,-7.13455 12.544788,-14.77641 28.185278,-31.25661 1.20288,-1.21053 1.29867,-2.07413 1.53444,-2.94481 0.23577,-0.87066 0.38712,-1.76695 0.51194,-2.74892 0.24964,-1.96395 0.36888,-4.24247 0.37831,-6.54393 0.009,-2.30147 -0.0908,-4.59653 -0.33638,-6.5982 -0.12278,-1.00085 -0.27634,-1.92398 -0.52069,-2.82196 -0.24436,-0.89797 -0.40862,-1.79873 -1.522,-2.95962 l 0.11289,0.12336 C 81.49418,120.13411 72.980732,112.09943 68.811742,105.04289 65.295972,99.091982 64.258744,93.350042 64.019044,81.199142 Z">
            </path>
            <path
   class="hourGlassFill"
   style="fill-opacity:1;fill-rule:evenodd;stroke:none;stroke-width:0.244139px;stroke-linecap:butt;stroke-linejoin:miter;stroke-opacity:1"
   d="m 71.083058,85.632327 c 22.349997,1.440766 44.699992,1.051913 67.049992,0 0,10.973783 -14.55724,28.190533 -24.10229,37.735583 -4.33422,4.33422 -7.04149,7.08275 -9.4227,7.08275 -2.08996,0 -5.605358,-3.2654 -9.42271,-7.08275 C 85.712612,113.89517 71.083058,96.41777 71.083058,85.632327 Z"
   id="path15003">
                <animate
   attributeName="d"
   dur="20s"
   repeatCount="indefinite"
   keyTimes="0; 0.1; 0.9; 0.93; 0.95; 1"
   values="                     m 71.083058,85.632327 c 22.349997,1.440766 44.699992,1.051913 67.049992,0 0,10.973783 -14.55724,28.190533 -24.10229,37.735583 -4.33422,4.33422 -7.04149,7.08275 -9.4227,7.08275 -2.08996,0 -5.605358,-3.2654 -9.42271,-7.08275 C 85.712612,113.89517 71.083058,96.41777 71.083058,85.632327 Z;                     m 71.083058,91.45316 c 29.913942,3.439143 45.486542,-1.506967 67.049992,-0.529166 0,10.973786 -12.3885,25.735496 -24.10229,32.443916 -9.35713,5.35877 -5.91395,34.07025 -9.4227,34.07025 -3.40199,0 -0.0416,-28.69779 -9.42271,-34.07025 C 83.560297,116.71031 71.083058,102.2386 71.083058,91.45316 Z;                     m 93.001359,126.8231 c -2.993385,-5.9483 9.397731,5.3044 21.126451,0.0912 5.0464,-2.42442 -2.03428,5.51889 -4.73417,7.36517 -4.93198,3.37265 -2.61697,22.31343 -4.67435,24.43173 -1.87171,-1.90768 -0.38662,-21.08915 -3.99229,-23.92048 -4.403705,-3.25788 -6.434829,-5.81182 -7.725641,-7.96762 z;                     m 99.998096,134.30057 c -1.379302,-2.38902 5.551054,0.85793 7.724274,-0.15 2.82472,-1.06803 0.57442,2.89843 0.57442,2.89843 -2.84936,4.16778 -2.00118,21.23981 -3.57755,21.6622 -1.25537,-0.33637 -0.14238,-16.51999 -2.26545,-21.1169 -0.69028,-1.02598 -1.89972,-2.48861 -2.455694,-3.29373 z;                     m 104.18453,157.17887 c -0.40929,-0.48106 0.88891,-0.0872 1.15517,-0.26989 0.25318,-0.19506 0.27986,0.18464 -0.0837,0.81434 -0.35401,0.61316 -0.40775,0.64031 -0.54846,0.67801 -0.10995,-0.0295 -0.19337,-0.20411 -0.25487,-0.54335 -0.0491,-0.25121 -0.11245,-0.41804 -0.26815,-0.67911 z;                     m 104.18453,157.17887 c -0.40929,-0.48106 0.88891,-0.0872 1.15517,-0.26989 0.25318,-0.19506 0.27986,0.18464 -0.0837,0.81434 -0.35401,0.61316 -0.40775,0.64031 -0.54846,0.67801 -0.10995,-0.0295 -0.19337,-0.20411 -0.25487,-0.54335 -0.0491,-0.25121 -0.11245,-0.41804 -0.26815,-0.67911 z" />
            </path>
            <path
   class="hourGlassFill"
   style="fill-opacity:1;fill-rule:evenodd;stroke:none;stroke-width:0.244139px;stroke-linecap:butt;stroke-linejoin:miter;stroke-opacity:1"
   d="m 70.884685,216.51514 h 66.653245 c -17.93326,0 -21.43671,-0.50948 -23.79008,-0.65207 -4.65086,-0.2818 -5.56261,-2.01408 -9.21473,-2.01408 -2.9238,0 -7.382033,2.4034 -12.39973,2.34778 -7.81702,-0.0866 -8.50665,0.31837 -21.248705,0.31837 z"
   id="path22303">
                <animate
   attributeName="d"
   dur="20s"
   repeatCount="indefinite"
   keyTimes="0; 0.1; 0.7; 0.93; 0.95; 1"
   values="                     m 70.884685,216.51514 h 66.653245 c -17.93326,0 -21.43671,-0.50948 -23.79008,-0.65207 -4.65086,-0.2818 -5.56261,-2.01408 -9.21473,-2.01408 -2.9238,0 -7.382033,2.4034 -12.39973,2.34778 -7.81702,-0.0866 -8.50665,0.31837 -21.248705,0.31837 z;                     m 70.884685,216.51514 h 66.653245 c -17.93326,0 -21.43671,-0.50948 -23.79008,-0.65207 -4.65086,-0.2818 -5.56261,-2.01408 -9.21473,-2.01408 -2.9238,0 -7.382033,2.4034 -12.39973,2.34778 -7.81702,-0.0866 -8.50665,0.31837 -21.248705,0.31837 z;                     m 70.884685,216.51514 h 66.653245 c 0,-14.06817 -12.56577,-27.59253 -19.38542,-31.52985 -6.09283,-3.5177 -9.60982,-14.52796 -14.67772,-14.52796 -2.9238,0 -5.907194,12.31307 -13.34359,16.60647 -7.076197,4.08544 -19.024046,10.97197 -19.246515,29.45134 z;                     m 70.884685,216.51514 h 66.653245 c 0,-14.06817 -12.56577,-30.76753 -19.38542,-34.70485 -6.09283,-3.5177 -9.60982,-14.52796 -14.67772,-14.52796 -2.9238,0 -5.907194,12.31307 -13.34359,16.60647 -7.076197,4.08544 -19.024046,14.14697 -19.246515,32.62634 z;                     m 70.884685,216.51514 h 66.653245 c 0,-14.06817 -14.44133,-30.10534 -20.17917,-35.4986 -5.43137,-5.1052 -8.15461,-11.22067 -13.22251,-11.22067 -2.9238,0 -5.642612,4.77245 -12.41755,10.25647 -6.350985,5.14086 -20.611546,17.98343 -20.834015,36.4628 z;                     m 70.884685,216.51514 h 66.653245 c 0,-14.06817 -14.44133,-30.10534 -20.17917,-35.4986 -5.43137,-5.1052 -8.15461,-11.22067 -13.22251,-11.22067 -2.9238,0 -5.642612,4.77245 -12.41755,10.25647 -6.350985,5.14086 -20.611546,17.98343 -20.834015,36.4628 z" />
            </path>

</g>
    </g>
</svg>
