<svg xmlns="http://www.w3.org/2000/svg" width="200" height="200" viewBox="0 0 700 700"><path d="M331.026 697.546c-41.247-2.273-81.064-11.705-119.551-28.32-6.552-2.828-23.288-11.123-29.806-14.773-56.834-31.828-103.312-78.357-135.105-135.254-3.646-6.525-11.932-23.28-14.758-29.839-16.765-38.924-26.052-78.454-28.31-120.503-.432-8.053-.43-28.737.005-36.724 3.75-68.982 27.115-133.75 68.15-188.906C115.876 83.78 178.186 39.733 248.323 18.335c56.053-17.102 114.993-19.833 172.448-7.99 53.794 11.087 105.705 35.818 148.211 70.609 17.363 14.211 36.254 33.122 50.45 50.505 31.623 38.721 54.787 84.855 67.116 133.665 5.426 21.482 8.323 40.1 10.07 64.713.63 8.868.528 34.486-.174 43.939-3.475 46.763-14.357 87.891-33.923 128.208-36.438 75.082-98.355 134.472-174.768 167.633-37.42 16.24-77.717 25.685-119.224 27.947-7.082.385-30.381.374-37.503-.018zm12.774-34.04c1.711-.377 4.248-1.079 5.637-1.559l2.526-.872 2.743.875a91 91 0 0 0 5.827 1.59l3.083.715 7.533.016 7.534.015 3.766-.747c5.138-1.018 8.677-2.038 15.231-4.386 6.109-2.19 9.569-3.809 13.088-6.127 6.878-4.532 11.95-10.207 15.095-16.89 4.882-10.376 8.127-25.216 13.418-61.358 4.385-29.95 6.643-41.366 10.506-53.116 4.18-12.714 10.354-25.038 19.635-39.188 8.338-12.712 17.204-19.99 27.83-22.847l3.275-.88 6.223-.021c4.91-.017 6.81.107 9.007.589 8.979 1.966 16.662 5.177 31.089 12.99 2.739 1.483 5.063 2.615 5.163 2.514.707-.708 2.562-12.99 3.085-20.417 1.005-14.298-1.808-28.262-8.35-41.442-3.681-7.419-7.516-13.174-17.217-25.837l-1.133-1.48 2.116.236c3.163.351 9.914 1.712 13.252 2.67 13.542 3.89 24.42 10.089 32.229 18.362l2.75 2.915-.235-1.63c-1.28-8.904-5.41-23.716-9.597-34.42-6.76-17.285-17.654-34.317-28.917-45.21-9.092-8.793-20.21-14.987-37.794-21.055l-3.57-1.232.74-.274c.406-.15 1.775-.435 3.043-.631 7.652-1.189 29.607 3.482 44.715 9.513 3.656 1.46 8.875 3.996 10.31 5.012 1.293.915 1.166.31-.727-3.46-5.726-11.409-18.158-24.945-33.418-36.388-2.432-1.824-4.454-3.328-4.494-3.342s1.48-2.379 3.374-5.255c17.436-26.46 28.478-61.933 31.638-101.632.625-7.854.532-26.553-.167-33.511-1.4-13.936-3.736-23.75-7.556-31.74-2.628-5.499-7.047-10.971-12.62-15.628-12.28-10.26-22.949-9-38.671 4.573-7.879 6.801-26.939 25.67-54.371 53.825-12.547 12.877-18.205 18.29-23.91 22.872-3.746 3.008-9.134 6.806-9.35 6.59-.074-.074-.512-2.044-.972-4.378-3.643-18.48-10.297-31.696-19.746-39.218-2.64-2.102-5.239-3.73-5.514-3.454-.098.099.195 1.85.652 3.893 1.795 8.03 2.012 10.078 2.012 18.962 0 4.599-.118 8.786-.263 9.306l-.263.945-2.047-3.404c-1.126-1.872-3.821-6.06-5.99-9.306-4.974-7.448-5.476-8.322-9.687-16.887-3.19-6.488-7.353-13.753-12.712-22.188-1.165-1.834-2.168-3.285-2.229-3.224s-.248 1.783-.417 3.826c-.705 8.565-3.212 20.544-6.007 28.713-3.287 9.607-6.592 15.694-10.887 20.052-1.499 1.522-2.787 2.705-2.863 2.63-.075-.076.07-1.038.325-2.137 1.726-7.484.87-17.578-1.99-23.463-1.861-3.827-3.108-5.171-3.108-3.348 0 1.535-1.59 8.77-2.622 11.932-2.261 6.927-5.396 12.11-10.838 17.918-4.438 4.736-12.937 12.9-13.43 12.9-.54 0-5.659-3.601-9.467-6.66-5.716-4.59-11.367-9.998-24.074-23.037-34.335-35.232-51.067-51.55-59.028-57.567-12.334-9.324-22.382-9.827-32.682-1.636-7.936 6.31-13.573 14.238-16.516 23.229-6.37 19.463-7.299 49.545-2.475 80.119 4.85 30.74 15.029 58.753 29.117 80.133 1.895 2.876 3.414 5.243 3.374 5.26s-1.807 1.32-3.929 2.897c-5.99 4.454-11.398 9.119-16.794 14.485-5.962 5.93-9.81 10.48-13.31 15.74-2.413 3.627-5.507 9.425-5.507 10.322 0 .216.418.081.973-.315 1.492-1.063 7.312-3.768 11.273-5.239 9.254-3.437 22.623-6.686 33.103-8.045 4.053-.525 12.644-.724 13.317-.308.215.133-1.329.841-3.512 1.612-10.387 3.666-20.442 8.334-26.167 12.149-9.625 6.413-17.217 14.429-25.61 27.04-9.283 13.946-16.104 29.678-20.686 47.71-1.373 5.403-2.998 13.161-2.998 14.311 0 .471.748-.142 2.702-2.212 7.006-7.425 16.524-13.177 28.141-17.008 7.434-2.451 19.804-4.911 19.12-3.803-.137.222-2.406 3.01-5.044 6.196-6.478 7.826-8.742 10.77-11.304 14.69-5.285 8.094-8.049 14.965-9.771 24.302l-.712 3.855-.008 8.853c-.006 6.74.132 9.871.579 13.116 1.213 8.82 3.346 19.183 3.947 19.181.195 0 3.302-1.633 6.905-3.628 16.67-9.23 25.224-12.5 35.152-13.445 6.605-.629 12.885.521 18.934 3.466 8.663 4.217 14.941 10.675 23.11 23.773 10.999 17.636 16.787 31.202 20.846 48.857 2.205 9.595 3.5 17.293 7.606 45.25 4.588 31.23 7.96 46.027 12.748 55.922 6.616 13.677 23.343 24.167 43.891 27.528 4.305.704 15.924.437 19.988-.46zm4.118-18.755c-3.727-.393-8.977-1.775-13.035-3.432-3.929-1.603-6.805-3-6.805-3.306 0-.111 1.042-1.3 2.316-2.643 4.14-4.364 6.855-9.431 6.855-12.797 0-3.216-2.182-6.244-5.61-7.784-4.095-1.84-9.71-1.445-12.763.897-3.762 2.887-3.573 7.841.503 13.157 1.42 1.851 1.33 1.99-1.474 2.284-8.221.86-13.86-5.72-13.302-15.526.097-1.713.417-3.903.712-4.867 3.066-10.048 12.158-16.516 25.383-18.057 8.206-.956 30.37-1.154 40.712-.363 11.4.87 18.084 3.414 23.677 9.007 2.08 2.08 2.94 3.245 4.01 5.431 1.864 3.812 2.399 6.062 2.375 9.997-.061 10.432-6.1 15.979-15.327 14.078l-.726-.15 1.748-2.568c3.886-5.713 3.732-9.9-.47-12.762-1.828-1.247-4.353-1.809-7.33-1.633-4.653.275-8.19 2.227-9.703 5.355l-.725 1.498.147 2.518c.231 3.963 2.373 7.856 7.112 12.927l2.025 2.168-2.88 1.351c-9.94 4.663-18.058 6.208-27.425 5.22zM312.215 512.15c-.403-2.092-.259-11.553.288-18.854.576-7.686.664-20.756.177-26.068-.683-7.451-2.821-19.655-3.763-21.477-.588-1.138-2.687-3.02-5.013-4.491-4.608-2.917-6.426-4.256-7.623-5.617-.706-.804-1.284-1.61-1.284-1.792 0-.625 15.528.266 22.314 1.28l3.48.52.547 3.561c1.534 10.004 2.048 24.66 1.197 34.082-1.297 14.344-4.498 27.493-9.419 38.692l-.648 1.476zm79.125-3.115a674 674 0 0 0-2-5.117c-1.534-3.743-4.24-15-5.237-21.798-1.972-13.43-1.902-29.672.186-43.09l.521-3.351 2.177-.377c6.87-1.188 23.63-2.13 23.63-1.327 0 .88-3.77 3.905-7.526 6.038-2.224 1.262-4.837 3.033-5.808 3.934l-1.765 1.64-.46 1.803c-.79 3.09-2.061 10.448-2.664 15.412-.902 7.429-.774 19.751.324 31.097.834 8.62 1.087 16.92.57 18.743l-.232.82zm-84.88-94.977c-4.444-.424-10.446-1.818-11.79-2.74l-.492-.337.491-.292c1.351-.804 3.214-2.526 4.305-3.98 4.84-6.45 3.397-15.967-3.1-20.447-2.138-1.473-6.196-2.813-8.505-2.808-3.933.009-8.48 2.01-11.548 5.081-5.722 5.728-5.871 13.38-.373 19.095l1.338 1.39-2.342-.649c-5.164-1.433-9.766-3.578-14.595-6.805-6.59-4.403-10.055-7.939-15.61-15.93-4.857-6.985-7.292-9.444-11.221-11.33-1.49-.716-3.793-1.626-5.117-2.023l-2.407-.721.77-.746c.613-.595 1.505-.852 4.398-1.265 23.718-3.39 48.278-1.628 64.088 4.597 18.82 7.411 27.15 19.978 25.257 38.109l-.21 2.015-6.095-.052c-3.352-.029-6.61-.102-7.241-.162zm78.163-1.307c-.33-2.41-.242-9.647.143-11.78 1.925-10.66 8.554-18.862 19.792-24.488 14.44-7.23 36.617-10.133 60.568-7.93 8.549.786 12.363 1.423 13.216 2.207l.743.683-3.363 1.192c-6.765 2.398-9.342 4.376-13.561 10.41-5.075 7.256-6.262 8.842-8.059 10.765-3.635 3.89-10.125 8.658-15.43 11.335-2.59 1.307-8.825 3.553-9.863 3.553-.412 0-.195-.41.824-1.557 3.927-4.42 4.597-10.447 1.718-15.433-2.012-3.482-6.298-6.63-10.582-7.771-6.485-1.728-13.673 1.647-16.716 7.849l-1.114 2.269-.124 3.14-.124 3.142.7 2.075c.385 1.141 1.081 2.68 1.547 3.418.991 1.572 3.856 4.405 4.74 4.685 1.027.327.698.695-1.271 1.42-4.434 1.63-9.89 2.337-18.04 2.337h-5.536zm-162.822-71.955c5.929-6.03 15.923-13.045 26.15-18.353 11.593-6.02 21.64-9.572 32.47-11.484 5.283-.932 13.792-1.022 17.973-.19 13.195 2.628 21.256 11.073 24.273 25.43.741 3.53.782 3.466-1.484 2.32-5.09-2.572-14.286-5.938-20.61-7.544-20.077-5.098-41.01-3.822-61.421 3.745-5.015 1.859-5.327 1.992-12.83 5.48-3.454 1.605-6.397 2.918-6.542 2.918s.765-1.045 2.02-2.322zm262.84 1.918c-.45-.197-2.661-1.238-4.913-2.313-13.328-6.362-23.92-9.742-36.174-11.542-14.862-2.184-31.607-.596-46.082 4.37-4.406 1.511-10.27 3.89-13.04 5.29-2.267 1.146-2.226 1.21-1.484-2.32 3.017-14.357 11.102-22.827 24.272-25.424 4.213-.83 12.732-.744 17.973.183 5.256.93 11.76 2.664 16.637 4.438 15.243 5.543 31.487 15.25 40.993 24.497 3.215 3.127 3.491 3.556 1.818 2.821zm-225.018-73.747c-15.11-1.384-26.187-6.503-33.641-15.547l-2.77-3.36-1.47-.371c-7.676-1.935-23.698-12.336-31.415-20.394-3.287-3.433-4.583-5.315-7.808-11.34-6.175-11.536-10.011-21.578-10.019-26.229l-.002-1.378 2.702 1.285c4.423 2.104 7.972 2.993 12.733 3.189 4.947.204 7.947-.345 10.932-2 2.419-1.34 4.535-3.837 5.226-6.166.763-2.571.647-7.204-.297-11.876a371 371 0 0 1-1.49-7.907c-2.026-11.595-5.973-21.917-11.752-30.742-3.975-6.068-6.257-7.68-13.16-9.29-4.407-1.028-5.796-1.665-7.109-3.26-2.03-2.466-2.197-4.958-.535-7.997 1.988-3.637 4.28-6.206 7.166-8.03 18.117-11.453 33.55 6.256 44.549 51.121 2.906 11.855 3.338 14.513 6.24 38.364 2.98 24.477 6.111 37.87 11.425 48.85 4.65 9.61 11.099 16.33 18.716 19.506 2.072.863 5.75 1.83 9.519 2.503.384.068.775.421.87.784l.172.66-2.835-.045a96 96 0 0 1-5.947-.33zm177.759-.285c.095-.363.486-.716.87-.784 9.268-1.654 14.199-4.03 19.617-9.454 7.572-7.58 12.853-19.677 16.43-37.632 1.469-7.38 2.494-14.357 4.288-29.202 2.487-20.577 3.189-24.404 6.756-36.87 6.611-23.105 15.83-41.417 23.95-47.568 1.124-.851 3-2.006 4.172-2.566l2.129-1.018 3.275.014 3.275.014 2.13 1.004c4.403 2.078 7.764 5.263 11.195 10.608 1.091 1.7 1.578 2.802 1.578 3.57 0 2.69-1.61 5.417-3.88 6.563-.658.333-2.883.999-4.944 1.48-6.91 1.612-9.203 3.233-13.145 9.29-5.673 8.715-9.21 17.587-11.276 28.282l-1.787 9.263c-1.682 8.714-1.312 13.061 1.392 16.37 2.904 3.555 7.4 5.059 14.275 4.776 4.76-.196 8.31-1.085 12.733-3.19l2.702-1.284-.003 1.378c-.003 1.768-.979 5.818-2.306 9.576-2.445 6.917-9.683 21.056-12.745 24.898-4.701 5.895-14.624 13.725-24.088 19.006-3.325 1.856-8.67 4.19-10.528 4.6-.775.17-1.688 1.034-3.803 3.6-6.423 7.792-14.94 12.408-26.938 14.602-4.004.732-9.983 1.33-13.317 1.332h-2.18z" style="opacity:1;fill:#fff;fill-opacity:.85777779;stroke:#000;stroke-width:6.09351397;stroke-miterlimit:4;stroke-dasharray:none;stroke-opacity:1"/></svg>
