<?xml version="1.0" encoding="UTF-8" standalone="no"?>
<!-- Created with Inkscape (http://www.inkscape.org/) -->

<svg
   viewBox="0 0 125 125"
   version="1.1"
   id="svg15861"
   xmlns="http://www.w3.org/2000/svg"
   xmlns:svg="http://www.w3.org/2000/svg">
  <defs
     id="defs15831">
    <clipPath
       clipPathUnits="userSpaceOnUse"
       id="clipPath1481">
      <path
         d="M 0,1800 H 1800 V 0 H 0 Z"
         id="path1461" />
    </clipPath>
  </defs>
  <g
     id="layer11"
     transform="translate(384.91458,244.7005)">
    <g
       id="g1421"
       transform="matrix(0.14687403,0,0,-0.14687404,-454.60106,-56.913365)">
      <g
         id="g1441"
         clip-path="url(#clipPath148)"
         transform="translate(-6.2041418e-5,-23.82358)">
        <g
           id="g2021"
           transform="translate(941.1938,643.9735)" />
        <g
           id="g2101"
           transform="translate(912.8077,1040.3585)">
          <path
             id="path2121"
             style="fill:#1c253c;fill-opacity:1;fill-rule:nonzero;stroke:none"
             d="m -137.41945,248.2899 c -2.17399,-16.52699 -3.95194,-32.0299 -2.87094,-47.76589 1.35,-19.65998 7.38655,-38.07918 15.39955,-55.81117 10.04699,-22.23297 13.38873,-45.59746 14.12673,-69.681436 0.584,-19.063981 1.56628,-38.136359 3.12028,-57.14334 l 4.82289,-68.491746 0.20422,-74.905648 c -3.18899,-19.82998 -6.99703,-39.62224 -8.85503,-59.58922 -2.944,-31.64397 -4.71088,-63.40324 -6.62287,-95.13521 l -10.70488,-34.78848 c -1.099,-1.37299 -2.28413,-2.68512 -3.28413,-4.12712 -11.81899,-17.05398 -18.28098,-35.94194 -19.92798,-56.63992 -1.487,-18.69198 -3.77687,-37.43715 0.007,-56.00114 2.903,-14.24798 7.08123,-28.2416 10.91622,-42.28759 0.353,-1.293 2.32776,-2.14294 4.12475,-3.69494 -2.01899,-1.571 -4.35806,-3.71906 -6.99806,-5.38806 -15.45798,-9.78099 -22.28463,-23.75829 -20.55964,-41.90527 0.62,-6.51499 4.88843,-10.97552 10.41043,-10.60752 l 12.14391,-0.24934 14.07449,-15.27368 c 0.843,-4.203 3.88159,-7.03952 7.71758,-7.29252 4.085,-0.269 8.351,0.9237 12.417,1.9567 l 12.364748,2.19892 c 0.278999,-9.26399 6.856459,-14.93041 16.00745,-13.76341 2.183998,0.279 4.348479,0.7127 6.753477,1.1137 l 26.778819,-7.87905 h 66.090989 l 26.778818,7.87905 c 2.403998,-0.401 4.56948,-0.8347 6.753477,-1.1137 9.150991,-1.167 15.727076,4.49942 16.005076,13.76341 l 12.367127,-2.19892 c 4.064996,-1.033 8.330998,-2.2257 12.416994,-1.9567 3.835996,0.253 6.874585,3.08952 7.717585,7.29252 l 14.07449,15.27368 12.14628,0.24934 c 5.521,-0.367 9.78905,4.09153 10.40805,10.60752 1.726,18.14698 -5.10402,32.12428 -20.56201,41.90527 -2.639,1.67 -4.97569,3.81806 -6.99569,5.38806 1.797,1.553 3.77275,2.40294 4.12475,3.69494 3.835,14.04599 8.01223,28.03961 10.91622,42.28759 3.783,18.56399 1.49275,37.30816 0.005,56.00114 -1.646,20.69798 -8.10662,39.58494 -19.9256,56.63992 -0.999,1.442 -2.18513,2.75413 -3.28413,4.12712 l -10.70488,34.78848 c -1.911998,31.73197 -3.677875,63.49124 -6.622872,95.13521 -1.856998,19.96698 -5.667037,39.75924 -8.855034,59.58922 0,0 1.758654,96.997428 5.024739,143.397394 1.554999,19.006981 2.537653,38.079359 3.122652,57.14334 0.738,24.083976 4.077371,47.448466 14.124361,69.681436 8.013994,17.73199 14.051914,36.15119 15.401914,55.81117 1.08,15.73599 -0.69694,31.2389 -2.87094,47.76589 -1.014,-1.552 -1.38623,-2.10097 -1.73823,-2.66197 -8.013,-12.78099 -14.565699,-26.8345 -24.35669,-38.06549 -17.247982,-19.78698 -36.433192,-37.8912 -54.968173,-56.54018 -1.116999,-1.123 -3.806418,-1.50295 -5.504416,-1.10895 -12.689988,2.94699 -25.36512547,4.42882 -38.044113,4.49282 -12.678987,-0.064 -25.355125,-1.54583 -38.044112,-4.49282 -1.697998,-0.394 -4.387417,-0.014 -5.504416,1.10895 -18.534982,18.64898 -37.720191,36.7532 -54.96817,56.54018 -9.78999,11.23099 -16.3437,25.2845 -24.35669,38.06549 -0.352,0.561 -0.72324,1.10997 -1.73824,2.66197 z" />
        </g>
        <g
           id="g2421"
           transform="translate(1031.1523,557.1969)" />
        <g
           id="g2501"
           transform="translate(801.3502,550.7084)" />
      </g>
    </g>
  </g>
</svg>
