<?xml version="1.0" encoding="UTF-8" standalone="no"?>
<svg
   version="1.1"
   x="0px"
   y="0px"
   viewBox="0 0 512 512"
   xml:space="preserve"
   id="svg249"
   width="700"
   height="700"
   sodipodi:docname="transmutation.svg"
   xmlns:inkscape="http://www.inkscape.org/namespaces/inkscape"
   xmlns:sodipodi="http://sodipodi.sourceforge.net/DTD/sodipodi-0.dtd"
   xmlns="http://www.w3.org/2000/svg"
   xmlns:svg="http://www.w3.org/2000/svg"><sodipodi:namedview
   id="namedview133"
   pagecolor="#ffffff"
   bordercolor="#666666"
   borderopacity="1.0"
   inkscape:showpageshadow="2"
   inkscape:pageopacity="0.0"
   inkscape:pagecheckerboard="0"
   inkscape:deskcolor="#d1d1d1"
   showgrid="false" /><defs
   id="defs253" />
    <svg:style
   type="text/css"
   id="style2">
	.st0{fill:none;stroke:rgba(150, 20, 200, 1);stroke-width:16;stroke-miterlimit:10;}
    .st1{fill:none;stroke:rgba(150, 20, 200, 1);stroke-width:8;stroke-miterlimit:10;}
    .st2{fill:none;stroke:rgba(150, 20, 200, 1);stroke-width:5;stroke-miterlimit:10;}
    .st3{fill:none;stroke:rgba(150, 20, 200, 1);stroke-width:3;stroke-miterlimit:10;}
.st4 {
  /*fill:rgba(150, 20, 200, 1);*/
}
    .st5{fill:none;stroke:rgba(150, 20, 200, 1);stroke-width:7;stroke-miterlimit:10;}
    .st6{fill:none;stroke:rgba(150, 20, 200, 1);stroke-width:6;stroke-miterlimit:10;}
    .st7{fill:none;stroke:rgba(150, 20, 200, 1);stroke-width:4;stroke-miterlimit:10;}
    .st8{fill:rgba(150, 20, 200, 1);stroke:rgba(150, 20, 200, 1);stroke-miterlimit:10;}
    .st9{fill:#00AEEF;stroke:rgba(150, 20, 200, 1);stroke-width:4;stroke-miterlimit:10;}
    .st10{fill:rgba(150, 20, 200, 1);stroke:rgba(150, 20, 200, 1);stroke-width:4;stroke-miterlimit:10;}
</svg:style>


    <g
   id="sulphur"
   transform="translate(-446.00003,-25)">
</g>


    <g
   id="Overlay"
   transform="matrix(0.49428172,0,0,0.49227813,-219.44964,-11.307026)">
	<ellipse
   class="st0"
   cx="961.90002"
   cy="543"
   rx="507.89999"
   ry="510"
   id="ellipse4" />
        <circle
   class="st0"
   cx="961.90002"
   cy="543"
   r="480"
   id="circle6" />
        <circle
   class="st1"
   cx="961.90002"
   cy="543"
   r="407.89999"
   id="circle8" />
        <circle
   class="st2"
   cx="961.90002"
   cy="547.59998"
   r="123"
   id="circle10" />
        <circle
   class="st2"
   cx="961.90002"
   cy="547.59998"
   r="89.599998"
   id="circle12" />
        <circle
   class="st2"
   cx="964.02832"
   cy="335"
   r="66.5"
   id="circle14" />
        <path
   class="st2"
   d="m 1170.9,589.1 c -8.8,-4.3 -18.6,-6.7 -29.1,-6.7 -36.7,0 -66.5,29.8 -66.5,66.5 0,36.7 29.8,66.5 66.5,66.5 36.7,0 66.5,-29.8 66.5,-66.5 0,-26.3 -15.3,-49 -37.4,-59.8"
   id="path16" />
        <circle
   class="st2"
   cx="784.29999"
   cy="648.90002"
   r="66.5"
   id="circle18" />
        <ellipse
   class="st3"
   cx="961.90002"
   cy="544.38055"
   rx="355.3403"
   ry="351.57483"
   id="ellipse20" />
</g>
    <g
   id="Layer_3"
   transform="matrix(0.49005647,0,0,0.48882161,-216.14207,-10.845529)">
	<polyline
   class="st2"
   points="901.1,339.4 611.4,339.4 755.3,589.1  "
   id="polyline23"
   transform="translate(-4.1269639,2.4824335)" />
        <path
   class="st2"
   d="M 899.0365,338.15878"
   id="path25" />
        <polyline
   class="st2"
   points="1172.3,588.9 1316,339.4 1033.9,339.4  "
   id="polyline27"
   transform="translate(0.72221863,2.7927377)" />
        <polyline
   class="st2"
   points="821.5,704.1 963.7,950.9 1105.6,704.7  "
   id="polyline29"
   transform="translate(-1.1672816,1.1702304)" />
        <polygon
   class="st2"
   points="964.4,136.4 607.5,342.5 606.7,753.3 962.9,958.1 1319.9,752 1320.6,341.1 "
   id="polygon31" />
        <path
   class="st3"
   d="M 967.5,141.5"
   id="path33" />
        <line
   class="st3"
   x1="964.58185"
   y1="268.20743"
   x2="964.58185"
   y2="138.90744"
   id="line35" />
        <line
   class="st3"
   x1="610"
   y1="752.45728"
   x2="726.29999"
   y2="684.55725"
   id="line37" />
        <line
   class="st3"
   x1="1317.8"
   y1="751.09998"
   x2="1201.7"
   y2="685.70001"
   id="line39" />
        <path
   class="st3"
   d="M 812,869"
   id="path41" />
        <path
   class="st3"
   d="m 1149.6,845.7 c -37.8,-66.4 -109.3,-111.2 -191.2,-111.2 -80.9,0 -151.5,43.6 -189.7,108.7"
   id="path43" />
        <path
   class="st3"
   d="M 1110.6,868.2 C 1080.8,816.7 1025.1,782 961.3,782 c -64,0 -119.9,34.9 -149.7,86.8"
   id="path45" />
        <path
   class="st3"
   d="m 1125.7,233.2 c -18.8,32.4 -29.6,70.1 -29.6,110.3 0,120.8 97.4,218.8 217.9,219.9"
   id="path47" />
        <path
   class="st3"
   d="m 1164.5,257.1 c -13.3,24.5 -20.9,52.5 -20.9,82.3 0,94.5 76.1,171.3 170.4,172.4"
   id="path49" />
        <path
   class="st3"
   d="m 608.5,554.9 c 1,0 2,0 2.9,0 121.5,0 219.9,-98.5 219.9,-219.9 0,-38.7 -10,-75.1 -27.6,-106.7"
   id="path51" />
        <path
   class="st3"
   d="m 606,503.3 c 1.8,0.1 3.6,0.1 5.5,0.1 95.2,0 172.4,-77.2 172.4,-172.4 0,-28.9 -7.1,-56.2 -19.7,-80.2"
   id="path53" />
        <g
   id="g59">
		<g
   id="g57">
			<path
   class="st4"
   d="m 1318.9,788.2 c 1.7,-2.9 3.4,-5.9 5.1,-8.8 1.6,-2.8 -2.7,-5.3 -4.3,-2.5 -1.7,2.9 -3.4,5.9 -5.1,8.8 -1.6,2.7 2.7,5.3 4.3,2.5 z"
   id="path55" />
		</g>
	</g>
        <g
   id="g65">
		<g
   id="g63">
			<path
   class="st4"
   d="m 596,342.8 c 3.5,-6.3 6.9,-12.6 10.4,-18.8 1.6,-2.8 -2.8,-5.3 -4.3,-2.5 -3.5,6.3 -6.9,12.6 -10.4,18.8 -1.6,2.8 2.7,5.3 4.3,2.5 z"
   id="path61" />
		</g>
	</g>
        <polyline
   class="st2"
   points="920.5,321.8 928.8,327.8 937.5,309 947.5,301.3 956.3,296 963.7,293.5 974.5,293.5 986.3,295   994,299.8 1000.3,306 1004,312.5 1006.5,318 1008.8,325.3 1017.3,323.5  "
   id="polyline67"
   transform="translate(-2.0634819,-1.2412168)" />
        <line
   class="st2"
   x1="951.83643"
   y1="351.85883"
   x2="934.9364"
   y2="379.35883"
   id="line69" />
        <line
   class="st2"
   x1="985.23639"
   y1="351.25882"
   x2="999.03644"
   y2="370.55881"
   id="line71" />
        <circle
   class="st1"
   cx="966.83643"
   cy="331.05881"
   r="25"
   id="circle73" />
        <g
   id="g79"
   transform="translate(-2.0634819,-1.2412168)">
		<g
   id="g77">
			<path
   class="st4"
   d="m 927,377.7 c 5.5,3.4 10.9,6.8 16.4,10.3 2.7,1.7 5.2,-2.6 2.5,-4.3 -5.5,-3.4 -10.9,-6.8 -16.4,-10.3 -2.7,-1.8 -5.2,2.6 -2.5,4.3 z"
   id="path75" />
		</g>
	</g>
        <g
   id="g85"
   transform="translate(-2.0634819,-1.2412168)">
		<g
   id="g83">
			<path
   class="st4"
   d="m 993.6,383.3 c 5.5,-4.6 10.9,-9.3 16.4,-13.9 2.5,-2.1 -1.1,-5.6 -3.5,-3.5 -5.5,4.6 -10.9,9.3 -16.4,13.9 -2.5,2 1.1,5.5 3.5,3.5 z"
   id="path81" />
		</g>
	</g>
        <g
   id="g91">
		<g
   id="g89">
			<path
   class="st4"
   d="m 1128.3,699.2 c 5.7,0 11.3,0 17,0 3.2,0 3.2,-5 0,-5 -5.7,0 -11.3,0 -17,0 -3.2,0 -3.2,5 0,5 z"
   id="path87" />
		</g>
	</g>
        <g
   id="g97">
		<g
   id="g95">
			<path
   class="st4"
   d="m 1186.7,645 c -1.4,-6.6 -2.9,-13.1 -4.3,-19.7 -0.7,-3.1 -5.5,-1.8 -4.8,1.3 1.4,6.6 2.9,13.1 4.3,19.7 0.7,3.2 5.5,1.8 4.8,-1.3 z"
   id="path93" />
		</g>
	</g>
        <g
   id="g101">
		<polygon
   class="st4"
   points="1094.1,618 1096.1,661 1088.1,618.7 "
   id="polygon99" />
	</g>
        <g
   id="g105">
		<polygon
   class="st4"
   points="1089.9,617.3 1130.1,602 1092.4,622.7 "
   id="polygon103" />
	</g>
        <line
   class="st2"
   x1="611.10822"
   y1="342.7099"
   x2="756.00818"
   y2="427.80991"
   id="line107" />
        <line
   class="st2"
   x1="799.70819"
   y1="449.56281"
   x2="856.9082"
   y2="484.4628"
   id="line109" />
        <line
   class="st2"
   x1="885.59998"
   y1="500.60001"
   x2="1039.7"
   y2="592.09998"
   id="line111" />
        <line
   class="st2"
   x1="888.29999"
   y1="589.09998"
   x2="1039.7"
   y2="503.39999"
   id="line113" />
        <path
   class="st2"
   d="M 963.7,626.8"
   id="path115" />
        <line
   class="st2"
   x1="961.90002"
   y1="637.20001"
   x2="967.5"
   y2="458.20001"
   id="line117" />
        <line
   class="st2"
   x1="966"
   y1="424.70001"
   x2="966"
   y2="401.5"
   id="line119" />
        <line
   class="st2"
   x1="842.5"
   y1="616.59998"
   x2="855"
   y2="608.40002"
   id="line121" />
        <line
   class="st2"
   x1="962.59998"
   y1="734.5"
   x2="961.90002"
   y2="670.59998"
   id="line123" />
        <line
   class="st2"
   x1="962.77545"
   y1="950.90002"
   x2="962.17542"
   y2="782"
   id="line125" />
        <line
   class="st2"
   x1="1315.6508"
   y1="343.12366"
   x2="1170.1508"
   y2="432.52365"
   id="line127" />
        <line
   class="st2"
   x1="1068.4"
   y1="486.10001"
   x2="1125.3"
   y2="453.10001"
   id="line129" />
</g>
    <g
   id="g143"
   transform="matrix(0.49428172,0,0,0.49227813,-219.44964,-11.307026)">
	<g
   id="g135">
		<g
   id="g133">
			<path
   class="st4"
   id="salt"
   d="m 771,603.7 c 2.8,0 5.6,0 8.3,0 -1.7,-1.7 -3.3,-3.3 -5,-5 0,6.7 0,13.3 0,20 1.7,-1.7 3.3,-3.3 5,-5 -6.6,0 -12.1,0.2 -18.5,1.7 -6.4,1.6 -11.1,5.2 -16.3,9.3 -4.4,3.5 -6.4,10.2 -8,15.4 -0.9,3.1 -2.3,6.3 -2.8,9.5 -0.5,3.2 -0.1,6.7 -0.1,10 0,6.3 2.1,11.6 4.8,17.3 2.8,5.9 8.9,10.4 14.7,12.9 5.1,2.2 11.3,4.7 16.9,4.3 6.3,-0.5 13.5,-1.3 19.6,-3.3 6.7,-2.2 12.2,-8 16.1,-13.6 3.9,-5.6 5.1,-12 7.7,-18.3 -2.1,1.2 -4.1,2.3 -6.2,3.5 5.6,1 11.1,2 16.7,3 -1.2,-1.6 -2.4,-3.2 -3.7,-4.8 0,3.3 0,6.6 0,9.9 0,6.4 10,6.4 10,0 0,-3.3 0,-6.6 0,-9.9 0,-2 -1.5,-4.4 -3.7,-4.8 -5.6,-1 -11.1,-2 -16.7,-3 -2.9,-0.5 -5,0.8 -6.2,3.5 -0.9,2.2 -2,4.4 -2.7,6.6 -0.5,1.4 -0.8,2.9 -1.1,4.4 -0.1,0.6 -0.2,1.3 -0.5,1.8 0.8,-2.1 0,-0.2 -0.4,0.2 -1,1.2 -5.2,5.9 -5.2,7.5 0,1 2.2,-1.1 1.2,-1.2 -0.3,0 -1.4,0.9 -1.6,1.1 -1.8,1.2 -3.6,2.5 -5.4,3.7 -0.5,0.4 -1,0.8 -1.6,1.1 -1.1,0.6 1.6,-0.5 0.4,-0.2 -1.5,0.4 -3.1,0.7 -4.7,1 -1.2,0.3 -2.5,0.5 -3.7,0.8 -1.3,0.3 1.7,-0.2 0.5,0 -0.9,0.1 -1.8,0.2 -2.6,0.3 -1.8,0.2 -3.6,0.4 -5.4,0.7 -0.6,0.1 -1.2,0.2 -1.8,0.2 -1.2,0.1 1.8,0.3 0.5,0.1 -3,-0.5 -6.1,-1.4 -9,-2.2 2.4,0.6 -1.5,-0.7 -2.2,-1 -1.5,-0.7 -3.1,-1.3 -4.6,-2 -1.2,-0.6 1.2,1.1 0.2,0.2 -0.5,-0.4 -0.9,-1 -1.4,-1.4 -1.5,-1.5 -2.9,-3.3 -4.5,-4.7 -2.2,-1.9 0.1,-0.2 0,0.7 0.1,-1 -1.3,-3.1 -1.6,-4.1 -0.7,-1.7 -1.4,-3.4 -2.1,-5.1 -0.2,-0.5 -0.4,-1.1 -0.7,-1.6 -0.4,-0.9 0,1.9 0,0.2 0.1,-3.1 0,-6.3 0,-9.5 0,-1.1 -0.1,-2.3 0,-3.5 -0.3,2.8 0.6,-1.4 0.9,-2.2 1,-3.1 1.8,-6.3 2.9,-9.4 0.3,-1.1 -0.8,1.6 -0.2,0.4 0.2,-0.4 0.4,-0.8 0.6,-1.1 0.9,-1.6 2.3,-3.6 2.7,-5.4 0.8,-3 -0.6,3.8 -1.2,0.8 0,-0.1 1.4,-1 1.5,-1.1 1.7,-1.2 3.4,-2.5 5.1,-3.7 1.3,-1 2.7,-2 4,-2.9 0.9,-0.6 -1.4,0.5 -0.6,0.2 0.6,-0.2 1.4,-0.3 2,-0.5 2.1,-0.5 4.3,-1 6.4,-1.6 0.6,-0.2 1.2,-0.3 1.9,-0.5 1,-0.2 -2,0 0,0.1 3.3,0.1 6.6,0 9.8,0 2.7,0 5,-2.3 5,-5 0,-6.7 0,-13.3 0,-20 0,-2.7 -2.3,-5 -5,-5 -2.8,0 -5.6,0 -8.3,0 -6.5,0.2 -6.5,10.2 -0.1,10.2 z" />
		</g>
	</g>
        <line
   class="st5"
   x1="784.29999"
   y1="644"
   x2="746"
   y2="667.70001"
   id="line137" />
        <path
   class="st3"
   d="M 761.9,644"
   id="path139" />
        <polyline
   class="st2"
   points="777.1,665.5 782.8,646.4 780.9,644 761.9,644  "
   id="polyline141" />
</g>
    <g
   id="mecury"
   transform="matrix(0.49428172,0,0,0.49227813,-219.44964,-11.307026)">
	<circle
   class="st1"
   cx="1131.7"
   cy="644"
   r="19.299999"
   id="circle145" />
        <polyline
   class="st6"
   points="1136.8,695.3 1136.8,683.3 1141.8,668.3 1147.2,655.5 1160.3,644 1171,638.7 1182.2,635.8  "
   id="polyline147" />
        <line
   class="st5"
   x1="1115.4"
   y1="633.59998"
   x2="1091.1"
   y2="620"
   id="line149" />
</g>
    <g
   id="copper"
   transform="matrix(0.49428172,0,0,0.49227813,-219.44964,-11.307026)">
	<g
   id="g157">
		<g
   id="g155">
			<path
   class="st4"
   d="m 964.4,1011.8 c 0,-13.6 0,-27.2 0,-40.8 0,-3.2 -5,-3.2 -5,0 0,13.6 0,27.2 0,40.8 0,3.2 5,3.2 5,0 z"
   id="path153" />
		</g>
	</g>
        <g
   id="g163">
		<g
   id="g161">
			<path
   class="st4"
   d="m 942.3,992.3 c 13.4,0 26.8,0 40.3,0 3.2,0 3.2,-5 0,-5 -13.4,0 -26.8,0 -40.3,0 -3.3,0 -3.3,5 0,5 z"
   id="path159" />
		</g>
	</g>
        <g
   id="g169">
		<g
   id="g167">
			<path
   class="st4"
   d="m 977.3,1001 c -9.1,-8.2 -18.2,-16.3 -27.3,-24.5 -2.4,-2.1 -5.9,1.4 -3.5,3.5 9.1,8.2 18.2,16.3 27.3,24.5 2.3,2.2 5.9,-1.4 3.5,-3.5 z"
   id="path165" />
		</g>
	</g>
        <g
   id="g175">
		<g
   id="g173">
			<path
   class="st4"
   d="m 951.5,1006.5 c 8.6,-9.3 17.2,-18.7 25.8,-28 2.2,-2.4 -1.4,-5.9 -3.5,-3.5 -8.6,9.3 -17.2,18.7 -25.8,28 -2.2,2.3 1.3,5.9 3.5,3.5 z"
   id="path171" />
		</g>
	</g>
</g>
    <g
   id="iron"
   transform="matrix(0.49428172,0,0,0.49227813,-219.44964,-11.307026)">
	<circle
   class="st7"
   cx="573.29999"
   cy="761.5"
   r="18"
   id="circle178" />
        <ellipse
   class="st8"
   cx="572.5"
   cy="761.29999"
   rx="4.5"
   ry="4.9000001"
   id="ellipse180" />
        <polyline
   class="st9"
   points="610,791.3 606.7,788.9 586.4,773.8  "
   id="polyline182" />
        <polyline
   class="st10"
   points="594.4,791.3 611.2,791.3 604.8,776.2  "
   id="polyline184" />
</g>
    <g
   id="silver"
   transform="matrix(0.49428172,0,0,0.49227813,-219.44964,-11.307026)">
	<ellipse
   class="st7"
   cx="571.79999"
   cy="313.5"
   rx="15.1"
   ry="18.5"
   id="ellipse187" />
        <g
   id="g193">
		<g
   id="g191">
			<path
   class="st4"
   d="m 579.2,345.4 c 7.6,-13.2 15.2,-26.3 22.8,-39.5 1.6,-2.8 -2.7,-5.3 -4.3,-2.5 -7.6,13.2 -15.2,26.3 -22.8,39.5 -1.7,2.8 2.6,5.3 4.3,2.5 z"
   id="path189" />
		</g>
	</g>
        <line
   class="st7"
   x1="599.20001"
   y1="332"
   x2="588.40002"
   y2="325.20001"
   id="line195" />
</g>
    <g
   id="lead"
   transform="matrix(0.49428172,0,0,0.49227813,-219.44964,-11.307026)">
	<g
   id="g222">
		<g
   id="g202">
			<g
   id="g200">
				<path
   class="st4"
   d="m 1313.2,803 c 4.8,2.9 9.6,5.8 14.4,8.8 2.8,1.7 5.3,-2.6 2.5,-4.3 -4.8,-2.9 -9.6,-5.8 -14.4,-8.8 -2.8,-1.7 -5.3,2.6 -2.5,4.3 z"
   id="path198" />
			</g>
		</g>
        <line
   class="st7"
   x1="1320.5"
   y1="782.5"
   x2="1342.3"
   y2="794.5"
   id="line204" />
        <line
   class="st7"
   x1="1321.9"
   y1="805.40002"
   x2="1338.3"
   y2="779.79999"
   id="line206" />
        <g
   id="g212">
			<g
   id="g210">
				<path
   class="st4"
   d="m 1342.7,800.9 c 1.7,-2.9 3.4,-5.9 5.1,-8.8 1.6,-2.8 -2.7,-5.3 -4.3,-2.5 -1.7,2.9 -3.4,5.9 -5.1,8.8 -1.7,2.8 2.6,5.3 4.3,2.5 z"
   id="path208" />
			</g>
		</g>
        <path
   class="st2"
   d="m 1353.5,779 -6.8,0.8 -3.7,0.8 -2.6,-0.8 -3.2,-2 -3.1,-4 -1.6,-2.8 c 0,0 -0.4,-4.4 0,-4.7 0.4,-0.3 2,-5.3 2,-5.3 l 4.6,-7.3 3.7,-1.4 5.4,-2 h 3.3 l 5.2,0.9 3.8,2.1 2.6,2.9 2.9,1.8 1.5,1.5"
   id="path214" />
        <g
   id="g220">
			<g
   id="g218">
				<path
   class="st4"
   d="m 1365.6,771.3 c 2.9,-4.4 5.7,-8.9 8.6,-13.3 1.7,-2.7 -2.6,-5.2 -4.3,-2.5 -2.9,4.4 -5.7,8.9 -8.6,13.3 -1.8,2.7 2.5,5.2 4.3,2.5 z"
   id="path216" />
			</g>
		</g>
	</g>
</g>
    <g
   id="gold"
   transform="matrix(0.49428172,0,0,0.49227813,-219.44964,-11.307026)">
	<g
   id="g229">
		<circle
   class="st8"
   cx="1348.7"
   cy="323.70001"
   r="5.6999998"
   id="circle225" />
        <polyline
   class="st7"
   points="1367.8,326 1367.8,335.8 1365.9,343.8 1361.1,349.1 1356.6,350.4 1349.5,349.6 1343,348.4    1330,332.4 1329.1,327 1328.1,318.9 1328.1,311.3 1331,305.6 1335,301.6 1339.1,300.4 1351,299.5 1354.3,301.1 1355.8,302.5   "
   id="polyline227" />
	</g>
</g>
    <g
   id="g247"
   transform="matrix(0.49428172,0,0,0.49227813,-219.44964,-11.307026)">
	<g
   id="g245">
		<g
   id="g233">
			<polygon
   id="tin"
   class="st4"
   points="921.9,105.2 921.6,100.3 1008.8,98.8 " />
		</g>
        <g
   id="g237">
			<polygon
   class="st4"
   points="965,75 970,75 967.5,123.3 "
   id="polygon235" />
		</g>
        <g
   id="g243">
			<g
   id="g241">
				<path
   class="st4"
   d="m 983.8,85.3 c -7,0 -14,0 -21,0 -5.9,0 -11.2,0.1 -16.8,2.3 -5.2,2 -10.6,6.6 -12.6,11.9 -1,2.5 -0.3,6 -0.3,8.7 0,3.8 -0.5,5.9 2.3,8.6 1.2,1.1 2.7,3.2 4.2,3.9 1.6,0.8 3.9,0.3 5.7,0.3 3.4,0 6.9,0 10.3,0 3.2,0 3.2,-5 0,-5 -3,0 -6,0 -9,0 -1,0 -2.1,0 -3.1,0 -0.7,0 -1.8,-0.2 -2.4,0 1.1,-0.4 1.8,1.3 0.3,-0.5 -0.7,-0.8 -2.7,-3.3 -3.7,-3.5 0.3,0.1 0,2 0.4,0.6 0.2,-0.8 0,-2.1 0,-3 0,-2.7 -0.5,-6 0,-8.7 -0.4,2 1.3,-1.5 1.8,-2.4 0.4,-0.7 0.8,-1.4 1.3,-2.1 0.6,-1 -1.2,0.8 0.1,0 1.5,-1 3,-2 4.5,-3 1.3,-0.8 1.8,-1.1 2.3,-1.3 5.9,-2.2 8.6,-2 14.8,-2 7,0 14,0 21,0 3.1,0.2 3.1,-4.8 -0.1,-4.8 z"
   id="path239" />
			</g>
		</g>
	</g>
</g>
</svg>
