<?xml version="1.0" encoding="UTF-8" standalone="no"?>
<svg
   version="1.1"
   x="0px"
   y="0px"
   viewBox="0 0 511.99991 512.00001"
   xml:space="preserve"
   id="svg249"
   width="511.99991"
   height="512"
   sodipodi:docname="transmutation.svg.2023_08_23_01_03_13.0.svg"
   inkscape:version="1.2.2 (732a01da63, 2022-12-09)"
   xmlns:inkscape="http://www.inkscape.org/namespaces/inkscape"
   xmlns:sodipodi="http://sodipodi.sourceforge.net/DTD/sodipodi-0.dtd"
   xmlns="http://www.w3.org/2000/svg"
   xmlns:svg="http://www.w3.org/2000/svg"><defs
   id="defs134" /><sodipodi:namedview
   id="namedview132"
   pagecolor="#ffffff"
   bordercolor="#666666"
   borderopacity="1.0"
   inkscape:showpageshadow="2"
   inkscape:pageopacity="0.0"
   inkscape:pagecheckerboard="0"
   inkscape:deskcolor="#d1d1d1"
   showgrid="false"
   inkscape:zoom="1.3037281"
   inkscape:cx="359.73759"
   inkscape:cy="340.56181"
   inkscape:current-layer="g432" />
    <style
   type="text/css"
   id="style2">
	.st0{fill:none;stroke:#9614C8;stroke-width:16;stroke-miterlimit:10;}
    .st1{fill:none;stroke:#9614C8;stroke-width:8;stroke-miterlimit:10;}
    .st2{fill:none;stroke:#9614C8;stroke-width:5;stroke-miterlimit:10;}
    .st3{fill:none;stroke:#9614C8;stroke-width:3;stroke-miterlimit:10;}
    .st4{fill:#9614C8;}
    .st5{fill:none;stroke:#9614C8;stroke-width:7;stroke-miterlimit:10;}
    .st6{fill:none;stroke:#9614C8;stroke-width:6;stroke-miterlimit:10;}
    .st7{fill:none;stroke:#9614C8;stroke-width:4;stroke-miterlimit:10;}
    .st8{fill:#9614C8;stroke:#9614C8;stroke-miterlimit:10;}
    .st9{fill:#00AEEF;stroke:#9614C8;stroke-width:4;stroke-miterlimit:10;}
    .st10{fill:#9614C8;stroke:#9614C8;stroke-width:4;stroke-miterlimit:10;}
</style>


    


    <g
   id="Overlay"
   transform="matrix(0.49622012,0,0,0.49420864,-221.31419,-12.355216)"
   style="display:inline"
   sodipodi:insensitive="true">
	<ellipse
   class="st0"
   cx="961.90002"
   cy="543"
   rx="507.89999"
   ry="510"
   id="ellipse4" />
        <circle
   class="st0"
   cx="961.90002"
   cy="543"
   r="480"
   id="circle6"
   style="display:inline" />
        <circle
   class="st1"
   cx="961.90002"
   cy="543"
   r="407.89999"
   id="circle8"
   style="display:inline" />
        <circle
   class="st2"
   cx="961.90002"
   cy="547.59998"
   r="123"
   id="circle10"
   style="display:inline" />
        <circle
   class="st2"
   cx="961.90002"
   cy="547.59998"
   r="89.599998"
   id="circle12"
   style="display:none" />
        <circle
   class="st2"
   cx="963.64038"
   cy="335.38953"
   r="66.5"
   id="circle14"
   style="display:none" />
        <path
   class="st2"
   d="m 1170.1241,587.93141 c -8.8,-4.3 -18.6,-6.7 -29.1,-6.7 -36.7,0 -66.5,29.8 -66.5,66.5 0,36.7 29.8,66.5 66.5,66.5 36.7,0 66.5,-29.8 66.5,-66.5 0,-26.3 -15.3,-49 -37.4,-59.8"
   id="path16"
   style="display:none" />
        <circle
   class="st2"
   cx="783.13611"
   cy="646.75763"
   r="66.5"
   id="circle18"
   style="display:none" />
        <ellipse
   class="st3"
   cx="961.90002"
   cy="544.38055"
   rx="355.3403"
   ry="351.57483"
   id="ellipse20" />
</g>
    <polyline
   class="st2"
   points="901.1,339.4 611.4,339.4 755.3,589.1  "
   id="polyline23"
   transform="matrix(0.49197829,0,0,0.49073856,-220.29629,-11.354306)"
   style="display:inline" /><polyline
   class="st2"
   points="1172.3,588.9 1316,339.4 1033.9,339.4  "
   id="polyline27"
   transform="matrix(0.49724344,0,0,0.49069654,-224.56819,-10.797531)"
   style="display:inline" /><polyline
   class="st2"
   points="821.5,704.1 963.7,950.9 1105.6,704.7  "
   id="polyline29"
   transform="matrix(0.49197829,0,0,0.49073856,-218.84018,-11.998256)"
   style="display:inline" /><polygon
   class="st2"
   points="606.7,753.3 962.9,958.1 1319.9,752 1320.6,341.1 964.4,136.4 607.5,342.5 "
   id="polygon31"
   transform="matrix(0.49197829,0,0,0.49073856,-217.85753,-12.504471)"
   style="display:inline" /><path
   class="st3"
   d="M 257.72309,56.866973"
   id="path33"
   style="display:none" /><line
   class="st3"
   x1="256.28745"
   y1="120.27235"
   x2="256.28745"
   y2="55.594707"
   id="line35"
   style="display:none" /><line
   class="st3"
   x1="81.840843"
   y1="356.68732"
   x2="139.05792"
   y2="323.36609"
   id="line37"
   style="display:none" /><line
   class="st3"
   x1="430.06308"
   y1="356.02124"
   x2="372.9444"
   y2="323.92691"
   id="line39"
   style="display:none" /><path
   class="st3"
   d="M 181.22045,413.87928"
   id="path41"
   style="display:none" /><path
   class="st3"
   d="m 348.46741,403.21512 c -18.59678,-32.58504 -53.77322,-54.57013 -94.06625,-54.57013 -39.80105,0 -74.5347,21.39621 -93.32828,53.34327"
   id="path43"
   style="display:inline" /><path
   class="st3"
   d="m 329.28027,414.25674 c -14.66098,-25.27303 -42.06415,-42.30167 -73.45237,-42.30167 -31.48662,0 -58.98821,17.12677 -73.64915,42.59613"
   id="path45"
   style="display:inline" /><path
   class="st3"
   d="m 337.02265,103.33629 c -9.24918,15.89993 -14.56255,34.40077 -14.56255,54.12846 0,59.28123 47.91868,107.3736 107.20206,107.91342"
   id="path47"
   style="display:inline" /><path
   class="st3"
   d="m 356.11142,115.06495 c -6.54331,12.0231 -10.28235,25.76376 -10.28235,40.38777 0,46.3748 37.43955,84.06353 83.83309,84.60333"
   id="path49"
   style="display:inline" /><path
   class="st3"
   d="m 81.102886,259.73828 c 0.491978,0 0.983956,0 1.426733,0 59.775381,0 108.186031,-48.33774 108.186031,-107.9134 0,-18.99158 -4.91978,-36.85445 -13.5786,-52.361802"
   id="path51"
   style="display:inline" /><path
   class="st3"
   d="m 79.872941,234.41618 c 0.885555,0.0491 1.771123,0.0491 2.705879,0.0491 46.83633,0 84.81706,-37.88502 84.81706,-84.60332 0,-14.18235 -3.49304,-27.57951 -9.69198,-39.35724"
   id="path53"
   style="display:inline" /><line
   class="st2"
   x1="309.99829"
   y1="286.30325"
   x2="316.55807"
   y2="289.61703"
   id="line1027"
   style="display:none;stroke-dasharray:none" /><line
   class="st2"
   x1="82.386078"
   y1="155.60844"
   x2="153.67371"
   y2="197.37029"
   id="line107"
   style="display:none" /><line
   class="st2"
   x1="175.17314"
   y1="208.04529"
   x2="203.31432"
   y2="225.17204"
   id="line109"
   style="display:none" /><line
   class="st2"
   x1="218.2057"
   y1="233.38919"
   x2="294.48975"
   y2="278.75464"
   id="line111"
   style="display:none" /><line
   class="st2"
   x1="217.32246"
   y1="277.66266"
   x2="292.7814"
   y2="235.05676"
   id="line113"
   style="display:none" /><path
   class="st2"
   d="M 255.85358,295.02241"
   id="path115"
   style="display:none" /><line
   class="st2"
   x1="254.96861"
   y1="301.76321"
   x2="257.72256"
   y2="213.05325"
   id="line117"
   style="display:none" /><line
   class="st2"
   x1="256.98517"
   y1="197.31274"
   x2="256.98517"
   y2="186.74434"
   id="line119"
   style="display:none" /><line
   class="st2"
   x1="196.22583"
   y1="290.01685"
   x2="202.37552"
   y2="285.99283"
   id="line121"
   style="display:none" /><line
   class="st2"
   x1="255.21645"
   y1="348.45035"
   x2="254.87141"
   y2="318.34775"
   id="line123"
   style="display:none" /><line
   class="st2"
   x1="255.39873"
   y1="454.07074"
   x2="255.10353"
   y2="371.18506"
   id="line125"
   style="display:none" /><line
   class="st2"
   x1="429.15012"
   y1="155.61897"
   x2="357.56729"
   y2="199.49098"
   id="line127"
   style="display:none" /><line
   class="st2"
   x1="307.36374"
   y1="225.97551"
   x2="335.35736"
   y2="209.78114"
   id="line129"
   style="display:none" /><g
   id="sulphur"
   transform="translate(-447.1632,-26.770209)"
   style="display:none">
<path
   class="st2"
   d="M 224.46812,149.71709"
   id="path25"
   style="display:inline"
   transform="translate(447.1632,26.770209)" /><polyline
   class="st2"
   points="920.5,321.8 928.8,327.8 937.5,309 947.5,301.3 956.3,296 963.7,293.5 974.5,293.5 986.3,295   994,299.8 1000.3,306 1004,312.5 1006.5,318 1008.8,325.3 1017.3,323.5  "
   id="polyline67"
   transform="matrix(0.4895623,0.04869687,-0.04857417,0.48832867,246.97282,-33.132201)"
   style="display:inline" /><line
   class="st2"
   x1="249.6515"
   y1="158.97839"
   x2="240.0421"
   y2="171.58446"
   id="line69"
   style="display:inline"
   transform="translate(447.1632,26.770209)" /><path
   class="st4"
   d="m 993.6,383.3 c 5.5,-4.6 10.9,-9.3 16.4,-13.9 2.5,-2.1 -1.1,-5.6 -3.5,-3.5 -5.5,4.6 -10.9,9.3 -16.4,13.9 -2.5,2 1.1,5.5 3.5,3.5 z"
   id="path81"
   transform="matrix(0.4895623,0.04869687,-0.04857417,0.48832867,246.97282,-33.132201)"
   style="display:inline" /><path
   class="st4"
   d="m 927,377.7 c 5.5,3.4 10.9,6.8 16.4,10.3 2.7,1.7 5.2,-2.6 2.5,-4.3 -5.5,-3.4 -10.9,-6.8 -16.4,-10.3 -2.7,-1.8 -5.2,2.6 -2.5,4.3 z"
   id="path75"
   transform="matrix(0.4895623,0.04869687,-0.04857417,0.48832867,246.97282,-33.132201)"
   style="display:inline" /><line
   class="st2"
   x1="266.03198"
   y1="160.31187"
   x2="271.85056"
   y2="170.40865"
   id="line71"
   style="display:inline"
   transform="translate(447.1632,26.770209)" /><ellipse
   class="st1"
   cx="271.54117"
   cy="123.27939"
   id="circle73"
   rx="12.299459"
   ry="12.268462"
   transform="rotate(5.6805367,-46.210406,4519.9266)"
   style="display:inline" /></g>
    <g
   id="g143"
   transform="matrix(0.49622012,0,0,0.49420864,-219.08382,-12.939585)"
   inkscape:label="salt"
   style="display:none">
	
        <line
   class="st5"
   x1="784.29999"
   y1="644"
   x2="746"
   y2="667.70001"
   id="line137" />
        <path
   class="st4"
   id="salt"
   d="m 771,603.7 c 2.8,0 5.6,0 8.3,0 -1.7,-1.7 -3.3,-3.3 -5,-5 0,6.7 0,13.3 0,20 1.7,-1.7 3.3,-3.3 5,-5 -6.6,0 -12.1,0.2 -18.5,1.7 -6.4,1.6 -11.1,5.2 -16.3,9.3 -4.4,3.5 -6.4,10.2 -8,15.4 -0.9,3.1 -2.3,6.3 -2.8,9.5 -0.5,3.2 -0.1,6.7 -0.1,10 0,6.3 2.1,11.6 4.8,17.3 2.8,5.9 8.9,10.4 14.7,12.9 5.1,2.2 11.3,4.7 16.9,4.3 6.3,-0.5 13.5,-1.3 19.6,-3.3 6.7,-2.2 12.2,-8 16.1,-13.6 3.9,-5.6 5.1,-12 7.7,-18.3 -2.1,1.2 -4.1,2.3 -6.2,3.5 5.6,1 11.1,2 16.7,3 -1.2,-1.6 -2.4,-3.2 -3.7,-4.8 0,3.3 0,6.6 0,9.9 0,6.4 10,6.4 10,0 0,-3.3 0,-6.6 0,-9.9 0,-2 -1.5,-4.4 -3.7,-4.8 -5.6,-1 -11.1,-2 -16.7,-3 -2.9,-0.5 -5,0.8 -6.2,3.5 -0.9,2.2 -2,4.4 -2.7,6.6 -0.5,1.4 -0.8,2.9 -1.1,4.4 -0.1,0.6 -0.2,1.3 -0.5,1.8 0.8,-2.1 0,-0.2 -0.4,0.2 -1,1.2 -5.2,5.9 -5.2,7.5 0,1 2.2,-1.1 1.2,-1.2 -0.3,0 -1.4,0.9 -1.6,1.1 -1.8,1.2 -3.6,2.5 -5.4,3.7 -0.5,0.4 -1,0.8 -1.6,1.1 -1.1,0.6 1.6,-0.5 0.4,-0.2 -1.5,0.4 -3.1,0.7 -4.7,1 -1.2,0.3 -2.5,0.5 -3.7,0.8 -1.3,0.3 1.7,-0.2 0.5,0 -0.9,0.1 -1.8,0.2 -2.6,0.3 -1.8,0.2 -3.6,0.4 -5.4,0.7 -0.6,0.1 -1.2,0.2 -1.8,0.2 -1.2,0.1 1.8,0.3 0.5,0.1 -3,-0.5 -6.1,-1.4 -9,-2.2 2.4,0.6 -1.5,-0.7 -2.2,-1 -1.5,-0.7 -3.1,-1.3 -4.6,-2 -1.2,-0.6 1.2,1.1 0.2,0.2 -0.5,-0.4 -0.9,-1 -1.4,-1.4 -1.5,-1.5 -2.9,-3.3 -4.5,-4.7 -2.2,-1.9 0.1,-0.2 0,0.7 0.1,-1 -1.3,-3.1 -1.6,-4.1 -0.7,-1.7 -1.4,-3.4 -2.1,-5.1 -0.2,-0.5 -0.4,-1.1 -0.7,-1.6 -0.4,-0.9 0,1.9 0,0.2 0.1,-3.1 0,-6.3 0,-9.5 0,-1.1 -0.1,-2.3 0,-3.5 -0.3,2.8 0.6,-1.4 0.9,-2.2 1,-3.1 1.8,-6.3 2.9,-9.4 0.3,-1.1 -0.8,1.6 -0.2,0.4 0.2,-0.4 0.4,-0.8 0.6,-1.1 0.9,-1.6 2.3,-3.6 2.7,-5.4 0.8,-3 -0.6,3.8 -1.2,0.8 0,-0.1 1.4,-1 1.5,-1.1 1.7,-1.2 3.4,-2.5 5.1,-3.7 1.3,-1 2.7,-2 4,-2.9 0.9,-0.6 -1.4,0.5 -0.6,0.2 0.6,-0.2 1.4,-0.3 2,-0.5 2.1,-0.5 4.3,-1 6.4,-1.6 0.6,-0.2 1.2,-0.3 1.9,-0.5 1,-0.2 -2,0 0,0.1 3.3,0.1 6.6,0 9.8,0 2.7,0 5,-2.3 5,-5 0,-6.7 0,-13.3 0,-20 0,-2.7 -2.3,-5 -5,-5 -2.8,0 -5.6,0 -8.3,0 -6.5,0.2 -6.5,10.2 -0.1,10.2 z" /><path
   class="st3"
   d="M 761.9,644"
   id="path139" />
        <polyline
   class="st2"
   points="777.1,665.5 782.8,646.4 780.9,644 761.9,644  "
   id="polyline141" />
</g>
    <g
   id="mecury"
   transform="matrix(0.49622012,0,0,0.49420864,-218.64926,-13.03584)"
   style="display:none">
	<circle
   class="st1"
   cx="1131.7"
   cy="644"
   r="19.299999"
   id="circle145" />
        <polygon
   class="st4"
   points="1096.1,661 1088.1,618.7 1094.1,618 "
   id="polygon99"
   transform="matrix(0.99145172,0,0,0.99297851,7.7585528,3.0798976)" /><polygon
   class="st4"
   points="1089.9,617.3 1130.1,602 1092.4,622.7 "
   id="polygon103"
   transform="matrix(0.99145172,0,0,0.99297851,6.0127751,4.2484891)" /><polyline
   class="st6"
   points="1136.8,695.3 1136.8,683.3 1141.8,668.3 1147.2,655.5 1160.3,644 1171,638.7 1182.2,635.8  "
   id="polyline147" /><path
   class="st4"
   d="m 1128.3,699.2 c 5.7,0 11.3,0 17,0 3.2,0 3.2,-5 0,-5 -5.7,0 -11.3,0 -17,0 -3.2,0 -3.2,5 0,5 z"
   id="path87"
   transform="matrix(0.99145172,0,0,0.99297851,6.6916674,0.93747248)" /><path
   class="st4"
   d="m 1186.7,645 c -1.4,-6.6 -2.9,-13.1 -4.3,-19.7 -0.7,-3.1 -5.5,-1.8 -4.8,1.3 1.4,6.6 2.9,13.1 4.3,19.7 0.7,3.2 5.5,1.8 4.8,-1.3 z"
   id="path93"
   transform="matrix(0.99145172,0,0,0.99297851,6.6916674,0.93747248)"
   inkscape:label="path93" />
        <line
   class="st5"
   x1="1115.4"
   y1="633.59998"
   x2="1091.1"
   y2="620"
   id="line149" />
</g>
    <g
   id="copper"
   transform="matrix(0.49622012,0,0,0.49420864,-221.58645,-15.973026)"
   style="display:none">
	<g
   id="g157">
		<g
   id="g155">
			<path
   class="st4"
   d="m 964.4,1011.8 c 0,-13.6 0,-27.2 0,-40.8 0,-3.2 -5,-3.2 -5,0 0,13.6 0,27.2 0,40.8 0,3.2 5,3.2 5,0 z"
   id="path153" />
		</g>
	</g>
        <g
   id="g163">
		<g
   id="g161">
			<path
   class="st4"
   d="m 942.3,992.3 c 13.4,0 26.8,0 40.3,0 3.2,0 3.2,-5 0,-5 -13.4,0 -26.8,0 -40.3,0 -3.3,0 -3.3,5 0,5 z"
   id="path159" />
		</g>
	</g>
        <g
   id="g169">
		<g
   id="g167">
			<path
   class="st4"
   d="m 977.3,1001 c -9.1,-8.2 -18.2,-16.3 -27.3,-24.5 -2.4,-2.1 -5.9,1.4 -3.5,3.5 9.1,8.2 18.2,16.3 27.3,24.5 2.3,2.2 5.9,-1.4 3.5,-3.5 z"
   id="path165" />
		</g>
	</g>
        <g
   id="g175">
		<g
   id="g173">
			<path
   class="st4"
   d="m 951.5,1006.5 c 8.6,-9.3 17.2,-18.7 25.8,-28 2.2,-2.4 -1.4,-5.9 -3.5,-3.5 -8.6,9.3 -17.2,18.7 -25.8,28 -2.2,2.3 1.3,5.9 3.5,3.5 z"
   id="path171" />
		</g>
	</g>
</g>
    <g
   id="iron"
   transform="matrix(0.49622012,0,0,0.49420864,-220.11786,-13.03584)"
   style="display:none">
	<circle
   class="st7"
   cx="573.29999"
   cy="761.5"
   r="18"
   id="circle178" />
        <ellipse
   class="st8"
   cx="572.5"
   cy="761.29999"
   rx="4.5"
   ry="4.9000001"
   id="ellipse180" />
        <polyline
   class="st9"
   points="610,791.3 606.7,788.9 586.4,773.8  "
   id="polyline182" />
        <polyline
   class="st10"
   points="594.4,791.3 611.2,791.3 604.8,776.2  "
   id="polyline184" />
</g>
    <g
   id="silver"
   transform="matrix(0.48325008,-0.02616348,-0.01831372,0.48109608,-209.34825,6.6287838)"
   style="display:none">
	<ellipse
   class="st7"
   cx="576.26874"
   cy="309.84207"
   rx="14.914752"
   ry="14.97715"
   id="ellipse187"
   transform="matrix(0.9999521,0.00978779,-0.00832161,0.99996537,0,0)" />
        <path
   class="st4"
   d="m 596,342.8 c 3.5,-6.3 6.9,-12.6 10.4,-18.8 1.6,-2.8 -2.8,-5.3 -4.3,-2.5 -3.5,6.3 -6.9,12.6 -10.4,18.8 -1.6,2.8 2.7,5.3 4.3,2.5 z"
   id="path61"
   transform="matrix(1.0204248,0.06310701,0.03115955,1.021709,-21.307551,-43.682323)" /><path
   class="st4"
   d="m 579.2,345.4 c 7.6,-13.2 15.2,-26.3 22.8,-39.5 1.6,-2.8 -2.7,-5.3 -4.3,-2.5 -7.6,13.2 -15.2,26.3 -22.8,39.5 -1.7,2.8 2.6,5.3 4.3,2.5 z"
   id="path189"
   style="display:inline" />
        <line
   class="st7"
   x1="599.20001"
   y1="332"
   x2="588.40002"
   y2="325.20001"
   id="line195" />
</g>
    <g
   id="lead"
   transform="matrix(0.49622012,0,0,0.49420864,-223.70406,-14.768428)"
   style="display:none">
	<path
   class="st2"
   d="m 1353.5,779 -6.8,0.8 -3.7,0.8 -2.6,-0.8 -3.2,-2 -3.1,-4 -1.6,-2.8 c 0,0 -0.4,-4.4 0,-4.7 0.4,-0.3 2,-5.3 2,-5.3 l 4.6,-7.3 3.7,-1.4 5.4,-2 h 3.3 l 5.2,0.9 3.8,2.1 2.6,2.9 2.9,1.8 1.5,1.5"
   id="path214" /><line
   class="st7"
   x1="1320.5"
   y1="782.5"
   x2="1342.3"
   y2="794.5"
   id="line204" /><line
   class="st7"
   x1="1321.9"
   y1="805.40002"
   x2="1338.3"
   y2="779.79999"
   id="line206" /><path
   class="st4"
   d="m 1313.2,803 c 4.8,2.9 9.6,5.8 14.4,8.8 2.8,1.7 5.3,-2.6 2.5,-4.3 -4.8,-2.9 -9.6,-5.8 -14.4,-8.8 -2.8,-1.7 -5.3,2.6 -2.5,4.3 z"
   id="path198" /><path
   class="st4"
   d="m 1365.6,771.3 c 2.9,-4.4 5.7,-8.9 8.6,-13.3 1.7,-2.7 -2.6,-5.2 -4.3,-2.5 -2.9,4.4 -5.7,8.9 -8.6,13.3 -1.8,2.7 2.5,5.2 4.3,2.5 z"
   id="path216" /><path
   class="st4"
   d="m 1342.7,800.9 c 1.7,-2.9 3.4,-5.9 5.1,-8.8 1.6,-2.8 -2.7,-5.3 -4.3,-2.5 -1.7,2.9 -3.4,5.9 -5.1,8.8 -1.7,2.8 2.6,5.3 4.3,2.5 z"
   id="path208" /><path
   class="st4"
   d="m 1318.9,788.2 c 1.7,-2.9 3.4,-5.9 5.1,-8.8 1.6,-2.8 -2.7,-5.3 -4.3,-2.5 -1.7,2.9 -3.4,5.9 -5.1,8.8 -1.6,2.7 2.7,5.3 4.3,2.5 z"
   id="path55"
   transform="matrix(0.99145172,0,0,0.99297851,10.959149,4.443255)" />
</g>
    <g
   id="gold"
   transform="matrix(0.49621697,0.0017661,-0.00175896,0.49420551,-221.58816,-15.03043)"
   style="display:none">
	<circle
   class="st8"
   cx="1348.7"
   cy="323.70001"
   r="5.6999998"
   id="circle225"
   style="display:none" /><polyline
   class="st7"
   points="1367.8,326 1367.8,335.8 1365.9,343.8 1361.1,349.1 1356.6,350.4 1349.5,349.6 1343,348.4    1330,332.4 1329.1,327 1328.1,318.9 1328.1,311.3 1331,305.6 1335,301.6 1339.1,300.4 1351,299.5 1354.3,301.1 1355.8,302.5   "
   id="polyline227"
   style="display:none" />
</g>
    
<g
   transform="matrix(0.04376422,0,0,-0.04376422,49.155647,484.29167)"
   fill="#000000"
   stroke="none"
   id="g432"
   style="display:inline"><path
     d="m 4594.4454,10501.901 c 1.1417,-10.276 3.4252,-26.641 4.9475,-36.916 l 2.6641,-18.648 -57.848,1.902 -57.4675,2.284 2.2835,-14.082 c 1.5223,-7.612 3.4252,-14.842 4.1864,-16.364 0.7611,-1.903 25.4987,-3.044 54.8033,-3.044 52.1393,0 52.9006,0 53.2812,-8.374 0,-4.947 1.5222,-43.766 3.0446,-86.771 1.5223,-43.006 1.5223,-98.571 0,-123.689 -2.664,-41.102 -0.7612,-57.468 6.0893,-50.617 1.1417,1.142 8.7532,19.028 16.3648,39.961 31.588,82.967 92.1003,145.762 140.8144,145.762 32.7297,0 64.3178,-23.977 73.0711,-55.565 7.231,-24.737 6.0893,-76.116 -1.9029,-101.234 -13.3203,-40.722 -32.3493,-65.079 -85.6303,-109.607 -69.646,-57.848 -87.5332,-82.5858 -87.5332,-118.7405 0,-25.1181 6.4699,-34.6326 28.5434,-43.0054 20.9319,-8.3727 38.4385,-5.3282 65.8403,10.2757 49.8558,28.1628 62.0343,51.7587 33.8715,66.2207 -10.6563,5.7091 -12.1785,5.7091 -21.3124,-1.1416 -5.3281,-4.1865 -13.7009,-15.2233 -18.2679,-24.7378 -10.2756,-21.3124 -25.1181,-33.4909 -41.1025,-33.4909 -17.8872,0 -26.26,11.0368 -23.9765,31.5881 3.4253,31.2075 27.0211,52.5197 106.9427,97.8087 61.6539,34.633 82.2052,53.281 100.473,90.578 13.3202,26.641 14.462,31.589 15.6037,68.124 1.5223,36.916 0.7611,40.722 -9.8951,63.556 -15.2231,32.35 -34.6326,52.901 -63.5567,67.363 -22.8348,11.037 -26.2599,11.797 -59.7508,10.275 -43.7668,-1.522 -70.0266,-12.94 -102.7565,-44.528 l -21.693,-21.311 -1.9029,11.036 c -1.1417,6.089 -2.2834,35.395 -2.2834,65.46 v 54.804 h 68.5043 c 55.5645,0 68.5042,1.141 68.5042,5.327 0,2.664 1.1417,9.895 2.2834,15.984 l 2.2835,11.037 -70.0266,-1.142 -70.0265,-1.522 2.664,26.261 c 1.9029,14.081 3.0446,30.445 3.0446,36.535 l 0.3806,10.276 h -32.7298 -33.1103 z"
     id="path414"
     style="fill:#9614c8;fill-opacity:1;stroke-width:0.380579" /><path
     d="m 4680,8874 c -6,-11 -244,-422 -528,-914 l -517,-895 -1057,-5 -1057,-5 525,-910 c 289,-500 523,-916 521,-925 -3,-8 -239,-420 -525,-915 l -520,-900 1056,-5 1056,-5 525,-912 c 290,-502 529,-912 532,-913 4,0 244,412 535,915 l 528,915 h 1053 c 579,0 1053,2 1053,5 0,2 -236,414 -525,914 l -525,910 521,903 c 287,497 524,909 526,916 4,9 -210,12 -1050,12 H 5753 l -518,898 c -285,493 -524,905 -531,916 -12,18 -13,18 -24,0 z m 488,-1022 c 249,-430 452,-785 452,-787 0,-3 -132,-5 -294,-5 h -293 l -168,290 c -92,160 -170,290 -173,290 -4,-1 -57,-87 -117,-193 C 3974,6400 3363,5351 3357,5353 c -5,1 -73,114 -152,251 l -143,249 33,56 c 18,31 378,655 800,1386 422,732 774,1341 782,1353 14,23 15,23 27,5 7,-10 216,-370 464,-801 z m -368,-608 c 56,-97 100,-178 97,-180 -2,-2 -96,-3 -209,-2 l -206,3 102,177 c 55,98 104,178 107,178 4,0 53,-79 109,-176 z M 3463,6768 c -58,-101 -124,-216 -147,-255 l -41,-73 h -337 c -186,0 -338,-2 -338,-4 0,-3 1276,-2216 1312,-2273 l 20,-33 h -299 l -298,1 -783,1357 c -431,746 -797,1381 -813,1410 l -31,52 h 931 930 z m 4207,177 c 0,-8 -923,-1606 -925,-1602 -1,1 -68,116 -149,256 l -146,253 168,292 168,291 -1331,5 -1331,5 145,252 146,253 h 1628 c 895,0 1627,-2 1627,-5 z M 3183,6282 c -16,-27 -62,-107 -103,-180 -41,-72 -77,-132 -80,-132 -4,0 -175,291 -207,353 -2,4 91,7 207,7 h 210 z m 2462,-502 317,-550 -55,-97 c -31,-54 -173,-300 -316,-548 l -260,-450 -638,-2 -638,-3 -315,547 c -173,301 -314,552 -312,558 2,5 144,254 315,552 l 312,542 636,1 h 637 z m 1214,-856 c 447,-774 810,-1408 808,-1410 -2,-2 -418,-3 -925,-2 l -921,3 145,253 146,252 h 338 338 l -180,313 c -849,1469 -1148,1988 -1148,1992 0,3 132,5 294,5 h 293 z m -269,1399 c 0,-10 -192,-343 -201,-348 -6,-4 -209,335 -209,350 0,3 92,5 205,5 113,0 205,-3 205,-7 z M 2789,4859 c 123,-215 142,-253 133,-272 -5,-12 -80,-143 -166,-292 l -156,-270 1330,-3 c 731,-1 1330,-4 1330,-6 0,-2 -64,-116 -143,-252 l -143,-249 -1633,-3 -1633,-2 14,22 c 8,13 216,373 463,801 247,427 451,777 454,777 3,0 71,-113 150,-251 z m 3396,-13 c 103,-180 135,-243 128,-255 -5,-9 -371,-643 -812,-1408 -442,-766 -806,-1393 -810,-1393 -7,1 -915,1575 -919,1596 -3,12 35,14 289,12 l 293,-3 169,-293 c 93,-161 170,-292 172,-290 1,2 273,473 605,1048 331,575 630,1091 663,1148 48,84 62,101 72,90 7,-7 74,-121 150,-252 z m -3075,-543 97,-168 -104,-3 c -56,-1 -150,-1 -207,0 l -105,3 102,177 c 64,113 105,174 111,168 5,-5 53,-85 106,-177 z m 3379,14 c 51,-86 94,-164 97,-172 5,-13 -21,-15 -201,-15 -114,0 -205,4 -203,8 17,45 203,351 209,345 4,-4 48,-79 98,-166 z M 4900,3394 c 0,-5 -196,-351 -205,-362 -4,-5 -205,346 -205,357 0,8 67,11 205,11 113,0 205,-3 205,-6 z"
     id="path416"
     style="display:inline;fill:#9614c8;fill-opacity:1;stroke:none;stroke-opacity:0.854902" /><path
     d="m 4541,5794 c -191,-51 -352,-206 -412,-394 -29,-92 -29,-259 0,-350 65,-204 240,-362 451,-406 96,-20 238,-7 327,29 318,129 463,498 316,807 -27,57 -55,94 -117,156 -87,87 -162,131 -271,159 -74,19 -222,18 -294,-1 z m 293,-79 c 120,-25 221,-110 279,-233 27,-57 31,-79 35,-172 5,-125 -10,-198 -65,-310 -45,-94 -151,-202 -236,-243 -167,-80 -348,-49 -477,83 -91,93 -129,191 -130,335 0,368 265,610 594,540 z"
     id="path418"
     style="fill:#9614c8;fill-opacity:1" /><path
     d="m 4633,5295 c -28,-20 -46,-75 -34,-106 11,-29 38,-54 68,-63 28,-9 88,16 102,42 15,27 13,83 -2,103 -30,39 -96,51 -134,24 z"
     id="path420"
     style="fill:#9614c8;fill-opacity:1" /><path
     d="m 8890.0815,8098.0968 c -69.1636,-8.6456 -77.8092,-20.4761 -17.2909,-23.2063 34.1268,-1.365 46.8675,-4.0953 65.0685,-13.6508 105.5657,-55.0579 118.7613,-207.0361 26.3915,-304.8663 -33.2169,-34.5819 -83.7246,-72.8039 -138.7825,-104.2006 -49.1427,-27.7565 -46.8675,-25.9364 -43.2274,-29.5766 1.3652,-1.3651 20.4761,5.4602 42.7723,15.4708 80.5393,36.402 90.0949,38.2221 221.1419,40.4972 70.0738,1.8201 119.2164,0.91 121.9466,-1.8201 3.6401,-3.6401 0,-60.5183 -7.7354,-120.5814 l -3.1852,-21.8412 h 44.5924 44.5924 l -3.1852,28.6665 c -1.3651,15.4708 -4.0952,46.8675 -5.9154,70.0737 l -2.7301,41.8623 73.259,-2.7302 c 87.3647,-3.1851 87.3647,-3.1851 87.3647,35.4919 0,15.0159 -1.3651,26.8465 -3.1852,26.8465 -2.2751,0 -17.746,-2.2751 -35.4919,-5.0053 -18.2009,-2.7301 -51.4178,-3.1852 -76.8992,-1.3651 l -45.0474,2.7302 2.7301,37.3121 c 1.8202,20.021 4.0953,48.6875 5.9154,63.2483 l 3.1852,25.9364 h -44.1374 c -49.5976,0 -46.8675,2.7302 -39.5872,-41.4072 2.2752,-13.6507 5.4604,-38.2221 6.8254,-54.6029 l 2.7302,-30.4867 -53.2379,-3.1851 c -49.1426,-2.7302 -86.9097,-6.8254 -128.7719,-13.6508 l -15.9259,-2.7301 11.3757,8.1904 c 23.6613,16.8359 68.7087,62.7933 82.3594,84.1796 22.2962,34.5818 31.3967,70.5287 30.9416,121.0364 0,48.6877 -5.9153,68.2537 -30.0316,102.8355 -37.767,53.693 -104.6555,80.0844 -178.8246,70.5289 z"
     id="path422"
     style="fill:#9614c8;fill-opacity:1;stroke-width:0.455025" /><path
     d="m 836.10477,8153.1022 c -57.30741,-35.5306 -199.42995,-80.2305 -297.9988,-93.9842 -61.31898,-8.5962 -71.63433,-11.4615 -71.63433,-17.7654 0,-2.8653 47.5652,-5.7307 108.31111,-6.8769 59.59977,-1.1461 110.60341,-3.4384 112.89572,-6.3038 5.15767,-5.1576 -17.76532,-29.2268 -108.31112,-114.0418 l -67.04973,-63.0382 -41.83445,21.7768 -41.26138,22.3499 h -71.63434 c -67.04973,0 -73.92663,-1.1461 -104.29958,-16.046 -50.43058,-24.6423 -87.10736,-61.3191 -111.74957,-111.1765 -18.33839,-37.25 -21.20377,-49.2845 -23.49606,-92.8381 -2.86538,-56.1614 6.87689,-100.8612 30.94603,-141.5495 20.05762,-34.3845 71.63433,-80.8035 109.45727,-98.5688 29.79988,-13.7538 39.54215,-15.4731 96.27654,-15.4731 59.59977,0 65.33051,1.1462 100.86114,18.3384 45.84598,22.923 97.42269,74.4998 117.48031,118.6265 32.66525,71.6343 28.65373,158.7417 -11.46149,230.9491 -14.89995,25.7883 -14.89995,25.7883 -4.01153,41.2614 6.30382,8.023 45.84598,49.2844 88.82658,91.6918 67.04975,67.0498 77.93812,75.646 81.94967,65.9037 2.29231,-5.7308 4.58461,-57.8805 4.58461,-115.188 0,-67.0497 2.29231,-104.8727 5.73072,-104.8727 3.4385,0 12.03457,27.5076 19.48453,61.8921 18.33843,84.2419 57.88056,202.8684 91.69197,273.9296 33.81142,71.0614 32.09217,79.0844 -13.75382,51.0037 z m -407.45606,-314.618 c 26.36144,-10.8884 58.45362,-40.6883 75.64586,-69.9151 28.08065,-47.5652 22.92298,-123.7841 -12.60764,-195.4184 -37.24985,-73.3536 -125.50336,-118.6265 -194.84539,-99.7151 -52.1498,13.7538 -100.86114,68.196 -108.88419,120.3457 -8.59612,57.3075 20.05761,151.2917 60.17284,197.1377 28.65373,32.6653 80.80353,55.5883 124.93028,55.5883 20.05761,0 44.69983,-3.4385 55.58824,-8.0231 z"
     id="path424"
     style="fill:#9614c8;fill-opacity:1;stroke-width:0.573075" /><path
     d="m 179.13441,3025.5053 c -5.97591,-5.5162 -3.2178,-23.9036 7.81466,-54.7025 11.95181,-32.6377 29.41985,-53.7831 62.5172,-76.7675 11.49214,-7.3549 21.14553,-14.2502 22.06489,-14.7099 0.91938,-0.9194 -11.03244,-13.7905 -26.66174,-28.9601 -18.38742,-18.3875 -32.63766,-38.6136 -42.29105,-59.2994 -13.33088,-28.0409 -14.70994,-34.9361 -14.70994,-77.2272 0,-61.1381 10.11308,-88.2596 50.10571,-130.5506 32.17797,-33.5571 63.43657,-53.7832 92.85643,-58.3801 20.68584,-3.2178 24.36332,-10.5727 24.36332,-48.2669 0,-17.0084 -0.45968,-17.9277 -14.70992,-17.9277 -21.14553,0 -72.63029,12.8712 -85.04179,20.6858 -5.51623,3.6774 -14.25025,6.8953 -19.76648,6.8953 -8.73401,0 -9.1937,-2.7581 -9.1937,-52.8639 0,-58.8396 1.37906,-61.1381 29.41986,-43.67 23.44396,14.2502 99.29203,30.3392 99.29203,21.1455 0,-17.0084 -11.95181,-79.0659 -18.84709,-96.9936 -15.16962,-39.9927 -16.54868,-39.0733 46.42822,-39.0733 34.93608,0 55.16224,1.8388 55.16224,4.5969 0,2.7581 -4.13717,12.8711 -9.19371,22.9842 -11.03245,21.6052 -22.98426,69.4125 -22.98426,93.3161 0,14.71 1.37905,17.0084 10.57275,17.0084 19.76647,-0.4597 71.25123,-13.3308 90.09833,-22.5246 32.17797,-16.5487 32.63766,-16.5487 32.63766,43.6701 v 53.3235 l -12.4115,-2.2984 c -7.35497,-1.379 -24.36332,-6.4356 -38.15389,-11.4922 -13.79056,-5.0565 -38.15388,-11.0324 -54.24286,-12.8711 l -28.96018,-3.2178 1.37905,31.2586 1.37906,31.2586 21.14552,5.0565 c 46.88791,11.9518 98.83236,55.1623 121.35694,101.1308 24.36332,50.1057 25.28269,120.4376 1.83874,171.0029 -5.97591,12.4115 -23.90365,35.8555 -39.53295,51.9445 -16.08898,16.089 -28.50049,29.4198 -28.0408,30.3392 0.91937,0.4597 9.65339,5.5163 19.76647,11.9518 42.75074,25.7425 62.5172,51.0251 80.90458,104.8083 10.57282,29.8796 10.11315,26.6617 2.29843,29.4198 -4.59678,1.8388 -11.03242,-4.5968 -18.84706,-18.3874 -43.21043,-73.0899 -127.33284,-109.4051 -227.54424,-96.9935 -61.13815,7.3549 -99.29204,31.7183 -135.60718,86.4208 -22.98426,34.4764 -22.06489,33.557 -26.66175,28.9601 z m 255.12537,-183.4144 c 26.66174,-8.734 55.16224,-33.557 71.7109,-60.6784 11.03245,-19.3068 12.41151,-25.7425 12.41151,-62.977 -0.45968,-45.5088 -7.35496,-64.8156 -34.93609,-96.0741 -31.71829,-36.3152 -98.83234,-53.3236 -151.69615,-38.154 -122.73599,35.8555 -120.43756,214.2134 3.67747,258.8029 23.90364,8.2743 73.08998,7.8146 98.83236,-0.9194 z"
     id="path426"
     style="fill:#9614c8;fill-opacity:1;stroke-width:0.459686" /><path
     d="m 9001.2618,2960.2354 c -65.6842,-15.6172 -115.7513,-61.5502 -137.799,-127.2343 -8.2679,-24.3445 -9.646,-37.6651 -8.2679,-71.6555 1.378,-37.2058 3.6746,-45.9331 18.8325,-76.7081 11.9426,-24.3445 24.8038,-41.7991 43.6364,-58.7943 28.4783,-25.7225 73.4926,-50.067 94.1625,-50.067 12.4019,0 12.4019,0 12.4019,-32.1531 v -32.153 h -19.2918 c -22.9665,0 -59.7129,9.1866 -80.3827,19.7512 -28.4785,14.6984 -28.9378,13.7798 -28.9378,-47.3111 0,-61.5501 1.378,-63.3875 29.3972,-46.3923 19.2917,11.9426 60.1721,23.4258 83.1386,23.4258 h 18.8325 l -3.6746,-37.2056 c -2.2967,-20.6698 -8.2679,-48.2297 -13.3206,-61.0909 -16.5359,-44.5551 -16.9952,-44.0957 46.3924,-44.0957 h 55.1196 v 11.0239 c 0,6.4307 -1.8374,12.4019 -4.134,14.2393 -7.3493,4.1339 -23.4258,58.3347 -26.6411,89.1099 l -2.7561,29.3971 31.6938,-3.2153 c 17.4546,-1.8373 44.0957,-8.2679 59.2536,-14.6985 51.9043,-22.0478 48.2296,-25.2632 48.2296,39.5023 0,64.3063 4.5933,60.1723 -47.7703,41.3397 -15.1579,-5.5119 -41.3397,-11.0239 -58.7943,-12.4018 l -31.2343,-2.756 v 25.2631 c 0,29.8565 5.0526,37.2058 32.1531,44.5551 47.3109,13.3205 106.5645,67.5214 124.4783,114.8324 15.158,39.043 16.9952,96.9187 4.5934,137.3397 -16.5359,54.2009 -59.2536,101.0526 -110.6986,120.8038 -31.2345,11.9426 -93.244,15.6172 -128.6123,7.3492 z m 129.0717,-63.8468 c 44.555,-26.1819 67.9808,-65.6842 68.4401,-114.8326 0,-86.354 -60.1723,-147.4448 -146.9856,-147.9042 -79.9234,-0.9187 -134.1242,44.555 -141.0143,118.0479 -4.5933,51.4449 16.0766,98.2965 58.7943,132.7463 26.6411,21.5885 46.8517,27.1004 95.9999,25.2632 38.1244,-0.9187 46.8517,-2.7561 64.7656,-13.3206 z"
     id="path428"
     style="fill:#9614c8;fill-opacity:1;stroke-width:0.45933" /><path
     d="m 4590.5846,493.70122 c -37.2069,-11.7973 -53.5416,-21.77964 -82.5812,-49.45793 -24.0483,-22.68711 -33.5769,-41.7443 -21.3259,-41.7443 2.7225,0 14.0661,8.16737 25.4096,18.1497 26.7708,23.5946 63.524,37.20688 101.6383,37.66062 24.9559,0.45374 34.9382,-1.81497 59.894,-14.06602 49.458,-24.50209 88.0261,-75.77498 98.4621,-132.03904 11.3436,-61.70897 1.815,-151.09622 -20.4184,-188.75684 -24.5021,-42.198051 -80.3124,-78.951179 -135.2152,-88.933515 -38.1144,-7.259875 -81.2199,2.268716 -106.6294,23.140861 -29.0396,24.048347 -38.5681,14.519759 -14.5198,-14.519751 19.5109,-23.594605 63.9777,-51.7266418 98.4621,-62.616459 44.4667,-13.612269 120.6955,-12.704788 166.9771,1.814971 104.8146,33.123196 177.4134,125.686643 186.4883,237.761023 9.5285,122.51045 -77.1363,244.56716 -196.0168,274.9679 -39.4756,9.98234 -127.5017,9.52859 -160.6248,-1.36122 z m 148.3738,-37.66062 c 48.0966,-17.69596 100.277,-66.24639 126.1404,-117.51929 14.5197,-28.13203 21.7796,-75.77499 17.6959,-115.25058 -10.8898,-112.52811 -81.6736,-192.840513 -183.7657,-207.814017 -27.6783,-3.629941 -37.2069,-3.629941 -41.2905,0.453745 -4.0837,4.083679 -3.63,5.444905 2.2687,5.444905 16.3347,0 64.8852,29.039517 87.5722,52.634123 48.5505,49.457924 72.1451,129.770334 62.1628,209.175254 -9.9824,78.95117 -41.7444,130.67782 -110.7132,179.22825 l -10.8898,8.16737 13.6123,-2.72246 c 7.7136,-1.81497 24.502,-6.80613 37.2069,-11.7973 z"
     id="path430"
     style="fill:#9614c8;fill-opacity:1;stroke-width:0.453742" /></g></svg>
