<svg xmlns="http://www.w3.org/2000/svg" xml:space="preserve" viewBox="0 0 512 512"><path d="M512 256A256 256 0 0 0 256 0 256 256 0 0 0 0 256a256 256 0 0 0 256 256 256 256 0 0 0 256-256m-51.924.045c0 7.47-2.848 14.942-8.543 20.637L305.758 422.459c-11.389 11.389-29.885 11.389-41.274 0s-11.388-29.885 0-41.273l96.121-96.03H81.08c-16.126 0-29.156-13.03-29.156-29.156s13.03-29.156 29.156-29.156h279.525l-96.029-96.03c-11.389-11.388-11.389-29.884 0-41.273s29.885-11.389 41.274 0l145.775 145.777-.092.09c5.695 5.695 8.543 13.166 8.543 20.637" style="fill:#ec008c;fill-opacity:1;stroke:none;stroke-width:64;stroke-miterlimit:10;paint-order:markers fill stroke"/></svg>
