<?xml version="1.0" encoding="UTF-8"?><svg version="1.1" viewBox="0 0 137 512" xmlns="http://www.w3.org/2000/svg"><path d="m0.53246 104.78c0.41833 1.4046 1.601 3.785 1.601 3.785l66.642 127.93s6.0564 11.967 6.0293 13.484c-0.02702 1.5171-6.0903 12.367-6.0903 12.367l-65.215 132.75s-2.8697 5.4211-3.1919 6.4636c-0.32222 1.0426-0.28515 2.4678-0.28515 2.4678l0.0035628 103.22s-0.41648 3.8103 2.0718 4.5512c3.072 0.91473 4.3191-1.6448 4.3191-1.6448l112.17-220.43s18.742-33.416 18.413-39.75c-0.32865-6.3335-17.469-36.793-17.469-36.793l-113.05-210.03s-2.2653-4.1109-4.4053-2.9431c-2.1401 1.1678-2.0054 4.0765-2.0054 4.0765l-0.046824 95.672s0.091499 3.4223 0.50983 4.8269z" fill="#fff"/></svg>
