<svg xmlns="http://www.w3.org/2000/svg" width="506.991" height="818.436"><defs><clipPath id="a" clipPathUnits="userSpaceOnUse"><path d="M0 613.827h380.243V0H0Z"/></clipPath><clipPath id="b" clipPathUnits="userSpaceOnUse"><path d="M-257.48 377.036h380.243v-613.827H-257.48Z"/></clipPath><clipPath id="c" clipPathUnits="userSpaceOnUse"><path d="M-202.66 377.036h380.244v-613.827H-202.66Z"/></clipPath><clipPath id="d" clipPathUnits="userSpaceOnUse"><path d="M-257.48 389.795h380.243v-613.827H-257.48Z"/></clipPath><clipPath id="e" clipPathUnits="userSpaceOnUse"><path d="M-189.9 389.795h380.243v-613.827H-189.9Z"/></clipPath><clipPath id="f" clipPathUnits="userSpaceOnUse"><path d="M-179.357 400.339h380.243v-613.827h-380.243Z"/></clipPath><clipPath id="g" clipPathUnits="userSpaceOnUse"><path d="M-257.48 400.339h380.243v-613.827H-257.48Z"/></clipPath><clipPath id="h" clipPathUnits="userSpaceOnUse"><path d="M-257.48 413.998h380.243v-613.827H-257.48Z"/></clipPath><clipPath id="i" clipPathUnits="userSpaceOnUse"><path d="M-165.698 413.998h380.243v-613.827h-380.243Z"/></clipPath><clipPath id="j" clipPathUnits="userSpaceOnUse"><path d="M-158.75 420.946h380.244V-192.88H-158.75Z"/></clipPath><clipPath id="k" clipPathUnits="userSpaceOnUse"><path d="M-257.48 420.946h380.243V-192.88H-257.48Z"/></clipPath><clipPath id="l" clipPathUnits="userSpaceOnUse"><path d="M-149.623 430.073H230.62v-613.827h-380.243Z"/></clipPath><clipPath id="m" clipPathUnits="userSpaceOnUse"><path d="M-257.48 430.073h380.243v-613.827H-257.48Z"/></clipPath><clipPath id="n" clipPathUnits="userSpaceOnUse"><path d="M-257.48 443.285h380.243v-613.827H-257.48Z"/></clipPath><clipPath id="o" clipPathUnits="userSpaceOnUse"><path d="M-136.41 443.285h380.242v-613.827H-136.41Z"/></clipPath><clipPath id="p" clipPathUnits="userSpaceOnUse"><path d="M-129.946 451.772h380.243v-613.827h-380.243Z"/></clipPath><clipPath id="q" clipPathUnits="userSpaceOnUse"><path d="M-257.48 451.772h380.243v-613.827H-257.48Z"/></clipPath><clipPath id="r" clipPathUnits="userSpaceOnUse"><path d="M-129.91 461.769h380.243v-613.827H-129.91Z"/></clipPath><clipPath id="s" clipPathUnits="userSpaceOnUse"><path d="M-257.48 461.769h380.243v-613.827H-257.48Z"/></clipPath><clipPath id="t" clipPathUnits="userSpaceOnUse"><path d="M-257.48 468.04h380.243v-613.828H-257.48Z"/></clipPath><clipPath id="u" clipPathUnits="userSpaceOnUse"><path d="M-129.843 480.593H250.4v-613.827h-380.243Z"/></clipPath><clipPath id="v" clipPathUnits="userSpaceOnUse"><path d="M-177.985 134.254h380.243v-613.827h-380.243Z"/></clipPath><clipPath id="w" clipPathUnits="userSpaceOnUse"><path d="M-124.843 89.662H255.4v-613.827h-380.243Z"/></clipPath><clipPath id="x" clipPathUnits="userSpaceOnUse"><path d="M-134.241 180.201h380.243v-613.827h-380.243Z"/></clipPath><clipPath id="y" clipPathUnits="userSpaceOnUse"><path d="M-92.52 118.854h380.243v-613.827H-92.52Z"/></clipPath><clipPath id="z" clipPathUnits="userSpaceOnUse"><path d="M-161.286 62.65h380.243v-613.827h-380.243Z"/></clipPath><clipPath id="A" clipPathUnits="userSpaceOnUse"><path d="M-223.924 136.754H156.32v-613.827h-380.243Z"/></clipPath><clipPath id="B" clipPathUnits="userSpaceOnUse"><path d="M-177.971 87.785h380.243v-613.827h-380.243Z"/></clipPath><clipPath id="C" clipPathUnits="userSpaceOnUse"><path d="M-221.394 216.555h380.243v-613.827h-380.243Z"/></clipPath><clipPath id="D" clipPathUnits="userSpaceOnUse"><path d="M0 613.827h380.243V0H0Z"/></clipPath><clipPath id="E" clipPathUnits="userSpaceOnUse"><path d="M-157.612 319.319h380.243v-613.827h-380.243Z"/></clipPath><clipPath id="F" clipPathUnits="userSpaceOnUse"><path d="M-175.797 256.635h380.243v-613.827h-380.243Z"/></clipPath><clipPath id="G" clipPathUnits="userSpaceOnUse"><path d="M-146.523 413.524H233.72v-613.827h-380.243Z"/></clipPath><clipPath id="H" clipPathUnits="userSpaceOnUse"><path d="M-153.374 139.484H226.87v-613.827h-380.243Z"/></clipPath><clipPath id="I" clipPathUnits="userSpaceOnUse"><path d="M-79.575 328.096h380.243V-285.73H-79.575Z"/></clipPath><clipPath id="J" clipPathUnits="userSpaceOnUse"><path d="M-104.655 355.936h380.243V-257.89h-380.243Z"/></clipPath><clipPath id="K" clipPathUnits="userSpaceOnUse"><path d="M-143.705 416.343h380.243v-613.827h-380.243Z"/></clipPath><clipPath id="L" clipPathUnits="userSpaceOnUse"><path d="M-79.575 208.854h380.243v-613.827H-79.575Z"/></clipPath><clipPath id="M" clipPathUnits="userSpaceOnUse"><path d="M-106.031 480.996h380.243V-132.83h-380.243Z"/></clipPath><clipPath id="N" clipPathUnits="userSpaceOnUse"><path d="M-100.26 414.07h380.243v-613.827H-100.26Z"/></clipPath><clipPath id="O" clipPathUnits="userSpaceOnUse"><path d="M-79.575 463.738h380.243V-150.09H-79.575Z"/></clipPath><clipPath id="P" clipPathUnits="userSpaceOnUse"><path d="M-167.353 192.264H212.89v-613.827h-380.243Z"/></clipPath><clipPath id="Q" clipPathUnits="userSpaceOnUse"><path d="M-180.741 175.471h380.243v-613.827h-380.243Z"/></clipPath><clipPath id="R" clipPathUnits="userSpaceOnUse"><path d="M-122.358 404.338h380.243V-209.49h-380.243Z"/></clipPath><clipPath id="S" clipPathUnits="userSpaceOnUse"><path d="M-191.877 332.173h380.243v-613.827h-380.244Z"/></clipPath><clipPath id="T" clipPathUnits="userSpaceOnUse"><path d="M-296.434 60.302H83.81v-613.827h-380.243Z"/></clipPath><clipPath id="U" clipPathUnits="userSpaceOnUse"><path d="M-267.6 134.136h380.244v-613.827H-267.6Z"/></clipPath><clipPath id="V" clipPathUnits="userSpaceOnUse"><path d="M-277.35 153.983h380.242v-613.827H-277.35Z"/></clipPath><clipPath id="W" clipPathUnits="userSpaceOnUse"><path d="M-277.35 202.052h380.243v-613.827H-277.35Z"/></clipPath><clipPath id="X" clipPathUnits="userSpaceOnUse"><path d="M-267.6 280.568h380.244V-333.26H-267.6Z"/></clipPath><clipPath id="Y" clipPathUnits="userSpaceOnUse"><path d="M-267.6 321.493h380.244v-613.827H-267.6Z"/></clipPath><clipPath id="Z" clipPathUnits="userSpaceOnUse"><path d="M-277.35 341.34h380.242v-613.827H-277.35Z"/></clipPath><clipPath id="aa" clipPathUnits="userSpaceOnUse"><path d="M-267.6 421.085h380.244v-613.827H-267.6Z"/></clipPath><clipPath id="ab" clipPathUnits="userSpaceOnUse"><path d="M-267.6 467.925h380.244v-613.827H-267.6Z"/></clipPath><clipPath id="ac" clipPathUnits="userSpaceOnUse"><path d="M-267.6 508.85h380.244v-613.828H-267.6Z"/></clipPath><clipPath id="ad" clipPathUnits="userSpaceOnUse"><path d="M-267.6 561.603h380.244V-52.224H-267.6Z"/></clipPath><clipPath id="ae" clipPathUnits="userSpaceOnUse"><path d="M0 613.827h380.243V0H0Z"/></clipPath><clipPath id="af" clipPathUnits="userSpaceOnUse"><path d="M-323.876 401.5H56.367v-613.827h-380.243Z"/></clipPath><clipPath id="ag" clipPathUnits="userSpaceOnUse"><path d="M-93.612 571.215h380.243V-42.612H-93.612Z"/></clipPath><clipPath id="ah" clipPathUnits="userSpaceOnUse"><path d="M-112.198 571.215h380.243V-42.612h-380.243Z"/></clipPath><clipPath id="ai" clipPathUnits="userSpaceOnUse"><path d="M-167.956 571.215h380.243V-42.612h-380.243Z"/></clipPath><clipPath id="aj" clipPathUnits="userSpaceOnUse"><path d="M-149.37 571.215h380.243V-42.612H-149.37Z"/></clipPath><clipPath id="ak" clipPathUnits="userSpaceOnUse"><path d="M-130.784 571.215h380.243V-42.612h-380.243Z"/></clipPath><clipPath id="al" clipPathUnits="userSpaceOnUse"><path d="M-64.575 438.226h380.243v-613.827H-64.575Z"/></clipPath><clipPath id="am" clipPathUnits="userSpaceOnUse"><path d="M-257.48 124.448h380.243v-613.827H-257.48Z"/></clipPath><clipPath id="an" clipPathUnits="userSpaceOnUse"><path d="M-153.917 459.72h380.243v-613.827h-380.243Z"/></clipPath><clipPath id="ao" clipPathUnits="userSpaceOnUse"><path d="M0 613.827h380.243V0H0Z"/></clipPath><clipPath id="ap" clipPathUnits="userSpaceOnUse"><path d="M-257.264 103.254H122.98v-613.827h-380.243Z"/></clipPath><clipPath id="aq" clipPathUnits="userSpaceOnUse"><path d="M-194.329 65.004h380.243v-613.827h-380.243Z"/></clipPath><clipPath id="ar" clipPathUnits="userSpaceOnUse"><path d="M-194.329 103.254h380.243v-613.827h-380.243Z"/></clipPath><clipPath id="as" clipPathUnits="userSpaceOnUse"><path d="M-230.797 52.661h380.243v-613.827h-380.243Z"/></clipPath><clipPath id="at" clipPathUnits="userSpaceOnUse"><path d="M-214.731 67.407h380.243V-546.42h-380.243Z"/></clipPath><clipPath id="au" clipPathUnits="userSpaceOnUse"><path d="M0 613.827h380.243V0H0Z"/></clipPath><clipPath id="av" clipPathUnits="userSpaceOnUse"><path d="M0 613.827h380.243V0H0Z"/></clipPath><clipPath id="aw" clipPathUnits="userSpaceOnUse"><path d="M0 613.827h380.243V0H0Z"/></clipPath><clipPath id="ax" clipPathUnits="userSpaceOnUse"><path d="M0 613.827h380.243V0H0Z"/></clipPath><clipPath id="ay" clipPathUnits="userSpaceOnUse"><path d="M0 613.827h380.243V0H0Z"/></clipPath><clipPath id="az" clipPathUnits="userSpaceOnUse"><path d="M0 613.827h380.243V0H0Z"/></clipPath><clipPath id="aA" clipPathUnits="userSpaceOnUse"><path d="M0 613.827h380.243V0H0Z"/></clipPath><clipPath id="aB" clipPathUnits="userSpaceOnUse"><path d="M0 613.827h380.243V0H0Z"/></clipPath><clipPath id="aC" clipPathUnits="userSpaceOnUse"><path d="M0 613.827h380.243V0H0Z"/></clipPath><clipPath id="aD" clipPathUnits="userSpaceOnUse"><path d="M0 613.827h380.243V0H0Z"/></clipPath><clipPath id="aE" clipPathUnits="userSpaceOnUse"><path d="M-204.255 526.277h380.243V-87.55h-380.243Z"/></clipPath><clipPath id="aF" clipPathUnits="userSpaceOnUse"><path d="M-227.89 544.412h380.244V-69.415H-227.89Z"/></clipPath><clipPath id="aG" clipPathUnits="userSpaceOnUse"><path d="M-227.89 519.052h380.244V-94.775H-227.89Z"/></clipPath><clipPath id="aH" clipPathUnits="userSpaceOnUse"><path d="M-254.481 523.246h380.243V-90.581h-380.243Z"/></clipPath></defs><path d="M349.022 265.512h-4.194v147.123h4.194zm2.806 104.509h4.194V222.898h-4.194zM330.72 547.068v-22.065c5.882-4.036 9.706-10.519 9.706-17.818v-24.417h4.402v-6h-4.402v-4.265h4.402v-6h-4.402v-4.264h4.402v-6h-4.402v-4.265h4.402v-6h-4.402V209.148c0-7.299-3.824-13.783-9.706-17.818v-22.065c17.257 5.665 29.706 21.398 29.706 39.883v188.398l-4.404 4.403v87.07l4.404 4.404v13.762c0 18.485-12.449 34.217-29.706 39.883" clip-path="url(#a)" style="fill:#ec008c;fill-opacity:1;fill-rule:nonzero;stroke:none" transform="matrix(1.33333 0 0 -1.33333 0 818.436)"/><path d="M0 0h-15.223l-3.336-3.336.001-.001-3.18-3.179H0Z" clip-path="url(#b)" style="fill:#ec008c;fill-opacity:1;fill-rule:nonzero;stroke:none" transform="matrix(1.33333 0 0 -1.33333 343.306 502.715)"/><path d="M0 0h-14.013l-6.516-6.516h14.013z" clip-path="url(#c)" style="fill:#ec008c;fill-opacity:1;fill-rule:nonzero;stroke:none" transform="matrix(1.33333 0 0 -1.33333 270.213 502.715)"/><path d="M0 0h-27.98l-5.385-5.385H0Z" clip-path="url(#d)" style="fill:#ec008c;fill-opacity:1;fill-rule:nonzero;stroke:none" transform="matrix(1.33333 0 0 -1.33333 343.306 519.727)"/><path d="M0 0h-14.013l-5.385-5.385h14.013z" clip-path="url(#e)" style="fill:#ec008c;fill-opacity:1;fill-rule:nonzero;stroke:none" transform="matrix(1.33333 0 0 -1.33333 253.2 519.727)"/><path d="M0 0h-14.013l-6.976-6.976h14.013z" clip-path="url(#f)" style="fill:#ec008c;fill-opacity:1;fill-rule:nonzero;stroke:none" transform="matrix(1.33333 0 0 -1.33333 239.142 533.785)"/><path d="M0 0h-38.524l-4.887-4.887-.001.001-2.089-2.09H0Z" clip-path="url(#g)" style="fill:#ec008c;fill-opacity:1;fill-rule:nonzero;stroke:none" transform="matrix(1.33333 0 0 -1.33333 343.306 533.785)"/><path d="M0 0h-52.185l-3.549-3.549H0Z" clip-path="url(#h)" style="fill:#ec008c;fill-opacity:1;fill-rule:nonzero;stroke:none" transform="matrix(1.33333 0 0 -1.33333 343.306 551.997)"/><path d="M0 0h-14.013l-3.549-3.549h14.014z" clip-path="url(#i)" style="fill:#ec008c;fill-opacity:1;fill-rule:nonzero;stroke:none" transform="matrix(1.33333 0 0 -1.33333 220.93 551.997)"/><path d="M0 0h-14.013l-4.661-4.661h14.013z" clip-path="url(#j)" style="fill:#ec008c;fill-opacity:1;fill-rule:nonzero;stroke:none" transform="matrix(1.33333 0 0 -1.33333 211.666 561.262)"/><path d="M0 0h-59.133l-4.661-4.661H0Z" clip-path="url(#k)" style="fill:#ec008c;fill-opacity:1;fill-rule:nonzero;stroke:none" transform="matrix(1.33333 0 0 -1.33333 343.306 561.262)"/><path d="M0 0h-14.013l-6.747-6.747h14.013Z" clip-path="url(#l)" style="fill:#ec008c;fill-opacity:1;fill-rule:nonzero;stroke:none" transform="matrix(1.33333 0 0 -1.33333 199.497 573.43)"/><path d="M0 0h-68.26l-6.747-6.747H0Z" clip-path="url(#m)" style="fill:#ec008c;fill-opacity:1;fill-rule:nonzero;stroke:none" transform="matrix(1.33333 0 0 -1.33333 343.306 573.43)"/><path d="M0 0h-81.471l-4.334-4.334H0Z" clip-path="url(#n)" style="fill:#ec008c;fill-opacity:1;fill-rule:nonzero;stroke:none" transform="matrix(1.33333 0 0 -1.33333 343.306 591.047)"/><path d="M0 0h-14.013l-.905-.905v-3.429h10.584z" clip-path="url(#o)" style="fill:#ec008c;fill-opacity:1;fill-rule:nonzero;stroke:none" transform="matrix(1.33333 0 0 -1.33333 181.881 591.047)"/><path d="M0 0h-8.453v-5.105h8.435z" clip-path="url(#p)" style="fill:#ec008c;fill-opacity:1;fill-rule:nonzero;stroke:none" transform="matrix(1.33333 0 0 -1.33333 173.26 602.363)"/><path d="M0 0h-89.958l-5.105-5.105H0Z" clip-path="url(#q)" style="fill:#ec008c;fill-opacity:1;fill-rule:nonzero;stroke:none" transform="matrix(1.33333 0 0 -1.33333 343.306 602.363)"/><path d="M0 0h-8.418v-3.202h8.407z" clip-path="url(#r)" style="fill:#ec008c;fill-opacity:1;fill-rule:nonzero;stroke:none" transform="matrix(1.33333 0 0 -1.33333 173.213 615.692)"/><path d="M0 0h-99.569l-.012-3.202H0Z" clip-path="url(#s)" style="fill:#ec008c;fill-opacity:1;fill-rule:nonzero;stroke:none" transform="matrix(1.33333 0 0 -1.33333 343.306 615.692)"/><path d="M0 0h-99.592l-.044-12.554H0Z" clip-path="url(#t)" style="fill:#ec008c;fill-opacity:1;fill-rule:nonzero;stroke:none" transform="matrix(1.33333 0 0 -1.33333 343.306 624.052)"/><path d="m0 0 .045 12.554h-8.396v-1.076l2.445-2.445V0Z" clip-path="url(#u)" style="fill:#ec008c;fill-opacity:1;fill-rule:nonzero;stroke:none" transform="matrix(1.33333 0 0 -1.33333 173.124 640.79)"/><path d="M0 0h36.666c1.026 2.83 3.733 4.86 6.913 4.86 4.058 0 7.36-3.301 7.36-7.36 0-4.058-3.302-7.359-7.36-7.359-3.179 0-5.887 2.03-6.913 4.859H22.844v-21.703l20.705-20.705v-27.98c2.83-1.027 4.86-3.734 4.86-6.914 0-4.057-3.301-7.359-7.36-7.359-4.058 0-7.359 3.302-7.359 7.359 0 3.18 2.03 5.887 4.859 6.914v25.909L17.844-28.773V-5H2.554q.608-1.243 1.194-2.5h11.596v-22.31l20.705-20.705v-23.303c-2.903-1.718-4.859-4.873-4.859-8.484 0-5.436 4.423-9.859 9.859-9.859 5.438 0 9.86 4.423 9.86 9.859 0 3.612-1.956 6.766-4.86 8.484v27.446L25.344-25.667V-7.5h9.752c1.718-2.903 4.872-4.859 8.483-4.859 5.437 0 9.86 4.422 9.86 9.859s-4.423 9.86-9.86 9.86c-3.611 0-6.766-1.957-8.484-4.86h-36.47Q-.675 1.258 0 0" clip-path="url(#v)" style="fill:#ec008c;fill-opacity:1;fill-rule:nonzero;stroke:none" transform="matrix(1.33333 0 0 -1.33333 237.313 179.005)"/><path d="M0 0v-33.136l-13.437-13.436h-11.526v8.896c2.904 1.717 4.86 4.872 4.86 8.484 0 5.436-4.422 9.859-9.86 9.859-5.436 0-9.859-4.423-9.859-9.859 0-3.611 1.956-6.766 4.859-8.484v-21.415l12.29-12.29v-12.926l13.849-13.848-17.005-17.005v-16.991l2.5-2.5v18.455l18.041 18.041-14.885 14.884v12.926l-12.29 12.29v21.949c-2.829 1.027-4.859 3.734-4.859 6.914 0 4.057 3.301 7.359 7.359 7.359 4.059 0 7.36-3.302 7.36-7.359 0-3.18-2.03-5.888-4.86-6.914v-12.966H-12.4l14.9 14.9v33.136l24.927 24.928a7.3 7.3 0 0 0-.703 3.12c0 4.058 3.301 7.36 7.359 7.36 4.059 0 7.36-3.302 7.36-7.36s-3.301-7.359-7.36-7.359a7.3 7.3 0 0 0-3.12.704l-4.406-4.406L38.13 4.377h5.726c1.026 2.829 3.733 4.86 6.913 4.86 4.058 0 7.36-3.302 7.36-7.36s-3.302-7.359-7.36-7.359c-3.179 0-5.887 2.03-6.913 4.859H36.06L23.022 12.415 7.5-3.107v-33.135l-17.83-17.83h-17.133v-1.912l12.29-12.29V-81.2l13.421-13.42 6.15 6.151v18.656l20.148 20.147v3.536L1.898-68.776v-18.657l-3.651-3.651-10.92 10.92v12.926l-10.666 10.666h14.045L10-37.278v33.135L23.022 8.88 35.023-3.123h7.263c1.718-2.903 4.872-4.859 8.483-4.859 5.437 0 9.86 4.422 9.86 9.859 0 5.436-4.423 9.86-9.86 9.86-3.611 0-6.765-1.957-8.483-4.86h-3.12l-9.074 9.074 1.527 1.526a9.8 9.8 0 0 1 2.464-.324c5.437 0 9.86 4.423 9.86 9.859 0 5.437-4.423 9.86-9.86 9.86s-9.859-4.423-9.859-9.86c0-.852.12-1.675.324-2.464z" clip-path="url(#w)" style="fill:#ec008c;fill-opacity:1;fill-rule:nonzero;stroke:none" transform="matrix(1.33333 0 0 -1.33333 166.457 119.55)"/><path d="m0 0-27.728-27.728v-21.384l2.5-2.5v22.848L2.5-1.036V17.62l12.647 12.647v3.536L0 18.656Z" clip-path="url(#x)" style="fill:#ec008c;fill-opacity:1;fill-rule:nonzero;stroke:none" transform="matrix(1.33333 0 0 -1.33333 178.988 240.268)"/><path d="M0 0a2.36 2.36 0 0 1 2.359-2.36A2.363 2.363 0 0 1 4.72 0a2.36 2.36 0 0 1-2.361 2.359A2.36 2.36 0 0 1 0 0" clip-path="url(#y)" style="fill:#ec008c;fill-opacity:1;fill-rule:nonzero;stroke:none" transform="matrix(1.33333 0 0 -1.33333 123.36 158.472)"/><path d="M0 0a2.363 2.363 0 0 1-2.36 2.36A2.363 2.363 0 0 1-4.72 0a2.36 2.36 0 0 1 2.36-2.359A2.36 2.36 0 0 1 0 0" clip-path="url(#z)" style="fill:#ec008c;fill-opacity:1;fill-rule:nonzero;stroke:none" transform="matrix(1.33333 0 0 -1.33333 215.048 83.533)"/><path d="M0 0a2.36 2.36 0 0 1-2.359 2.36A2.363 2.363 0 0 1-4.72 0a2.36 2.36 0 0 1 2.361-2.359C-1.059-2.359 0-1.301 0 0" clip-path="url(#A)" style="fill:#ec008c;fill-opacity:1;fill-rule:nonzero;stroke:none" transform="matrix(1.33333 0 0 -1.33333 298.565 182.338)"/><path d="M0 0a2.363 2.363 0 0 1-2.36 2.36A2.363 2.363 0 0 1-4.72 0a2.36 2.36 0 0 1 2.36-2.359A2.36 2.36 0 0 1 0 0" clip-path="url(#B)" style="fill:#ec008c;fill-opacity:1;fill-rule:nonzero;stroke:none" transform="matrix(1.33333 0 0 -1.33333 237.295 117.047)"/><path d="M0 0a2.36 2.36 0 0 1-2.36 2.36A2.36 2.36 0 0 1-4.72 0a2.36 2.36 0 0 1 2.36-2.359A2.36 2.36 0 0 1 0 0" clip-path="url(#C)" style="fill:#ec008c;fill-opacity:1;fill-rule:nonzero;stroke:none" transform="matrix(1.33333 0 0 -1.33333 295.192 288.74)"/><path d="M35.414 140.41H31.22v161.772h4.194zm-7 46.858H24.22V349.04h4.194zm-8.597 156.818V174.392l4.403-4.403v-59.157l-4.403-4.403V62.933c0-17.706 12.474-32.771 29.758-38.177v21.791c-5.911 3.701-9.758 9.667-9.758 16.386v281.153c0 6.719 3.847 12.684 9.758 16.386v21.791c-17.284-5.407-29.758-20.472-29.758-38.177" clip-path="url(#D)" style="fill:#ec008c;fill-opacity:1;fill-rule:nonzero;stroke:none" transform="matrix(1.33333 0 0 -1.33333 0 818.436)"/><path d="m0 0 9.561-9.561v-13.58h9.187l7.403 7.402a6.35 6.35 0 0 0-.695 2.885 6.406 6.406 0 0 0 6.398 6.398 6.406 6.406 0 0 0 6.397-6.398 6.405 6.405 0 0 0-6.397-6.397 6.35 6.35 0 0 0-2.885.695l-8.57-8.57H9.561v-10.01h20.794L67.49 0Z" clip-path="url(#E)" style="fill:#ec008c;fill-opacity:1;fill-rule:nonzero;stroke:none" transform="matrix(1.33333 0 0 -1.33333 210.149 425.758)"/><path d="m0 0-19.582 19.582V-9.615l-12.302-12.312L4.888-58.699h9.847L32.454-40.98v36.994L0-36.439Z" clip-path="url(#F)" style="fill:#ec008c;fill-opacity:1;fill-rule:nonzero;stroke:none" transform="matrix(1.33333 0 0 -1.33333 234.396 342.18)"/><path d="m0 0 53.084 53.084H19.482L-5.021 28.581h-10.652l12.722-12.732V2.944Z" clip-path="url(#G)" style="fill:#ec008c;fill-opacity:1;fill-rule:nonzero;stroke:none" transform="matrix(1.33333 0 0 -1.33333 195.364 551.365)"/><path d="M0 0v-68.783l-15.097 15.098c-1.629 1.632-3.698 1.595-5.095 1.019a4.8 4.8 0 0 1-2.12-1.747l13.159-13.159v-7.775l-13.93 13.93v-4.9l13.93-13.93v-13.096l-13.93 13.929v-5.633l13.93-13.93v-7.774l-13.93 13.929v-32.634l10.804-10.803 11.135 11.144v37.167l27.552-27.553v-28.469l11.533 11.533v23.77L21.733-92.46v31.519l-2.456 2.458a6.35 6.35 0 0 0-2.885-.696 6.405 6.405 0 0 0-6.398 6.398 6.405 6.405 0 0 0 6.398 6.398 6.405 6.405 0 0 0 6.397-6.398 6.35 6.35 0 0 0-.695-2.885l3.625-3.625V-90.81l12.222-12.222v39.5c0 18.636-3.614 36.808-10.741 54.015C20.697 6.183 11.559 20.382 0 32.757V5.635l17.203-17.202v-13.852l4.867-4.867a6.35 6.35 0 0 0 2.885.695 6.405 6.405 0 0 0 6.398-6.397 6.405 6.405 0 0 0-6.398-6.398 6.405 6.405 0 0 0-6.398 6.398c0 1.039.254 2.017.695 2.885l-6.035 6.034v13.852z" clip-path="url(#H)" style="fill:#ec008c;fill-opacity:1;fill-rule:nonzero;stroke:none" transform="matrix(1.33333 0 0 -1.33333 204.498 185.978)"/><path d="M0 0c.141-.004.28-.021.421-.021 4.084 0 7.921 1.591 10.804 4.479l20.441 20.43h30.261l12.124-12.125h21.424L48.723 59.514.422 11.212 0 11.634Z" clip-path="url(#I)" style="fill:#ec008c;fill-opacity:1;fill-rule:nonzero;stroke:none" transform="matrix(1.33333 0 0 -1.33333 106.1 437.462)"/><path d="M0 0v18.523h3.985V4.81l21.531 21.53 18.07-18.069L28.5-6.828H0Zm-25.08-10.957c4.901.11 9.838-1.683 13.569-5.408l8.657-8.657h38.051l2.758 2.758-5.103 5.103 2.818 2.818 5.103-5.103 1.034 1.035-5.102 5.102 2.818 2.818 5.102-5.103 1.035 1.035-5.103 5.103 2.817 2.818 5.103-5.103 1.036 1.035-5.103 5.103 2.817 2.818 5.103-5.103 1.035 1.034-5.103 5.103 2.818 2.817 5.102-5.102 2.351 2.35v27.092L35.197 48.742H8.236L-11.036 29.48a19.13 19.13 0 0 0-13.623-5.646c-.141 0-.28.018-.421.02z" clip-path="url(#J)" style="fill:#ec008c;fill-opacity:1;fill-rule:nonzero;stroke:none" transform="matrix(1.33333 0 0 -1.33333 139.54 474.581)"/><path d="m0 0-4.117 4.109v12.909L-18.49 31.4h-12.126l-12.828-12.82V7.908l6.385-6.386 7.598 7.599a6.34 6.34 0 0 0-.695 2.884 6.405 6.405 0 0 0 6.397 6.397 6.405 6.405 0 0 0 6.398-6.397 6.405 6.405 0 0 0-6.398-6.398 6.35 6.35 0 0 0-2.885.695l-7.598-7.597 4.32-4.321V-17.75l6.091-6.083z" clip-path="url(#K)" style="fill:#ec008c;fill-opacity:1;fill-rule:nonzero;stroke:none" transform="matrix(1.33333 0 0 -1.33333 191.606 555.124)"/><path d="M0 0v-101.974l.422-.422 5.812 5.813v19.661h3.985v-15.676l3.995 3.995v19.673h3.985v-15.688l3.995 3.995v19.685h3.985v-15.7l3.995 3.995v19.698h3.985v-15.713l3.995 3.995v19.709h3.985v-15.723l4.592 4.591v25.759l-13.117 13.11V-32.77L.422.422Z" clip-path="url(#L)" style="fill:#ec008c;fill-opacity:1;fill-rule:nonzero;stroke:none" transform="matrix(1.33333 0 0 -1.33333 106.1 278.471)"/><path d="M0 0h-13.469L0 13.468Zm13.92 7.786L-7.763 29.471l-18.271-18.27-.422.422v-57.015l.422-.422L13.92-5.86z" clip-path="url(#M)" style="fill:#ec008c;fill-opacity:1;fill-rule:nonzero;stroke:none" transform="matrix(1.33333 0 0 -1.33333 141.375 641.328)"/><path d="M0 0v-33.812L17.247-51.06v21.686l-7.709 7.699v12.137z" clip-path="url(#N)" style="fill:#ec008c;fill-opacity:1;fill-rule:nonzero;stroke:none" transform="matrix(1.33333 0 0 -1.33333 133.68 552.093)"/><path d="m0 0 .422-.422L16.7 15.856v51.771l11.176 11.168h-7.3l-9.823 9.823C7.798 91.567 3.881 92.972 0 92.861Z" clip-path="url(#O)" style="fill:#ec008c;fill-opacity:1;fill-rule:nonzero;stroke:none" transform="matrix(1.33333 0 0 -1.33333 106.1 618.317)"/><path d="M0 0a2.416 2.416 0 0 1 2.413-2.413A2.416 2.416 0 0 1 4.825 0a2.416 2.416 0 0 1-2.412 2.413A2.416 2.416 0 0 1 0 0" clip-path="url(#P)" style="fill:#ec008c;fill-opacity:1;fill-rule:nonzero;stroke:none" transform="matrix(1.33333 0 0 -1.33333 223.137 256.353)"/><path d="M0 0a2.416 2.416 0 0 1-2.413 2.412A2.416 2.416 0 0 1-4.826 0a2.416 2.416 0 0 1 2.413-2.413A2.416 2.416 0 0 1 0 0" clip-path="url(#Q)" style="fill:#ec008c;fill-opacity:1;fill-rule:nonzero;stroke:none" transform="matrix(1.33333 0 0 -1.33333 240.988 233.962)"/><path d="M0 0a2.416 2.416 0 0 1-2.413 2.412A2.415 2.415 0 0 1-4.825 0a2.416 2.416 0 0 1 2.412-2.413A2.416 2.416 0 0 1 0 0" clip-path="url(#R)" style="fill:#ec008c;fill-opacity:1;fill-rule:nonzero;stroke:none" transform="matrix(1.33333 0 0 -1.33333 163.145 539.117)"/><path d="M0 0a2.416 2.416 0 0 1-2.412 2.413A2.416 2.416 0 0 1-4.825 0a2.416 2.416 0 0 1 2.413-2.412A2.415 2.415 0 0 1 0 0" clip-path="url(#S)" style="fill:#ec008c;fill-opacity:1;fill-rule:nonzero;stroke:none" transform="matrix(1.33333 0 0 -1.33333 255.837 442.898)"/><path d="M0 0v8.077h-28.835v-40.971H0v8.077h-18.04v8.663h10.33v7.492h-10.33V0Z" clip-path="url(#T)" style="fill:#ec008c;fill-opacity:1;fill-rule:nonzero;stroke:none" transform="matrix(1.33333 0 0 -1.33333 395.245 80.402)"/><path d="m0 0 7.035-5.914H21.8L28.835 0v35.072h-9.751V3.395l-1.462-1.229h-6.408L9.751 3.395v31.677H0Z" clip-path="url(#U)" style="fill:#ec008c;fill-opacity:1;fill-rule:nonzero;stroke:none" transform="matrix(1.33333 0 0 -1.33333 356.799 178.848)"/><path d="M0 0h7.87l1.463-1.23v-5.328L6.826-8.666H0Zm-9.751-32.906H0v13.818l9.333-7.846v-5.972h9.75v9.368l-9.472 7.963h2.438l7.034 5.914V2.166L12.049 8.08h-21.8z" clip-path="url(#V)" style="fill:#ec008c;fill-opacity:1;fill-rule:nonzero;stroke:none" transform="matrix(1.33333 0 0 -1.33333 369.8 205.311)"/><path d="m0 0 1.463 1.23h6.408L9.333 0v-22.367l-1.462-1.229H1.463L0-22.367Zm-9.751-25.762 7.034-5.914H12.05l7.034 5.914V3.396L12.05 9.31H-2.717l-7.034-5.914Z" clip-path="url(#W)" style="fill:#ec008c;fill-opacity:1;fill-rule:nonzero;stroke:none" transform="matrix(1.33333 0 0 -1.33333 369.8 269.403)"/><path d="M0 0h11.091v16.746h9.821v7.494h-9.821v8.666h17.744v8.08H0Z" clip-path="url(#X)" style="fill:#ec008c;fill-opacity:1;fill-rule:nonzero;stroke:none" transform="matrix(1.33333 0 0 -1.33333 356.799 374.09)"/><path d="m0 0 7.035-5.914H21.8L28.835 0v35.072h-9.751V3.395l-1.462-1.229h-6.408L9.751 3.395v31.677H0Z" clip-path="url(#Y)" style="fill:#ec008c;fill-opacity:1;fill-rule:nonzero;stroke:none" transform="matrix(1.33333 0 0 -1.33333 356.799 428.657)"/><path d="M0 0h7.87l1.463-1.23v-5.328L6.826-8.666H0Zm-9.751-32.906H0v13.818l9.333-7.846v-5.972h9.75v9.368l-9.472 7.963h2.438l7.034 5.914V2.166L12.049 8.08h-21.8z" clip-path="url(#Z)" style="fill:#ec008c;fill-opacity:1;fill-rule:nonzero;stroke:none" transform="matrix(1.33333 0 0 -1.33333 369.8 455.12)"/><path d="M0 0h28.835v8.08H10.794v8.666h10.331v7.494H10.794v8.666h18.041v8.08H0Z" clip-path="url(#aa)" style="fill:#ec008c;fill-opacity:1;fill-rule:nonzero;stroke:none" transform="matrix(1.33333 0 0 -1.33333 356.799 561.447)"/><path d="M0 0h9.751v29.393l9.333-7.847V0h9.751v40.986h-9.751V33.14l-9.333 7.846H0Z" clip-path="url(#ab)" style="fill:#ec008c;fill-opacity:1;fill-rule:nonzero;stroke:none" transform="matrix(1.33333 0 0 -1.33333 356.799 623.9)"/><path d="m0 0 7.034-5.914H21.8L28.835 0v7.612h-9.752V3.395l-1.462-1.229h-6.408L9.75 3.395v22.367l1.463 1.23h6.408l1.462-1.23v-4.216h9.752v7.612L21.8 35.072H7.034L0 29.158Z" clip-path="url(#ac)" style="fill:#ec008c;fill-opacity:1;fill-rule:nonzero;stroke:none" transform="matrix(1.33333 0 0 -1.33333 356.799 678.466)"/><path d="M0 0h28.835v8.08H10.794v8.666h10.331v7.494H10.794v8.666h18.041v8.08H0Z" clip-path="url(#ad)" style="fill:#ec008c;fill-opacity:1;fill-rule:nonzero;stroke:none" transform="matrix(1.33333 0 0 -1.33333 356.799 748.804)"/><path d="M154.424 591.215h-3.672v-20h3.672z" clip-path="url(#ae)" style="fill:#ec008c;fill-opacity:1;fill-rule:nonzero;stroke:none" transform="matrix(1.33333 0 0 -1.33333 0 818.436)"/><path d="M0 0v-14.25l-8.156 8.155-8.155-8.156V0l8.155 8.155zm0-33.402-8.156 8.155-8.155-8.155v14.251l8.155 8.155L0-19.151Zm0-19.151-8.156 8.155-8.155-8.155v14.25l8.155 8.156L0-38.303Zm0-29.152-8.156 8.156-8.155-8.156v14.251l8.155 8.155L0-67.454Zm0-19.151-8.156 8.155-8.155-8.155v14.251l8.155 8.155L0-86.605Zm0-19.151-8.156 8.155-8.155-8.155v14.25l8.155 8.156L0-105.757zm-7.774 495.98H-156.73l-2.915 2.915h-6.128v-20h147.618v-528.603h-119.178l20-20H1.845v6.499h-94.583v7H1.845v244.7l-3.01 3.01V220.45l3.01 3.01v10.187h-10v6h10v4.265h-10v6h10v4.264h-10v6h10v4.265h-10v6h10v108.447h-6.703z" clip-path="url(#af)" style="fill:#ec008c;fill-opacity:1;fill-rule:nonzero;stroke:none" transform="matrix(1.33333 0 0 -1.33333 431.834 535.333)"/><path d="m0 0 20-20h10.101l-20 20z" clip-path="url(#ag)" style="fill:#ec008c;fill-opacity:1;fill-rule:nonzero;stroke:none" transform="matrix(1.33333 0 0 -1.33333 124.816 761.62)"/><path d="m0 0 20-20h10.101l-20 20z" clip-path="url(#ah)" style="fill:#ec008c;fill-opacity:1;fill-rule:nonzero;stroke:none" transform="matrix(1.33333 0 0 -1.33333 149.597 761.62)"/><path d="m0 0 20-20h10.101l-20 20z" clip-path="url(#ai)" style="fill:#ec008c;fill-opacity:1;fill-rule:nonzero;stroke:none" transform="matrix(1.33333 0 0 -1.33333 223.942 761.62)"/><path d="m0 0 20-20h10.101l-20 20z" clip-path="url(#aj)" style="fill:#ec008c;fill-opacity:1;fill-rule:nonzero;stroke:none" transform="matrix(1.33333 0 0 -1.33333 199.16 761.62)"/><path d="m0 0 20-20h10.101l-20 20z" clip-path="url(#ak)" style="fill:#ec008c;fill-opacity:1;fill-rule:nonzero;stroke:none" transform="matrix(1.33333 0 0 -1.33333 174.379 761.62)"/><path d="M0 0a7.883 7.883 0 1 0 0 15.766A7.883 7.883 0 0 0 0 0m0-20.647A7.883 7.883 0 1 0 0-4.881a7.883 7.883 0 0 0 0-15.766m0-20.647a7.883 7.883 0 1 0 0 15.765 7.882 7.882 0 1 0 0-15.765m0-20.647a7.882 7.882 0 1 0 0 15.765 7.883 7.883 0 1 0 0-15.765m10-71.049v457.987l71.516 70.617h.544v6h-3.007L4 327.504v-46.565h-8v49.909l79.769 78.766h6.291v6h-8.754L-10 333.355V158.019l4.856-4.856V48.836L-10 43.979V-152.99h50.552l-20 20z" clip-path="url(#al)" style="fill:#ec008c;fill-opacity:1;fill-rule:nonzero;stroke:none" transform="matrix(1.33333 0 0 -1.33333 86.1 584.3)"/><path d="M0 0h-3.5v-235.209l3.5 3.5z" clip-path="url(#am)" style="fill:#ec008c;fill-opacity:1;fill-rule:nonzero;stroke:none" transform="matrix(1.33333 0 0 -1.33333 343.306 165.93)"/><path d="m0 0 48.096 48.096-9.461 9.462 4.242 4.243 9.462-9.462 3.57 3.57-9.462 9.462 4.243 4.242 9.462-9.461 3.57 3.57-9.462 9.461 4.243 4.243 9.461-9.462 3.57 3.57-9.461 9.462 4.242 4.243 9.462-9.462 3.57 3.57-9.462 9.462 4.243 4.242 9.462-9.461 11.473 11.473v240.208h-4.814l-6.686-6.686V111.848L-19.971 8.314l-.327-91.683h-41.239v-20H-.368z" clip-path="url(#an)" style="fill:#ec008c;fill-opacity:1;fill-rule:nonzero;stroke:none" transform="matrix(1.33333 0 0 -1.33333 205.223 612.96)"/><path d="M79.779 53.238h7v15h-7z" clip-path="url(#ao)" style="fill:#ec008c;fill-opacity:1;fill-rule:nonzero;stroke:none" transform="matrix(1.33333 0 0 -1.33333 0 818.436)"/><path d="M0 0v14.125h-8V3.314l-7.657-7.657h-10.81v-8h14.124z" clip-path="url(#ap)" style="fill:#ec008c;fill-opacity:1;fill-rule:nonzero;stroke:none" transform="matrix(1.33333 0 0 -1.33333 343.018 137.672)"/><path d="M0 0v-14.125h8v10.811l7.657 7.657h10.811v8H12.343Z" clip-path="url(#aq)" style="fill:#ec008c;fill-opacity:1;fill-rule:nonzero;stroke:none" transform="matrix(1.33333 0 0 -1.33333 259.105 86.672)"/><path d="m0 0 12.343-12.343h14.125v8H15.657L8 3.314v10.811H0Z" clip-path="url(#ar)" style="fill:#ec008c;fill-opacity:1;fill-rule:nonzero;stroke:none" transform="matrix(1.33333 0 0 -1.33333 259.105 137.672)"/><path d="M0 0v-8h10.81l7.657-7.657v-10.811h8v14.125L14.124 0Z" clip-path="url(#as)" style="fill:#ec008c;fill-opacity:1;fill-rule:nonzero;stroke:none" transform="matrix(1.33333 0 0 -1.33333 307.729 70.215)"/><path d="m0 0-5.656-5.657L5.409-16.722-5.656-27.787 0-33.444l11.065 11.065 11.066-11.065 5.656 5.657-11.065 11.065L27.787-5.657 22.131 0 11.065-11.065Z" clip-path="url(#at)" style="fill:#ec008c;fill-opacity:1;fill-rule:nonzero;stroke:none" transform="matrix(1.33333 0 0 -1.33333 286.308 89.875)"/><path d="M19.817 492.453h29.806v6.516H19.817Z" clip-path="url(#au)" style="fill:#ec008c;fill-opacity:1;fill-rule:nonzero;stroke:none" transform="matrix(1.33333 0 0 -1.33333 0 818.436)"/><path d="M19.817 480.825h29.806v5.385H19.817Z" clip-path="url(#av)" style="fill:#ec008c;fill-opacity:1;fill-rule:nonzero;stroke:none" transform="matrix(1.33333 0 0 -1.33333 0 818.436)"/><path d="M19.817 468.69h29.806v6.976H19.817Z" clip-path="url(#aw)" style="fill:#ec008c;fill-opacity:1;fill-rule:nonzero;stroke:none" transform="matrix(1.33333 0 0 -1.33333 0 818.436)"/><path d="M19.817 458.458h29.806v3.548H19.817Z" clip-path="url(#ax)" style="fill:#ec008c;fill-opacity:1;fill-rule:nonzero;stroke:none" transform="matrix(1.33333 0 0 -1.33333 0 818.436)"/><path d="M19.817 450.398h29.806v4.661H19.817Z" clip-path="url(#ay)" style="fill:#ec008c;fill-opacity:1;fill-rule:nonzero;stroke:none" transform="matrix(1.33333 0 0 -1.33333 0 818.436)"/><path d="M19.817 439.185h29.806v6.747H19.817Z" clip-path="url(#az)" style="fill:#ec008c;fill-opacity:1;fill-rule:nonzero;stroke:none" transform="matrix(1.33333 0 0 -1.33333 0 818.436)"/><path d="M19.817 428.385h29.806v4.335H19.817Z" clip-path="url(#aA)" style="fill:#ec008c;fill-opacity:1;fill-rule:nonzero;stroke:none" transform="matrix(1.33333 0 0 -1.33333 0 818.436)"/><path d="M19.817 419.127h29.806v5.105H19.817Z" clip-path="url(#aB)" style="fill:#ec008c;fill-opacity:1;fill-rule:nonzero;stroke:none" transform="matrix(1.33333 0 0 -1.33333 0 818.436)"/><path d="M19.817 411.034h29.806v3.202H19.817Z" clip-path="url(#aC)" style="fill:#ec008c;fill-opacity:1;fill-rule:nonzero;stroke:none" transform="matrix(1.33333 0 0 -1.33333 0 818.436)"/><path d="M19.817 395.412h29.806v12.554H19.817Z" clip-path="url(#aD)" style="fill:#ec008c;fill-opacity:1;fill-rule:nonzero;stroke:none" transform="matrix(1.33333 0 0 -1.33333 0 818.436)"/><path d="m0 0-29.63-19.846v-1.287H0v-12.68h-40.721v20.49l29.63 19.755v9.464l-1.664 1.929h-15.21l-1.665-1.929V9.28h-11.091v11.945l8.002 9.28h24.717L0 21.225Zm2.999 22.339-9.626 11.165h-27.467l-9.626-11.165V6.282h17.089v8.499l12.503.045.038-6.789-29.63-19.755v-25.093H2.999v18.677h-24.684L2.999-1.601Z" clip-path="url(#aE)" style="fill:#ec008c;fill-opacity:1;fill-rule:nonzero;stroke:none" transform="matrix(1.33333 0 0 -1.33333 272.34 701.703)"/><path d="m0 0-.039 7.556 12.502.045.039-7.556Zm-1.373 10.6-1.665-1.93v-9.739l1.665-1.93h15.21l1.664 1.93V8.67l-1.664 1.93z" clip-path="url(#aF)" style="fill:#ec008c;fill-opacity:1;fill-rule:nonzero;stroke:none" transform="matrix(1.33333 0 0 -1.33333 303.852 725.882)"/><path d="m0 0-.039 7.556 12.503.044.038-7.555Zm-1.373 10.599L-3.038 8.67v-9.74l1.665-1.929h15.21l1.664 1.929v9.74l-1.664 1.929z" clip-path="url(#aG)" style="fill:#ec008c;fill-opacity:1;fill-rule:nonzero;stroke:none" transform="matrix(1.33333 0 0 -1.33333 303.852 692.07)"/><path d="m0 0-4.04-4.686L0-9.372v-18.192l-8.002-9.28h-24.717l-8.002 9.28v18.192l4.041 4.686L-40.721 0v18.193l8.002 9.28h24.717L0 18.193Zm2.999 19.307-9.626 11.165h-27.467l-9.625-11.165V-1.115l3.079-3.571-3.079-3.572v-20.42l9.625-11.165h27.467l9.626 11.165v20.42l-3.08 3.572 3.08 3.571z" clip-path="url(#aH)" style="fill:#ec008c;fill-opacity:1;fill-rule:nonzero;stroke:none" transform="matrix(1.33333 0 0 -1.33333 339.308 697.66)"/></svg>
